<svg width="463" height="274" viewBox="0 0 463 274" fill="none" xmlns="http://www.w3.org/2000/svg">
<path d="M96.7796 -31.9396C95.5896 -32.2296 92.6496 -32.9196 88.4996 -33.8696C72.6696 -26.0596 56.7296 -18.3496 41.5596 -9.45963C57.9796 -5.21963 77.0696 0.850368 95.0196 7.72037C111.57 -0.659634 128.18 -9.09963 144.91 -17.2496C129.14 -23.0396 112.26 -28.1896 96.7896 -31.9396H96.7796Z" fill="#FFA500"/>
<path d="M95.0098 7.71999C104.25 11.26 113.19 15 121.31 18.82C139.13 10.93 156.88 2.76 174.97 -4.68C166.02 -9.01 155.72 -13.28 144.9 -17.25C128.17 -9.11 111.56 -0.660007 95.0098 7.71999Z" fill="#FFA500"/>
<path d="M187.43 1.91031C183.69 -0.279691 179.5 -2.48969 174.97 -4.67969C156.88 2.76031 139.13 10.9303 121.31 18.8203C129.8 22.8203 137.38 26.9003 143.47 30.9003C161.99 23.8203 180.23 15.9403 199.1 9.89031C195.33 6.85031 191.33 4.19031 187.43 1.91031Z" fill="#FFA500"/>
<path d="M217.57 37.9301C215.79 26.5101 208.1 17.1401 199.1 9.89014C180.24 15.9301 161.99 23.8101 143.47 30.9001C152.76 37.0001 158.58 42.9201 158.82 48.0901C159.58 64.8301 147.89 72.6401 142.27 76.6701C130.25 85.3001 117.12 90.4801 104.67 96.3301C138.86 89.5001 172.97 81.9601 206.03 71.6401C214.69 63.2901 219.82 52.3601 217.57 37.9301Z" fill="#FFA500"/>
<path d="M157.8 94.5604C173.56 90.4304 193.5 83.7304 206.03 71.6504C172.97 81.9704 138.86 89.5104 104.67 96.3404C88.7699 103.81 73.9599 112.39 63.9399 130.69C61.5999 134.96 59.7699 139.38 58.3799 143.9C69.4499 138.82 80.6199 134.01 91.8399 129.36C105.26 106.96 133.5 100.93 157.8 94.5704V94.5604Z" fill="#FFA500"/>
<path d="M88.3999 136.23C89.3999 133.77 90.5499 131.49 91.8399 129.34C80.6199 133.99 69.4499 138.8 58.3799 143.88C55.0499 154.7 54.3599 166.07 55.6899 177.29C67.4299 171.96 79.2999 166.74 91.1599 161.41C86.6899 153.03 85.0899 144.39 88.3999 136.22V136.23Z" fill="#FFA500"/>
<path d="M55.6904 177.3C56.1604 181.25 56.8804 185.18 57.8304 189.07C70.8604 182.85 84.0204 176.73 97.1004 170.47C94.8004 167.52 92.8004 164.49 91.1704 161.43C79.3104 166.75 67.4404 171.98 55.7004 177.31L55.6904 177.3Z" fill="#FFA500"/>
<path d="M97.1001 170.47C84.0201 176.74 70.8601 182.85 57.8301 189.07C59.6301 196.4 62.2301 203.57 65.4801 210.37C65.7301 210.89 66.0101 211.39 66.2801 211.91C82.9601 204.16 99.8201 196.86 116.67 189.59C109.42 183.91 102.49 177.38 97.1101 170.47H97.1001Z" fill="#FFA500"/>
<path d="M116.66 189.59C99.8095 196.86 82.9495 204.16 66.2695 211.91C70.5495 220.32 76.3295 227.35 83.1695 233.3C101.3 223.27 119.07 212.94 137.34 203.28C130.91 199.77 123.64 195.07 116.65 189.58L116.66 189.59Z" fill="#FFA500"/>
<path d="M290.6 236.43C286.73 234.49 282.89 232.69 279.07 231C278.25 231.99 277.42 232.97 276.58 233.94C263.63 246.21 250.68 258.02 238.99 270.95C250.02 272.19 260.96 273.76 271.65 275.99C283.51 266.63 295.13 256.92 306.84 247.23C301.97 243.11 296.63 239.44 290.6 236.43Z" fill="#FFA500"/>
<path d="M375.5 322.21C345.17 303.58 332.58 269.02 306.83 247.24C295.12 256.92 283.5 266.63 271.64 276C292.4 280.35 312.18 287.25 329.68 299.31C350.64 313.76 366.49 334.55 386.93 349.72C395.14 355.81 404.08 360.87 413.48 364.86C425.38 353.8 437.53 343.06 449.84 332.46C422.62 335.65 394.56 333.93 375.49 322.21H375.5Z" fill="#FFA500"/>
<path d="M250.61 221.03C239.82 218.33 228.7 216.83 216.73 216.84C189.74 216.86 161.48 216.36 137.75 203.5C137.62 203.43 137.48 203.35 137.35 203.28C119.08 212.93 101.31 223.27 83.1797 233.3C110.31 256.86 154.54 263 192.03 266.59C194.76 266.85 197.5 267.1 200.25 267.34C216.05 250.98 234.19 236.68 250.62 221.03H250.61Z" fill="#FFA500"/>
<path d="M250.61 221.03C234.18 236.69 216.04 250.98 200.24 267.34C213.07 268.48 226.08 269.5 238.98 270.95C250.67 258.02 263.62 246.21 276.57 233.94C277.42 232.97 278.24 231.99 279.06 231C269.62 226.82 260.25 223.44 250.61 221.03Z" fill="#FFA500"/>
<path d="M353.67 3.08022C356.807 3.08022 359.35 0.537192 359.35 -2.59978C359.35 -5.73676 356.807 -8.27979 353.67 -8.27979C350.533 -8.27979 347.99 -5.73676 347.99 -2.59978C347.99 0.537192 350.533 3.08022 353.67 3.08022Z" fill="white"/>
<path d="M320.021 74.6901C325.971 68.4401 329.141 58.8501 325.731 50.9201C322.321 42.9901 311.041 38.8601 304.381 44.3501C298.611 49.1001 298.621 57.8501 299.741 65.2301C300.811 72.2901 301.671 78.9601 299.591 85.9301C306.761 85.0201 314.921 80.0501 320.031 74.6801L320.021 74.6901Z" fill="white"/>
<path d="M354.181 125.24C360.181 125.74 366.431 127.17 370.851 131.26C375.271 135.35 377.061 142.75 373.381 147.52C370.951 150.68 366.721 152.02 362.731 151.93C358.741 151.84 354.411 151.47 351.141 149.19C329.041 133.79 314.121 134.26 314.121 134.26C324.501 126.17 341.361 124.17 354.171 125.25L354.181 125.24Z" fill="white"/>
<path d="M344.201 37.9601C343.351 28.8701 340.901 19.8901 341.181 10.7701C341.461 1.64009 345.221 -8.17992 353.381 -12.2799C364.731 -17.9999 379.261 -9.27991 383.661 2.64009C388.061 14.5601 384.901 27.9301 380.121 39.7101C367.981 69.6201 353.381 90.6601 302.921 116.68C302.921 116.68 326.091 96.9301 333.511 84.2001C341.601 70.3201 345.711 54.0201 344.201 37.9601Z" fill="white"/>
<path d="M372.971 91.0899C380.981 86.5099 390.351 83.7299 399.471 85.1299C408.591 86.5299 417.271 92.6999 419.991 101.51C422.711 110.33 418.061 121.26 409.251 124.01C402.341 126.17 394.841 123.26 388.821 119.24C382.801 115.22 377.521 110.05 371.031 106.87C365.391 104.11 358.871 103.29 353.131 106.07C359.751 101.13 365.681 95.2498 372.971 91.0798V91.0899Z" fill="white"/>
<path d="M400.101 48.51C403.501 46.27 407.501 44.47 411.531 45.06C415.561 45.65 419.281 49.48 418.491 53.47C417.771 57.09 414.021 59.14 410.671 60.69C403.311 64.12 384.081 70.66 384.081 70.66C384.081 70.66 393.011 53.16 400.101 48.5V48.51Z" fill="white"/>
<path d="M437.361 73.9201C436.881 76.8701 434.101 78.8601 431.151 78.3801C428.201 77.9001 426.211 75.1201 426.691 72.1701C427.171 69.2201 429.951 67.2301 432.901 67.7101C435.851 68.1901 437.841 70.9701 437.361 73.9201Z" fill="white"/>
<path d="M412.211 14.7598C411.761 17.4798 409.201 19.3198 406.481 18.8798C403.761 18.4298 401.921 15.8698 402.361 13.1498C402.811 10.4298 405.371 8.58985 408.091 9.02985C410.811 9.47985 412.651 12.0398 412.211 14.7598Z" fill="white"/>
<path d="M404.11 141.2C403.55 144.59 400.351 146.89 396.961 146.34C393.571 145.78 391.271 142.58 391.821 139.19C392.381 135.8 395.581 133.5 398.971 134.05C402.361 134.61 404.66 137.81 404.11 141.2Z" fill="white"/>
<path d="M525.531 42.9802C527.891 50.5202 521.401 58.6902 513.691 60.4302C505.981 62.1602 497.951 59.0002 491.411 54.5802C484.861 50.1602 479.231 44.4802 472.571 40.2102C465.921 35.9502 457.671 33.1602 450.111 35.4302C441.331 38.0702 435.441 48.0102 437.351 56.9802C440.181 70.3202 456.321 76.9302 460.961 89.7502C465.311 101.78 455.981 116.66 443.261 117.98C432.721 119.07 423.201 112.36 414.111 106.92C405.021 101.48 393.311 97.0802 384.231 102.53C375.941 107.5 374.051 120.48 380.571 127.61L375.641 137.06C369.121 129.93 371.011 116.95 379.301 111.97C388.381 106.52 400.091 110.92 409.181 116.36C418.271 121.8 427.791 128.51 438.331 127.42C451.051 126.1 460.391 111.22 456.031 99.1902C451.391 86.3702 435.251 79.7602 432.421 66.4202C430.521 57.4502 436.401 47.5102 445.181 44.8702C452.751 42.5902 460.991 45.3902 467.641 49.6502C474.291 53.9102 479.931 59.6002 486.481 64.0202C493.031 68.4402 501.061 71.6102 508.761 69.8702C516.471 68.1402 522.961 59.9602 520.601 52.4202L525.531 42.9702V42.9802Z" fill="#FFA500"/>
<path d="M288.061 -3.12988C284.261 -0.189883 284.651 6.15012 287.901 9.70012C291.141 13.2501 296.251 14.4601 301.061 14.5401C305.871 14.6101 310.661 13.7401 315.461 13.9201C320.261 14.1101 325.351 15.5801 328.331 19.3501C331.791 23.7301 331.271 30.7301 327.201 34.5501C321.141 40.2201 310.791 37.9101 304.011 42.6901C297.651 47.1801 297.131 57.8601 303.021 62.9401C307.901 67.1501 314.991 67.1201 321.421 67.5601C327.851 68.0001 335.231 69.8901 337.861 75.7701C340.261 81.1401 336.691 88.2701 330.961 89.5701L330.131 96.0001C335.871 94.7101 339.441 87.5701 337.031 82.2001C334.391 76.3201 327.021 74.4401 320.591 73.9901C314.161 73.5401 307.071 73.5801 302.191 69.3701C296.301 64.2801 296.821 53.6101 303.181 49.1201C309.961 44.3401 320.311 46.6501 326.371 40.9801C330.441 37.1601 330.961 30.1601 327.501 25.7801C324.521 22.0101 319.431 20.5301 314.631 20.3501C309.831 20.1601 305.031 21.0401 300.231 20.9701C295.421 20.9001 290.311 19.6801 287.071 16.1301C283.831 12.5801 283.431 6.24012 287.231 3.30012L288.061 -3.12988Z" fill="#FFA500"/>
<path d="M364.16 63.72C375.55 65.03 387.37 57.75 391.34 47C395.3 36.24 391.03 23.04 381.51 16.64C375.87 12.85 368.4 11.45 362.1 14.01C355.8 16.57 351.25 23.48 352.37 30.18C353.3 35.68 357.79 40.18 363.06 42.01C368.33 43.83 374.22 43.24 379.45 41.31C391.71 36.79 400.76 24.6 401.53 11.55C402.3 -1.50001 398.68 -32.51 387.04 -38.45C382.24 -40.9 376.69 -42.18 371.41 -41.11C366.13 -40.03 361.25 -36.32 359.64 -31.18C356.84 -22.24 365.34 -12.68 374.67 -11.8C384.27 -10.89 393.78 -17.31 397.56 -26.18C401.34 -35.05 399.74 -45.7 394.47 -53.78C389.2 -61.86 362.8 -91.14 353.58 -93.94L351.32 -102C360.54 -99.2 386.95 -69.91 392.21 -61.84C397.47 -53.77 399.08 -43.11 395.3 -34.24C391.52 -25.37 382 -18.95 372.41 -19.86C363.08 -20.75 354.58 -30.3 357.38 -39.24C358.99 -44.38 363.87 -48.1 369.15 -49.17C374.43 -50.25 379.98 -48.96 384.78 -46.51C396.42 -40.57 400.04 -9.55 399.27 3.49C398.5 16.53 389.45 28.73 377.19 33.25C371.96 35.18 366.07 35.77 360.8 33.95C355.53 32.13 351.04 27.62 350.11 22.12C348.98 15.42 353.54 8.5 359.84 5.95C366.14 3.39999 373.61 4.78999 379.25 8.57999C388.77 14.97 393.04 28.18 389.08 38.94C385.12 49.7 373.29 56.97 361.9 55.66L364.16 63.72Z" fill="#FFA500"/>
<path d="M324.7 114.79L318.97 111.26L321.58 117.46L317.22 112.34L317.78 119.04L315.22 112.82L313.69 119.37L313.17 112.66L309.68 118.42L311.27 111.88L306.17 116.28L309.7 110.55L303.5 113.16L308.63 108.79L301.92 109.36L308.14 106.8L301.59 105.26L308.3 104.75L302.54 101.26L309.08 102.84L304.68 97.7502L310.42 101.28L307.8 95.0702L312.17 100.2L311.6 93.4902L314.17 99.7202L315.7 93.1602L316.22 99.8702L319.7 94.1102L318.12 100.66L323.21 96.2602L319.68 101.99L325.89 99.3802L320.76 103.74L327.47 103.18L321.24 105.74L327.8 107.28L321.09 107.79L326.85 111.28L320.3 109.69L324.7 114.79Z" fill="#FFA500"/>
<path d="M470.911 7.5498C469.991 11.5798 465.971 14.0998 461.931 13.1798C457.901 12.2598 455.381 8.2398 456.301 4.1998C457.221 0.169799 461.241 -2.3502 465.281 -1.4302C469.311 -0.510198 471.831 3.5098 470.911 7.5498Z" fill="#FFA500"/>
<path d="M414.28 152.8C415.82 155.25 415.08 158.49 412.62 160.03C410.17 161.57 406.93 160.83 405.39 158.37C403.85 155.92 404.59 152.68 407.05 151.14C409.5 149.6 412.74 150.34 414.28 152.8Z" fill="#FFA500"/>
<path d="M360.24 100.02C361.78 102.47 361.04 105.71 358.58 107.25C356.13 108.79 352.89 108.05 351.35 105.59C349.81 103.14 350.55 99.8998 353.01 98.3598C355.46 96.8198 358.7 97.5598 360.24 100.02Z" fill="#FFA500"/>
<path d="M434.641 138.45L470.081 143.82L462.901 156.84L434.641 138.45Z" fill="#FFA500"/>
<path d="M375.13 87.2198L400.51 66.0898L408.57 75.6398L375.13 87.2198Z" fill="#FFA500"/>
<path d="M286.35 65.7901L265.78 39.9501L275.5 32.1001L286.35 65.7901Z" fill="#FFA500"/>
<path d="M411.891 20.9799L423.251 -2.06006L432.001 2.17995L411.891 20.9799Z" fill="#FFA500"/>
<path d="M316.82 139.31L345.72 142.11L344.73 153.06L316.82 139.31Z" fill="#FFA500"/>
<path opacity="0.96" d="M296.63 117.93C295.41 116.47 292.95 113.02 291.24 110.59C288.86 107.21 284.38 105.98 280.67 107.8C280.61 107.83 280.56 107.86 280.5 107.88C274.08 111.13 275.36 117.35 275.36 117.35C247.04 140.83 226.03 148.46 191.44 170.56C182.03 176.58 161.72 173.71 151.66 178.55C137.84 185.21 122.15 199.06 110.49 209.01C87.5797 228.56 64.7197 243.66 41.8097 263.21C37.3797 266.99 32.7897 270.99 30.6297 276.4C28.0997 282.73 29.9797 293.9 33.0597 299.98C36.1497 306.06 42.8597 317.07 47.4897 322.07C51.4397 326.34 59.0497 333.48 63.8397 337.36C69.1397 341.65 79.6697 345.82 86.3897 344.67C92.1297 343.69 96.9997 340.04 101.62 336.49C125.53 318.18 145.07 298.98 168.98 280.66C181.16 271.33 197.98 258.89 207.38 246.77C214.23 237.94 215.66 217.49 223.52 209.54C252.36 180.34 264.22 161.38 293.1 138.6C293.1 138.6 299.26 139.09 303.43 135.55C304.15 134.94 304.62 134.09 304.92 133.16C305.94 130.02 304.94 126.57 302.62 124.23C300.55 122.14 297.8 119.32 296.63 117.93Z" fill="#EF383A"/>
<path opacity="0.58" d="M302.61 124.22C296.09 136.23 284.79 145.91 271.03 149.05C257.36 152.33 243.73 152.2 230.87 160.61C220.58 167.33 220.45 180.97 213.54 191.13C193.67 219.92 136.37 208.92 119.24 250.75C113.29 265.29 118.95 281.43 112.02 294.15C101.61 313.65 71.79 312.52 58.33 294.5C50.38 282.92 49.08 268.29 51.99 254.79C48.59 257.52 45.2 260.31 41.8 263.21C37.37 266.99 32.78 270.99 30.62 276.4C28.09 282.73 29.97 293.9 33.05 299.98C36.14 306.06 42.85 317.07 47.48 322.07C51.43 326.34 59.04 333.48 63.83 337.36C69.13 341.65 79.66 345.82 86.38 344.67C92.1199 343.69 96.99 340.04 101.61 336.49C125.52 318.18 145.06 298.98 168.97 280.66C181.15 271.33 197.97 258.89 207.37 246.77C214.22 237.94 215.65 217.49 223.51 209.54C252.35 180.34 264.21 161.38 293.09 138.6C293.09 138.6 299.25 139.09 303.42 135.55C304.14 134.94 304.61 134.09 304.91 133.16C305.93 130.02 304.93 126.57 302.61 124.23V124.22Z" fill="#FFD2D3"/>
<path d="M43.2598 283.74C46.6498 273.5 55.3498 266.09 63.6698 259.22C81.2198 244.72 98.7698 230.23 116.32 215.73C129.71 204.67 143.52 192.11 160 186.66C171.68 182.8 188.23 183.34 198.28 176.25C240.83 146.25 271.47 130.27 276.71 121.35C277.06 120.75 277.92 120.74 278.3 121.32C279.22 122.73 280.85 124.91 283.24 127C283.83 127.51 283.47 128.45 282.7 128.46C272.79 128.68 256.41 143.79 244.18 153.72C233.12 162.71 216.89 172.19 203.61 183.16C191.85 192.88 173.99 190.38 159.55 195.31C138.87 202.37 121.98 219.88 105.73 234.48C89.9898 248.63 74.1598 260.34 61.3898 277.22C58.4098 281.16 55.5298 285.28 53.4798 289.8C52.3998 292.17 51.4798 300.57 49.3298 301.69C41.0398 306.02 41.9898 287.59 43.2698 283.73L43.2598 283.74Z" fill="#B10002"/>
<path opacity="0.96" d="M284.94 139.31C284.94 139.31 284.72 136.78 281.26 139.19C257.84 155.51 228.94 179.86 210.15 201.27C200.92 211.79 192.76 230.08 183.72 240.77C159.16 269.83 133.28 289.23 102.58 311.7C96.7499 315.97 85.6999 320.24 78.9099 322.71C72.1199 325.17 64.2499 322.16 57.9199 318.68C61.9499 330.54 75.5399 338.82 87.7099 335.87C99.8799 332.92 150.87 288.93 165.92 275.43C176.55 265.9 189.76 257.2 198.94 246.27C206.94 236.73 209.71 216.63 217.21 206.7C236.95 180.54 260.66 161.33 284.94 139.32V139.31Z" fill="#B10002"/>
<path d="M284.28 112.47C285.71 113.91 286.93 115.34 288.16 116.74L291.78 120.89L295.44 125C296.68 126.39 297.95 127.78 299.19 129.39C297.19 128.99 295.38 128.12 293.71 127.04C292.05 125.95 290.54 124.63 289.22 123.14C287.91 121.65 286.79 119.98 285.92 118.19C285.07 116.4 284.43 114.49 284.28 112.46V112.47Z" fill="#B10002"/>
</svg>
