<svg width="897" height="274" viewBox="0 0 897 274" fill="none" xmlns="http://www.w3.org/2000/svg">
<g clip-path="url(#clip0_5195_15449)">
<rect width="897" height="274" rx="24" fill="#C70E10"/>
<path d="M36.85 123H31.921L26.434 102.23H30.154L33.533 115.374L34.463 119.776H34.711L35.827 115.374L40.012 102.23H44.879L49.343 115.374L50.521 119.776H50.769L51.637 115.374L54.737 102.23H58.395L53.187 123H48.258L44.073 110.91L42.554 105.578H42.275L40.787 110.91L36.85 123ZM67.4964 123.31C62.4434 123.31 59.1264 120.458 59.1264 115.312C59.1264 110.507 62.4124 107.283 67.4344 107.283C72.2084 107.283 75.4634 109.918 75.4634 114.599C75.4634 115.157 75.4324 115.591 75.3394 116.056H62.2574C62.3814 119.032 63.8384 120.613 67.4034 120.613C70.6274 120.613 71.9604 119.559 71.9604 117.73V117.482H75.3084V117.761C75.3084 121.047 72.0844 123.31 67.4964 123.31ZM67.3724 109.918C63.9624 109.918 62.4744 111.437 62.2884 114.196H72.3014V114.134C72.3014 111.282 70.6584 109.918 67.3724 109.918ZM79.273 110.104H77.32L76.576 106.105V102.23H80.017V106.105L79.273 110.104ZM85.0741 123H81.7261V107.593H84.7951V111.747H85.0121C85.4771 109.267 87.1511 107.283 90.3131 107.283C93.8161 107.283 95.3351 109.794 95.3351 112.708V114.723H92.0181V113.359C92.0181 111.158 91.0881 110.135 88.7941 110.135C86.1591 110.135 85.0741 111.592 85.0741 114.351V123ZM104.568 123.31C99.515 123.31 96.198 120.458 96.198 115.312C96.198 110.507 99.484 107.283 104.506 107.283C109.28 107.283 112.535 109.918 112.535 114.599C112.535 115.157 112.504 115.591 112.411 116.056H99.329C99.453 119.032 100.91 120.613 104.475 120.613C107.699 120.613 109.032 119.559 109.032 117.73V117.482H112.38V117.761C112.38 121.047 109.156 123.31 104.568 123.31ZM104.444 109.918C101.034 109.918 99.546 111.437 99.36 114.196H109.373V114.134C109.373 111.282 107.73 109.918 104.444 109.918ZM135.252 123H119.101V102.23H122.449V119.993H135.252V123ZM140.144 105.795H136.796V102.23H140.144V105.795ZM140.144 123H136.796V107.593H140.144V123ZM152.513 123H148.421L141.229 107.593H144.918L150.405 119.745H150.653L156.14 107.593H159.767L152.513 123ZM168.615 123.31C163.562 123.31 160.245 120.458 160.245 115.312C160.245 110.507 163.531 107.283 168.553 107.283C173.327 107.283 176.582 109.918 176.582 114.599C176.582 115.157 176.551 115.591 176.458 116.056H163.376C163.5 119.032 164.957 120.613 168.522 120.613C171.746 120.613 173.079 119.559 173.079 117.73V117.482H176.427V117.761C176.427 121.047 173.203 123.31 168.615 123.31ZM168.491 109.918C165.081 109.918 163.593 111.437 163.407 114.196H173.42V114.134C173.42 111.282 171.777 109.918 168.491 109.918ZM182.127 116.18H178.872C178.872 113.173 178.376 106.787 178.376 104.4V102.23H182.623V104.4C182.623 106.787 182.127 113.204 182.127 116.18ZM182.375 123H178.593V118.412H182.375V123ZM188.152 125.17H219.152V94.17H188.152V125.17Z" fill="white"/>
<path d="M31.648 155H26.992V144.28H31.648C34.864 144.28 36.912 146.36 36.912 149.64C36.912 152.92 34.864 155 31.648 155ZM31.648 145.32H28.144V153.96H31.648C34.368 153.96 35.712 152.552 35.712 149.64C35.712 146.728 34.368 145.32 31.648 145.32ZM39.5648 146.088H38.4288V144.28H39.5648V146.088ZM39.5648 155H38.4288V147.096H39.5648V155ZM44.9476 155.16C42.5156 155.16 41.1076 154.184 41.1076 152.36V152.328H42.2436V152.424C42.2436 153.752 43.0276 154.216 44.9636 154.216C46.7396 154.216 47.3476 153.8 47.3476 152.888C47.3476 152.056 46.8516 151.784 45.5396 151.576L43.4276 151.272C41.9876 151.08 41.0756 150.52 41.0756 149.208C41.0756 147.816 42.4036 146.936 44.5796 146.936C46.8516 146.936 48.3236 147.896 48.3236 149.752V149.784H47.1876V149.704C47.1876 148.52 46.5636 147.88 44.5476 147.88C42.8836 147.88 42.1956 148.28 42.1956 149.224C42.1956 150.04 42.6116 150.328 43.9236 150.52L45.8596 150.792C47.5556 151.032 48.4676 151.608 48.4676 152.888C48.4676 154.376 46.9956 155.16 44.9476 155.16ZM53.736 155.16C51.208 155.16 49.56 153.448 49.56 151.048C49.56 148.648 51.208 146.936 53.736 146.936C55.944 146.936 57.672 148.248 57.672 150.152V150.28H56.552V150.184C56.552 148.776 55.528 147.976 53.72 147.976C51.608 147.976 50.696 149.112 50.696 151.048C50.696 152.984 51.608 154.12 53.72 154.12C55.528 154.12 56.552 153.32 56.552 151.912V151.816H57.672V151.944C57.672 153.848 55.944 155.16 53.736 155.16ZM63.0664 155.16C60.4904 155.16 58.7784 153.448 58.7784 151.048C58.7784 148.648 60.4904 146.936 63.0664 146.936C65.6584 146.936 67.3704 148.648 67.3704 151.048C67.3704 153.448 65.6584 155.16 63.0664 155.16ZM63.0664 154.136C65.2424 154.136 66.2504 152.968 66.2504 151.048C66.2504 149.144 65.2424 147.96 63.0664 147.96C60.8904 147.96 59.8984 149.144 59.8984 151.048C59.8984 152.968 60.8904 154.136 63.0664 154.136ZM73.2499 155H71.8579L68.0819 147.096H69.3139L72.5139 153.88H72.6099L75.7939 147.096H77.0259L73.2499 155ZM81.9075 155.16C79.3635 155.16 77.7475 153.56 77.7475 151.048C77.7475 148.648 79.3475 146.936 81.8915 146.936C84.2115 146.936 85.8595 148.28 85.8595 150.632C85.8595 150.92 85.8275 151.16 85.7795 151.368H78.8195C78.8835 153.144 79.7955 154.216 81.8915 154.216C83.7475 154.216 84.6115 153.528 84.6115 152.376V152.264H85.7475V152.376C85.7475 154.024 84.1155 155.16 81.9075 155.16ZM81.8755 147.88C79.8275 147.88 78.8995 148.936 78.8195 150.664H84.7875C84.7875 150.584 84.7875 150.504 84.7875 150.424C84.7875 148.76 83.7315 147.88 81.8755 147.88ZM88.5023 155H87.3663V147.096H88.3903V149.256H88.4703C88.7103 147.992 89.6063 146.936 91.2543 146.936C93.0783 146.936 93.8783 148.28 93.8783 149.752V150.536H92.7423V149.928C92.7423 148.584 92.1823 147.928 90.8063 147.928C89.2063 147.928 88.5023 148.936 88.5023 150.712V155ZM99.2679 146.088H98.1319V144.28H99.2679V146.088ZM99.2679 155H98.1319V147.096H99.2679V155ZM102.315 155H101.179V147.096H102.203V149.576H102.283C102.555 148.232 103.675 146.936 105.643 146.936C107.867 146.936 108.971 148.52 108.971 150.392V155H107.835V150.552C107.835 148.92 107.051 147.976 105.243 147.976C103.323 147.976 102.315 149.144 102.315 151.176V155ZM111.955 155H110.819V147.096H111.843V149.576H111.923C112.195 148.232 113.315 146.936 115.283 146.936C117.507 146.936 118.611 148.52 118.611 150.392V155H117.475V150.552C117.475 148.92 116.691 147.976 114.883 147.976C112.963 147.976 111.955 149.144 111.955 151.176V155ZM124.332 155.16C121.756 155.16 120.044 153.448 120.044 151.048C120.044 148.648 121.756 146.936 124.332 146.936C126.924 146.936 128.636 148.648 128.636 151.048C128.636 153.448 126.924 155.16 124.332 155.16ZM124.332 154.136C126.508 154.136 127.516 152.968 127.516 151.048C127.516 149.144 126.508 147.96 124.332 147.96C122.156 147.96 121.164 149.144 121.164 151.048C121.164 152.968 122.156 154.136 124.332 154.136ZM134.516 155H133.124L129.348 147.096H130.58L133.78 153.88H133.876L137.06 147.096H138.292L134.516 155ZM141.605 155.16C140.053 155.16 138.997 154.424 138.997 153.144C138.997 151.848 140.069 151.288 141.541 151.128L145.301 150.712V150.104C145.301 148.568 144.629 147.96 142.901 147.96C141.205 147.96 140.309 148.568 140.309 149.96V150.024H139.173V149.96C139.173 148.296 140.549 146.936 142.981 146.936C145.381 146.936 146.405 148.312 146.405 150.056V155H145.381V152.872H145.301C144.837 154.328 143.445 155.16 141.605 155.16ZM140.133 153.064C140.133 153.864 140.661 154.28 141.861 154.28C143.781 154.28 145.301 153.432 145.301 151.528V151.464L141.893 151.848C140.709 151.96 140.133 152.248 140.133 153.064ZM153.121 155H151.409C149.841 155 148.833 154.344 148.833 152.488V148.072H147.425V147.096H148.833V145.208H149.985V147.096H153.121V148.072H149.985V152.552C149.985 153.656 150.529 153.96 151.681 153.96H153.121V155ZM155.502 146.088H154.366V144.28H155.502V146.088ZM155.502 155H154.366V147.096H155.502V155ZM161.781 155H160.389L156.613 147.096H157.845L161.045 153.88H161.141L164.325 147.096H165.557L161.781 155ZM170.439 155.16C167.895 155.16 166.279 153.56 166.279 151.048C166.279 148.648 167.879 146.936 170.423 146.936C172.743 146.936 174.391 148.28 174.391 150.632C174.391 150.92 174.359 151.16 174.311 151.368H167.351C167.415 153.144 168.327 154.216 170.423 154.216C172.279 154.216 173.143 153.528 173.143 152.376V152.264H174.279V152.376C174.279 154.024 172.647 155.16 170.439 155.16ZM170.407 147.88C168.359 147.88 167.431 148.936 167.351 150.664H173.319C173.319 150.584 173.319 150.504 173.319 150.424C173.319 148.76 172.263 147.88 170.407 147.88ZM179.971 157.72H178.835V147.096H179.859V149.32H179.987C180.339 147.896 181.523 146.936 183.395 146.936C185.859 146.936 187.267 148.648 187.267 151.048C187.267 153.448 185.875 155.16 183.363 155.16C181.619 155.16 180.355 154.2 179.987 152.68H179.971V157.72ZM179.971 151.192C179.971 153.064 181.203 154.12 183.059 154.12C184.899 154.12 186.115 153.336 186.115 151.048C186.115 148.76 184.883 147.992 183.091 147.992C181.123 147.992 179.971 149.096 179.971 151.048V151.192ZM189.799 155H188.663V147.096H189.687V149.256H189.767C190.007 147.992 190.903 146.936 192.551 146.936C194.375 146.936 195.175 148.28 195.175 149.752V150.536H194.039V149.928C194.039 148.584 193.479 147.928 192.103 147.928C190.503 147.928 189.799 148.936 189.799 150.712V155ZM200.363 155.16C197.787 155.16 196.075 153.448 196.075 151.048C196.075 148.648 197.787 146.936 200.363 146.936C202.955 146.936 204.667 148.648 204.667 151.048C204.667 153.448 202.955 155.16 200.363 155.16ZM200.363 154.136C202.539 154.136 203.547 152.968 203.547 151.048C203.547 149.144 202.539 147.96 200.363 147.96C198.187 147.96 197.195 149.144 197.195 151.048C197.195 152.968 198.187 154.136 200.363 154.136ZM209.587 155.16C207.059 155.16 205.651 153.448 205.651 151.048C205.651 148.648 207.059 146.936 209.491 146.936C211.363 146.936 212.531 147.944 212.883 149.304H212.963V144.28H214.099V155H213.059V152.664H212.995C212.611 154.248 211.331 155.16 209.587 155.16ZM206.803 151.048C206.803 153.336 208.019 154.12 209.875 154.12C211.731 154.12 212.963 153.048 212.963 151.176V151.032C212.963 149.08 211.795 147.992 209.843 147.992C208.035 147.992 206.803 148.76 206.803 151.048ZM219.319 155.16C217.063 155.16 215.959 153.592 215.959 151.72V147.096H217.095V151.544C217.095 153.192 217.895 154.136 219.719 154.136C221.655 154.136 222.663 152.968 222.663 150.936V147.096H223.799V155H222.775V152.536H222.695C222.423 153.88 221.287 155.16 219.319 155.16ZM229.486 155.16C226.958 155.16 225.31 153.448 225.31 151.048C225.31 148.648 226.958 146.936 229.486 146.936C231.694 146.936 233.422 148.248 233.422 150.152V150.28H232.302V150.184C232.302 148.776 231.278 147.976 229.47 147.976C227.358 147.976 226.446 149.112 226.446 151.048C226.446 152.984 227.358 154.12 229.47 154.12C231.278 154.12 232.302 153.32 232.302 151.912V151.816H233.422V151.944C233.422 153.848 231.694 155.16 229.486 155.16ZM239.792 155H238.08C236.512 155 235.504 154.344 235.504 152.488V148.072H234.096V147.096H235.504V145.208H236.656V147.096H239.792V148.072H236.656V152.552C236.656 153.656 237.2 153.96 238.352 153.96H239.792V155ZM244.51 155.16C242.078 155.16 240.67 154.184 240.67 152.36V152.328H241.806V152.424C241.806 153.752 242.59 154.216 244.526 154.216C246.302 154.216 246.91 153.8 246.91 152.888C246.91 152.056 246.414 151.784 245.102 151.576L242.99 151.272C241.55 151.08 240.638 150.52 240.638 149.208C240.638 147.816 241.966 146.936 244.142 146.936C246.414 146.936 247.886 147.896 247.886 149.752V149.784H246.75V149.704C246.75 148.52 246.126 147.88 244.11 147.88C242.446 147.88 241.758 148.28 241.758 149.224C241.758 150.04 242.174 150.328 243.486 150.52L245.422 150.792C247.118 151.032 248.03 151.608 248.03 152.888C248.03 154.376 246.558 155.16 244.51 155.16ZM249.363 156.408H249.027V155.72H249.347C249.555 155.72 249.667 155.672 249.667 155.384V155H249.043V152.776H250.451V155.368C250.451 156.072 250.035 156.408 249.363 156.408ZM258.595 155.16C256.051 155.16 254.435 153.56 254.435 151.048C254.435 148.648 256.035 146.936 258.579 146.936C260.899 146.936 262.547 148.28 262.547 150.632C262.547 150.92 262.515 151.16 262.467 151.368H255.507C255.571 153.144 256.483 154.216 258.579 154.216C260.435 154.216 261.299 153.528 261.299 152.376V152.264H262.435V152.376C262.435 154.024 260.803 155.16 258.595 155.16ZM258.563 147.88C256.515 147.88 255.587 148.936 255.507 150.664H261.475C261.475 150.584 261.475 150.504 261.475 150.424C261.475 148.76 260.419 147.88 258.563 147.88ZM264.598 155H263.238L266.838 151.064V150.984L263.238 147.096H264.614L267.702 150.376H267.782L270.854 147.096H272.214L268.598 150.952V151.032L272.214 155H270.838L267.734 151.656H267.67L264.598 155ZM277.095 155.16C274.567 155.16 272.919 153.448 272.919 151.048C272.919 148.648 274.567 146.936 277.095 146.936C279.303 146.936 281.031 148.248 281.031 150.152V150.28H279.911V150.184C279.911 148.776 278.887 147.976 277.079 147.976C274.967 147.976 274.055 149.112 274.055 151.048C274.055 152.984 274.967 154.12 277.079 154.12C278.887 154.12 279.911 153.32 279.911 151.912V151.816H281.031V151.944C281.031 153.848 279.303 155.16 277.095 155.16ZM283.69 155H282.554V144.28H283.69V155ZM288.913 155.16C286.657 155.16 285.553 153.592 285.553 151.72V147.096H286.689V151.544C286.689 153.192 287.489 154.136 289.313 154.136C291.249 154.136 292.257 152.968 292.257 150.936V147.096H293.393V155H292.369V152.536H292.289C292.017 153.88 290.881 155.16 288.913 155.16ZM298.776 155.16C296.344 155.16 294.936 154.184 294.936 152.36V152.328H296.072V152.424C296.072 153.752 296.856 154.216 298.792 154.216C300.568 154.216 301.176 153.8 301.176 152.888C301.176 152.056 300.68 151.784 299.368 151.576L297.256 151.272C295.816 151.08 294.904 150.52 294.904 149.208C294.904 147.816 296.232 146.936 298.408 146.936C300.68 146.936 302.152 147.896 302.152 149.752V149.784H301.016V149.704C301.016 148.52 300.392 147.88 298.376 147.88C296.712 147.88 296.024 148.28 296.024 149.224C296.024 150.04 296.44 150.328 297.752 150.52L299.688 150.792C301.384 151.032 302.296 151.608 302.296 152.888C302.296 154.376 300.824 155.16 298.776 155.16ZM304.924 146.088H303.788V144.28H304.924V146.088ZM304.924 155H303.788V147.096H304.924V155ZM311.203 155H309.811L306.035 147.096H307.267L310.467 153.88H310.563L313.747 147.096H314.979L311.203 155ZM319.861 155.16C317.317 155.16 315.701 153.56 315.701 151.048C315.701 148.648 317.301 146.936 319.845 146.936C322.165 146.936 323.813 148.28 323.813 150.632C323.813 150.92 323.781 151.16 323.733 151.368H316.773C316.837 153.144 317.749 154.216 319.845 154.216C321.701 154.216 322.565 153.528 322.565 152.376V152.264H323.701V152.376C323.701 154.024 322.069 155.16 319.861 155.16ZM319.829 147.88C317.781 147.88 316.853 148.936 316.773 150.664H322.741C322.741 150.584 322.741 150.504 322.741 150.424C322.741 148.76 321.685 147.88 319.829 147.88ZM332.129 155.16C329.553 155.16 327.841 153.448 327.841 151.048C327.841 148.648 329.553 146.936 332.129 146.936C334.721 146.936 336.433 148.648 336.433 151.048C336.433 153.448 334.721 155.16 332.129 155.16ZM332.129 154.136C334.305 154.136 335.313 152.968 335.313 151.048C335.313 149.144 334.305 147.96 332.129 147.96C329.953 147.96 328.961 149.144 328.961 151.048C328.961 152.968 329.953 154.136 332.129 154.136ZM339.64 155H338.504V148.072H337.24V147.096H338.52C338.648 145.224 339.912 144.28 341.96 144.28H342.824V145.176H341.8C340.36 145.176 339.576 145.656 339.64 147.096H342.824V148.072H339.64V155ZM345.256 155H344.104V148.072H342.84V147.096H344.12C344.264 145.224 345.528 144.28 347.576 144.28H348.424V145.176H347.4C345.96 145.176 345.192 145.656 345.256 147.096H348.424V148.072H345.256V155ZM353.298 155.16C350.754 155.16 349.138 153.56 349.138 151.048C349.138 148.648 350.738 146.936 353.282 146.936C355.602 146.936 357.25 148.28 357.25 150.632C357.25 150.92 357.218 151.16 357.17 151.368H350.21C350.274 153.144 351.186 154.216 353.282 154.216C355.138 154.216 356.002 153.528 356.002 152.376V152.264H357.138V152.376C357.138 154.024 355.506 155.16 353.298 155.16ZM353.266 147.88C351.218 147.88 350.29 148.936 350.21 150.664H356.178C356.178 150.584 356.178 150.504 356.178 150.424C356.178 148.76 355.122 147.88 353.266 147.88ZM359.893 155H358.757V147.096H359.781V149.256H359.861C360.101 147.992 360.997 146.936 362.645 146.936C364.469 146.936 365.269 148.28 365.269 149.752V150.536H364.133V149.928C364.133 148.584 363.573 147.928 362.197 147.928C360.597 147.928 359.893 148.936 359.893 150.712V155ZM370.057 155.16C367.625 155.16 366.217 154.184 366.217 152.36V152.328H367.353V152.424C367.353 153.752 368.137 154.216 370.073 154.216C371.849 154.216 372.457 153.8 372.457 152.888C372.457 152.056 371.961 151.784 370.649 151.576L368.537 151.272C367.097 151.08 366.185 150.52 366.185 149.208C366.185 147.816 367.513 146.936 369.689 146.936C371.961 146.936 373.433 147.896 373.433 149.752V149.784H372.297V149.704C372.297 148.52 371.673 147.88 369.657 147.88C367.993 147.88 367.305 148.28 367.305 149.224C367.305 150.04 367.721 150.328 369.033 150.52L370.969 150.792C372.665 151.032 373.577 151.608 373.577 152.888C373.577 154.376 372.105 155.16 370.057 155.16ZM374.909 156.408H374.573V155.72H374.893C375.101 155.72 375.213 155.672 375.213 155.384V155H374.589V152.776H375.997V155.368C375.997 156.072 375.581 156.408 374.909 156.408ZM29.152 175.16C27.6 175.16 26.544 174.424 26.544 173.144C26.544 171.848 27.616 171.288 29.088 171.128L32.848 170.712V170.104C32.848 168.568 32.176 167.96 30.448 167.96C28.752 167.96 27.856 168.568 27.856 169.96V170.024H26.72V169.96C26.72 168.296 28.096 166.936 30.528 166.936C32.928 166.936 33.952 168.312 33.952 170.056V175H32.928V172.872H32.848C32.384 174.328 30.992 175.16 29.152 175.16ZM27.68 173.064C27.68 173.864 28.208 174.28 29.408 174.28C31.328 174.28 32.848 173.432 32.848 171.528V171.464L29.44 171.848C28.256 171.96 27.68 172.248 27.68 173.064ZM36.9554 175H35.8194V167.096H36.8434V169.576H36.9234C37.1954 168.232 38.3154 166.936 40.2834 166.936C42.5074 166.936 43.6114 168.52 43.6114 170.392V175H42.4754V170.552C42.4754 168.92 41.6914 167.976 39.8834 167.976C37.9634 167.976 36.9554 169.144 36.9554 171.176V175ZM48.868 175.16C46.34 175.16 44.932 173.448 44.932 171.048C44.932 168.648 46.34 166.936 48.772 166.936C50.644 166.936 51.812 167.944 52.164 169.304H52.244V164.28H53.38V175H52.34V172.664H52.276C51.892 174.248 50.612 175.16 48.868 175.16ZM46.084 171.048C46.084 173.336 47.3 174.12 49.156 174.12C51.012 174.12 52.244 173.048 52.244 171.176V171.032C52.244 169.08 51.076 167.992 49.124 167.992C47.316 167.992 46.084 168.76 46.084 171.048ZM63.0736 175H61.3616C59.7936 175 58.7856 174.344 58.7856 172.488V168.072H57.3776V167.096H58.7856V165.208H59.9376V167.096H63.0736V168.072H59.9376V172.552C59.9376 173.656 60.4816 173.96 61.6336 173.96H63.0736V175ZM65.4554 175H64.3194V164.28H65.4554V169.512H65.5354C65.7914 168.184 66.8154 166.936 68.8314 166.936C71.0394 166.936 72.1434 168.408 72.1434 170.408V175H71.0074V170.552C71.0074 168.744 70.1594 167.976 68.3834 167.976C66.2714 167.976 65.4554 169.32 65.4554 171.288V175ZM77.7825 175.16C75.2385 175.16 73.6225 173.56 73.6225 171.048C73.6225 168.648 75.2225 166.936 77.7665 166.936C80.0865 166.936 81.7345 168.28 81.7345 170.632C81.7345 170.92 81.7025 171.16 81.6545 171.368H74.6945C74.7585 173.144 75.6705 174.216 77.7665 174.216C79.6225 174.216 80.4865 173.528 80.4865 172.376V172.264H81.6225V172.376C81.6225 174.024 79.9905 175.16 77.7825 175.16ZM77.7505 167.88C75.7025 167.88 74.7745 168.936 74.6945 170.664H80.6625C80.6625 170.584 80.6625 170.504 80.6625 170.424C80.6625 168.76 79.6065 167.88 77.7505 167.88ZM87.8748 175H86.7388V168.072H85.4748V167.096H86.7548C86.8828 165.224 88.1468 164.28 90.1948 164.28H91.0588V165.176H90.0348C88.5948 165.176 87.8108 165.656 87.8748 167.096H91.0588V168.072H87.8748V175ZM95.4908 175.16C93.2348 175.16 92.1308 173.592 92.1308 171.72V167.096H93.2668V171.544C93.2668 173.192 94.0668 174.136 95.8908 174.136C97.8268 174.136 98.8348 172.968 98.8348 170.936V167.096H99.9708V175H98.9468V172.536H98.8668C98.5948 173.88 97.4588 175.16 95.4908 175.16ZM106.73 175H105.018C103.45 175 102.442 174.344 102.442 172.488V168.072H101.034V167.096H102.442V165.208H103.594V167.096H106.73V168.072H103.594V172.552C103.594 173.656 104.138 173.96 105.29 173.96H106.73V175ZM111.288 175.16C109.032 175.16 107.928 173.592 107.928 171.72V167.096H109.064V171.544C109.064 173.192 109.864 174.136 111.688 174.136C113.624 174.136 114.632 172.968 114.632 170.936V167.096H115.768V175H114.744V172.536H114.664C114.392 173.88 113.256 175.16 111.288 175.16ZM118.815 175H117.679V167.096H118.703V169.256H118.783C119.023 167.992 119.919 166.936 121.567 166.936C123.391 166.936 124.191 168.28 124.191 169.752V170.536H123.055V169.928C123.055 168.584 122.495 167.928 121.119 167.928C119.519 167.928 118.815 168.936 118.815 170.712V175ZM129.267 175.16C126.723 175.16 125.107 173.56 125.107 171.048C125.107 168.648 126.707 166.936 129.251 166.936C131.571 166.936 133.219 168.28 133.219 170.632C133.219 170.92 133.187 171.16 133.139 171.368H126.179C126.243 173.144 127.155 174.216 129.251 174.216C131.107 174.216 131.971 173.528 131.971 172.376V172.264H133.107V172.376C133.107 174.024 131.475 175.16 129.267 175.16ZM129.235 167.88C127.187 167.88 126.259 168.936 126.179 170.664H132.147C132.147 170.584 132.147 170.504 132.147 170.424C132.147 168.76 131.091 167.88 129.235 167.88ZM141.535 175.16C138.959 175.16 137.247 173.448 137.247 171.048C137.247 168.648 138.959 166.936 141.535 166.936C144.127 166.936 145.839 168.648 145.839 171.048C145.839 173.448 144.127 175.16 141.535 175.16ZM141.535 174.136C143.711 174.136 144.719 172.968 144.719 171.048C144.719 169.144 143.711 167.96 141.535 167.96C139.359 167.96 138.367 169.144 138.367 171.048C138.367 172.968 139.359 174.136 141.535 174.136ZM149.047 175H147.911V168.072H146.647V167.096H147.927C148.055 165.224 149.319 164.28 151.367 164.28H152.231V165.176H151.207C149.767 165.176 148.983 165.656 149.047 167.096H152.231V168.072H149.047V175ZM160.16 175.16C157.584 175.16 155.872 173.448 155.872 171.048C155.872 168.648 157.584 166.936 160.16 166.936C162.752 166.936 164.464 168.648 164.464 171.048C164.464 173.448 162.752 175.16 160.16 175.16ZM160.16 174.136C162.336 174.136 163.344 172.968 163.344 171.048C163.344 169.144 162.336 167.96 160.16 167.96C157.984 167.96 156.992 169.144 156.992 171.048C156.992 172.968 157.984 174.136 160.16 174.136ZM167.112 175H165.976V167.096H167V169.576H167.08C167.352 168.232 168.472 166.936 170.44 166.936C172.664 166.936 173.768 168.52 173.768 170.392V175H172.632V170.552C172.632 168.92 171.848 167.976 170.04 167.976C168.12 167.976 167.112 169.144 167.112 171.176V175ZM176.752 175H175.616V164.28H176.752V175ZM179.799 166.088H178.663V164.28H179.799V166.088ZM179.799 175H178.663V167.096H179.799V175ZM182.846 175H181.71V167.096H182.734V169.576H182.814C183.086 168.232 184.206 166.936 186.174 166.936C188.398 166.936 189.502 168.52 189.502 170.392V175H188.366V170.552C188.366 168.92 187.582 167.976 185.774 167.976C183.854 167.976 182.846 169.144 182.846 171.176V175ZM195.111 175.16C192.567 175.16 190.951 173.56 190.951 171.048C190.951 168.648 192.551 166.936 195.095 166.936C197.415 166.936 199.063 168.28 199.063 170.632C199.063 170.92 199.031 171.16 198.983 171.368H192.023C192.087 173.144 192.999 174.216 195.095 174.216C196.951 174.216 197.815 173.528 197.815 172.376V172.264H198.951V172.376C198.951 174.024 197.319 175.16 195.111 175.16ZM195.079 167.88C193.031 167.88 192.103 168.936 192.023 170.664H197.991C197.991 170.584 197.991 170.504 197.991 170.424C197.991 168.76 196.935 167.88 195.079 167.88ZM206.979 175.16C204.547 175.16 203.139 174.184 203.139 172.36V172.328H204.275V172.424C204.275 173.752 205.059 174.216 206.995 174.216C208.771 174.216 209.379 173.8 209.379 172.888C209.379 172.056 208.883 171.784 207.571 171.576L205.459 171.272C204.019 171.08 203.107 170.52 203.107 169.208C203.107 167.816 204.435 166.936 206.611 166.936C208.883 166.936 210.355 167.896 210.355 169.752V169.784H209.219V169.704C209.219 168.52 208.595 167.88 206.579 167.88C204.915 167.88 204.227 168.28 204.227 169.224C204.227 170.04 204.643 170.328 205.955 170.52L207.891 170.792C209.587 171.032 210.499 171.608 210.499 172.888C210.499 174.376 209.027 175.16 206.979 175.16ZM213.127 175H211.991V164.28H213.127V169.512H213.207C213.463 168.184 214.487 166.936 216.503 166.936C218.711 166.936 219.815 168.408 219.815 170.408V175H218.679V170.552C218.679 168.744 217.831 167.976 216.055 167.976C213.943 167.976 213.127 169.32 213.127 171.288V175ZM225.566 175.16C222.99 175.16 221.278 173.448 221.278 171.048C221.278 168.648 222.99 166.936 225.566 166.936C228.158 166.936 229.87 168.648 229.87 171.048C229.87 173.448 228.158 175.16 225.566 175.16ZM225.566 174.136C227.742 174.136 228.75 172.968 228.75 171.048C228.75 169.144 227.742 167.96 225.566 167.96C223.39 167.96 222.398 169.144 222.398 171.048C222.398 172.968 223.39 174.136 225.566 174.136ZM232.518 177.72H231.382V167.096H232.406V169.32H232.534C232.886 167.896 234.07 166.936 235.942 166.936C238.406 166.936 239.814 168.648 239.814 171.048C239.814 173.448 238.422 175.16 235.91 175.16C234.166 175.16 232.902 174.2 232.534 172.68H232.518V177.72ZM232.518 171.192C232.518 173.064 233.75 174.12 235.606 174.12C237.446 174.12 238.662 173.336 238.662 171.048C238.662 168.76 237.43 167.992 235.638 167.992C233.67 167.992 232.518 169.096 232.518 171.048V171.192ZM242.346 177.72H241.21V167.096H242.234V169.32H242.362C242.714 167.896 243.898 166.936 245.77 166.936C248.234 166.936 249.642 168.648 249.642 171.048C249.642 173.448 248.25 175.16 245.738 175.16C243.994 175.16 242.73 174.2 242.362 172.68H242.346V177.72ZM242.346 171.192C242.346 173.064 243.578 174.12 245.434 174.12C247.274 174.12 248.49 173.336 248.49 171.048C248.49 168.76 247.258 167.992 245.466 167.992C243.498 167.992 242.346 169.096 242.346 171.048V171.192ZM252.174 166.088H251.038V164.28H252.174V166.088ZM252.174 175H251.038V167.096H252.174V175ZM255.221 175H254.085V167.096H255.109V169.576H255.189C255.461 168.232 256.581 166.936 258.549 166.936C260.773 166.936 261.877 168.52 261.877 170.392V175H260.741V170.552C260.741 168.92 259.957 167.976 258.149 167.976C256.229 167.976 255.221 169.144 255.221 171.176V175ZM267.118 174.36C264.766 174.36 263.326 172.808 263.326 170.648C263.326 168.488 264.814 166.936 267.246 166.936C268.91 166.936 270.222 167.72 270.542 169.128H270.622V167.096H271.646V174.248C271.646 176.856 269.998 177.88 267.614 177.88C265.47 177.88 263.838 176.808 263.838 174.968H264.974C264.974 176.36 265.902 176.904 267.662 176.904C269.71 176.904 270.51 176.28 270.51 174.312V172.248H270.43C270.11 173.464 268.942 174.36 267.118 174.36ZM264.462 170.648C264.462 172.664 265.71 173.352 267.422 173.352C269.374 173.352 270.51 172.376 270.51 170.696V170.424C270.51 168.872 269.326 167.944 267.502 167.944C265.726 167.944 264.462 168.632 264.462 170.648ZM284.081 170.824H273.089V169.816H284.081V170.824ZM287.715 175.16C286.163 175.16 285.107 174.424 285.107 173.144C285.107 171.848 286.179 171.288 287.651 171.128L291.411 170.712V170.104C291.411 168.568 290.739 167.96 289.011 167.96C287.315 167.96 286.419 168.568 286.419 169.96V170.024H285.283V169.96C285.283 168.296 286.659 166.936 289.091 166.936C291.491 166.936 292.515 168.312 292.515 170.056V175H291.491V172.872H291.411C290.947 174.328 289.555 175.16 287.715 175.16ZM286.243 173.064C286.243 173.864 286.771 174.28 287.971 174.28C289.891 174.28 291.411 173.432 291.411 171.528V171.464L288.003 171.848C286.819 171.96 286.243 172.248 286.243 173.064ZM295.518 175H294.382V164.28H295.518V175ZM298.565 175H297.429V164.28H298.565V175ZM304.549 166.088H303.413V164.28H304.549V166.088ZM304.549 175H303.413V167.096H304.549V175ZM307.596 175H306.46V167.096H307.484V169.576H307.564C307.836 168.232 308.956 166.936 310.924 166.936C313.148 166.936 314.252 168.52 314.252 170.392V175H313.116V170.552C313.116 168.92 312.332 167.976 310.524 167.976C308.604 167.976 307.596 169.144 307.596 171.176V175ZM322.91 175.16C320.334 175.16 318.622 173.448 318.622 171.048C318.622 168.648 320.334 166.936 322.91 166.936C325.502 166.936 327.214 168.648 327.214 171.048C327.214 173.448 325.502 175.16 322.91 175.16ZM322.91 174.136C325.086 174.136 326.094 172.968 326.094 171.048C326.094 169.144 325.086 167.96 322.91 167.96C320.734 167.96 319.742 169.144 319.742 171.048C319.742 172.968 320.734 174.136 322.91 174.136ZM329.862 175H328.726V167.096H329.75V169.576H329.83C330.102 168.232 331.222 166.936 333.19 166.936C335.414 166.936 336.518 168.52 336.518 170.392V175H335.382V170.552C335.382 168.92 334.598 167.976 332.79 167.976C330.87 167.976 329.862 169.144 329.862 171.176V175ZM342.126 175.16C339.582 175.16 337.966 173.56 337.966 171.048C337.966 168.648 339.566 166.936 342.11 166.936C344.43 166.936 346.078 168.28 346.078 170.632C346.078 170.92 346.046 171.16 345.998 171.368H339.038C339.102 173.144 340.014 174.216 342.11 174.216C343.966 174.216 344.83 173.528 344.83 172.376V172.264H345.966V172.376C345.966 174.024 344.334 175.16 342.126 175.16ZM342.094 167.88C340.046 167.88 339.118 168.936 339.038 170.664H345.006C345.006 170.584 345.006 170.504 345.006 170.424C345.006 168.76 343.95 167.88 342.094 167.88ZM351.659 177.72H350.523V167.096H351.547V169.32H351.674C352.027 167.896 353.211 166.936 355.083 166.936C357.547 166.936 358.955 168.648 358.955 171.048C358.955 173.448 357.562 175.16 355.051 175.16C353.307 175.16 352.043 174.2 351.674 172.68H351.659V177.72ZM351.659 171.192C351.659 173.064 352.891 174.12 354.747 174.12C356.587 174.12 357.803 173.336 357.803 171.048C357.803 168.76 356.571 167.992 354.779 167.992C352.811 167.992 351.659 169.096 351.659 171.048V171.192ZM361.487 175H360.351V164.28H361.487V175ZM365.59 175.16C364.038 175.16 362.982 174.424 362.982 173.144C362.982 171.848 364.054 171.288 365.526 171.128L369.286 170.712V170.104C369.286 168.568 368.614 167.96 366.886 167.96C365.19 167.96 364.294 168.568 364.294 169.96V170.024H363.158V169.96C363.158 168.296 364.534 166.936 366.966 166.936C369.366 166.936 370.39 168.312 370.39 170.056V175H369.366V172.872H369.286C368.822 174.328 367.43 175.16 365.59 175.16ZM364.118 173.064C364.118 173.864 364.646 174.28 365.846 174.28C367.766 174.28 369.286 173.432 369.286 171.528V171.464L365.878 171.848C364.694 171.96 364.118 172.248 364.118 173.064ZM376.033 175.16C373.505 175.16 371.857 173.448 371.857 171.048C371.857 168.648 373.505 166.936 376.033 166.936C378.241 166.936 379.969 168.248 379.969 170.152V170.28H378.849V170.184C378.849 168.776 377.825 167.976 376.017 167.976C373.905 167.976 372.993 169.112 372.993 171.048C372.993 172.984 373.905 174.12 376.017 174.12C377.825 174.12 378.849 173.32 378.849 171.912V171.816H379.969V171.944C379.969 173.848 378.241 175.16 376.033 175.16ZM385.251 175.16C382.707 175.16 381.091 173.56 381.091 171.048C381.091 168.648 382.691 166.936 385.235 166.936C387.555 166.936 389.203 168.28 389.203 170.632C389.203 170.92 389.171 171.16 389.123 171.368H382.163C382.227 173.144 383.139 174.216 385.235 174.216C387.091 174.216 387.955 173.528 387.955 172.376V172.264H389.091V172.376C389.091 174.024 387.459 175.16 385.251 175.16ZM385.219 167.88C383.171 167.88 382.243 168.936 382.163 170.664H388.131C388.131 170.584 388.131 170.504 388.131 170.424C388.131 168.76 387.075 167.88 385.219 167.88ZM391.638 175H390.23V172.776H391.638V175Z" fill="white"/>
<path d="M530.78 -31.9396C529.59 -32.2296 526.65 -32.9196 522.5 -33.8696C506.67 -26.0596 490.73 -18.3496 475.56 -9.45963C491.98 -5.21963 511.07 0.850368 529.02 7.72037C545.57 -0.659634 562.18 -9.09963 578.91 -17.2496C563.14 -23.0396 546.26 -28.1896 530.79 -31.9396H530.78Z" fill="#FFA500"/>
<path d="M529.01 7.71999C538.25 11.26 547.19 15 555.31 18.82C573.13 10.93 590.88 2.76 608.97 -4.68C600.02 -9.01 589.72 -13.28 578.9 -17.25C562.17 -9.11 545.56 -0.660007 529.01 7.71999Z" fill="#FFA500"/>
<path d="M621.43 1.91031C617.69 -0.279691 613.5 -2.48969 608.97 -4.67969C590.88 2.76031 573.13 10.9303 555.31 18.8203C563.8 22.8203 571.38 26.9003 577.47 30.9003C595.99 23.8203 614.23 15.9403 633.1 9.89031C629.33 6.85031 625.33 4.19031 621.43 1.91031Z" fill="#FFA500"/>
<path d="M651.57 37.9301C649.79 26.5101 642.1 17.1401 633.1 9.89014C614.24 15.9301 595.99 23.8101 577.47 30.9001C586.76 37.0001 592.58 42.9201 592.82 48.0901C593.58 64.8301 581.89 72.6401 576.27 76.6701C564.25 85.3001 551.12 90.4801 538.67 96.3301C572.86 89.5001 606.97 81.9601 640.03 71.6401C648.69 63.2901 653.82 52.3601 651.57 37.9301Z" fill="#FFA500"/>
<path d="M591.8 94.5604C607.56 90.4304 627.5 83.7304 640.03 71.6504C606.97 81.9704 572.86 89.5104 538.67 96.3404C522.77 103.81 507.96 112.39 497.94 130.69C495.6 134.96 493.77 139.38 492.38 143.9C503.45 138.82 514.62 134.01 525.84 129.36C539.26 106.96 567.5 100.93 591.8 94.5704V94.5604Z" fill="#FFA500"/>
<path d="M522.4 136.23C523.4 133.77 524.55 131.49 525.84 129.34C514.62 133.99 503.45 138.8 492.38 143.88C489.05 154.7 488.36 166.07 489.69 177.29C501.43 171.96 513.3 166.74 525.16 161.41C520.69 153.03 519.09 144.39 522.4 136.22V136.23Z" fill="#FFA500"/>
<path d="M489.69 177.3C490.16 181.25 490.88 185.18 491.83 189.07C504.86 182.85 518.02 176.73 531.1 170.47C528.8 167.52 526.8 164.49 525.17 161.43C513.31 166.75 501.44 171.98 489.7 177.31L489.69 177.3Z" fill="#FFA500"/>
<path d="M531.1 170.47C518.02 176.74 504.86 182.85 491.83 189.07C493.63 196.4 496.23 203.57 499.48 210.37C499.73 210.89 500.01 211.39 500.28 211.91C516.96 204.16 533.82 196.86 550.67 189.59C543.42 183.91 536.49 177.38 531.11 170.47H531.1Z" fill="#FFA500"/>
<path d="M550.66 189.59C533.81 196.86 516.95 204.16 500.27 211.91C504.55 220.32 510.33 227.35 517.17 233.3C535.3 223.27 553.07 212.94 571.34 203.28C564.91 199.77 557.64 195.07 550.65 189.58L550.66 189.59Z" fill="#FFA500"/>
<path d="M724.6 236.43C720.73 234.49 716.89 232.69 713.07 231C712.25 231.99 711.42 232.97 710.58 233.94C697.63 246.21 684.68 258.02 672.99 270.95C684.02 272.19 694.96 273.76 705.65 275.99C717.51 266.63 729.13 256.92 740.84 247.23C735.97 243.11 730.63 239.44 724.6 236.43Z" fill="#FFA500"/>
<path d="M809.5 322.21C779.17 303.58 766.58 269.02 740.83 247.24C729.12 256.92 717.5 266.63 705.64 276C726.4 280.35 746.18 287.25 763.68 299.31C784.64 313.76 800.49 334.55 820.93 349.72C829.14 355.81 838.08 360.87 847.48 364.86C859.38 353.8 871.53 343.06 883.84 332.46C856.62 335.65 828.56 333.93 809.49 322.21H809.5Z" fill="#FFA500"/>
<path d="M684.61 221.03C673.82 218.33 662.7 216.83 650.73 216.84C623.74 216.86 595.48 216.36 571.75 203.5C571.62 203.43 571.48 203.35 571.35 203.28C553.08 212.93 535.31 223.27 517.18 233.3C544.31 256.86 588.54 263 626.03 266.59C628.76 266.85 631.5 267.1 634.25 267.34C650.05 250.98 668.19 236.68 684.62 221.03H684.61Z" fill="#FFA500"/>
<path d="M684.61 221.03C668.18 236.69 650.04 250.98 634.24 267.34C647.07 268.48 660.08 269.5 672.98 270.95C684.67 258.02 697.62 246.21 710.57 233.94C711.42 232.97 712.24 231.99 713.06 231C703.62 226.82 694.25 223.44 684.61 221.03Z" fill="#FFA500"/>
<path d="M787.67 3.08022C790.807 3.08022 793.35 0.537192 793.35 -2.59978C793.35 -5.73676 790.807 -8.27979 787.67 -8.27979C784.533 -8.27979 781.99 -5.73676 781.99 -2.59978C781.99 0.537192 784.533 3.08022 787.67 3.08022Z" fill="white"/>
<path d="M754.021 74.6901C759.971 68.4401 763.141 58.8501 759.731 50.9201C756.321 42.9901 745.041 38.8601 738.381 44.3501C732.611 49.1001 732.621 57.8501 733.741 65.2301C734.811 72.2901 735.671 78.9601 733.591 85.9301C740.761 85.0201 748.921 80.0501 754.031 74.6801L754.021 74.6901Z" fill="white"/>
<path d="M788.181 125.24C794.181 125.74 800.431 127.17 804.851 131.26C809.271 135.35 811.061 142.75 807.381 147.52C804.951 150.68 800.721 152.02 796.731 151.93C792.741 151.84 788.411 151.47 785.141 149.19C763.041 133.79 748.121 134.26 748.121 134.26C758.501 126.17 775.361 124.17 788.171 125.25L788.181 125.24Z" fill="white"/>
<path d="M778.201 37.9601C777.351 28.8701 774.901 19.8901 775.181 10.7701C775.461 1.64009 779.221 -8.17992 787.381 -12.2799C798.731 -17.9999 813.261 -9.27991 817.661 2.64009C822.061 14.5601 818.901 27.9301 814.121 39.7101C801.981 69.6201 787.381 90.6601 736.921 116.68C736.921 116.68 760.091 96.9301 767.511 84.2001C775.601 70.3201 779.711 54.0201 778.201 37.9601Z" fill="white"/>
<path d="M806.971 91.0899C814.981 86.5099 824.351 83.7299 833.471 85.1299C842.591 86.5299 851.271 92.6999 853.991 101.51C856.711 110.33 852.061 121.26 843.251 124.01C836.341 126.17 828.841 123.26 822.821 119.24C816.801 115.22 811.521 110.05 805.031 106.87C799.391 104.11 792.871 103.29 787.131 106.07C793.751 101.13 799.681 95.2498 806.971 91.0798V91.0899Z" fill="white"/>
<path d="M834.101 48.51C837.501 46.27 841.501 44.47 845.531 45.06C849.561 45.65 853.281 49.48 852.491 53.47C851.771 57.09 848.021 59.14 844.671 60.69C837.311 64.12 818.081 70.66 818.081 70.66C818.081 70.66 827.011 53.16 834.101 48.5V48.51Z" fill="white"/>
<path d="M871.361 73.9201C870.881 76.8701 868.101 78.8601 865.151 78.3801C862.201 77.9001 860.211 75.1201 860.691 72.1701C861.171 69.2201 863.951 67.2301 866.901 67.7101C869.851 68.1901 871.841 70.9701 871.361 73.9201Z" fill="white"/>
<path d="M846.211 14.7598C845.761 17.4798 843.201 19.3198 840.481 18.8798C837.761 18.4298 835.921 15.8698 836.361 13.1498C836.811 10.4298 839.371 8.58985 842.091 9.02985C844.811 9.47985 846.651 12.0398 846.211 14.7598Z" fill="white"/>
<path d="M838.11 141.2C837.55 144.59 834.351 146.89 830.961 146.34C827.571 145.78 825.271 142.58 825.821 139.19C826.381 135.8 829.581 133.5 832.971 134.05C836.361 134.61 838.66 137.81 838.11 141.2Z" fill="white"/>
<path d="M959.531 42.9802C961.891 50.5202 955.401 58.6902 947.691 60.4302C939.981 62.1602 931.951 59.0002 925.411 54.5802C918.861 50.1602 913.231 44.4802 906.571 40.2102C899.921 35.9502 891.671 33.1602 884.111 35.4302C875.331 38.0702 869.441 48.0102 871.351 56.9802C874.181 70.3202 890.321 76.9302 894.961 89.7502C899.311 101.78 889.981 116.66 877.261 117.98C866.721 119.07 857.201 112.36 848.111 106.92C839.021 101.48 827.311 97.0802 818.231 102.53C809.941 107.5 808.051 120.48 814.571 127.61L809.641 137.06C803.121 129.93 805.011 116.95 813.301 111.97C822.381 106.52 834.091 110.92 843.181 116.36C852.271 121.8 861.791 128.51 872.331 127.42C885.051 126.1 894.391 111.22 890.031 99.1902C885.391 86.3702 869.251 79.7602 866.421 66.4202C864.521 57.4502 870.401 47.5102 879.181 44.8702C886.751 42.5902 894.991 45.3902 901.641 49.6502C908.291 53.9102 913.931 59.6002 920.481 64.0202C927.031 68.4402 935.061 71.6102 942.761 69.8702C950.471 68.1402 956.961 59.9602 954.601 52.4202L959.531 42.9702V42.9802Z" fill="#FFA500"/>
<path d="M722.061 -3.12988C718.261 -0.189883 718.651 6.15012 721.901 9.70012C725.141 13.2501 730.251 14.4601 735.061 14.5401C739.871 14.6101 744.661 13.7401 749.461 13.9201C754.261 14.1101 759.351 15.5801 762.331 19.3501C765.791 23.7301 765.271 30.7301 761.201 34.5501C755.141 40.2201 744.791 37.9101 738.011 42.6901C731.651 47.1801 731.131 57.8601 737.021 62.9401C741.901 67.1501 748.991 67.1201 755.421 67.5601C761.851 68.0001 769.231 69.8901 771.861 75.7701C774.261 81.1401 770.691 88.2701 764.961 89.5701L764.131 96.0001C769.871 94.7101 773.441 87.5701 771.031 82.2001C768.391 76.3201 761.021 74.4401 754.591 73.9901C748.161 73.5401 741.071 73.5801 736.191 69.3701C730.301 64.2801 730.821 53.6101 737.181 49.1201C743.961 44.3401 754.311 46.6501 760.371 40.9801C764.441 37.1601 764.961 30.1601 761.501 25.7801C758.521 22.0101 753.431 20.5301 748.631 20.3501C743.831 20.1601 739.031 21.0401 734.231 20.9701C729.421 20.9001 724.311 19.6801 721.071 16.1301C717.831 12.5801 717.431 6.24012 721.231 3.30012L722.061 -3.12988Z" fill="#FFA500"/>
<path d="M798.16 63.72C809.55 65.03 821.37 57.75 825.34 47C829.3 36.24 825.03 23.04 815.51 16.64C809.87 12.85 802.4 11.45 796.1 14.01C789.8 16.57 785.25 23.48 786.37 30.18C787.3 35.68 791.79 40.18 797.06 42.01C802.33 43.83 808.22 43.24 813.45 41.31C825.71 36.79 834.76 24.6 835.53 11.55C836.3 -1.50001 832.68 -32.51 821.04 -38.45C816.24 -40.9 810.69 -42.18 805.41 -41.11C800.13 -40.03 795.25 -36.32 793.64 -31.18C790.84 -22.24 799.34 -12.68 808.67 -11.8C818.27 -10.89 827.78 -17.31 831.56 -26.18C835.34 -35.05 833.74 -45.7 828.47 -53.78C823.2 -61.86 796.8 -91.14 787.58 -93.94L785.32 -102C794.54 -99.2 820.95 -69.91 826.21 -61.84C831.47 -53.77 833.08 -43.11 829.3 -34.24C825.52 -25.37 816 -18.95 806.41 -19.86C797.08 -20.75 788.58 -30.3 791.38 -39.24C792.99 -44.38 797.87 -48.1 803.15 -49.17C808.43 -50.25 813.98 -48.96 818.78 -46.51C830.42 -40.57 834.04 -9.55 833.27 3.49C832.5 16.53 823.45 28.73 811.19 33.25C805.96 35.18 800.07 35.77 794.8 33.95C789.53 32.13 785.04 27.62 784.11 22.12C782.98 15.42 787.54 8.5 793.84 5.95C800.14 3.39999 807.61 4.78999 813.25 8.57999C822.77 14.97 827.04 28.18 823.08 38.94C819.12 49.7 807.29 56.97 795.9 55.66L798.16 63.72Z" fill="#FFA500"/>
<path d="M758.7 114.79L752.97 111.26L755.58 117.46L751.22 112.34L751.78 119.04L749.22 112.82L747.69 119.37L747.17 112.66L743.68 118.42L745.27 111.88L740.17 116.28L743.7 110.55L737.5 113.16L742.63 108.79L735.92 109.36L742.14 106.8L735.59 105.26L742.3 104.75L736.54 101.26L743.08 102.84L738.68 97.7502L744.42 101.28L741.8 95.0702L746.17 100.2L745.6 93.4902L748.17 99.7202L749.7 93.1602L750.22 99.8702L753.7 94.1102L752.12 100.66L757.21 96.2602L753.68 101.99L759.89 99.3802L754.76 103.74L761.47 103.18L755.24 105.74L761.8 107.28L755.09 107.79L760.85 111.28L754.3 109.69L758.7 114.79Z" fill="#FFA500"/>
<path d="M904.911 7.5498C903.991 11.5798 899.971 14.0998 895.931 13.1798C891.901 12.2598 889.381 8.2398 890.301 4.1998C891.221 0.169799 895.241 -2.3502 899.281 -1.4302C903.311 -0.510198 905.831 3.5098 904.911 7.5498Z" fill="#FFA500"/>
<path d="M848.28 152.8C849.82 155.25 849.08 158.49 846.62 160.03C844.17 161.57 840.93 160.83 839.39 158.37C837.85 155.92 838.59 152.68 841.05 151.14C843.5 149.6 846.74 150.34 848.28 152.8Z" fill="#FFA500"/>
<path d="M794.24 100.02C795.78 102.47 795.04 105.71 792.58 107.25C790.13 108.79 786.89 108.05 785.35 105.59C783.81 103.14 784.55 99.8998 787.01 98.3598C789.46 96.8198 792.7 97.5598 794.24 100.02Z" fill="#FFA500"/>
<path d="M868.641 138.45L904.081 143.82L896.901 156.84L868.641 138.45Z" fill="#FFA500"/>
<path d="M809.13 87.2198L834.51 66.0898L842.57 75.6398L809.13 87.2198Z" fill="#FFA500"/>
<path d="M720.35 65.7901L699.78 39.9501L709.5 32.1001L720.35 65.7901Z" fill="#FFA500"/>
<path d="M845.891 20.9799L857.251 -2.06006L866.001 2.17995L845.891 20.9799Z" fill="#FFA500"/>
<path d="M750.82 139.31L779.72 142.11L778.73 153.06L750.82 139.31Z" fill="#FFA500"/>
<path opacity="0.96" d="M730.63 117.93C729.41 116.47 726.95 113.02 725.24 110.59C722.86 107.21 718.38 105.98 714.67 107.8C714.61 107.83 714.56 107.86 714.5 107.88C708.08 111.13 709.36 117.35 709.36 117.35C681.04 140.83 660.03 148.46 625.44 170.56C616.03 176.58 595.72 173.71 585.66 178.55C571.84 185.21 556.15 199.06 544.49 209.01C521.58 228.56 498.72 243.66 475.81 263.21C471.38 266.99 466.79 270.99 464.63 276.4C462.1 282.73 463.98 293.9 467.06 299.98C470.15 306.06 476.86 317.07 481.49 322.07C485.44 326.34 493.05 333.48 497.84 337.36C503.14 341.65 513.67 345.82 520.39 344.67C526.13 343.69 531 340.04 535.62 336.49C559.53 318.18 579.07 298.98 602.98 280.66C615.16 271.33 631.98 258.89 641.38 246.77C648.23 237.94 649.66 217.49 657.52 209.54C686.36 180.34 698.22 161.38 727.1 138.6C727.1 138.6 733.26 139.09 737.43 135.55C738.15 134.94 738.62 134.09 738.92 133.16C739.94 130.02 738.94 126.57 736.62 124.23C734.55 122.14 731.8 119.32 730.63 117.93Z" fill="#EF383A"/>
<path opacity="0.58" d="M736.61 124.22C730.09 136.23 718.79 145.91 705.03 149.05C691.36 152.33 677.73 152.2 664.87 160.61C654.58 167.33 654.45 180.97 647.54 191.13C627.67 219.92 570.37 208.92 553.24 250.75C547.29 265.29 552.95 281.43 546.02 294.15C535.61 313.65 505.79 312.52 492.33 294.5C484.38 282.92 483.08 268.29 485.99 254.79C482.59 257.52 479.2 260.31 475.8 263.21C471.37 266.99 466.78 270.99 464.62 276.4C462.09 282.73 463.97 293.9 467.05 299.98C470.14 306.06 476.85 317.07 481.48 322.07C485.43 326.34 493.04 333.48 497.83 337.36C503.13 341.65 513.66 345.82 520.38 344.67C526.12 343.69 530.99 340.04 535.61 336.49C559.52 318.18 579.06 298.98 602.97 280.66C615.15 271.33 631.97 258.89 641.37 246.77C648.22 237.94 649.65 217.49 657.51 209.54C686.35 180.34 698.21 161.38 727.09 138.6C727.09 138.6 733.25 139.09 737.42 135.55C738.14 134.94 738.61 134.09 738.91 133.16C739.93 130.02 738.93 126.57 736.61 124.23V124.22Z" fill="#FFD2D3"/>
<path d="M477.26 283.74C480.65 273.5 489.35 266.09 497.67 259.22C515.22 244.72 532.77 230.23 550.32 215.73C563.71 204.67 577.52 192.11 594 186.66C605.68 182.8 622.23 183.34 632.28 176.25C674.83 146.25 705.47 130.27 710.71 121.35C711.06 120.75 711.92 120.74 712.3 121.32C713.22 122.73 714.85 124.91 717.24 127C717.83 127.51 717.47 128.45 716.7 128.46C706.79 128.68 690.41 143.79 678.18 153.72C667.12 162.71 650.89 172.19 637.61 183.16C625.85 192.88 607.99 190.38 593.55 195.31C572.87 202.37 555.98 219.88 539.73 234.48C523.99 248.63 508.16 260.34 495.39 277.22C492.41 281.16 489.53 285.28 487.48 289.8C486.4 292.17 485.48 300.57 483.33 301.69C475.04 306.02 475.99 287.59 477.27 283.73L477.26 283.74Z" fill="#B10002"/>
<path opacity="0.96" d="M718.94 139.31C718.94 139.31 718.72 136.78 715.26 139.19C691.84 155.51 662.94 179.86 644.15 201.27C634.92 211.79 626.76 230.08 617.72 240.77C593.16 269.83 567.28 289.23 536.58 311.7C530.75 315.97 519.7 320.24 512.91 322.71C506.12 325.17 498.25 322.16 491.92 318.68C495.95 330.54 509.54 338.82 521.71 335.87C533.88 332.92 584.87 288.93 599.92 275.43C610.55 265.9 623.76 257.2 632.94 246.27C640.94 236.73 643.71 216.63 651.21 206.7C670.95 180.54 694.66 161.33 718.94 139.32V139.31Z" fill="#B10002"/>
<path d="M718.28 112.47C719.71 113.91 720.93 115.34 722.16 116.74L725.78 120.89L729.44 125C730.68 126.39 731.95 127.78 733.19 129.39C731.19 128.99 729.38 128.12 727.71 127.04C726.05 125.95 724.54 124.63 723.22 123.14C721.91 121.65 720.79 119.98 719.92 118.19C719.07 116.4 718.43 114.49 718.28 112.46V112.47Z" fill="#B10002"/>
<path d="M26 226.12H42V210.12H26V226.12Z" fill="white"/>
<path d="M57.032 221.5H50.6V213.46H57.032V214.624H51.896V216.88H56.852V218.032H51.896V220.336H57.032V221.5ZM58.7854 221.5H57.2374L59.8054 218.548V218.476L57.2374 215.536H58.8094L60.7894 217.792H60.8614L62.8174 215.536H64.3774L61.8094 218.452V218.524L64.3774 221.5H62.8054L60.8254 219.22H60.7414L58.7854 221.5ZM67.7804 221.62C65.8124 221.62 64.5284 220.36 64.5284 218.524C64.5284 216.664 65.8124 215.416 67.7804 215.416C69.5684 215.416 70.8764 216.424 70.8764 217.912V218.032H69.5924V217.96C69.5924 217.036 68.9204 216.58 67.7564 216.58C66.4124 216.58 65.8124 217.216 65.8124 218.524C65.8124 219.808 66.4124 220.456 67.7564 220.456C68.9204 220.456 69.5924 220 69.5924 219.076V218.992H70.8764V219.124C70.8764 220.612 69.5684 221.62 67.7804 221.62ZM72.8908 221.5H71.5948V213.46H72.8908V221.5ZM76.3349 221.62C74.6549 221.62 73.8389 220.504 73.8389 219.124V215.536H75.1229V218.776C75.1229 219.892 75.6389 220.456 76.8989 220.456C78.2189 220.456 78.8309 219.784 78.8309 218.488V215.536H80.1149V221.5H78.9269V219.652H78.8549C78.6629 220.66 77.8709 221.62 76.3349 221.62ZM83.8723 221.62C81.9523 221.62 80.8603 220.864 80.8603 219.484V219.448H82.1563V219.544C82.1563 220.324 82.6243 220.576 83.8723 220.576C85.0363 220.576 85.3843 220.336 85.3843 219.808C85.3843 219.316 85.0963 219.16 84.2443 219.04L82.6123 218.824C81.4843 218.68 80.8003 218.2 80.8003 217.204C80.8003 216.16 81.7483 215.416 83.5843 215.416C85.4083 215.416 86.5123 216.148 86.5123 217.564V217.6H85.2283V217.528C85.2283 216.82 84.8683 216.448 83.5483 216.448C82.4563 216.448 82.0723 216.688 82.0723 217.252C82.0723 217.72 82.3123 217.888 83.2123 218.008L84.5923 218.2C86.0083 218.38 86.6563 218.86 86.6563 219.844C86.6563 220.96 85.5523 221.62 83.8723 221.62ZM88.6474 214.84H87.3514V213.46H88.6474V214.84ZM88.6474 221.5H87.3514V215.536H88.6474V221.5ZM93.4355 221.5H91.8515L89.0675 215.536H90.4955L92.6195 220.24H92.7155L94.8395 215.536H96.2435L93.4355 221.5ZM99.6683 221.62C97.7123 221.62 96.4283 220.516 96.4283 218.524C96.4283 216.664 97.7003 215.416 99.6443 215.416C101.492 215.416 102.752 216.436 102.752 218.248C102.752 218.464 102.74 218.632 102.704 218.812H97.6403C97.6883 219.964 98.2523 220.576 99.6323 220.576C100.88 220.576 101.396 220.168 101.396 219.46V219.364H102.692V219.472C102.692 220.744 101.444 221.62 99.6683 221.62ZM99.6203 216.436C98.3003 216.436 97.7243 217.024 97.6523 218.092H101.528V218.068C101.528 216.964 100.892 216.436 99.6203 216.436ZM107.922 221.62C106.038 221.62 104.994 220.36 104.994 218.524C104.994 216.664 106.026 215.416 107.838 215.416C109.254 215.416 110.058 216.148 110.298 217.156H110.37V213.46H111.666V221.5H110.478V219.784H110.394C110.142 220.972 109.266 221.62 107.922 221.62ZM106.302 218.524C106.302 219.952 107.034 220.432 108.318 220.432C109.59 220.432 110.37 219.832 110.37 218.584V218.488C110.37 217.216 109.626 216.592 108.294 216.592C107.046 216.592 106.302 217.084 106.302 218.524ZM115.624 221.62C113.668 221.62 112.384 220.516 112.384 218.524C112.384 216.664 113.656 215.416 115.6 215.416C117.448 215.416 118.708 216.436 118.708 218.248C118.708 218.464 118.696 218.632 118.66 218.812H113.596C113.644 219.964 114.208 220.576 115.588 220.576C116.836 220.576 117.352 220.168 117.352 219.46V219.364H118.648V219.472C118.648 220.744 117.4 221.62 115.624 221.62ZM115.576 216.436C114.256 216.436 113.68 217.024 113.608 218.092H117.484V218.068C117.484 216.964 116.848 216.436 115.576 216.436ZM121.191 221.62C119.955 221.62 119.175 221.044 119.175 220.06C119.175 219.136 119.919 218.656 121.095 218.524L123.807 218.236V217.888C123.807 216.904 123.375 216.556 122.235 216.556C121.131 216.556 120.591 216.916 120.591 217.792V217.84H119.307V217.792C119.307 216.436 120.435 215.416 122.331 215.416C124.227 215.416 125.079 216.448 125.079 217.876V221.5H123.891V220.012H123.807C123.495 221.02 122.547 221.62 121.191 221.62ZM120.471 219.976C120.471 220.456 120.795 220.684 121.539 220.684C122.895 220.684 123.807 220.18 123.807 219.004L121.467 219.268C120.795 219.352 120.471 219.508 120.471 219.976ZM127.292 221.5H125.996V213.46H127.292V221.5ZM131.072 221.62C129.152 221.62 128.06 220.864 128.06 219.484V219.448H129.356V219.544C129.356 220.324 129.824 220.576 131.072 220.576C132.236 220.576 132.584 220.336 132.584 219.808C132.584 219.316 132.296 219.16 131.444 219.04L129.812 218.824C128.684 218.68 128 218.2 128 217.204C128 216.16 128.948 215.416 130.784 215.416C132.608 215.416 133.712 216.148 133.712 217.564V217.6H132.428V217.528C132.428 216.82 132.068 216.448 130.748 216.448C129.656 216.448 129.272 216.688 129.272 217.252C129.272 217.72 129.512 217.888 130.412 218.008L131.792 218.2C133.208 218.38 133.856 218.86 133.856 219.844C133.856 220.96 132.752 221.62 131.072 221.62Z" fill="white"/>
<circle cx="152" cy="218" r="1" fill="white"/>
<path d="M169 226.12H185V210.12H169V226.12Z" fill="white"/>
<path d="M198.783 221.62C196.383 221.62 195.159 220.564 195.159 218.872V218.8H196.455V218.992C196.455 219.952 197.019 220.432 198.783 220.432C200.319 220.432 200.859 220.096 200.859 219.34C200.859 218.644 200.451 218.38 199.431 218.188L197.463 217.864C196.107 217.624 195.147 217 195.147 215.68C195.147 214.516 196.107 213.34 198.603 213.34C200.955 213.34 202.023 214.516 202.023 216.088V216.16H200.739V216.004C200.739 215.02 200.151 214.528 198.483 214.528C197.019 214.528 196.443 214.888 196.443 215.608C196.443 216.304 196.851 216.532 197.799 216.736L199.755 217.072C201.363 217.36 202.155 218.092 202.155 219.268C202.155 220.492 201.159 221.62 198.783 221.62ZM205.319 221.62C203.639 221.62 202.823 220.504 202.823 219.124V215.536H204.107V218.776C204.107 219.892 204.623 220.456 205.883 220.456C207.203 220.456 207.815 219.784 207.815 218.488V215.536H209.099V221.5H207.911V219.652H207.839C207.647 220.66 206.855 221.62 205.319 221.62ZM211.332 223.54H210.036V215.536H211.224V217.192H211.332C211.572 216.088 212.412 215.416 213.816 215.416C215.664 215.416 216.708 216.676 216.708 218.524C216.708 220.372 215.688 221.62 213.828 221.62C212.484 221.62 211.62 220.912 211.38 219.82H211.332V223.54ZM211.332 218.62C211.332 219.844 212.112 220.444 213.384 220.444C214.668 220.444 215.412 219.952 215.412 218.524C215.412 217.084 214.656 216.604 213.408 216.604C212.076 216.604 211.332 217.228 211.332 218.512V218.62ZM220.367 221.62C218.411 221.62 217.127 220.516 217.127 218.524C217.127 216.664 218.399 215.416 220.343 215.416C222.191 215.416 223.451 216.436 223.451 218.248C223.451 218.464 223.439 218.632 223.403 218.812H218.339C218.387 219.964 218.951 220.576 220.331 220.576C221.579 220.576 222.095 220.168 222.095 219.46V219.364H223.391V219.472C223.391 220.744 222.143 221.62 220.367 221.62ZM220.319 216.436C218.999 216.436 218.423 217.024 218.351 218.092H222.227V218.068C222.227 216.964 221.591 216.436 220.319 216.436ZM225.477 221.5H224.181V215.536H225.369V217.144H225.453C225.633 216.184 226.281 215.416 227.505 215.416C228.861 215.416 229.449 216.388 229.449 217.516V218.296H228.165V217.768C228.165 216.916 227.805 216.52 226.917 216.52C225.897 216.52 225.477 217.084 225.477 218.152V221.5ZM233.586 221.5H232.29V216.616H231.39V215.536H232.302C232.446 214.228 233.442 213.46 235.134 213.46H235.722V214.42H234.93C233.982 214.42 233.49 214.672 233.562 215.536H235.722V216.616H233.586V221.5ZM237.952 221.62C236.716 221.62 235.936 221.044 235.936 220.06C235.936 219.136 236.68 218.656 237.856 218.524L240.568 218.236V217.888C240.568 216.904 240.136 216.556 238.996 216.556C237.892 216.556 237.352 216.916 237.352 217.792V217.84H236.068V217.792C236.068 216.436 237.196 215.416 239.092 215.416C240.988 215.416 241.84 216.448 241.84 217.876V221.5H240.652V220.012H240.568C240.256 221.02 239.308 221.62 237.952 221.62ZM237.232 219.976C237.232 220.456 237.556 220.684 238.3 220.684C239.656 220.684 240.568 220.18 240.568 219.004L238.228 219.268C237.556 219.352 237.232 219.508 237.232 219.976ZM245.576 221.62C243.656 221.62 242.564 220.864 242.564 219.484V219.448H243.86V219.544C243.86 220.324 244.328 220.576 245.576 220.576C246.74 220.576 247.088 220.336 247.088 219.808C247.088 219.316 246.8 219.16 245.948 219.04L244.316 218.824C243.188 218.68 242.504 218.2 242.504 217.204C242.504 216.16 243.452 215.416 245.288 215.416C247.112 215.416 248.216 216.148 248.216 217.564V217.6H246.932V217.528C246.932 216.82 246.572 216.448 245.252 216.448C244.16 216.448 243.776 216.688 243.776 217.252C243.776 217.72 244.016 217.888 244.916 218.008L246.296 218.2C247.712 218.38 248.36 218.86 248.36 219.844C248.36 220.96 247.256 221.62 245.576 221.62ZM252.967 221.5H251.599C250.315 221.5 249.523 220.936 249.523 219.484V216.616H248.515V215.536H249.523V214.228H250.807V215.536H252.967V216.616H250.807V219.412C250.807 220.144 251.143 220.336 251.887 220.336H252.967V221.5ZM258.169 221.62C256.249 221.62 255.157 220.864 255.157 219.484V219.448H256.453V219.544C256.453 220.324 256.921 220.576 258.169 220.576C259.333 220.576 259.681 220.336 259.681 219.808C259.681 219.316 259.393 219.16 258.541 219.04L256.909 218.824C255.781 218.68 255.097 218.2 255.097 217.204C255.097 216.16 256.045 215.416 257.881 215.416C259.705 215.416 260.809 216.148 260.809 217.564V217.6H259.525V217.528C259.525 216.82 259.165 216.448 257.845 216.448C256.753 216.448 256.369 216.688 256.369 217.252C256.369 217.72 256.609 217.888 257.509 218.008L258.889 218.2C260.305 218.38 260.953 218.86 260.953 219.844C260.953 220.96 259.849 221.62 258.169 221.62ZM262.944 221.5H261.648V213.46H262.944V217.36H263.016C263.22 216.352 263.952 215.416 265.476 215.416C267.12 215.416 267.924 216.496 267.924 217.948V221.5H266.64V218.26C266.64 217.06 266.1 216.58 264.864 216.58C263.448 216.58 262.944 217.348 262.944 218.608V221.5ZM270.145 214.84H268.849V213.46H270.145V214.84ZM270.145 221.5H268.849V215.536H270.145V221.5ZM272.401 223.54H271.105V215.536H272.293V217.192H272.401C272.641 216.088 273.481 215.416 274.885 215.416C276.733 215.416 277.777 216.676 277.777 218.524C277.777 220.372 276.757 221.62 274.897 221.62C273.553 221.62 272.689 220.912 272.449 219.82H272.401V223.54ZM272.401 218.62C272.401 219.844 273.181 220.444 274.453 220.444C275.737 220.444 276.481 219.952 276.481 218.524C276.481 217.084 275.725 216.604 274.477 216.604C273.145 216.604 272.401 217.228 272.401 218.512V218.62ZM279.732 223.54H278.436V215.536H279.624V217.192H279.732C279.972 216.088 280.812 215.416 282.216 215.416C284.064 215.416 285.108 216.676 285.108 218.524C285.108 220.372 284.088 221.62 282.228 221.62C280.884 221.62 280.02 220.912 279.78 219.82H279.732V223.54ZM279.732 218.62C279.732 219.844 280.512 220.444 281.784 220.444C283.068 220.444 283.812 219.952 283.812 218.524C283.812 217.084 283.056 216.604 281.808 216.604C280.476 216.604 279.732 217.228 279.732 218.512V218.62ZM287.062 214.84H285.766V213.46H287.062V214.84ZM287.062 221.5H285.766V215.536H287.062V221.5ZM289.318 221.5H288.022V215.536H289.21V217.384H289.294C289.474 216.376 290.266 215.416 291.778 215.416C293.434 215.416 294.25 216.532 294.25 217.912V221.5H292.954V218.26C292.954 217.144 292.45 216.58 291.214 216.58C289.906 216.58 289.318 217.252 289.318 218.548V221.5ZM297.757 220.96C295.981 220.96 294.925 219.844 294.925 218.188C294.925 216.532 296.029 215.416 297.841 215.416C299.089 215.416 300.025 215.98 300.241 217.024H300.313V215.536H301.501V220.804C301.501 222.808 300.253 223.66 298.297 223.66C296.533 223.66 295.309 222.832 295.309 221.392H296.593C296.593 222.256 297.097 222.58 298.369 222.58C299.725 222.58 300.217 222.208 300.217 220.876V219.412H300.133C299.917 220.312 299.113 220.96 297.757 220.96ZM296.233 218.188C296.233 219.412 296.953 219.844 298.177 219.844C299.497 219.844 300.217 219.292 300.217 218.236V218.068C300.217 217.06 299.473 216.544 298.213 216.544C296.965 216.544 296.233 216.964 296.233 218.188Z" fill="white"/>
<circle cx="320" cy="218" r="1" fill="white"/>
<path d="M337 226.12H353V210.12H337V226.12Z" fill="white"/>
<path d="M366.783 221.62C364.383 221.62 363.159 220.564 363.159 218.872V218.8H364.455V218.992C364.455 219.952 365.019 220.432 366.783 220.432C368.319 220.432 368.859 220.096 368.859 219.34C368.859 218.644 368.451 218.38 367.431 218.188L365.463 217.864C364.107 217.624 363.147 217 363.147 215.68C363.147 214.516 364.107 213.34 366.603 213.34C368.955 213.34 370.023 214.516 370.023 216.088V216.16H368.739V216.004C368.739 215.02 368.151 214.528 366.483 214.528C365.019 214.528 364.443 214.888 364.443 215.608C364.443 216.304 364.851 216.532 365.799 216.736L367.755 217.072C369.363 217.36 370.155 218.092 370.155 219.268C370.155 220.492 369.159 221.62 366.783 221.62ZM373.835 221.62C371.879 221.62 370.595 220.516 370.595 218.524C370.595 216.664 371.867 215.416 373.811 215.416C375.659 215.416 376.919 216.436 376.919 218.248C376.919 218.464 376.907 218.632 376.871 218.812H371.807C371.855 219.964 372.419 220.576 373.799 220.576C375.047 220.576 375.563 220.168 375.563 219.46V219.364H376.859V219.472C376.859 220.744 375.611 221.62 373.835 221.62ZM373.787 216.436C372.467 216.436 371.891 217.024 371.819 218.092H375.695V218.068C375.695 216.964 375.059 216.436 373.787 216.436ZM380.662 221.62C378.694 221.62 377.41 220.36 377.41 218.524C377.41 216.664 378.694 215.416 380.662 215.416C382.45 215.416 383.758 216.424 383.758 217.912V218.032H382.474V217.96C382.474 217.036 381.802 216.58 380.638 216.58C379.294 216.58 378.694 217.216 378.694 218.524C378.694 219.808 379.294 220.456 380.638 220.456C381.802 220.456 382.474 220 382.474 219.076V218.992H383.758V219.124C383.758 220.612 382.45 221.62 380.662 221.62ZM386.96 221.62C385.28 221.62 384.464 220.504 384.464 219.124V215.536H385.748V218.776C385.748 219.892 386.264 220.456 387.524 220.456C388.844 220.456 389.456 219.784 389.456 218.488V215.536H390.74V221.5H389.552V219.652H389.48C389.288 220.66 388.496 221.62 386.96 221.62ZM392.973 221.5H391.677V215.536H392.865V217.144H392.949C393.129 216.184 393.777 215.416 395.001 215.416C396.357 215.416 396.945 216.388 396.945 217.516V218.296H395.661V217.768C395.661 216.916 395.301 216.52 394.413 216.52C393.393 216.52 392.973 217.084 392.973 218.152V221.5ZM400.519 221.62C398.563 221.62 397.279 220.516 397.279 218.524C397.279 216.664 398.551 215.416 400.495 215.416C402.343 215.416 403.603 216.436 403.603 218.248C403.603 218.464 403.591 218.632 403.555 218.812H398.491C398.539 219.964 399.103 220.576 400.483 220.576C401.731 220.576 402.247 220.168 402.247 219.46V219.364H403.543V219.472C403.543 220.744 402.295 221.62 400.519 221.62ZM400.471 216.436C399.151 216.436 398.575 217.024 398.503 218.092H402.379V218.068C402.379 216.964 401.743 216.436 400.471 216.436ZM410.057 221.62C407.561 221.62 405.905 219.988 405.905 217.48C405.905 214.972 407.561 213.34 410.057 213.34C412.325 213.34 413.909 214.54 413.909 216.46V216.628H412.481V216.46C412.481 215.236 411.701 214.576 410.069 214.576C408.185 214.576 407.273 215.476 407.273 217.48C407.273 219.484 408.185 220.372 410.069 220.372C411.701 220.372 412.481 219.724 412.481 218.488V218.332H413.909V218.488C413.909 220.42 412.337 221.62 410.057 221.62ZM415.92 221.5H414.624V213.46H415.92V217.36H415.992C416.196 216.352 416.928 215.416 418.452 215.416C420.096 215.416 420.9 216.496 420.9 217.948V221.5H419.616V218.26C419.616 217.06 419.076 216.58 417.84 216.58C416.424 216.58 415.92 217.348 415.92 218.608V221.5ZM424.825 221.62C422.869 221.62 421.585 220.516 421.585 218.524C421.585 216.664 422.857 215.416 424.801 215.416C426.649 215.416 427.909 216.436 427.909 218.248C427.909 218.464 427.897 218.632 427.861 218.812H422.797C422.845 219.964 423.409 220.576 424.789 220.576C426.037 220.576 426.553 220.168 426.553 219.46V219.364H427.849V219.472C427.849 220.744 426.601 221.62 424.825 221.62ZM424.777 216.436C423.457 216.436 422.881 217.024 422.809 218.092H426.685V218.068C426.685 216.964 426.049 216.436 424.777 216.436ZM431.652 221.62C429.684 221.62 428.4 220.36 428.4 218.524C428.4 216.664 429.684 215.416 431.652 215.416C433.44 215.416 434.748 216.424 434.748 217.912V218.032H433.464V217.96C433.464 217.036 432.792 216.58 431.628 216.58C430.284 216.58 429.684 217.216 429.684 218.524C429.684 219.808 430.284 220.456 431.628 220.456C432.792 220.456 433.464 220 433.464 219.076V218.992H434.748V219.124C434.748 220.612 433.44 221.62 431.652 221.62ZM436.762 221.5H435.466V213.46H436.762V217.9H438.466L440.254 215.536H441.766L439.522 218.404L441.754 221.5H440.23L438.466 219.064H436.762V221.5ZM445.212 221.62C443.232 221.62 441.9 220.36 441.9 218.524C441.9 216.664 443.232 215.416 445.212 215.416C447.204 215.416 448.536 216.664 448.536 218.524C448.536 220.36 447.204 221.62 445.212 221.62ZM445.212 220.468C446.664 220.468 447.264 219.784 447.264 218.524C447.264 217.252 446.664 216.556 445.212 216.556C443.772 216.556 443.172 217.252 443.172 218.524C443.172 219.784 443.772 220.468 445.212 220.468ZM451.72 221.62C450.04 221.62 449.224 220.504 449.224 219.124V215.536H450.508V218.776C450.508 219.892 451.024 220.456 452.284 220.456C453.604 220.456 454.216 219.784 454.216 218.488V215.536H455.5V221.5H454.312V219.652H454.24C454.048 220.66 453.256 221.62 451.72 221.62ZM460.35 221.5H458.982C457.698 221.5 456.906 220.936 456.906 219.484V216.616H455.898V215.536H456.906V214.228H458.19V215.536H460.35V216.616H458.19V219.412C458.19 220.144 458.526 220.336 459.27 220.336H460.35V221.5Z" fill="white"/>
</g>
<defs>
<clipPath id="clip0_5195_15449">
<rect width="897" height="274" rx="24" fill="white"/>
</clipPath>
</defs>
</svg>
