<svg width="1360" height="274" viewBox="0 0 1360 274" fill="none" xmlns="http://www.w3.org/2000/svg">
<rect width="1360" height="274" rx="24" fill="#C70E10"/>
<path d="M1264.49 52.7077L1264.41 53.2276L1264.78 53.5994L1292.92 81.7346L1293.65 82.4693L1294.39 81.7346L1325.73 50.3874L1326.47 49.6527L1325.73 48.918L1297.25 20.4364L1296.87 20.0578L1296.35 20.1464L1269.5 24.6488L1268.76 24.7732L1268.65 25.5165L1264.49 52.7077Z" fill="#ED2224" stroke="white" stroke-width="2.07805"/>
<path d="M1284.39 30.18C1285.26 30.18 1285.95 30.4466 1286.48 30.98C1287.01 31.5049 1287.28 32.2415 1287.28 33.1897V37.3169H1285.5V33.4309C1285.5 32.8806 1285.36 32.4616 1285.08 32.1737C1284.8 31.8774 1284.42 31.7293 1283.94 31.7293C1283.45 31.7293 1283.07 31.8774 1282.78 32.1737C1282.5 32.4616 1282.36 32.8806 1282.36 33.4309V37.3169H1280.58V33.4309C1280.58 32.8806 1280.44 32.4616 1280.16 32.1737C1279.89 31.8774 1279.5 31.7293 1279.02 31.7293C1278.53 31.7293 1278.14 31.8774 1277.85 32.1737C1277.57 32.4616 1277.43 32.8806 1277.43 33.4309V37.3169H1275.66V30.2815H1277.43V31.1324C1277.66 30.8361 1277.96 30.6033 1278.31 30.4339C1278.67 30.2646 1279.07 30.18 1279.5 30.18C1280.05 30.18 1280.55 30.2985 1280.98 30.5355C1281.41 30.7641 1281.74 31.0943 1281.98 31.5261C1282.21 31.1197 1282.54 30.7937 1282.97 30.5482C1283.41 30.3027 1283.89 30.18 1284.39 30.18ZM1295.69 30.2815L1291.34 40.6441H1289.45L1290.97 37.1391L1288.15 30.2815H1290.14L1291.96 35.1961L1293.8 30.2815H1295.69ZM1279.62 41.18C1280.15 41.18 1280.63 41.2985 1281.04 41.5355C1281.46 41.7641 1281.78 42.107 1282.01 42.5642C1282.24 43.0129 1282.36 43.5547 1282.36 44.1897V48.3169H1280.58V44.4309C1280.58 43.8722 1280.44 43.4446 1280.16 43.1483C1279.89 42.8435 1279.5 42.6912 1279.02 42.6912C1278.53 42.6912 1278.14 42.8435 1277.85 43.1483C1277.57 43.4446 1277.43 43.8722 1277.43 44.4309V48.3169H1275.66V38.9195H1277.43V42.1578C1277.66 41.853 1277.97 41.616 1278.35 41.4466C1278.73 41.2688 1279.15 41.18 1279.62 41.18ZM1287.18 48.4312C1286.5 48.4312 1285.89 48.283 1285.35 47.9867C1284.81 47.6819 1284.38 47.2544 1284.07 46.7041C1283.76 46.1538 1283.61 45.5188 1283.61 44.7992C1283.61 44.0796 1283.76 43.4446 1284.08 42.8943C1284.4 42.344 1284.84 41.9207 1285.39 41.6244C1285.94 41.3196 1286.55 41.1673 1287.23 41.1673C1287.9 41.1673 1288.52 41.3196 1289.07 41.6244C1289.62 41.9207 1290.05 42.344 1290.36 42.8943C1290.69 43.4446 1290.85 44.0796 1290.85 44.7992C1290.85 45.5188 1290.68 46.1538 1290.35 46.7041C1290.03 47.2544 1289.59 47.6819 1289.03 47.9867C1288.48 48.283 1287.86 48.4312 1287.18 48.4312ZM1287.18 46.8819C1287.5 46.8819 1287.8 46.8057 1288.08 46.6533C1288.37 46.4924 1288.59 46.2554 1288.76 45.9421C1288.93 45.6289 1289.02 45.2479 1289.02 44.7992C1289.02 44.1304 1288.84 43.6182 1288.48 43.2626C1288.14 42.8986 1287.71 42.7166 1287.2 42.7166C1286.69 42.7166 1286.27 42.8986 1285.92 43.2626C1285.58 43.6182 1285.41 44.1304 1285.41 44.7992C1285.41 45.468 1285.58 45.9845 1285.91 46.3485C1286.25 46.7041 1286.67 46.8819 1287.18 46.8819ZM1300.89 41.18C1301.75 41.18 1302.45 41.4466 1302.97 41.98C1303.5 42.5049 1303.77 43.2415 1303.77 44.1897V48.3169H1301.99V44.4309C1301.99 43.8806 1301.85 43.4616 1301.57 43.1737C1301.29 42.8774 1300.91 42.7293 1300.43 42.7293C1299.95 42.7293 1299.56 42.8774 1299.27 43.1737C1299 43.4616 1298.86 43.8806 1298.86 44.4309V48.3169H1297.08V44.4309C1297.08 43.8806 1296.94 43.4616 1296.66 43.1737C1296.38 42.8774 1296 42.7293 1295.52 42.7293C1295.02 42.7293 1294.64 42.8774 1294.35 43.1737C1294.07 43.4616 1293.93 43.8806 1293.93 44.4309V48.3169H1292.15V41.2815H1293.93V42.1324C1294.16 41.8361 1294.45 41.6033 1294.8 41.4339C1295.17 41.2646 1295.57 41.18 1296 41.18C1296.55 41.18 1297.04 41.2985 1297.47 41.5355C1297.9 41.7641 1298.24 42.0943 1298.47 42.5261C1298.7 42.1197 1299.03 41.7937 1299.47 41.5482C1299.91 41.3027 1300.38 41.18 1300.89 41.18ZM1312 44.6468C1312 44.9008 1311.98 45.1294 1311.95 45.3326H1306.8C1306.85 45.8406 1307.02 46.2385 1307.34 46.5263C1307.65 46.8142 1308.04 46.9581 1308.49 46.9581C1309.15 46.9581 1309.62 46.6745 1309.9 46.1072H1311.82C1311.62 46.7845 1311.23 47.3433 1310.65 47.7835C1310.08 48.2153 1309.37 48.4312 1308.53 48.4312C1307.85 48.4312 1307.24 48.283 1306.7 47.9867C1306.17 47.6819 1305.75 47.2544 1305.44 46.7041C1305.15 46.1538 1305 45.5188 1305 44.7992C1305 44.0711 1305.15 43.4319 1305.44 42.8816C1305.74 42.3313 1306.16 41.908 1306.69 41.6117C1307.22 41.3154 1307.84 41.1673 1308.53 41.1673C1309.2 41.1673 1309.8 41.3112 1310.32 41.599C1310.85 41.8869 1311.27 42.2975 1311.55 42.8308C1311.85 43.3557 1312 43.9611 1312 44.6468ZM1310.16 44.1389C1310.15 43.6817 1309.98 43.3176 1309.66 43.0467C1309.34 42.7674 1308.95 42.6277 1308.48 42.6277C1308.04 42.6277 1307.67 42.7631 1307.36 43.034C1307.07 43.2965 1306.88 43.6648 1306.82 44.1389H1310.16ZM1282.2 55.6468C1282.2 55.9008 1282.18 56.1294 1282.15 56.3326H1277C1277.04 56.8406 1277.22 57.2385 1277.54 57.5263C1277.85 57.8142 1278.23 57.9581 1278.69 57.9581C1279.35 57.9581 1279.82 57.6745 1280.1 57.1072H1282.02C1281.82 57.7845 1281.43 58.3433 1280.85 58.7835C1280.27 59.2153 1279.57 59.4312 1278.73 59.4312C1278.05 59.4312 1277.44 59.283 1276.9 58.9867C1276.37 58.6819 1275.95 58.2544 1275.64 57.7041C1275.35 57.1538 1275.2 56.5188 1275.2 55.7992C1275.2 55.0711 1275.35 54.4319 1275.64 53.8816C1275.94 53.3313 1276.35 52.908 1276.89 52.6117C1277.42 52.3154 1278.04 52.1673 1278.73 52.1673C1279.4 52.1673 1280 52.3112 1280.52 52.599C1281.05 52.8869 1281.46 53.2975 1281.75 53.8308C1282.05 54.3557 1282.2 54.9611 1282.2 55.6468ZM1280.36 55.1389C1280.35 54.6817 1280.18 54.3176 1279.86 54.0467C1279.54 53.7674 1279.14 53.6277 1278.68 53.6277C1278.24 53.6277 1277.87 53.7631 1277.56 54.034C1277.27 54.2965 1277.08 54.6648 1277.02 55.1389H1280.36ZM1285.56 53.742V57.1453C1285.56 57.3824 1285.62 57.5559 1285.73 57.666C1285.85 57.7676 1286.04 57.8184 1286.31 57.8184H1287.14V59.3169H1286.02C1284.52 59.3169 1283.77 58.5888 1283.77 57.1326V53.742H1282.94V52.2815H1283.77V50.5418H1285.56V52.2815H1287.14V53.742H1285.56ZM1287.96 55.7738C1287.96 55.0627 1288.1 54.4319 1288.38 53.8816C1288.67 53.3313 1289.05 52.908 1289.54 52.6117C1290.03 52.3154 1290.57 52.1673 1291.17 52.1673C1291.7 52.1673 1292.16 52.2731 1292.54 52.4847C1292.94 52.6964 1293.26 52.9631 1293.5 53.2848V52.2815H1295.29V59.3169H1293.5V58.2883C1293.27 58.6184 1292.95 58.8936 1292.54 59.1137C1292.15 59.3254 1291.69 59.4312 1291.16 59.4312C1290.57 59.4312 1290.03 59.2788 1289.54 58.974C1289.05 58.6692 1288.67 58.2417 1288.38 57.6914C1288.1 57.1326 1287.96 56.4934 1287.96 55.7738ZM1293.5 55.7992C1293.5 55.3674 1293.41 54.9992 1293.24 54.6944C1293.07 54.3811 1292.85 54.1441 1292.56 53.9832C1292.27 53.8139 1291.96 53.7293 1291.63 53.7293C1291.3 53.7293 1291 53.8097 1290.72 53.9705C1290.44 54.1314 1290.21 54.3684 1290.03 54.6817C1289.86 54.9865 1289.78 55.3505 1289.78 55.7738C1289.78 56.1971 1289.86 56.5696 1290.03 56.8914C1290.21 57.2046 1290.44 57.4459 1290.72 57.6152C1291 57.7845 1291.31 57.8692 1291.63 57.8692C1291.96 57.8692 1292.27 57.7888 1292.56 57.6279C1292.85 57.4586 1293.07 57.2215 1293.24 56.9167C1293.41 56.6035 1293.5 56.231 1293.5 55.7992ZM1298.8 49.9195V59.3169H1297.02V49.9195H1298.8Z" fill="white"/>
<path d="M57.898 119H54.55V98.23H64.718C69.337 98.23 72.499 100.865 72.499 105.484C72.499 110.072 69.337 112.738 64.718 112.738H57.898V119ZM64.408 101.237H57.898V109.731H64.408C67.539 109.731 69.151 108.553 69.151 105.484C69.151 102.415 67.539 101.237 64.408 101.237ZM78.7162 119.31C75.5232 119.31 73.5082 117.822 73.5082 115.28C73.5082 112.893 75.4302 111.653 78.4682 111.312L85.4742 110.568V109.669C85.4742 107.127 84.3582 106.228 81.4132 106.228C78.5612 106.228 77.1662 107.158 77.1662 109.421V109.545H73.8492V109.421C73.8492 105.918 76.7632 103.283 81.6612 103.283C86.5592 103.283 88.7602 105.949 88.7602 109.638V119H85.6912V115.156H85.4742C84.6682 117.76 82.2192 119.31 78.7162 119.31ZM76.8562 115.063C76.8562 116.303 77.6932 116.892 79.6152 116.892C83.1182 116.892 85.4742 115.59 85.4742 112.552L79.4292 113.234C77.6932 113.451 76.8562 113.854 76.8562 115.063ZM94.7868 119H91.4388V103.593H94.5078V107.747H94.7248C95.1898 105.267 96.8638 103.283 100.026 103.283C103.529 103.283 105.048 105.794 105.048 108.708V110.723H101.731V109.359C101.731 107.158 100.801 106.135 98.5068 106.135C95.8718 106.135 94.7868 107.592 94.7868 110.351V119ZM116.947 119H113.413C110.096 119 108.05 117.543 108.05 113.792V106.383H105.446V103.593H108.05V100.214H111.367V103.593H116.947V106.383H111.367V113.606C111.367 115.497 112.235 115.993 114.157 115.993H116.947V119ZM122.079 119H118.731V103.593H121.8V108.367H122.017C122.482 105.763 124.528 103.283 128.434 103.283C132.712 103.283 134.82 106.166 134.82 109.731V119H131.472V110.63C131.472 107.747 130.17 106.29 126.977 106.29C123.598 106.29 122.079 108.026 122.079 111.374V119ZM145.243 119.31C140.19 119.31 136.873 116.458 136.873 111.312C136.873 106.507 140.159 103.283 145.181 103.283C149.955 103.283 153.21 105.918 153.21 110.599C153.21 111.157 153.179 111.591 153.086 112.056H140.004C140.128 115.032 141.585 116.613 145.15 116.613C148.374 116.613 149.707 115.559 149.707 113.73V113.482H153.055V113.761C153.055 117.047 149.831 119.31 145.243 119.31ZM145.119 105.918C141.709 105.918 140.221 107.437 140.035 110.196H150.048V110.134C150.048 107.282 148.405 105.918 145.119 105.918ZM158.756 119H155.408V103.593H158.477V107.747H158.694C159.159 105.267 160.833 103.283 163.995 103.283C167.498 103.283 169.017 105.794 169.017 108.708V110.723H165.7V109.359C165.7 107.158 164.77 106.135 162.476 106.135C159.841 106.135 158.756 107.592 158.756 110.351V119ZM178.095 119.31C173.135 119.31 170.314 117.357 170.314 113.792V113.699H173.662V113.947C173.662 115.962 174.871 116.613 178.095 116.613C181.102 116.613 182.001 115.993 182.001 114.629C182.001 113.358 181.257 112.955 179.056 112.645L174.84 112.087C171.926 111.715 170.159 110.475 170.159 107.902C170.159 105.205 172.608 103.283 177.351 103.283C182.063 103.283 184.915 105.174 184.915 108.832V108.925H181.598V108.739C181.598 106.91 180.668 105.949 177.258 105.949C174.437 105.949 173.445 106.569 173.445 108.026C173.445 109.235 174.065 109.669 176.39 109.979L179.955 110.475C183.613 110.94 185.287 112.18 185.287 114.722C185.287 117.605 182.435 119.31 178.095 119.31ZM190.74 119H187.392V98.23H190.74V108.305H190.926C191.453 105.701 193.344 103.283 197.281 103.283C201.528 103.283 203.605 106.073 203.605 109.824V119H200.288V110.63C200.288 107.53 198.893 106.29 195.7 106.29C192.042 106.29 190.74 108.274 190.74 111.529V119ZM209.654 101.795H206.306V98.23H209.654V101.795ZM209.654 119H206.306V103.593H209.654V119ZM215.792 124.27H212.444V103.593H215.513V107.871H215.792C216.412 105.019 218.582 103.283 222.209 103.283C226.983 103.283 229.68 106.538 229.68 111.312C229.68 116.086 227.045 119.31 222.24 119.31C218.768 119.31 216.536 117.481 215.916 114.66H215.792V124.27ZM215.792 111.56C215.792 114.722 217.807 116.272 221.093 116.272C224.41 116.272 226.332 115.001 226.332 111.312C226.332 107.592 224.379 106.352 221.155 106.352C217.714 106.352 215.792 107.964 215.792 111.281V111.56ZM238.976 119.31C234.016 119.31 231.195 117.357 231.195 113.792V113.699H234.543V113.947C234.543 115.962 235.752 116.613 238.976 116.613C241.983 116.613 242.882 115.993 242.882 114.629C242.882 113.358 242.138 112.955 239.937 112.645L235.721 112.087C232.807 111.715 231.04 110.475 231.04 107.902C231.04 105.205 233.489 103.283 238.232 103.283C242.944 103.283 245.796 105.174 245.796 108.832V108.925H242.479V108.739C242.479 106.91 241.549 105.949 238.139 105.949C235.318 105.949 234.326 106.569 234.326 108.026C234.326 109.235 234.946 109.669 237.271 109.979L240.836 110.475C244.494 110.94 246.168 112.18 246.168 114.722C246.168 117.605 243.316 119.31 238.976 119.31ZM251.931 112.18H248.676C248.676 109.173 248.18 102.787 248.18 100.4V98.23H252.427V100.4C252.427 102.787 251.931 109.204 251.931 112.18ZM252.179 119H248.397V114.412H252.179V119Z" fill="#EEEEEE"/>
<path d="M58.056 159H56.36L53.256 148.28H54.52L56.648 155.672L57.208 157.864H57.304L57.944 155.672L60.44 148.28H62.04L64.792 155.672L65.512 157.864H65.592L66.088 155.672L67.96 148.28H69.208L66.44 159H64.744L62.136 152.024L61.288 149.528H61.176L60.424 152.024L58.056 159ZM74.2044 159.16C71.6604 159.16 70.0444 157.56 70.0444 155.048C70.0444 152.648 71.6444 150.936 74.1884 150.936C76.5084 150.936 78.1564 152.28 78.1564 154.632C78.1564 154.92 78.1244 155.16 78.0764 155.368H71.1164C71.1804 157.144 72.0924 158.216 74.1884 158.216C76.0444 158.216 76.9084 157.528 76.9084 156.376V156.264H78.0444V156.376C78.0444 158.024 76.4124 159.16 74.2044 159.16ZM74.1724 151.88C72.1244 151.88 71.1964 152.936 71.1164 154.664H77.0844C77.0844 154.584 77.0844 154.504 77.0844 154.424C77.0844 152.76 76.0284 151.88 74.1724 151.88ZM83.7366 161.72H82.6006V151.096H83.6246V153.32H83.7526C84.1046 151.896 85.2886 150.936 87.1606 150.936C89.6246 150.936 91.0326 152.648 91.0326 155.048C91.0326 157.448 89.6406 159.16 87.1286 159.16C85.3846 159.16 84.1206 158.2 83.7526 156.68H83.7366V161.72ZM83.7366 155.192C83.7366 157.064 84.9686 158.12 86.8246 158.12C88.6646 158.12 89.8806 157.336 89.8806 155.048C89.8806 152.76 88.6486 151.992 86.8566 151.992C84.8886 151.992 83.7366 153.096 83.7366 155.048V155.192ZM94.6208 159.16C93.0688 159.16 92.0128 158.424 92.0128 157.144C92.0128 155.848 93.0848 155.288 94.5568 155.128L98.3168 154.712V154.104C98.3168 152.568 97.6448 151.96 95.9168 151.96C94.2208 151.96 93.3248 152.568 93.3248 153.96V154.024H92.1888V153.96C92.1888 152.296 93.5648 150.936 95.9968 150.936C98.3968 150.936 99.4208 152.312 99.4208 154.056V159H98.3968V156.872H98.3168C97.8528 158.328 96.4608 159.16 94.6208 159.16ZM93.1488 157.064C93.1488 157.864 93.6768 158.28 94.8768 158.28C96.7968 158.28 98.3168 157.432 98.3168 155.528V155.464L94.9088 155.848C93.7248 155.96 93.1488 156.248 93.1488 157.064ZM102.424 159H101.288V151.096H102.312V153.256H102.392C102.632 151.992 103.528 150.936 105.176 150.936C107 150.936 107.8 152.28 107.8 153.752V154.536H106.664V153.928C106.664 152.584 106.104 151.928 104.728 151.928C103.128 151.928 102.424 152.936 102.424 154.712V159ZM113.964 159H112.252C110.684 159 109.676 158.344 109.676 156.488V152.072H108.268V151.096H109.676V149.208H110.828V151.096H113.964V152.072H110.828V156.552C110.828 157.656 111.372 157.96 112.524 157.96H113.964V159ZM116.346 159H115.21V151.096H116.234V153.576H116.314C116.586 152.232 117.706 150.936 119.674 150.936C121.898 150.936 123.002 152.52 123.002 154.392V159H121.866V154.552C121.866 152.92 121.082 151.976 119.274 151.976C117.354 151.976 116.346 153.144 116.346 155.176V159ZM128.611 159.16C126.067 159.16 124.451 157.56 124.451 155.048C124.451 152.648 126.051 150.936 128.595 150.936C130.915 150.936 132.563 152.28 132.563 154.632C132.563 154.92 132.531 155.16 132.483 155.368H125.523C125.587 157.144 126.499 158.216 128.595 158.216C130.451 158.216 131.315 157.528 131.315 156.376V156.264H132.451V156.376C132.451 158.024 130.819 159.16 128.611 159.16ZM128.579 151.88C126.531 151.88 125.603 152.936 125.523 154.664H131.491C131.491 154.584 131.491 154.504 131.491 154.424C131.491 152.76 130.435 151.88 128.579 151.88ZM135.205 159H134.069V151.096H135.093V153.256H135.173C135.413 151.992 136.309 150.936 137.957 150.936C139.781 150.936 140.581 152.28 140.581 153.752V154.536H139.445V153.928C139.445 152.584 138.885 151.928 137.509 151.928C135.909 151.928 135.205 152.936 135.205 154.712V159ZM145.658 159.16C143.114 159.16 141.498 157.56 141.498 155.048C141.498 152.648 143.098 150.936 145.641 150.936C147.962 150.936 149.61 152.28 149.61 154.632C149.61 154.92 149.578 155.16 149.53 155.368H142.57C142.634 157.144 143.546 158.216 145.641 158.216C147.498 158.216 148.362 157.528 148.362 156.376V156.264H149.498V156.376C149.498 158.024 147.866 159.16 145.658 159.16ZM145.626 151.88C143.578 151.88 142.65 152.936 142.57 154.664H148.538C148.538 154.584 148.538 154.504 148.538 154.424C148.538 152.76 147.482 151.88 145.626 151.88ZM154.524 159.16C151.996 159.16 150.588 157.448 150.588 155.048C150.588 152.648 151.996 150.936 154.428 150.936C156.3 150.936 157.468 151.944 157.82 153.304H157.9V148.28H159.036V159H157.996V156.664H157.932C157.548 158.248 156.268 159.16 154.524 159.16ZM151.74 155.048C151.74 157.336 152.956 158.12 154.812 158.12C156.668 158.12 157.9 157.048 157.9 155.176V155.032C157.9 153.08 156.732 151.992 154.78 151.992C152.972 151.992 151.74 152.76 151.74 155.048ZM167.018 159H165.61L163.082 151.096H164.25L165.93 156.328L166.33 158.008H166.426L166.97 156.232L169.05 151.096H170.506L172.57 156.232L173.114 157.992H173.21L173.594 156.328L175.29 151.096H176.458L173.898 159H172.474L170.426 153.832L169.802 152.072H169.722L169.098 153.832L167.018 159ZM178.705 150.088H177.569V148.28H178.705V150.088ZM178.705 159H177.569V151.096H178.705V159ZM185.464 159H183.752C182.184 159 181.176 158.344 181.176 156.488V152.072H179.768V151.096H181.176V149.208H182.328V151.096H185.464V152.072H182.328V156.552C182.328 157.656 182.872 157.96 184.024 157.96H185.464V159ZM187.846 159H186.71V148.28H187.846V153.512H187.926C188.182 152.184 189.206 150.936 191.222 150.936C193.43 150.936 194.534 152.408 194.534 154.408V159H193.398V154.552C193.398 152.744 192.55 151.976 190.774 151.976C188.662 151.976 187.846 153.32 187.846 155.288V159ZM200.487 159H199.351V148.28H200.487V153.512H200.567C200.823 152.184 201.847 150.936 203.863 150.936C206.071 150.936 207.175 152.408 207.175 154.408V159H206.039V154.552C206.039 152.744 205.191 151.976 203.415 151.976C201.303 151.976 200.487 153.32 200.487 155.288V159ZM210.19 150.088H209.054V148.28H210.19V150.088ZM210.19 159H209.054V151.096H210.19V159ZM215.493 158.36C213.141 158.36 211.701 156.808 211.701 154.648C211.701 152.488 213.189 150.936 215.621 150.936C217.285 150.936 218.597 151.72 218.917 153.128H218.997V151.096H220.021V158.248C220.021 160.856 218.373 161.88 215.989 161.88C213.845 161.88 212.213 160.808 212.213 158.968H213.349C213.349 160.36 214.277 160.904 216.037 160.904C218.085 160.904 218.885 160.28 218.885 158.312V156.248H218.805C218.485 157.464 217.317 158.36 215.493 158.36ZM212.837 154.648C212.837 156.664 214.085 157.352 215.797 157.352C217.749 157.352 218.885 156.376 218.885 154.696V154.424C218.885 152.872 217.701 151.944 215.877 151.944C214.101 151.944 212.837 152.632 212.837 154.648ZM223.08 159H221.944V148.28H223.08V153.512H223.16C223.416 152.184 224.44 150.936 226.456 150.936C228.664 150.936 229.768 152.408 229.768 154.408V159H228.632V154.552C228.632 152.744 227.784 151.976 226.008 151.976C223.896 151.976 223.08 153.32 223.08 155.288V159ZM235.52 154.824H231.168V153.816H235.52V154.824ZM240.72 159.16C238.176 159.16 236.56 157.56 236.56 155.048C236.56 152.648 238.16 150.936 240.704 150.936C243.024 150.936 244.672 152.28 244.672 154.632C244.672 154.92 244.64 155.16 244.592 155.368H237.632C237.696 157.144 238.608 158.216 240.704 158.216C242.56 158.216 243.424 157.528 243.424 156.376V156.264H244.56V156.376C244.56 158.024 242.928 159.16 240.72 159.16ZM240.688 151.88C238.64 151.88 237.712 152.936 237.632 154.664H243.6C243.6 154.584 243.6 154.504 243.6 154.424C243.6 152.76 242.544 151.88 240.688 151.88ZM247.315 159H246.179V151.096H247.203V153.576H247.283C247.555 152.232 248.675 150.936 250.643 150.936C252.867 150.936 253.971 152.52 253.971 154.392V159H252.835V154.552C252.835 152.92 252.051 151.976 250.243 151.976C248.323 151.976 247.315 153.144 247.315 155.176V159ZM259.227 159.16C256.699 159.16 255.291 157.448 255.291 155.048C255.291 152.648 256.699 150.936 259.131 150.936C261.003 150.936 262.171 151.944 262.523 153.304H262.603V148.28H263.739V159H262.699V156.664H262.635C262.251 158.248 260.971 159.16 259.227 159.16ZM256.443 155.048C256.443 157.336 257.659 158.12 259.515 158.12C261.371 158.12 262.603 157.048 262.603 155.176V155.032C262.603 153.08 261.435 151.992 259.483 151.992C257.675 151.992 256.443 152.76 256.443 155.048ZM272.057 159.16C269.625 159.16 268.217 158.184 268.217 156.36V156.328H269.353V156.424C269.353 157.752 270.137 158.216 272.073 158.216C273.849 158.216 274.457 157.8 274.457 156.888C274.457 156.056 273.961 155.784 272.649 155.576L270.537 155.272C269.097 155.08 268.185 154.52 268.185 153.208C268.185 151.816 269.513 150.936 271.689 150.936C273.961 150.936 275.433 151.896 275.433 153.752V153.784H274.297V153.704C274.297 152.52 273.673 151.88 271.657 151.88C269.993 151.88 269.305 152.28 269.305 153.224C269.305 154.04 269.721 154.328 271.033 154.52L272.969 154.792C274.665 155.032 275.577 155.608 275.577 156.888C275.577 158.376 274.105 159.16 272.057 159.16ZM281.917 159H280.205C278.637 159 277.629 158.344 277.629 156.488V152.072H276.221V151.096H277.629V149.208H278.781V151.096H281.917V152.072H278.781V156.552C278.781 157.656 279.325 157.96 280.477 157.96H281.917V159ZM287.035 159.16C284.459 159.16 282.747 157.448 282.747 155.048C282.747 152.648 284.459 150.936 287.035 150.936C289.627 150.936 291.339 152.648 291.339 155.048C291.339 157.448 289.627 159.16 287.035 159.16ZM287.035 158.136C289.211 158.136 290.219 156.968 290.219 155.048C290.219 153.144 289.211 151.96 287.035 151.96C284.859 151.96 283.867 153.144 283.867 155.048C283.867 156.968 284.859 158.136 287.035 158.136ZM293.987 159H292.851V151.096H293.875V153.256H293.955C294.195 151.992 295.091 150.936 296.739 150.936C298.563 150.936 299.363 152.28 299.363 153.752V154.536H298.227V153.928C298.227 152.584 297.667 151.928 296.291 151.928C294.691 151.928 293.987 152.936 293.987 154.712V159ZM304.439 159.16C301.895 159.16 300.279 157.56 300.279 155.048C300.279 152.648 301.879 150.936 304.423 150.936C306.743 150.936 308.391 152.28 308.391 154.632C308.391 154.92 308.359 155.16 308.311 155.368H301.351C301.415 157.144 302.327 158.216 304.423 158.216C306.279 158.216 307.143 157.528 307.143 156.376V156.264H308.279V156.376C308.279 158.024 306.647 159.16 304.439 159.16ZM304.407 151.88C302.359 151.88 301.431 152.936 301.351 154.664H307.319C307.319 154.584 307.319 154.504 307.319 154.424C307.319 152.76 306.263 151.88 304.407 151.88ZM313.37 159.16C310.938 159.16 309.53 158.184 309.53 156.36V156.328H310.666V156.424C310.666 157.752 311.45 158.216 313.386 158.216C315.162 158.216 315.77 157.8 315.77 156.888C315.77 156.056 315.274 155.784 313.962 155.576L311.85 155.272C310.41 155.08 309.498 154.52 309.498 153.208C309.498 151.816 310.826 150.936 313.002 150.936C315.274 150.936 316.746 151.896 316.746 153.752V153.784H315.61V153.704C315.61 152.52 314.986 151.88 312.97 151.88C311.306 151.88 310.618 152.28 310.618 153.224C310.618 154.04 311.034 154.328 312.346 154.52L314.282 154.792C315.978 155.032 316.89 155.608 316.89 156.888C316.89 158.376 315.418 159.16 313.37 159.16ZM326.167 159H324.455C322.887 159 321.879 158.344 321.879 156.488V152.072H320.471V151.096H321.879V149.208H323.031V151.096H326.167V152.072H323.031V156.552C323.031 157.656 323.575 157.96 324.727 157.96H326.167V159ZM331.285 159.16C328.709 159.16 326.997 157.448 326.997 155.048C326.997 152.648 328.709 150.936 331.285 150.936C333.877 150.936 335.589 152.648 335.589 155.048C335.589 157.448 333.877 159.16 331.285 159.16ZM331.285 158.136C333.461 158.136 334.469 156.968 334.469 155.048C334.469 153.144 333.461 151.96 331.285 151.96C329.109 151.96 328.117 153.144 328.117 155.048C328.117 156.968 329.109 158.136 331.285 158.136ZM341.062 159H340.038V148.28H341.174V153.304H341.254C341.59 151.944 342.726 150.936 344.63 150.936C347.11 150.936 348.47 152.648 348.47 155.048C348.47 157.448 347.11 159.16 344.534 159.16C342.774 159.16 341.51 158.248 341.142 156.664H341.062V159ZM341.174 155.176C341.174 157.048 342.358 158.12 344.262 158.12C346.15 158.12 347.318 157.336 347.318 155.048C347.318 152.76 346.118 151.992 344.294 151.992C342.294 151.992 341.174 153.08 341.174 155.032V155.176ZM351.002 159H349.866V151.096H350.89V153.256H350.97C351.21 151.992 352.106 150.936 353.754 150.936C355.578 150.936 356.378 152.28 356.378 153.752V154.536H355.242V153.928C355.242 152.584 354.682 151.928 353.306 151.928C351.706 151.928 351.002 152.936 351.002 154.712V159ZM358.83 150.088H357.694V148.28H358.83V150.088ZM358.83 159H357.694V151.096H358.83V159ZM361.877 159H360.741V151.096H361.765V153.576H361.845C362.117 152.232 363.237 150.936 365.205 150.936C367.429 150.936 368.533 152.52 368.533 154.392V159H367.397V154.552C367.397 152.92 366.613 151.976 364.805 151.976C362.885 151.976 361.877 153.144 361.877 155.176V159ZM373.774 158.36C371.422 158.36 369.982 156.808 369.982 154.648C369.982 152.488 371.47 150.936 373.902 150.936C375.566 150.936 376.878 151.72 377.198 153.128H377.278V151.096H378.302V158.248C378.302 160.856 376.654 161.88 374.27 161.88C372.126 161.88 370.494 160.808 370.494 158.968H371.63C371.63 160.36 372.558 160.904 374.318 160.904C376.366 160.904 377.166 160.28 377.166 158.312V156.248H377.086C376.766 157.464 375.598 158.36 373.774 158.36ZM371.118 154.648C371.118 156.664 372.366 157.352 374.078 157.352C376.03 157.352 377.166 156.376 377.166 154.696V154.424C377.166 152.872 375.982 151.944 374.158 151.944C372.382 151.944 371.118 152.632 371.118 154.648ZM384.203 161.72H383.211V160.68H384.411C385.211 160.68 385.515 160.44 385.819 159.784L386.203 158.984L382.283 151.096H383.531L385.851 155.8L386.731 157.736H386.827L387.675 155.784L389.867 151.096H391.115L386.827 160.104C386.251 161.32 385.515 161.72 384.203 161.72ZM396.082 159.16C393.506 159.16 391.794 157.448 391.794 155.048C391.794 152.648 393.506 150.936 396.082 150.936C398.674 150.936 400.386 152.648 400.386 155.048C400.386 157.448 398.674 159.16 396.082 159.16ZM396.082 158.136C398.258 158.136 399.266 156.968 399.266 155.048C399.266 153.144 398.258 151.96 396.082 151.96C393.906 151.96 392.914 153.144 392.914 155.048C392.914 156.968 393.906 158.136 396.082 158.136ZM405.21 159.16C402.954 159.16 401.85 157.592 401.85 155.72V151.096H402.986V155.544C402.986 157.192 403.786 158.136 405.61 158.136C407.546 158.136 408.554 156.968 408.554 154.936V151.096H409.69V159H408.666V156.536H408.586C408.314 157.88 407.178 159.16 405.21 159.16ZM416.73 159.16C415.178 159.16 414.122 158.424 414.122 157.144C414.122 155.848 415.194 155.288 416.666 155.128L420.426 154.712V154.104C420.426 152.568 419.754 151.96 418.026 151.96C416.33 151.96 415.434 152.568 415.434 153.96V154.024H414.298V153.96C414.298 152.296 415.674 150.936 418.106 150.936C420.506 150.936 421.53 152.312 421.53 154.056V159H420.506V156.872H420.426C419.962 158.328 418.57 159.16 416.73 159.16ZM415.258 157.064C415.258 157.864 415.786 158.28 416.986 158.28C418.906 158.28 420.426 157.432 420.426 155.528V155.464L417.018 155.848C415.834 155.96 415.258 156.248 415.258 157.064ZM424.534 159H423.398V151.096H424.422V153.576H424.502C424.774 152.232 425.894 150.936 427.862 150.936C430.086 150.936 431.19 152.52 431.19 154.392V159H430.054V154.552C430.054 152.92 429.27 151.976 427.462 151.976C425.542 151.976 424.534 153.144 424.534 155.176V159ZM57.72 179.16C55.176 179.16 53.56 177.56 53.56 175.048C53.56 172.648 55.16 170.936 57.704 170.936C60.024 170.936 61.672 172.28 61.672 174.632C61.672 174.92 61.64 175.16 61.592 175.368H54.632C54.696 177.144 55.608 178.216 57.704 178.216C59.56 178.216 60.424 177.528 60.424 176.376V176.264H61.56V176.376C61.56 178.024 59.928 179.16 57.72 179.16ZM57.688 171.88C55.64 171.88 54.712 172.936 54.632 174.664H60.6C60.6 174.584 60.6 174.504 60.6 174.424C60.6 172.76 59.544 171.88 57.688 171.88ZM63.7228 179H62.3628L65.9628 175.064V174.984L62.3628 171.096H63.7388L66.8268 174.376H66.9068L69.9788 171.096H71.3388L67.7228 174.952V175.032L71.3388 179H69.9628L66.8588 175.656H66.7948L63.7228 179ZM77.2924 179H75.5804C74.0124 179 73.0044 178.344 73.0044 176.488V172.072H71.5964V171.096H73.0044V169.208H74.1564V171.096H77.2924V172.072H74.1564V176.552C74.1564 177.656 74.7004 177.96 75.8524 177.96H77.2924V179ZM82.2981 179.16C79.7541 179.16 78.1381 177.56 78.1381 175.048C78.1381 172.648 79.7381 170.936 82.2821 170.936C84.6021 170.936 86.2501 172.28 86.2501 174.632C86.2501 174.92 86.2181 175.16 86.1701 175.368H79.2101C79.2741 177.144 80.1861 178.216 82.2821 178.216C84.1381 178.216 85.0021 177.528 85.0021 176.376V176.264H86.1381V176.376C86.1381 178.024 84.5061 179.16 82.2981 179.16ZM82.2661 171.88C80.2181 171.88 79.2901 172.936 79.2101 174.664H85.1781C85.1781 174.584 85.1781 174.504 85.1781 174.424C85.1781 172.76 84.1221 171.88 82.2661 171.88ZM88.8929 179H87.7569V171.096H88.7809V173.576H88.8609C89.1329 172.232 90.2529 170.936 92.2209 170.936C94.4449 170.936 95.5489 172.52 95.5489 174.392V179H94.4129V174.552C94.4129 172.92 93.6289 171.976 91.8209 171.976C89.9009 171.976 88.8929 173.144 88.8929 175.176V179ZM100.87 179.16C98.4375 179.16 97.0295 178.184 97.0295 176.36V176.328H98.1655V176.424C98.1655 177.752 98.9495 178.216 100.886 178.216C102.662 178.216 103.27 177.8 103.27 176.888C103.27 176.056 102.774 175.784 101.462 175.576L99.3495 175.272C97.9095 175.08 96.9975 174.52 96.9975 173.208C96.9975 171.816 98.3255 170.936 100.502 170.936C102.774 170.936 104.246 171.896 104.246 173.752V173.784H103.11V173.704C103.11 172.52 102.486 171.88 100.47 171.88C98.8055 171.88 98.1175 172.28 98.1175 173.224C98.1175 174.04 98.5335 174.328 99.8455 174.52L101.782 174.792C103.478 175.032 104.39 175.608 104.39 176.888C104.39 178.376 102.918 179.16 100.87 179.16ZM107.018 170.088H105.882V168.28H107.018V170.088ZM107.018 179H105.882V171.096H107.018V179ZM113.297 179H111.905L108.129 171.096H109.361L112.561 177.88H112.657L115.841 171.096H117.073L113.297 179ZM121.954 179.16C119.41 179.16 117.794 177.56 117.794 175.048C117.794 172.648 119.394 170.936 121.938 170.936C124.258 170.936 125.906 172.28 125.906 174.632C125.906 174.92 125.874 175.16 125.826 175.368H118.866C118.93 177.144 119.842 178.216 121.938 178.216C123.794 178.216 124.658 177.528 124.658 176.376V176.264H125.794V176.376C125.794 178.024 124.162 179.16 121.954 179.16ZM121.922 171.88C119.874 171.88 118.946 172.936 118.866 174.664H124.834C124.834 174.584 124.834 174.504 124.834 174.424C124.834 172.76 123.778 171.88 121.922 171.88ZM131.487 179H130.351V171.096H131.375V173.256H131.455C131.695 171.992 132.591 170.936 134.239 170.936C136.063 170.936 136.863 172.28 136.863 173.752V174.536H135.727V173.928C135.727 172.584 135.167 171.928 133.791 171.928C132.191 171.928 131.487 172.936 131.487 174.712V179ZM140.371 179.16C138.819 179.16 137.763 178.424 137.763 177.144C137.763 175.848 138.835 175.288 140.307 175.128L144.067 174.712V174.104C144.067 172.568 143.395 171.96 141.667 171.96C139.971 171.96 139.075 172.568 139.075 173.96V174.024H137.939V173.96C137.939 172.296 139.315 170.936 141.747 170.936C144.147 170.936 145.171 172.312 145.171 174.056V179H144.147V176.872H144.067C143.603 178.328 142.211 179.16 140.371 179.16ZM138.899 177.064C138.899 177.864 139.427 178.28 140.627 178.28C142.547 178.28 144.067 177.432 144.067 175.528V175.464L140.659 175.848C139.475 175.96 138.899 176.248 138.899 177.064ZM148.174 179H147.038V171.096H148.062V173.576H148.142C148.414 172.232 149.534 170.936 151.502 170.936C153.726 170.936 154.83 172.52 154.83 174.392V179H153.694V174.552C153.694 172.92 152.91 171.976 151.102 171.976C149.182 171.976 148.174 173.144 148.174 175.176V179ZM160.071 178.36C157.719 178.36 156.279 176.808 156.279 174.648C156.279 172.488 157.767 170.936 160.199 170.936C161.863 170.936 163.175 171.72 163.495 173.128H163.575V171.096H164.599V178.248C164.599 180.856 162.951 181.88 160.567 181.88C158.423 181.88 156.791 180.808 156.791 178.968H157.927C157.927 180.36 158.855 180.904 160.615 180.904C162.663 180.904 163.463 180.28 163.463 178.312V176.248H163.383C163.063 177.464 161.895 178.36 160.071 178.36ZM157.415 174.648C157.415 176.664 158.663 177.352 160.375 177.352C162.327 177.352 163.463 176.376 163.463 174.696V174.424C163.463 172.872 162.279 171.944 160.455 171.944C158.679 171.944 157.415 172.632 157.415 174.648ZM170.283 179.16C167.739 179.16 166.123 177.56 166.123 175.048C166.123 172.648 167.723 170.936 170.266 170.936C172.587 170.936 174.235 172.28 174.235 174.632C174.235 174.92 174.203 175.16 174.155 175.368H167.195C167.259 177.144 168.171 178.216 170.266 178.216C172.123 178.216 172.987 177.528 172.987 176.376V176.264H174.123V176.376C174.123 178.024 172.491 179.16 170.283 179.16ZM170.251 171.88C168.203 171.88 167.275 172.936 167.195 174.664H173.163C173.163 174.584 173.163 174.504 173.163 174.424C173.163 172.76 172.107 171.88 170.251 171.88ZM182.551 179.16C179.975 179.16 178.263 177.448 178.263 175.048C178.263 172.648 179.975 170.936 182.551 170.936C185.143 170.936 186.855 172.648 186.855 175.048C186.855 177.448 185.143 179.16 182.551 179.16ZM182.551 178.136C184.727 178.136 185.735 176.968 185.735 175.048C185.735 173.144 184.727 171.96 182.551 171.96C180.375 171.96 179.383 173.144 179.383 175.048C179.383 176.968 180.375 178.136 182.551 178.136ZM190.062 179H188.926V172.072H187.662V171.096H188.942C189.07 169.224 190.334 168.28 192.382 168.28H193.246V169.176H192.222C190.782 169.176 189.998 169.656 190.062 171.096H193.246V172.072H190.062V179ZM198.44 181.72H197.304V171.096H198.328V173.32H198.456C198.808 171.896 199.992 170.936 201.864 170.936C204.328 170.936 205.736 172.648 205.736 175.048C205.736 177.448 204.344 179.16 201.832 179.16C200.088 179.16 198.824 178.2 198.456 176.68H198.44V181.72ZM198.44 175.192C198.44 177.064 199.672 178.12 201.528 178.12C203.368 178.12 204.584 177.336 204.584 175.048C204.584 172.76 203.352 171.992 201.56 171.992C199.592 171.992 198.44 173.096 198.44 175.048V175.192ZM208.268 179H207.132V171.096H208.156V173.256H208.236C208.476 171.992 209.372 170.936 211.02 170.936C212.844 170.936 213.644 172.28 213.644 173.752V174.536H212.508V173.928C212.508 172.584 211.948 171.928 210.572 171.928C208.972 171.928 208.268 172.936 208.268 174.712V179ZM218.832 179.16C216.256 179.16 214.544 177.448 214.544 175.048C214.544 172.648 216.256 170.936 218.832 170.936C221.424 170.936 223.136 172.648 223.136 175.048C223.136 177.448 221.424 179.16 218.832 179.16ZM218.832 178.136C221.008 178.136 222.016 176.968 222.016 175.048C222.016 173.144 221.008 171.96 218.832 171.96C216.656 171.96 215.664 173.144 215.664 175.048C215.664 176.968 216.656 178.136 218.832 178.136ZM228.056 179.16C225.528 179.16 224.12 177.448 224.12 175.048C224.12 172.648 225.528 170.936 227.96 170.936C229.832 170.936 231 171.944 231.352 173.304H231.432V168.28H232.568V179H231.528V176.664H231.464C231.08 178.248 229.8 179.16 228.056 179.16ZM225.272 175.048C225.272 177.336 226.488 178.12 228.344 178.12C230.2 178.12 231.432 177.048 231.432 175.176V175.032C231.432 173.08 230.264 171.992 228.312 171.992C226.504 171.992 225.272 172.76 225.272 175.048ZM237.788 179.16C235.532 179.16 234.428 177.592 234.428 175.72V171.096H235.564V175.544C235.564 177.192 236.364 178.136 238.188 178.136C240.124 178.136 241.132 176.968 241.132 174.936V171.096H242.268V179H241.244V176.536H241.164C240.892 177.88 239.756 179.16 237.788 179.16ZM247.955 179.16C245.427 179.16 243.779 177.448 243.779 175.048C243.779 172.648 245.427 170.936 247.955 170.936C250.163 170.936 251.891 172.248 251.891 174.152V174.28H250.771V174.184C250.771 172.776 249.747 171.976 247.939 171.976C245.827 171.976 244.915 173.112 244.915 175.048C244.915 176.984 245.827 178.12 247.939 178.12C249.747 178.12 250.771 177.32 250.771 175.912V175.816H251.891V175.944C251.891 177.848 250.163 179.16 247.955 179.16ZM258.261 179H256.549C254.981 179 253.973 178.344 253.973 176.488V172.072H252.565V171.096H253.973V169.208H255.125V171.096H258.261V172.072H255.125V176.552C255.125 177.656 255.669 177.96 256.821 177.96H258.261V179ZM262.979 179.16C260.547 179.16 259.139 178.184 259.139 176.36V176.328H260.275V176.424C260.275 177.752 261.059 178.216 262.995 178.216C264.771 178.216 265.379 177.8 265.379 176.888C265.379 176.056 264.883 175.784 263.571 175.576L261.459 175.272C260.019 175.08 259.107 174.52 259.107 173.208C259.107 171.816 260.435 170.936 262.611 170.936C264.883 170.936 266.355 171.896 266.355 173.752V173.784H265.219V173.704C265.219 172.52 264.595 171.88 262.579 171.88C260.915 171.88 260.227 172.28 260.227 173.224C260.227 174.04 260.643 174.328 261.955 174.52L263.891 174.792C265.587 175.032 266.499 175.608 266.499 176.888C266.499 178.376 265.027 179.16 262.979 179.16ZM268.919 179H267.511V176.776H268.919V179Z" fill="white"/>
<g clip-path="url(#clip0_5188_15012)">
<mask id="mask0_5188_15012" style="mask-type:luminance" maskUnits="userSpaceOnUse" x="884" y="114" width="294" height="46">
<path d="M1178 114H884V160H1178V114Z" fill="white"/>
</mask>
<g mask="url(#mask0_5188_15012)">
<path d="M987.133 139.694C993.55 142.553 1000.18 145.288 999.169 151.504C998.079 158.259 988.055 159.544 979.835 159.544H977.864C966.582 159.254 960.92 158.342 960.92 158.342L961.381 151.007C961.381 151.007 969.182 152.416 976.564 152.665C980.758 152.789 983.819 152.582 983.903 151.132C983.987 149.847 981.89 149.184 977.444 147.443L973.544 145.91C968.847 144.004 961.172 141.227 961.549 134.845C961.927 128.629 969.518 126.681 974.047 126.059C976.69 125.686 979.458 125.562 983.316 125.604C991.788 125.686 998.918 127.22 998.918 127.22L998.247 134.058C998.247 134.058 990.697 132.441 983.106 132.441C978.283 132.441 976.648 132.98 976.396 133.809C975.935 135.259 978.619 136.296 982.142 137.663L987.133 139.694ZM1015.95 145.454V145.578C1015.95 147.816 1017.96 152.623 1027.94 152.996H1028.61C1035.78 152.996 1042.37 151.587 1043.46 151.38C1043.08 153.701 1042.62 156.726 1042.37 158.177C1040.14 158.798 1034.99 160 1026.89 160C1004.92 160 1002.23 149.64 1002.82 142.636C1003.45 134.928 1010.95 125.604 1025.93 125.728C1027.35 125.728 1028.7 125.852 1029.91 126.018C1033.27 126.515 1047.53 129.623 1044.67 145.496L1015.95 145.454ZM1033.43 139.196C1033.43 139.196 1033.98 132.234 1025.59 132.151C1019.85 132.193 1017.12 135.715 1016.49 139.196H1033.43ZM1148.77 145.454V145.578C1148.77 147.816 1150.78 152.623 1160.76 152.996H1161.44C1168.61 152.996 1175.19 151.587 1176.28 151.38C1175.9 153.701 1175.44 156.726 1175.19 158.177C1172.97 158.798 1167.77 160 1159.72 160C1137.74 160 1135.06 149.64 1135.64 142.636C1136.27 134.928 1143.74 125.604 1158.71 125.728C1160.14 125.728 1161.48 125.852 1162.69 126.018C1166.05 126.515 1180.27 129.623 1177.46 145.496L1148.77 145.454ZM1166.26 139.196C1166.26 139.196 1166.8 132.234 1158.42 132.151C1152.67 132.193 1149.94 135.715 1149.32 139.196H1166.26ZM1076.67 137.622C1076.3 143.465 1075.29 159.254 1075.29 159.254H1088.46L1089.89 137.29C1090.51 127.303 1083.39 126.557 1078.65 126.101C1078.31 126.059 1075.84 125.852 1072.4 125.852C1071.52 125.852 1070.55 125.852 1069.59 125.894C1061.41 126.184 1051.01 127.386 1051.01 127.386L1048.95 159.213H1062.08L1063.67 133.395C1063.67 133.395 1068.37 132.732 1072.06 132.897C1073.32 132.939 1076.97 132.897 1076.67 137.622ZM954.671 114H943.725L943.054 122.661H957.146C957.146 122.661 957.523 117.73 957.565 116.901C957.733 114.953 956.936 114 954.671 114ZM1120.12 139.694L1115.09 137.622C1111.57 136.213 1108.89 135.177 1109.35 133.726C1109.6 132.939 1111.23 132.4 1116.06 132.359C1123.65 132.359 1131.2 133.975 1131.2 133.975L1131.87 127.137C1131.87 127.137 1124.74 125.645 1116.27 125.521C1112.41 125.479 1109.64 125.604 1107 125.977C1102.51 126.598 1094.88 128.546 1094.5 134.762C1094.12 141.103 1101.8 143.879 1106.49 145.827L1110.39 147.36C1114.84 149.101 1116.94 149.764 1116.85 151.049C1116.77 152.458 1113.71 152.706 1109.51 152.582C1102.13 152.333 1094.33 150.924 1094.33 150.924L1093.87 158.259C1093.87 158.259 1099.53 159.13 1110.81 159.461C1111.49 159.461 1112.16 159.503 1112.79 159.503C1121 159.503 1131.03 158.218 1132.12 151.463C1133.08 145.288 1126.54 142.553 1120.12 139.694ZM922.587 114L921.329 129.831H900.694L901.743 116.901C901.785 114.124 899.394 114 898.22 114H887.567L884.002 159.296H898.429L900.023 139.238H920.658L919.064 159.296H933.449L936.972 114H922.587ZM942.76 126.35L940.202 159.296H954.294L956.894 126.35H942.76Z" fill="white"/>
</g>
</g>
<defs>
<clipPath id="clip0_5188_15012">
<rect width="294" height="46" fill="white" transform="translate(884 114)"/>
</clipPath>
</defs>
</svg>
