<svg width="668" height="274" viewBox="0 0 668 274" fill="none" xmlns="http://www.w3.org/2000/svg">
<g clip-path="url(#clip0_5184_12698)">
<rect width="668" height="274" rx="24" fill="#C70E10"/>
<path d="M35.792 117H33.2V100.92H36.728L41.36 110.232L42.824 113.568H43.016L44.432 110.232L49.016 100.92H52.544V117H49.952V107.136L50.048 104.808H49.856L48.872 107.136L44.432 116.04H41.312L36.872 107.136L35.888 104.808H35.696L35.792 107.136V117ZM60.71 117.24C56.798 117.24 54.23 115.032 54.23 111.048C54.23 107.328 56.774 104.832 60.662 104.832C64.358 104.832 66.878 106.872 66.878 110.496C66.878 110.928 66.854 111.264 66.782 111.624H56.654C56.75 113.928 57.878 115.152 60.638 115.152C63.134 115.152 64.166 114.336 64.166 112.92V112.728H66.758V112.944C66.758 115.488 64.262 117.24 60.71 117.24ZM60.614 106.872C57.974 106.872 56.822 108.048 56.678 110.184H64.43V110.136C64.43 107.928 63.158 106.872 60.614 106.872ZM74.5794 117.24C70.6674 117.24 68.0994 115.032 68.0994 111.048C68.0994 107.328 70.6434 104.832 74.5314 104.832C78.2274 104.832 80.7474 106.872 80.7474 110.496C80.7474 110.928 80.7234 111.264 80.6514 111.624H70.5234C70.6194 113.928 71.7474 115.152 74.5074 115.152C77.0034 115.152 78.0354 114.336 78.0354 112.92V112.728H80.6274V112.944C80.6274 115.488 78.1314 117.24 74.5794 117.24ZM74.4834 106.872C71.8434 106.872 70.6914 108.048 70.5474 110.184H78.2994V110.136C78.2994 107.928 77.0274 106.872 74.4834 106.872ZM90.2727 117H87.5367C84.9687 117 83.3847 115.872 83.3847 112.968V107.232H81.3687V105.072H83.3847V102.456H85.9527V105.072H90.2727V107.232H85.9527V112.824C85.9527 114.288 86.6247 114.672 88.1127 114.672H90.2727V117ZM103.34 117H100.604C98.0356 117 96.4516 115.872 96.4516 112.968V107.232H94.4356V105.072H96.4516V102.456H99.0196V105.072H103.34V107.232H99.0196V112.824C99.0196 114.288 99.6916 114.672 101.18 114.672H103.34V117ZM107.313 117H104.721V100.92H107.313V108.72H107.457C107.865 106.704 109.329 104.832 112.377 104.832C115.665 104.832 117.273 106.992 117.273 109.896V117H114.705V110.52C114.705 108.12 113.625 107.16 111.153 107.16C108.321 107.16 107.313 108.696 107.313 111.216V117ZM125.364 117.24C121.452 117.24 118.884 115.032 118.884 111.048C118.884 107.328 121.428 104.832 125.316 104.832C129.012 104.832 131.532 106.872 131.532 110.496C131.532 110.928 131.508 111.264 131.436 111.624H121.308C121.404 113.928 122.532 115.152 125.292 115.152C127.788 115.152 128.82 114.336 128.82 112.92V112.728H131.412V112.944C131.412 115.488 128.916 117.24 125.364 117.24ZM125.268 106.872C122.628 106.872 121.476 108.048 121.332 110.184H129.084V110.136C129.084 107.928 127.812 106.872 125.268 106.872ZM144.559 117H137.239V100.92H144.559C149.551 100.92 152.695 103.992 152.695 108.96C152.695 113.928 149.551 117 144.559 117ZM144.559 103.248H139.807V114.672H144.559C148.279 114.672 149.959 113.088 149.959 108.96C149.959 104.832 148.279 103.248 144.559 103.248ZM160.386 117.24C156.474 117.24 153.906 115.032 153.906 111.048C153.906 107.328 156.45 104.832 160.338 104.832C164.034 104.832 166.554 106.872 166.554 110.496C166.554 110.928 166.53 111.264 166.458 111.624H156.33C156.426 113.928 157.554 115.152 160.314 115.152C162.81 115.152 163.842 114.336 163.842 112.92V112.728H166.434V112.944C166.434 115.488 163.938 117.24 160.386 117.24ZM160.29 106.872C157.65 106.872 156.498 108.048 156.354 110.184H164.106V110.136C164.106 107.928 162.834 106.872 160.29 106.872ZM175.911 117H172.743L167.175 105.072H170.031L174.279 114.48H174.471L178.719 105.072H181.527L175.911 117ZM188.257 117.24C184.417 117.24 182.233 115.728 182.233 112.968V112.896H184.825V113.088C184.825 114.648 185.761 115.152 188.257 115.152C190.585 115.152 191.281 114.672 191.281 113.616C191.281 112.632 190.705 112.32 189.001 112.08L185.737 111.648C183.481 111.36 182.113 110.4 182.113 108.408C182.113 106.32 184.009 104.832 187.681 104.832C191.329 104.832 193.537 106.296 193.537 109.128V109.2H190.969V109.056C190.969 107.64 190.249 106.896 187.609 106.896C185.425 106.896 184.657 107.376 184.657 108.504C184.657 109.44 185.137 109.776 186.937 110.016L189.697 110.4C192.529 110.76 193.825 111.72 193.825 113.688C193.825 115.92 191.617 117.24 188.257 117.24ZM198.287 111.72H195.767C195.767 109.392 195.383 104.448 195.383 102.6V100.92H198.671V102.6C198.671 104.448 198.287 109.416 198.287 111.72ZM198.479 117H195.551V113.448H198.479V117Z" fill="white"/>
<path d="M33.328 155H32.08L36.928 144.28H38.512L43.376 155H42.096L40.656 151.848H34.768L33.328 155ZM37.072 146.76L35.232 150.824H40.192L38.336 146.76L37.744 145.368H37.648L37.072 146.76ZM49.2611 155H47.5491C45.9811 155 44.9731 154.344 44.9731 152.488V148.072H43.5651V147.096H44.9731V145.208H46.1251V147.096H49.2611V148.072H46.1251V152.552C46.1251 153.656 46.6691 153.96 47.8211 153.96H49.2611V155ZM62.4844 155H53.0604V153.96L60.6284 145.4V145.32H53.3164V144.28H62.2924V145.32L54.6444 153.88V153.96H62.4844V155ZM67.3345 155.16C65.0785 155.16 63.9745 153.592 63.9745 151.72V147.096H65.1105V151.544C65.1105 153.192 65.9105 154.136 67.7345 154.136C69.6705 154.136 70.6785 152.968 70.6785 150.936V147.096H71.8145V155H70.7905V152.536H70.7105C70.4385 153.88 69.3025 155.16 67.3345 155.16ZM74.8616 155H73.7256V147.096H74.7496V149.48H74.8136C75.0376 148.152 75.9496 146.936 77.9176 146.936C79.6776 146.936 80.6696 148.024 80.9256 149.56H81.0056C81.2296 148.2 82.1736 146.936 84.1576 146.936C86.2216 146.936 87.2936 148.392 87.2936 150.392V155H86.1576V150.552C86.1576 148.792 85.4056 147.976 83.7416 147.976C81.8376 147.976 81.0696 149.08 81.0696 151.176V155H79.9336V150.552C79.9336 148.792 79.1976 147.976 77.5336 147.976C75.6136 147.976 74.8616 149.08 74.8616 151.176V155ZM90.1715 155H89.1475V144.28H90.2835V149.304H90.3635C90.6995 147.944 91.8355 146.936 93.7395 146.936C96.2195 146.936 97.5795 148.648 97.5795 151.048C97.5795 153.448 96.2195 155.16 93.6435 155.16C91.8835 155.16 90.6195 154.248 90.2515 152.664H90.1715V155ZM90.2835 151.176C90.2835 153.048 91.4675 154.12 93.3715 154.12C95.2595 154.12 96.4275 153.336 96.4275 151.048C96.4275 148.76 95.2275 147.992 93.4035 147.992C91.4035 147.992 90.2835 149.08 90.2835 151.032V151.176ZM102.848 155.16C100.272 155.16 98.5596 153.448 98.5596 151.048C98.5596 148.648 100.272 146.936 102.848 146.936C105.44 146.936 107.152 148.648 107.152 151.048C107.152 153.448 105.44 155.16 102.848 155.16ZM102.848 154.136C105.024 154.136 106.032 152.968 106.032 151.048C106.032 149.144 105.024 147.96 102.848 147.96C100.672 147.96 99.6796 149.144 99.6796 151.048C99.6796 152.968 100.672 154.136 102.848 154.136ZM109.207 155H107.847L111.447 151.064V150.984L107.847 147.096H109.223L112.311 150.376H112.391L115.463 147.096H116.823L113.207 150.952V151.032L116.823 155H115.447L112.343 151.656H112.279L109.207 155ZM117.769 156.408H117.433V155.72H117.753C117.961 155.72 118.073 155.672 118.073 155.384V155H117.449V152.776H118.857V155.368C118.857 156.072 118.441 156.408 117.769 156.408ZM127.337 155H125.641L122.537 144.28H123.801L125.929 151.672L126.489 153.864H126.585L127.225 151.672L129.721 144.28H131.321L134.073 151.672L134.793 153.864H134.873L135.369 151.672L137.241 144.28H138.489L135.721 155H134.025L131.417 148.024L130.569 145.528H130.457L129.705 148.024L127.337 155ZM143.486 155.16C140.942 155.16 139.326 153.56 139.326 151.048C139.326 148.648 140.926 146.936 143.47 146.936C145.79 146.936 147.438 148.28 147.438 150.632C147.438 150.92 147.406 151.16 147.358 151.368H140.398C140.462 153.144 141.374 154.216 143.47 154.216C145.326 154.216 146.19 153.528 146.19 152.376V152.264H147.326V152.376C147.326 154.024 145.694 155.16 143.486 155.16ZM143.454 147.88C141.406 147.88 140.478 148.936 140.398 150.664H146.366C146.366 150.584 146.366 150.504 146.366 150.424C146.366 148.76 145.31 147.88 143.454 147.88ZM155.018 155H153.61L151.082 147.096H152.25L153.93 152.328L154.33 154.008H154.426L154.97 152.232L157.05 147.096H158.506L160.57 152.232L161.114 153.992H161.21L161.594 152.328L163.29 147.096H164.458L161.898 155H160.474L158.426 149.832L157.802 148.072H157.722L157.098 149.832L155.018 155ZM169.441 155.16C166.865 155.16 165.153 153.448 165.153 151.048C165.153 148.648 166.865 146.936 169.441 146.936C172.033 146.936 173.745 148.648 173.745 151.048C173.745 153.448 172.033 155.16 169.441 155.16ZM169.441 154.136C171.617 154.136 172.625 152.968 172.625 151.048C172.625 149.144 171.617 147.96 169.441 147.96C167.265 147.96 166.273 149.144 166.273 151.048C166.273 152.968 167.265 154.136 169.441 154.136ZM176.393 155H175.257V147.096H176.281V149.256H176.361C176.601 147.992 177.497 146.936 179.145 146.936C180.969 146.936 181.769 148.28 181.769 149.752V150.536H180.633V149.928C180.633 148.584 180.073 147.928 178.697 147.928C177.097 147.928 176.393 148.936 176.393 150.712V155ZM184.221 155H183.085V144.28H184.221V150.408H186.877L189.517 147.096H190.861L187.805 150.872L190.845 155H189.517L186.861 151.448H184.221V155ZM199.746 155H198.034C196.466 155 195.458 154.344 195.458 152.488V148.072H194.05V147.096H195.458V145.208H196.61V147.096H199.746V148.072H196.61V152.552C196.61 153.656 197.154 153.96 198.306 153.96H199.746V155ZM204.863 155.16C202.287 155.16 200.575 153.448 200.575 151.048C200.575 148.648 202.287 146.936 204.863 146.936C207.455 146.936 209.167 148.648 209.167 151.048C209.167 153.448 207.455 155.16 204.863 155.16ZM204.863 154.136C207.039 154.136 208.047 152.968 208.047 151.048C208.047 149.144 207.039 147.96 204.863 147.96C202.687 147.96 201.695 149.144 201.695 151.048C201.695 152.968 202.687 154.136 204.863 154.136ZM214.752 155H213.616V147.096H214.64V149.48H214.704C214.928 148.152 215.84 146.936 217.808 146.936C219.568 146.936 220.56 148.024 220.816 149.56H220.896C221.12 148.2 222.064 146.936 224.048 146.936C226.112 146.936 227.184 148.392 227.184 150.392V155H226.048V150.552C226.048 148.792 225.296 147.976 223.632 147.976C221.728 147.976 220.96 149.08 220.96 151.176V155H219.824V150.552C219.824 148.792 219.088 147.976 217.424 147.976C215.504 147.976 214.752 149.08 214.752 151.176V155ZM231.23 155.16C229.678 155.16 228.622 154.424 228.622 153.144C228.622 151.848 229.694 151.288 231.166 151.128L234.926 150.712V150.104C234.926 148.568 234.254 147.96 232.526 147.96C230.83 147.96 229.934 148.568 229.934 149.96V150.024H228.798V149.96C228.798 148.296 230.174 146.936 232.606 146.936C235.006 146.936 236.03 148.312 236.03 150.056V155H235.006V152.872H234.926C234.462 154.328 233.07 155.16 231.23 155.16ZM229.758 153.064C229.758 153.864 230.286 154.28 231.486 154.28C233.406 154.28 234.926 153.432 234.926 151.528V151.464L231.518 151.848C230.334 151.96 229.758 152.248 229.758 153.064ZM239.034 155H237.898V144.28H239.034V150.408H241.69L244.33 147.096H245.674L242.618 150.872L245.658 155H244.33L241.674 151.448H239.034V155ZM250.533 155.16C247.989 155.16 246.373 153.56 246.373 151.048C246.373 148.648 247.973 146.936 250.516 146.936C252.837 146.936 254.485 148.28 254.485 150.632C254.485 150.92 254.453 151.16 254.405 151.368H247.445C247.509 153.144 248.421 154.216 250.516 154.216C252.373 154.216 253.237 153.528 253.237 152.376V152.264H254.373V152.376C254.373 154.024 252.741 155.16 250.533 155.16ZM250.501 147.88C248.453 147.88 247.525 148.936 247.445 150.664H253.413C253.413 150.584 253.413 150.504 253.413 150.424C253.413 148.76 252.357 147.88 250.501 147.88ZM259.969 157.72H258.977V156.68H260.177C260.977 156.68 261.281 156.44 261.585 155.784L261.969 154.984L258.049 147.096H259.297L261.617 151.8L262.497 153.736H262.593L263.441 151.784L265.633 147.096H266.881L262.593 156.104C262.017 157.32 261.281 157.72 259.969 157.72ZM271.848 155.16C269.272 155.16 267.56 153.448 267.56 151.048C267.56 148.648 269.272 146.936 271.848 146.936C274.44 146.936 276.152 148.648 276.152 151.048C276.152 153.448 274.44 155.16 271.848 155.16ZM271.848 154.136C274.024 154.136 275.032 152.968 275.032 151.048C275.032 149.144 274.024 147.96 271.848 147.96C269.672 147.96 268.68 149.144 268.68 151.048C268.68 152.968 269.672 154.136 271.848 154.136ZM280.975 155.16C278.719 155.16 277.615 153.592 277.615 151.72V147.096H278.751V151.544C278.751 153.192 279.551 154.136 281.375 154.136C283.311 154.136 284.319 152.968 284.319 150.936V147.096H285.455V155H284.431V152.536H284.351C284.079 153.88 282.943 155.16 280.975 155.16ZM288.502 155H287.366V147.096H288.39V149.256H288.47C288.71 147.992 289.606 146.936 291.254 146.936C293.078 146.936 293.878 148.28 293.878 149.752V150.536H292.742V149.928C292.742 148.584 292.182 147.928 290.806 147.928C289.206 147.928 288.502 148.936 288.502 150.712V155ZM299.828 155H298.692V148.072H297.428V147.096H298.708C298.836 145.224 300.1 144.28 302.148 144.28H303.012V145.176H301.988C300.548 145.176 299.764 145.656 299.828 147.096H303.012V148.072H299.828V155ZM307.444 155.16C305.188 155.16 304.084 153.592 304.084 151.72V147.096H305.22V151.544C305.22 153.192 306.02 154.136 307.844 154.136C309.78 154.136 310.788 152.968 310.788 150.936V147.096H311.924V155H310.9V152.536H310.82C310.548 153.88 309.412 155.16 307.444 155.16ZM318.683 155H316.971C315.403 155 314.395 154.344 314.395 152.488V148.072H312.987V147.096H314.395V145.208H315.547V147.096H318.683V148.072H315.547V152.552C315.547 153.656 316.091 153.96 317.243 153.96H318.683V155ZM323.241 155.16C320.985 155.16 319.881 153.592 319.881 151.72V147.096H321.017V151.544C321.017 153.192 321.817 154.136 323.641 154.136C325.577 154.136 326.585 152.968 326.585 150.936V147.096H327.721V155H326.697V152.536H326.617C326.345 153.88 325.209 155.16 323.241 155.16ZM330.768 155H329.632V147.096H330.656V149.256H330.736C330.976 147.992 331.872 146.936 333.52 146.936C335.344 146.936 336.144 148.28 336.144 149.752V150.536H335.008V149.928C335.008 148.584 334.448 147.928 333.072 147.928C331.472 147.928 330.768 148.936 330.768 150.712V155ZM341.22 155.16C338.676 155.16 337.06 153.56 337.06 151.048C337.06 148.648 338.66 146.936 341.204 146.936C343.524 146.936 345.172 148.28 345.172 150.632C345.172 150.92 345.14 151.16 345.092 151.368H338.132C338.196 153.144 339.108 154.216 341.204 154.216C343.06 154.216 343.924 153.528 343.924 152.376V152.264H345.06V152.376C345.06 154.024 343.428 155.16 341.22 155.16ZM341.188 147.88C339.14 147.88 338.212 148.936 338.132 150.664H344.1C344.1 150.584 344.1 150.504 344.1 150.424C344.1 148.76 343.044 147.88 341.188 147.88ZM353.088 155.16C350.656 155.16 349.248 154.184 349.248 152.36V152.328H350.384V152.424C350.384 153.752 351.168 154.216 353.104 154.216C354.88 154.216 355.488 153.8 355.488 152.888C355.488 152.056 354.992 151.784 353.68 151.576L351.568 151.272C350.128 151.08 349.216 150.52 349.216 149.208C349.216 147.816 350.544 146.936 352.72 146.936C354.992 146.936 356.464 147.896 356.464 149.752V149.784H355.328V149.704C355.328 148.52 354.704 147.88 352.688 147.88C351.024 147.88 350.336 148.28 350.336 149.224C350.336 150.04 350.752 150.328 352.064 150.52L354 150.792C355.696 151.032 356.608 151.608 356.608 152.888C356.608 154.376 355.136 155.16 353.088 155.16ZM361.973 155.16C359.397 155.16 357.685 153.448 357.685 151.048C357.685 148.648 359.397 146.936 361.973 146.936C364.565 146.936 366.277 148.648 366.277 151.048C366.277 153.448 364.565 155.16 361.973 155.16ZM361.973 154.136C364.149 154.136 365.157 152.968 365.157 151.048C365.157 149.144 364.149 147.96 361.973 147.96C359.797 147.96 358.805 149.144 358.805 151.048C358.805 152.968 359.797 154.136 361.973 154.136ZM34.096 166.088H32.96V164.28H34.096V166.088ZM34.096 175H32.96V167.096H34.096V175ZM37.1429 175H36.0069V167.096H37.0309V169.256H37.1109C37.3509 167.992 38.2469 166.936 39.8949 166.936C41.7189 166.936 42.5189 168.28 42.5189 169.752V170.536H41.3829V169.928C41.3829 168.584 40.8229 167.928 39.4469 167.928C37.8469 167.928 37.1429 168.936 37.1429 170.712V175ZM44.971 175H43.835V167.096H44.859V169.256H44.939C45.179 167.992 46.075 166.936 47.723 166.936C49.547 166.936 50.347 168.28 50.347 169.752V170.536H49.211V169.928C49.211 168.584 48.651 167.928 47.275 167.928C45.675 167.928 44.971 168.936 44.971 170.712V175ZM55.4231 175.16C52.8791 175.16 51.2631 173.56 51.2631 171.048C51.2631 168.648 52.8631 166.936 55.4071 166.936C57.7271 166.936 59.3751 168.28 59.3751 170.632C59.3751 170.92 59.3431 171.16 59.2951 171.368H52.3351C52.3991 173.144 53.3111 174.216 55.4071 174.216C57.2631 174.216 58.1271 173.528 58.1271 172.376V172.264H59.2631V172.376C59.2631 174.024 57.6311 175.16 55.4231 175.16ZM55.3911 167.88C53.3431 167.88 52.4151 168.936 52.3351 170.664H58.3031C58.3031 170.584 58.3031 170.504 58.3031 170.424C58.3031 168.76 57.2471 167.88 55.3911 167.88ZM64.3539 175.16C61.9219 175.16 60.5139 174.184 60.5139 172.36V172.328H61.6499V172.424C61.6499 173.752 62.4339 174.216 64.3699 174.216C66.1459 174.216 66.7539 173.8 66.7539 172.888C66.7539 172.056 66.2579 171.784 64.9459 171.576L62.8339 171.272C61.3939 171.08 60.4819 170.52 60.4819 169.208C60.4819 167.816 61.8099 166.936 63.9859 166.936C66.2579 166.936 67.7299 167.896 67.7299 169.752V169.784H66.5939V169.704C66.5939 168.52 65.9699 167.88 63.9539 167.88C62.2899 167.88 61.6019 168.28 61.6019 169.224C61.6019 170.04 62.0179 170.328 63.3299 170.52L65.2659 170.792C66.9619 171.032 67.8739 171.608 67.8739 172.888C67.8739 174.376 66.4019 175.16 64.3539 175.16ZM70.5023 166.088H69.3663V164.28H70.5023V166.088ZM70.5023 175H69.3663V167.096H70.5023V175ZM75.8851 175.16C73.4531 175.16 72.0451 174.184 72.0451 172.36V172.328H73.1811V172.424C73.1811 173.752 73.9651 174.216 75.9011 174.216C77.6771 174.216 78.2851 173.8 78.2851 172.888C78.2851 172.056 77.7891 171.784 76.4771 171.576L74.3651 171.272C72.9251 171.08 72.0131 170.52 72.0131 169.208C72.0131 167.816 73.3411 166.936 75.5171 166.936C77.7891 166.936 79.2611 167.896 79.2611 169.752V169.784H78.1251V169.704C78.1251 168.52 77.5011 167.88 75.4851 167.88C73.8211 167.88 73.1331 168.28 73.1331 169.224C73.1331 170.04 73.5491 170.328 74.8611 170.52L76.7971 170.792C78.4931 171.032 79.4051 171.608 79.4051 172.888C79.4051 174.376 77.9331 175.16 75.8851 175.16ZM85.7455 175H84.0335C82.4655 175 81.4575 174.344 81.4575 172.488V168.072H80.0495V167.096H81.4575V165.208H82.6095V167.096H85.7455V168.072H82.6095V172.552C82.6095 173.656 83.1535 173.96 84.3055 173.96H85.7455V175ZM88.1273 166.088H86.9913V164.28H88.1273V166.088ZM88.1273 175H86.9913V167.096H88.1273V175ZM91.0621 175H90.0381V164.28H91.1741V169.304H91.2541C91.5901 167.944 92.7261 166.936 94.6301 166.936C97.1101 166.936 98.4701 168.648 98.4701 171.048C98.4701 173.448 97.1101 175.16 94.5341 175.16C92.7741 175.16 91.5101 174.248 91.1421 172.664H91.0621V175ZM91.1741 171.176C91.1741 173.048 92.3581 174.12 94.2621 174.12C96.1501 174.12 97.3181 173.336 97.3181 171.048C97.3181 168.76 96.1181 167.992 94.2941 167.992C92.2941 167.992 91.1741 169.08 91.1741 171.032V171.176ZM101.002 175H99.8663V164.28H101.002V175ZM106.673 175.16C104.129 175.16 102.513 173.56 102.513 171.048C102.513 168.648 104.113 166.936 106.657 166.936C108.977 166.936 110.625 168.28 110.625 170.632C110.625 170.92 110.593 171.16 110.545 171.368H103.585C103.649 173.144 104.561 174.216 106.657 174.216C108.513 174.216 109.377 173.528 109.377 172.376V172.264H110.513V172.376C110.513 174.024 108.881 175.16 106.673 175.16ZM106.641 167.88C104.593 167.88 103.665 168.936 103.585 170.664H109.553C109.553 170.584 109.553 170.504 109.553 170.424C109.553 168.76 108.497 167.88 106.641 167.88ZM113.108 171.48H112.052C112.052 169.72 111.876 166.632 111.876 165.4V164.28H113.284V165.4C113.284 166.632 113.108 169.736 113.108 171.48ZM113.22 175H111.94V172.84H113.22V175Z" fill="white"/>
<path opacity="0.4" d="M240.485 247.093V250.093C240.485 250.288 240.478 250.475 240.455 250.655C240.283 252.68 239.09 253.685 236.893 253.685H236.593C236.405 253.685 236.225 253.775 236.112 253.925L235.213 255.125C234.815 255.658 234.17 255.658 233.772 255.125L232.872 253.925C232.775 253.797 232.558 253.685 232.393 253.685H232.093C229.7 253.685 228.5 253.093 228.5 250.093V247.093C228.5 244.895 229.513 243.703 231.53 243.53C231.71 243.508 231.898 243.5 232.093 243.5H236.893C239.285 243.5 240.485 244.7 240.485 247.093Z" fill="white"/>
<path d="M234.492 249.5C234.072 249.5 233.742 249.163 233.742 248.75C233.742 248.337 234.08 248 234.492 248C234.905 248 235.242 248.337 235.242 248.75C235.242 249.163 234.912 249.5 234.492 249.5Z" fill="white"/>
<path d="M237.117 249.5C236.697 249.5 236.367 249.163 236.367 248.75C236.367 248.337 236.705 248 237.117 248C237.53 248 237.867 248.337 237.867 248.75C237.867 249.163 237.53 249.5 237.117 249.5Z" fill="white"/>
<path d="M231.875 249.5C231.455 249.5 231.125 249.163 231.125 248.75C231.125 248.337 231.462 248 231.875 248C232.288 248 232.625 248.337 232.625 248.75C232.625 249.163 232.288 249.5 231.875 249.5Z" fill="white"/>
<path d="M243.485 244.093V247.093C243.485 249.298 242.473 250.483 240.455 250.655C240.478 250.475 240.485 250.288 240.485 250.093V247.093C240.485 244.7 239.285 243.5 236.893 243.5H232.093C231.898 243.5 231.71 243.508 231.53 243.53C231.703 241.513 232.895 240.5 235.093 240.5H239.893C242.285 240.5 243.485 241.7 243.485 244.093Z" fill="white"/>
<path d="M253.834 244.702H252.84V243.12H253.834V244.702ZM253.834 252.5H252.84V245.584H253.834V252.5ZM256.5 252.5H255.506V245.584H256.402V247.754H256.472C256.71 246.578 257.69 245.444 259.412 245.444C261.358 245.444 262.324 246.83 262.324 248.468V252.5H261.33V248.608C261.33 247.18 260.644 246.354 259.062 246.354C257.382 246.354 256.5 247.376 256.5 249.154V252.5ZM265.426 252.5H264.432V246.438H263.326V245.584H264.446C264.558 243.946 265.664 243.12 267.456 243.12H268.212V243.904H267.316C266.056 243.904 265.37 244.324 265.426 245.584H268.212V246.438H265.426V252.5ZM272.58 252.64C270.326 252.64 268.828 251.142 268.828 249.042C268.828 246.942 270.326 245.444 272.58 245.444C274.848 245.444 276.346 246.942 276.346 249.042C276.346 251.142 274.848 252.64 272.58 252.64ZM272.58 251.744C274.484 251.744 275.366 250.722 275.366 249.042C275.366 247.376 274.484 246.34 272.58 246.34C270.676 246.34 269.808 247.376 269.808 249.042C269.808 250.722 270.676 251.744 272.58 251.744ZM278.48 252.5H277.248V250.554H278.48V252.5ZM286.284 252.5H279.27V251.632L283.274 247.81L284.73 246.522V246.452L283.274 246.48H279.48V245.584H286.074V246.466L281.804 250.498L280.558 251.576V251.646L281.804 251.618H286.284V252.5ZM290.383 252.64C288.409 252.64 287.443 251.268 287.443 249.63V245.584H288.437V249.476C288.437 250.918 289.137 251.744 290.733 251.744C292.427 251.744 293.309 250.722 293.309 248.944V245.584H294.303V252.5H293.407V250.344H293.337C293.099 251.52 292.105 252.64 290.383 252.64ZM296.969 252.5H295.975V245.584H296.871V247.67H296.927C297.123 246.508 297.921 245.444 299.643 245.444C301.183 245.444 302.051 246.396 302.275 247.74H302.345C302.541 246.55 303.367 245.444 305.103 245.444C306.909 245.444 307.847 246.718 307.847 248.468V252.5H306.853V248.608C306.853 247.068 306.195 246.354 304.739 246.354C303.073 246.354 302.401 247.32 302.401 249.154V252.5H301.407V248.608C301.407 247.068 300.763 246.354 299.307 246.354C297.627 246.354 296.969 247.32 296.969 249.154V252.5ZM310.365 252.5H309.469V243.12H310.463V247.516H310.533C310.827 246.326 311.821 245.444 313.487 245.444C315.657 245.444 316.847 246.942 316.847 249.042C316.847 251.142 315.657 252.64 313.403 252.64C311.863 252.64 310.757 251.842 310.435 250.456H310.365V252.5ZM310.463 249.154C310.463 250.792 311.499 251.73 313.165 251.73C314.817 251.73 315.839 251.044 315.839 249.042C315.839 247.04 314.789 246.368 313.193 246.368C311.443 246.368 310.463 247.32 310.463 249.028V249.154ZM321.457 252.64C319.203 252.64 317.705 251.142 317.705 249.042C317.705 246.942 319.203 245.444 321.457 245.444C323.725 245.444 325.223 246.942 325.223 249.042C325.223 251.142 323.725 252.64 321.457 252.64ZM321.457 251.744C323.361 251.744 324.243 250.722 324.243 249.042C324.243 247.376 323.361 246.34 321.457 246.34C319.553 246.34 318.685 247.376 318.685 249.042C318.685 250.722 319.553 251.744 321.457 251.744ZM327.021 252.5H325.831L328.981 249.056V248.986L325.831 245.584H327.035L329.737 248.454H329.807L332.495 245.584H333.685L330.521 248.958V249.028L333.685 252.5H332.481L329.765 249.574H329.709L327.021 252.5ZM338.895 252.5H337.397C336.025 252.5 335.143 251.926 335.143 250.302V246.438H333.911V245.584H335.143V243.932H336.151V245.584H338.895V246.438H336.151V250.358C336.151 251.324 336.627 251.59 337.635 251.59H338.895V252.5ZM343.275 252.64C341.049 252.64 339.635 251.24 339.635 249.042C339.635 246.942 341.035 245.444 343.261 245.444C345.291 245.444 346.733 246.62 346.733 248.678C346.733 248.93 346.705 249.14 346.663 249.322H340.573C340.629 250.876 341.427 251.814 343.261 251.814C344.885 251.814 345.641 251.212 345.641 250.204V250.106H346.635V250.204C346.635 251.646 345.207 252.64 343.275 252.64ZM343.247 246.27C341.455 246.27 340.643 247.194 340.573 248.706H345.795C345.795 248.636 345.795 248.566 345.795 248.496C345.795 247.04 344.871 246.27 343.247 246.27ZM351.355 252.64C349.143 252.64 347.701 251.142 347.701 249.042C347.701 246.942 349.143 245.444 351.355 245.444C353.287 245.444 354.799 246.592 354.799 248.258V248.37H353.819V248.286C353.819 247.054 352.923 246.354 351.341 246.354C349.493 246.354 348.695 247.348 348.695 249.042C348.695 250.736 349.493 251.73 351.341 251.73C352.923 251.73 353.819 251.03 353.819 249.798V249.714H354.799V249.826C354.799 251.492 353.287 252.64 351.355 252.64ZM357.125 252.5H356.131V243.12H357.125V247.698H357.195C357.419 246.536 358.315 245.444 360.079 245.444C362.011 245.444 362.977 246.732 362.977 248.482V252.5H361.983V248.608C361.983 247.026 361.241 246.354 359.687 246.354C357.839 246.354 357.125 247.53 357.125 249.252V252.5ZM365.615 252.5H364.621V245.584H365.517V247.754H365.587C365.825 246.578 366.805 245.444 368.527 245.444C370.473 245.444 371.439 246.83 371.439 248.468V252.5H370.445V248.608C370.445 247.18 369.759 246.354 368.177 246.354C366.497 246.354 365.615 247.376 365.615 249.154V252.5ZM376.445 252.64C374.191 252.64 372.693 251.142 372.693 249.042C372.693 246.942 374.191 245.444 376.445 245.444C378.713 245.444 380.211 246.942 380.211 249.042C380.211 251.142 378.713 252.64 376.445 252.64ZM376.445 251.744C378.349 251.744 379.231 250.722 379.231 249.042C379.231 247.376 378.349 246.34 376.445 246.34C374.541 246.34 373.673 247.376 373.673 249.042C373.673 250.722 374.541 251.744 376.445 251.744ZM382.527 252.5H381.533V243.12H382.527V252.5ZM387.587 252.64C385.333 252.64 383.835 251.142 383.835 249.042C383.835 246.942 385.333 245.444 387.587 245.444C389.855 245.444 391.353 246.942 391.353 249.042C391.353 251.142 389.855 252.64 387.587 252.64ZM387.587 251.744C389.491 251.744 390.373 250.722 390.373 249.042C390.373 247.376 389.491 246.34 387.587 246.34C385.683 246.34 384.815 247.376 384.815 249.042C384.815 250.722 385.683 251.744 387.587 251.744ZM395.644 251.94C393.586 251.94 392.326 250.582 392.326 248.692C392.326 246.802 393.628 245.444 395.756 245.444C397.212 245.444 398.36 246.13 398.64 247.362H398.71V245.584H399.606V251.842C399.606 254.124 398.164 255.02 396.078 255.02C394.202 255.02 392.774 254.082 392.774 252.472H393.768C393.768 253.69 394.58 254.166 396.12 254.166C397.912 254.166 398.612 253.62 398.612 251.898V250.092H398.542C398.262 251.156 397.24 251.94 395.644 251.94ZM393.32 248.692C393.32 250.456 394.412 251.058 395.91 251.058C397.618 251.058 398.612 250.204 398.612 248.734V248.496C398.612 247.138 397.576 246.326 395.98 246.326C394.426 246.326 393.32 246.928 393.32 248.692ZM402.283 244.702H401.289V243.12H402.283V244.702ZM402.283 252.5H401.289V245.584H402.283V252.5ZM407.245 252.64C405.019 252.64 403.605 251.24 403.605 249.042C403.605 246.942 405.005 245.444 407.231 245.444C409.261 245.444 410.703 246.62 410.703 248.678C410.703 248.93 410.675 249.14 410.633 249.322H404.543C404.599 250.876 405.397 251.814 407.231 251.814C408.855 251.814 409.611 251.212 409.611 250.204V250.106H410.605V250.204C410.605 251.646 409.177 252.64 407.245 252.64ZM407.217 246.27C405.425 246.27 404.613 247.194 404.543 248.706H409.765C409.765 248.636 409.765 248.566 409.765 248.496C409.765 247.04 408.841 246.27 407.217 246.27ZM415.06 252.64C412.932 252.64 411.7 251.786 411.7 250.19V250.162H412.694V250.246C412.694 251.408 413.38 251.814 415.074 251.814C416.628 251.814 417.16 251.45 417.16 250.652C417.16 249.924 416.726 249.686 415.578 249.504L413.73 249.238C412.47 249.07 411.672 248.58 411.672 247.432C411.672 246.214 412.834 245.444 414.738 245.444C416.726 245.444 418.014 246.284 418.014 247.908V247.936H417.02V247.866C417.02 246.83 416.474 246.27 414.71 246.27C413.254 246.27 412.652 246.62 412.652 247.446C412.652 248.16 413.016 248.412 414.164 248.58L415.858 248.818C417.342 249.028 418.14 249.532 418.14 250.652C418.14 251.954 416.852 252.64 415.06 252.64ZM424.247 251.926C422.665 251.926 421.559 250.904 421.559 249.07C421.559 247.278 422.665 246.214 424.261 246.214C425.507 246.214 426.263 246.9 426.529 247.81H426.599V246.34H427.481V250.036C427.481 250.806 427.761 251.128 428.447 251.128C429.329 251.128 429.791 250.456 429.791 248.524C429.791 245.682 428.251 244.128 424.905 244.128C421.629 244.128 419.697 245.598 419.697 248.986C419.697 252.318 421.559 253.788 424.695 253.788C425.703 253.788 426.375 253.648 427.159 253.41L427.341 254.11C426.599 254.404 425.731 254.586 424.625 254.586C421.055 254.586 418.787 252.43 418.787 248.986C418.787 245.514 421.195 243.274 424.933 243.274C428.377 243.274 430.673 245.178 430.673 248.454C430.673 250.554 429.791 251.926 428.391 251.926C427.271 251.926 426.669 251.282 426.557 250.344H426.515C426.235 251.198 425.521 251.926 424.247 251.926ZM422.497 249.07C422.497 250.526 423.169 251.184 424.499 251.184C425.647 251.184 426.529 250.512 426.529 249.196V248.944C426.529 247.642 425.647 246.97 424.499 246.97C423.169 246.97 422.497 247.614 422.497 249.07ZM434.759 251.94C432.701 251.94 431.441 250.582 431.441 248.692C431.441 246.802 432.743 245.444 434.871 245.444C436.327 245.444 437.475 246.13 437.755 247.362H437.825V245.584H438.721V251.842C438.721 254.124 437.279 255.02 435.193 255.02C433.317 255.02 431.889 254.082 431.889 252.472H432.883C432.883 253.69 433.695 254.166 435.235 254.166C437.027 254.166 437.727 253.62 437.727 251.898V250.092H437.657C437.377 251.156 436.355 251.94 434.759 251.94ZM432.435 248.692C432.435 250.456 433.527 251.058 435.025 251.058C436.733 251.058 437.727 250.204 437.727 248.734V248.496C437.727 247.138 436.691 246.326 435.095 246.326C433.541 246.326 432.435 246.928 432.435 248.692ZM441.398 252.5H440.404V245.584H441.3V247.67H441.356C441.552 246.508 442.35 245.444 444.072 245.444C445.612 245.444 446.48 246.396 446.704 247.74H446.774C446.97 246.55 447.796 245.444 449.532 245.444C451.338 245.444 452.276 246.718 452.276 248.468V252.5H451.282V248.608C451.282 247.068 450.624 246.354 449.168 246.354C447.502 246.354 446.83 247.32 446.83 249.154V252.5H445.836V248.608C445.836 247.068 445.192 246.354 443.736 246.354C442.056 246.354 441.398 247.32 441.398 249.154V252.5ZM455.817 252.64C454.459 252.64 453.535 251.996 453.535 250.876C453.535 249.742 454.473 249.252 455.761 249.112L459.051 248.748V248.216C459.051 246.872 458.463 246.34 456.951 246.34C455.467 246.34 454.683 246.872 454.683 248.09V248.146H453.689V248.09C453.689 246.634 454.893 245.444 457.021 245.444C459.121 245.444 460.017 246.648 460.017 248.174V252.5H459.121V250.638H459.051C458.645 251.912 457.427 252.64 455.817 252.64ZM454.529 250.806C454.529 251.506 454.991 251.87 456.041 251.87C457.721 251.87 459.051 251.128 459.051 249.462V249.406L456.069 249.742C455.033 249.84 454.529 250.092 454.529 250.806ZM462.645 244.702H461.651V243.12H462.645V244.702ZM462.645 252.5H461.651V245.584H462.645V252.5ZM465.311 252.5H464.317V243.12H465.311V252.5ZM467.795 252.5H466.563V250.554H467.795V252.5ZM472.365 252.64C470.153 252.64 468.711 251.142 468.711 249.042C468.711 246.942 470.153 245.444 472.365 245.444C474.297 245.444 475.809 246.592 475.809 248.258V248.37H474.829V248.286C474.829 247.054 473.933 246.354 472.351 246.354C470.503 246.354 469.705 247.348 469.705 249.042C469.705 250.736 470.503 251.73 472.351 251.73C473.933 251.73 474.829 251.03 474.829 249.798V249.714H475.809V249.826C475.809 251.492 474.297 252.64 472.365 252.64ZM480.529 252.64C478.275 252.64 476.777 251.142 476.777 249.042C476.777 246.942 478.275 245.444 480.529 245.444C482.797 245.444 484.295 246.942 484.295 249.042C484.295 251.142 482.797 252.64 480.529 252.64ZM480.529 251.744C482.433 251.744 483.315 250.722 483.315 249.042C483.315 247.376 482.433 246.34 480.529 246.34C478.625 246.34 477.757 247.376 477.757 249.042C477.757 250.722 478.625 251.744 480.529 251.744ZM486.611 252.5H485.617V245.584H486.513V247.67H486.569C486.765 246.508 487.563 245.444 489.285 245.444C490.825 245.444 491.693 246.396 491.917 247.74H491.987C492.183 246.55 493.009 245.444 494.745 245.444C496.551 245.444 497.489 246.718 497.489 248.468V252.5H496.495V248.608C496.495 247.068 495.837 246.354 494.381 246.354C492.715 246.354 492.043 247.32 492.043 249.154V252.5H491.049V248.608C491.049 247.068 490.405 246.354 488.949 246.354C487.269 246.354 486.611 247.32 486.611 249.154V252.5Z" fill="white"/>
<path d="M526.746 246.667C526.46 246.667 526.233 246.433 526.233 246.153C526.233 245.907 525.986 245.393 525.573 244.947C525.166 244.513 524.72 244.26 524.346 244.26C524.06 244.26 523.833 244.027 523.833 243.747C523.833 243.467 524.066 243.233 524.346 243.233C525.013 243.233 525.713 243.593 526.326 244.24C526.9 244.847 527.266 245.6 527.266 246.147C527.266 246.433 527.033 246.667 526.746 246.667Z" fill="black" fill-opacity="0.45"/>
<path d="M529.153 246.667C528.867 246.667 528.64 246.433 528.64 246.153C528.64 243.787 526.713 241.867 524.353 241.867C524.067 241.867 523.84 241.633 523.84 241.353C523.84 241.073 524.067 240.833 524.347 240.833C527.28 240.833 529.667 243.22 529.667 246.153C529.667 246.433 529.433 246.667 529.153 246.667Z" fill="black" fill-opacity="0.4"/>
<path d="M522.366 249.467L521.133 250.7C520.873 250.96 520.46 250.96 520.193 250.707C520.12 250.633 520.046 250.567 519.973 250.493C519.286 249.8 518.666 249.073 518.113 248.313C517.566 247.553 517.126 246.793 516.806 246.04C516.493 245.28 516.333 244.553 516.333 243.86C516.333 243.407 516.413 242.973 516.573 242.573C516.733 242.167 516.986 241.793 517.34 241.46C517.766 241.04 518.233 240.833 518.726 240.833C518.913 240.833 519.1 240.873 519.266 240.953C519.44 241.033 519.593 241.153 519.713 241.327L521.26 243.507C521.38 243.673 521.466 243.827 521.526 243.973C521.586 244.113 521.62 244.253 521.62 244.38C521.62 244.54 521.573 244.7 521.48 244.853C521.393 245.007 521.266 245.167 521.106 245.327L520.6 245.853C520.526 245.927 520.493 246.013 520.493 246.12C520.493 246.173 520.5 246.22 520.513 246.273C520.533 246.327 520.553 246.367 520.566 246.407C520.686 246.627 520.893 246.913 521.186 247.26C521.486 247.607 521.806 247.96 522.153 248.313C522.22 248.38 522.293 248.447 522.36 248.513C522.626 248.773 522.633 249.2 522.366 249.467Z" fill="white"/>
<path d="M529.647 251.72C529.647 251.907 529.614 252.1 529.547 252.287C529.527 252.34 529.507 252.393 529.48 252.447C529.367 252.687 529.22 252.913 529.027 253.127C528.7 253.487 528.34 253.747 527.934 253.913C527.927 253.913 527.92 253.92 527.914 253.92C527.52 254.08 527.094 254.167 526.634 254.167C525.954 254.167 525.227 254.007 524.46 253.68C523.694 253.353 522.927 252.913 522.167 252.36C521.907 252.167 521.647 251.973 521.4 251.767L523.58 249.587C523.767 249.727 523.934 249.833 524.074 249.907C524.107 249.92 524.147 249.94 524.194 249.96C524.247 249.98 524.3 249.987 524.36 249.987C524.474 249.987 524.56 249.947 524.634 249.873L525.14 249.373C525.307 249.207 525.467 249.08 525.62 249C525.774 248.907 525.927 248.86 526.094 248.86C526.22 248.86 526.354 248.887 526.5 248.947C526.647 249.007 526.8 249.093 526.967 249.207L529.174 250.773C529.347 250.893 529.467 251.033 529.54 251.2C529.607 251.367 529.647 251.533 529.647 251.72Z" fill="white"/>
<path d="M542.844 252.14C540.17 252.14 538.49 250.334 538.49 247.31C538.49 244.3 540.17 242.48 542.844 242.48C545.504 242.48 547.184 244.3 547.184 247.31C547.184 250.334 545.504 252.14 542.844 252.14ZM542.844 251.188C545.014 251.188 546.134 249.928 546.134 247.31C546.134 244.692 545.014 243.432 542.844 243.432C540.66 243.432 539.54 244.692 539.54 247.31C539.54 249.928 540.66 251.188 542.844 251.188ZM551.18 252.014H550.074C550.074 247.562 552.104 245.266 554.134 243.6V243.53H547.82V242.62H555.268V243.432C552.496 245.868 551.18 248.15 551.18 252.014ZM560.221 252.14C557.547 252.14 555.867 250.334 555.867 247.31C555.867 244.3 557.547 242.48 560.221 242.48C562.881 242.48 564.561 244.3 564.561 247.31C564.561 250.334 562.881 252.14 560.221 252.14ZM560.221 251.188C562.391 251.188 563.511 249.928 563.511 247.31C563.511 244.692 562.391 243.432 560.221 243.432C558.037 243.432 556.917 244.692 556.917 247.31C556.917 249.928 558.037 251.188 560.221 251.188ZM569.565 252.14C567.003 252.14 565.421 251.244 565.421 249.452C565.421 248.29 566.233 247.394 567.773 247.086V246.988C566.415 246.806 565.673 245.98 565.673 244.916C565.673 243.474 567.003 242.48 569.565 242.48C572.141 242.48 573.457 243.474 573.457 244.916C573.457 245.98 572.715 246.806 571.357 246.988V247.086C572.925 247.394 573.709 248.29 573.709 249.452C573.709 251.244 572.113 252.14 569.565 252.14ZM569.565 246.75C571.553 246.75 572.463 246.204 572.463 245.098C572.463 244.062 571.763 243.432 569.565 243.432C567.381 243.432 566.667 244.062 566.667 245.098C566.667 246.204 567.577 246.75 569.565 246.75ZM569.565 251.188C571.791 251.188 572.701 250.628 572.701 249.298C572.701 248.08 571.763 247.464 569.565 247.464C567.367 247.464 566.429 248.08 566.429 249.298C566.429 250.628 567.325 251.188 569.565 251.188ZM578.616 252.14C576.04 252.14 574.584 250.992 574.584 249.256V249.06H575.606V249.256C575.606 250.6 576.67 251.23 578.63 251.23C580.38 251.23 581.374 250.628 581.374 249.074C581.374 247.548 580.408 246.96 578.644 246.96C577.23 246.96 576.362 247.254 575.676 247.716L575.634 247.702V247.716L574.71 247.576L575.186 242.62H582.018V243.53H576.054L575.69 247.114L575.76 247.128C576.362 246.624 577.538 246.134 578.938 246.134C580.996 246.134 582.424 247.156 582.424 249.074C582.424 250.964 580.968 252.14 578.616 252.14ZM587.839 252.14C584.829 252.14 583.527 250.712 583.527 247.226C583.527 244.412 584.885 242.48 587.811 242.48C589.953 242.48 591.521 243.586 591.521 245.476V245.574H590.443V245.476C590.443 244.314 589.757 243.432 587.811 243.432C585.431 243.432 584.563 244.692 584.563 247.184V248.024H584.661C584.983 246.974 586.271 246.19 588.133 246.19C590.429 246.19 591.773 247.31 591.773 249.13C591.773 250.964 590.345 252.14 587.839 252.14ZM587.811 251.188C589.827 251.188 590.751 250.488 590.751 249.06C590.751 247.674 589.855 246.946 587.825 246.946C585.921 246.946 584.759 247.702 584.759 248.976C584.759 250.432 585.851 251.188 587.811 251.188ZM596.951 252.14C594.809 252.14 593.241 251.034 593.241 249.144V249.046H594.319V249.144C594.319 250.306 595.005 251.188 596.951 251.188C599.303 251.188 600.171 249.886 600.171 247.338V246.484H600.073C599.737 247.59 598.463 248.43 596.601 248.43C594.305 248.43 592.961 247.296 592.961 245.49C592.961 243.656 594.389 242.48 596.895 242.48C599.905 242.48 601.207 243.866 601.207 247.296C601.207 250.152 599.849 252.14 596.951 252.14ZM596.909 247.674C598.813 247.674 599.975 246.876 599.975 245.532C599.975 244.16 598.883 243.432 596.937 243.432C594.907 243.432 593.983 244.132 593.983 245.56C593.983 246.946 594.879 247.674 596.909 247.674ZM606.357 252.14C603.781 252.14 602.325 250.992 602.325 249.256V249.06H603.347V249.256C603.347 250.6 604.411 251.23 606.371 251.23C608.121 251.23 609.115 250.628 609.115 249.074C609.115 247.548 608.149 246.96 606.385 246.96C604.971 246.96 604.103 247.254 603.417 247.716L603.375 247.702V247.716L602.451 247.576L602.927 242.62H609.759V243.53H603.795L603.431 247.114L603.501 247.128C604.103 246.624 605.279 246.134 606.679 246.134C608.737 246.134 610.165 247.156 610.165 249.074C610.165 250.964 608.709 252.14 606.357 252.14ZM615.524 252.14C612.85 252.14 611.17 250.334 611.17 247.31C611.17 244.3 612.85 242.48 615.524 242.48C618.184 242.48 619.864 244.3 619.864 247.31C619.864 250.334 618.184 252.14 615.524 252.14ZM615.524 251.188C617.694 251.188 618.814 249.928 618.814 247.31C618.814 244.692 617.694 243.432 615.524 243.432C613.34 243.432 612.22 244.692 612.22 247.31C612.22 249.928 613.34 251.188 615.524 251.188ZM624.881 252.14C622.053 252.14 620.849 250.782 620.849 249.018V248.794H621.885V248.976C621.885 250.446 622.599 251.188 624.853 251.188C626.953 251.188 627.793 250.614 627.793 249.284C627.793 248.094 626.967 247.534 625.539 247.534H623.005V246.68H625.329C626.743 246.68 627.513 246.162 627.513 245.098C627.513 243.978 626.827 243.432 624.811 243.432C622.669 243.432 621.885 244.174 621.885 245.644V245.77H620.849V245.602C620.849 243.866 622.095 242.48 624.881 242.48C627.177 242.48 628.507 243.39 628.507 244.944C628.507 245.994 627.891 246.778 626.715 246.988V247.086C628.045 247.338 628.801 248.15 628.801 249.396C628.801 251.146 627.303 252.14 624.881 252.14ZM633.768 252.14C630.94 252.14 629.736 250.782 629.736 249.018V248.794H630.772V248.976C630.772 250.446 631.486 251.188 633.74 251.188C635.84 251.188 636.68 250.614 636.68 249.284C636.68 248.094 635.854 247.534 634.426 247.534H631.892V246.68H634.216C635.63 246.68 636.4 246.162 636.4 245.098C636.4 243.978 635.714 243.432 633.698 243.432C631.556 243.432 630.772 244.174 630.772 245.644V245.77H629.736V245.602C629.736 243.866 630.982 242.48 633.768 242.48C636.064 242.48 637.394 243.39 637.394 244.944C637.394 245.994 636.778 246.778 635.602 246.988V247.086C636.932 247.338 637.688 248.15 637.688 249.396C637.688 251.146 636.19 252.14 633.768 252.14Z" fill="white"/>
<path d="M549.937 70.497L549.192 79.785H520.26V71.114L536.679 52.288H520.818V43H548.823V51.671L532.404 70.497H549.937Z" fill="white"/>
<path d="M586.864 43V63.9931C586.864 69.2375 585.408 73.2836 582.497 76.1315C579.584 78.9793 575.547 80.4046 570.384 80.4046C565.221 80.4046 561.245 78.9793 558.335 76.1315C555.422 73.2836 553.968 69.2375 553.968 63.9931V43H564.252V63.2511C564.252 65.6885 564.757 67.5854 565.77 68.9494C566.783 70.3109 568.402 70.9941 570.634 70.9941C572.866 70.9941 574.422 70.3134 575.437 68.9494C576.45 67.5879 576.955 65.6885 576.955 63.2511V43H586.867H586.864Z" fill="white"/>
<path d="M633.578 43V79.785H623.293V60.7118H622.984C622.819 61.6194 622.602 62.5296 622.334 63.4373C622.066 64.3449 621.704 65.3163 621.25 66.3488L617.781 74.5227H608.116L604.647 66.3488C604.275 65.4004 603.943 64.4494 603.655 63.501C603.364 62.5526 603.117 61.622 602.913 60.7143H602.602V79.7876H592.751V43H603.716L610.779 59.1642C611.193 60.0718 611.616 61.0942 612.05 62.2288C612.483 63.3659 612.802 64.3245 613.009 65.1072H613.32C613.526 64.3245 613.845 63.3633 614.279 62.2288C614.713 61.0942 615.136 60.0718 615.549 59.1642L622.612 43H633.578Z" fill="white"/>
<path d="M579.862 104.166C578.541 103.34 577.013 102.927 575.276 102.927C573.539 102.927 572.065 103.34 570.723 104.166C569.381 104.992 568.338 106.14 567.593 107.603C566.848 109.069 566.479 110.772 566.479 112.712C566.479 114.653 566.851 116.305 567.593 117.791C568.335 119.278 569.379 120.435 570.723 121.259C572.065 122.085 573.582 122.498 575.276 122.498C576.97 122.498 578.538 122.085 579.862 121.259C581.183 120.433 582.216 119.278 582.959 117.791C583.703 116.305 584.073 114.612 584.073 112.712C584.073 110.813 583.701 109.069 582.959 107.603C582.216 106.137 581.183 104.992 579.862 104.166Z" fill="white"/>
<path d="M540.459 108.067C541.079 107.488 541.387 106.685 541.387 105.653C541.387 104.704 541.079 103.96 540.459 103.424C539.839 102.889 538.867 102.619 537.546 102.619H533.332V108.934H537.546C538.867 108.934 539.839 108.646 540.459 108.067Z" fill="white"/>
<path d="M539.033 116.303H533.332V122.804H539.033C540.354 122.804 541.326 122.496 541.946 121.876C542.566 121.257 542.874 120.431 542.874 119.398C542.874 118.45 542.566 117.695 541.946 117.137C541.326 116.578 540.354 116.3 539.033 116.3V116.303Z" fill="white"/>
<path d="M515 85.394V140.026H638.837V85.394H515ZM549.906 128.069C547.738 130.093 544.486 131.103 540.147 131.103H523.172V94.32H538.477C542.854 94.32 546.106 95.2073 548.236 96.9818C550.363 98.7563 551.427 101.089 551.427 103.98C551.427 105.755 551.003 107.325 550.156 108.687C549.31 110.048 548.205 111.06 546.843 111.721C548.784 112.381 550.322 113.454 551.46 114.941C552.595 116.427 553.164 118.222 553.164 120.328C553.164 123.467 552.08 126.047 549.911 128.069H549.906ZM585.315 129.246C582.382 130.899 579.035 131.725 575.278 131.725C571.521 131.725 568.175 130.899 565.241 129.246C562.308 127.594 559.994 125.335 558.301 122.465C556.607 119.596 555.76 116.343 555.76 112.71C555.76 109.077 556.607 105.775 558.301 102.925C559.994 100.077 562.308 97.8257 565.241 96.1736C568.175 94.5215 571.519 93.6954 575.278 93.6954C579.038 93.6954 582.382 94.5215 585.315 96.1736C588.249 97.8257 590.56 100.074 592.256 102.925C593.949 105.773 594.796 109.036 594.796 112.71C594.796 116.384 593.949 119.594 592.256 122.465C590.562 125.335 588.249 127.594 585.315 129.246ZM618.4 131.105L611.276 120.206L604.647 131.105H592.876L605.576 112.526L593.309 94.32H605.576L612.144 104.414L618.464 94.32H630.236L617.844 112.093L630.669 131.105H618.403H618.4Z" fill="white"/>
<g opacity="0.23">
<rect opacity="0.2" x="529.976" y="123.676" width="22.7051" height="37.7974" transform="rotate(30 529.976 123.676)" fill="white" stroke="white" stroke-width="2.47555"/>
<rect opacity="0.2" x="218.474" y="-29.8814" width="25.9542" height="25.9542" transform="rotate(30 218.474 -29.8814)" fill="white" stroke="white" stroke-width="2.47555"/>
<rect opacity="0.2" x="554.485" y="268.976" width="25.9542" height="25.9542" transform="rotate(30 554.485 268.976)" fill="white" stroke="white" stroke-width="2.47555"/>
<rect opacity="0.2" x="410.612" y="26.5097" width="15.8563" height="25.9542" transform="rotate(30 410.612 26.5097)" fill="white" stroke="white" stroke-width="2.47555"/>
<rect opacity="0.2" x="433.884" y="91.5487" width="22.4911" height="22.4911" transform="rotate(30 433.884 91.5487)" fill="white" stroke="white" stroke-width="2.47555"/>
<rect opacity="0.2" x="642.253" y="131.708" width="22.4911" height="22.4911" transform="rotate(30 642.253 131.708)" fill="white" stroke="white" stroke-width="2.47555"/>
<rect opacity="0.2" x="607.139" y="209.111" width="21.2524" height="21.2524" transform="rotate(30 607.139 209.111)" fill="white" stroke="white" stroke-width="2.47555"/>
<rect opacity="0.2" x="272.945" y="30.4296" width="14.2747" height="14.2747" transform="rotate(30 272.945 30.4296)" fill="white" stroke="white" stroke-width="2.47555"/>
<rect opacity="0.2" x="465.839" y="11.0087" width="14.2747" height="14.2747" transform="rotate(30 465.839 11.0087)" fill="white" stroke="white" stroke-width="2.47555"/>
<rect opacity="0.2" x="456.246" y="187.43" width="40.6817" height="18.9823" transform="rotate(30 456.246 187.43)" fill="white" stroke="white" stroke-width="2.47555"/>
<rect opacity="0.2" x="664.615" y="227.59" width="40.6817" height="40.6817" transform="rotate(30 664.615 227.59)" fill="white" stroke="white" stroke-width="2.47555"/>
<rect opacity="0.2" x="166.426" y="15.1239" width="27.9904" height="27.9904" transform="rotate(30 166.426 15.1239)" fill="white" stroke="white" stroke-width="2.47555"/>
<rect opacity="0.2" x="358.563" y="71.515" width="27.9904" height="27.9904" transform="rotate(30 358.563 71.515)" fill="white" stroke="white" stroke-width="2.47555"/>
<rect x="75.0292" y="71.9418" width="22.7051" height="37.7974" transform="rotate(30 75.0292 71.9418)" fill="white" stroke="white" stroke-width="2.47555"/>
<rect opacity="0.2" x="283.398" y="112.102" width="37.7974" height="19.6575" transform="rotate(30 283.398 112.102)" fill="white" stroke="white" stroke-width="2.47555"/>
<rect opacity="0.2" x="99.538" y="217.243" width="25.9542" height="25.9542" transform="rotate(30 99.538 217.243)" fill="white" stroke="white" stroke-width="2.47555"/>
<rect opacity="0.2" x="291.676" y="273.633" width="15.8563" height="25.9542" transform="rotate(30 291.676 273.633)" fill="white" stroke="white" stroke-width="2.47555"/>
<rect opacity="0.2" x="-21.0635" y="39.8149" width="22.4911" height="22.4911" transform="rotate(30 -21.0635 39.8149)" fill="white" stroke="white" stroke-width="2.47555"/>
<rect opacity="0.2" x="187.306" y="79.9745" width="22.4911" height="22.4911" transform="rotate(30 187.306 79.9745)" fill="white" stroke="white" stroke-width="2.47555"/>
<rect opacity="0.2" x="152.191" y="157.377" width="21.2524" height="21.2524" transform="rotate(30 152.191 157.377)" fill="white" stroke="white" stroke-width="2.47555"/>
<rect opacity="0.2" x="360.56" y="197.537" width="21.2524" height="21.2524" transform="rotate(30 360.56 197.537)" fill="white" stroke="white" stroke-width="2.47555"/>
<rect opacity="0.2" x="346.902" y="258.133" width="14.2747" height="14.2747" transform="rotate(30 346.902 258.133)" fill="white" stroke="white" stroke-width="2.47555"/>
<rect x="209.668" y="175.855" width="40.6817" height="40.6817" transform="rotate(30 209.668 175.855)" fill="white" stroke="white" stroke-width="2.47555"/>
</g>
</g>
<defs>
<clipPath id="clip0_5184_12698">
<rect width="668" height="274" rx="24" fill="white"/>
</clipPath>
</defs>
</svg>
