<svg width="318" height="421" viewBox="0 0 318 421" fill="none" xmlns="http://www.w3.org/2000/svg">
<path d="M59.2777 283.226L57.4346 281.779L53.1807 287.058L55.0239 288.505L59.2777 283.226Z" fill="#6903F9"/>
<path d="M105.513 340.677L105.059 337.514L99.1542 335.731L99.6083 338.895L105.513 340.677Z" fill="#FF15E5"/>
<path d="M141.513 381.088L145.365 381.229L141.348 371.946L137.496 371.805L141.513 381.088Z" fill="#6903F9"/>
<path d="M26.7541 188.073L28.0107 186.277L22.1781 181.686L20.9214 183.482L26.7541 188.073Z" fill="#6903F9"/>
<path d="M189.237 376.544L186.369 374.729L183.801 380.028L186.669 381.843L189.237 376.544Z" fill="#6903F9"/>
<path d="M131.358 387.891L131.796 385.819L129.738 385.454L129.301 387.525L131.358 387.891Z" fill="#6903F9"/>
<path d="M159.09 119.478L156.996 118.956L156.891 121.948L158.985 122.47L159.09 119.478Z" fill="#6903F9"/>
<path d="M226.428 132.887L225.131 130.655L222.551 131.782L223.848 134.014L226.428 132.887Z" fill="white"/>
<path d="M45.4569 152.542L48.0762 151.034L45.4687 146.333L42.8495 147.841L45.4569 152.542Z" fill="#FF15E5"/>
<path d="M248.539 388.116L245.587 384.893L242.922 387.149L245.874 390.372L248.539 388.116Z" fill="#FF15E5"/>
<path d="M65.4435 141.296L66.3574 139.522L61.2 136.397L60.286 138.17L65.4435 141.296Z" fill="#6903F9"/>
<path d="M179.147 159.315L180.845 156.686L177.248 154.071L175.55 156.7L179.147 159.315Z" fill="white"/>
<path d="M119.408 246.935L116.41 244.221L110.029 251.356L113.027 254.071L119.408 246.935Z" fill="#6903F9"/>
<path d="M222.486 80.9763L222.937 79.0693L218.418 77.1638L217.967 79.0708L222.486 80.9763Z" fill="white"/>
<path d="M206.38 133.867L209.712 133.343L208.647 129.61L205.315 130.134L206.38 133.867Z" fill="#6903F9"/>
<path d="M74.3298 387.392L76.6133 385.877L74.4089 382.597L72.1255 384.112L74.3298 387.392Z" fill="#6903F9"/>
<path d="M117.368 93.5603L115.824 90.7783L111.042 93.7346L112.586 96.5166L117.368 93.5603Z" fill="#6903F9"/>
<path d="M69.5612 379.75L71.5537 377.525L66.9358 373.169L64.9433 375.394L69.5612 379.75Z" fill="#FF15E5"/>
<path d="M95.5154 243.782L97.7334 242.531L94.5816 237.35L92.3637 238.601L95.5154 243.782Z" fill="#FF15E5"/>
<path d="M246.224 293.876L247.759 290.447L241.998 288.498L240.463 291.926L246.224 293.876Z" fill="white"/>
<path d="M76.5199 0.962912L78.6963 -2.32715L72.438 -5.8039L70.2617 -2.51384L76.5199 0.962912Z" fill="#6903F9"/>
<path d="M189.901 195.462L188.434 192.012L182.274 195.116L183.741 198.567L189.901 195.462Z" fill="#FF15E5"/>
<path d="M61.1788 61.1879L63.1924 60.5439L60.6475 56.3382L58.6339 56.9822L61.1788 61.1879Z" fill="white"/>
<path d="M79.4496 330.013L81.1611 328.532L78.5953 325.69L76.8838 327.17L79.4496 330.013Z" fill="white"/>
<path d="M46.524 58.5623L42.8936 58.1846L43.1119 63.8749L46.7424 64.2527L46.524 58.5623Z" fill="#FF15E5"/>
<path d="M228.304 94.0384L227.923 91.6377L221.842 91.218L222.223 93.6187L228.304 94.0384Z" fill="#6903F9"/>
<path d="M95.1871 224.247L96.3945 221.582L91.4208 220.449L90.2134 223.114L95.1871 224.247Z" fill="#FF15E5"/>
<path d="M205.853 193.254L202.047 191.649L201.36 199.326L205.166 200.931L205.853 193.254Z" fill="#6903F9"/>
<path d="M264.55 185.345L262.471 184.188L260.403 186.945L262.482 188.102L264.55 185.345Z" fill="white"/>
<path d="M131.589 258.745L130.673 256.057L125.275 257.057L126.191 259.746L131.589 258.745Z" fill="#FF15E5"/>
<path d="M155.071 303.875L157.23 302.896L155.65 299.601L153.49 300.579L155.071 303.875Z" fill="white"/>
<path d="M35.8213 192.17L36.8643 190.357L35.0511 189.268L34.0081 191.081L35.8213 192.17Z" fill="#FF15E5"/>
<path d="M145.407 231.582L148.944 232.244L148.151 225.361L144.613 224.698L145.407 231.582Z" fill="white"/>
<path d="M312.304 56.9914L314.199 56.2373L312.083 51.7473L310.187 52.5013L312.304 56.9914Z" fill="#6903F9"/>
<path d="M31.9475 176.471L29.9014 175.854L29.0915 179.314L31.1376 179.931L31.9475 176.471Z" fill="#6903F9"/>
<path d="M131.372 136.505L133.255 134.311L129.814 131.132L127.931 133.326L131.372 136.505Z" fill="#FF15E5"/>
<path d="M232.251 269.169L228.35 267.342L227.393 272.307L231.294 274.135L232.251 269.169Z" fill="#6903F9"/>
<path d="M123.616 2.4327L126.909 -0.0253906L122.305 -6.56329L119.012 -4.1052L123.616 2.4327Z" fill="#FF15E5"/>
<path d="M98.8135 113.426L98.8066 111.503L95.8456 110.132L95.8524 112.056L98.8135 113.426Z" fill="white"/>
<path d="M76.6331 130.758L74.8438 128.178L72.4594 129.278L74.2488 131.859L76.6331 130.758Z" fill="#6903F9"/>
<path d="M221.696 336.188L219.825 334.874L216.795 338.921L218.666 340.234L221.696 336.188Z" fill="white"/>
<path d="M151.114 307.194L149.411 303.896L145.426 304.337L147.128 307.636L151.114 307.194Z" fill="#FF15E5"/>
<path d="M107.684 188.102L109.213 187.107L105.625 182.832L104.096 183.826L107.684 188.102Z" fill="#FF15E5"/>
<path d="M283.834 93.8376L280.555 91.4834L277.094 97.4759L280.373 99.8301L283.834 93.8376Z" fill="#FF15E5"/>
<path d="M313.571 67.9622L311.103 65.9766L306.669 71.9156L309.138 73.9013L313.571 67.9622Z" fill="#6903F9"/>
<path d="M64.0423 83.2765L66.8369 82.7432L64.0483 74.8794L61.2536 75.4127L64.0423 83.2765Z" fill="#6903F9"/>
<path d="M19.3639 334.728L17.252 335.025L16.9996 338.65L19.1115 338.353L19.3639 334.728Z" fill="white"/>
<path d="M173.606 233.859L171.572 231.36L166.322 235.559L168.355 238.058L173.606 233.859Z" fill="#6903F9"/>
<path d="M44.5218 262.953L46.8281 259.472L43.596 258.246L41.2897 261.728L44.5218 262.953Z" fill="#6903F9"/>
<path d="M220.449 188.057L222.597 188.32L221.632 185.26L219.485 184.997L220.449 188.057Z" fill="#FF15E5"/>
</svg>
