<svg width="358" height="138" viewBox="0 0 358 138" fill="none" xmlns="http://www.w3.org/2000/svg">
<rect width="358" height="138" rx="9.72263" fill="#C70E10"/>
<path d="M15.896 63H14.6V54.96H18.536C20.324 54.96 21.548 55.98 21.548 57.768C21.548 59.544 20.324 60.576 18.536 60.576H15.896V63ZM18.416 56.124H15.896V59.412H18.416C19.628 59.412 20.252 58.956 20.252 57.768C20.252 56.58 19.628 56.124 18.416 56.124ZM24.0747 63.12C22.8387 63.12 22.0587 62.544 22.0587 61.56C22.0587 60.636 22.8027 60.156 23.9787 60.024L26.6907 59.736V59.388C26.6907 58.404 26.2587 58.056 25.1187 58.056C24.0147 58.056 23.4747 58.416 23.4747 59.292V59.34H22.1907V59.292C22.1907 57.936 23.3187 56.916 25.2147 56.916C27.1107 56.916 27.9627 57.948 27.9627 59.376V63H26.7747V61.512H26.6907C26.3787 62.52 25.4307 63.12 24.0747 63.12ZM23.3547 61.476C23.3547 61.956 23.6787 62.184 24.4227 62.184C25.7787 62.184 26.6907 61.68 26.6907 60.504L24.3507 60.768C23.6787 60.852 23.3547 61.008 23.3547 61.476ZM30.4155 63H29.1195V57.036H30.3075V58.644H30.3915C30.5715 57.684 31.2195 56.916 32.4435 56.916C33.7995 56.916 34.3875 57.888 34.3875 59.016V59.796H33.1035V59.268C33.1035 58.416 32.7435 58.02 31.8555 58.02C30.8355 58.02 30.4155 58.584 30.4155 59.652V63ZM39.1136 63H37.7456C36.4616 63 35.6696 62.436 35.6696 60.984V58.116H34.6616V57.036H35.6696V55.728H36.9536V57.036H39.1136V58.116H36.9536V60.912C36.9536 61.644 37.2896 61.836 38.0336 61.836H39.1136V63ZM41.2202 63H39.9242V57.036H41.1122V58.884H41.1962C41.3762 57.876 42.1682 56.916 43.6802 56.916C45.3362 56.916 46.1522 58.032 46.1522 59.412V63H44.8562V59.76C44.8562 58.644 44.3522 58.08 43.1162 58.08C41.8082 58.08 41.2202 58.752 41.2202 60.048V63ZM50.307 63.12C48.351 63.12 47.067 62.016 47.067 60.024C47.067 58.164 48.339 56.916 50.283 56.916C52.131 56.916 53.391 57.936 53.391 59.748C53.391 59.964 53.379 60.132 53.343 60.312H48.279C48.327 61.464 48.891 62.076 50.271 62.076C51.519 62.076 52.035 61.668 52.035 60.96V60.864H53.331V60.972C53.331 62.244 52.083 63.12 50.307 63.12ZM50.259 57.936C48.939 57.936 48.363 58.524 48.291 59.592H52.167V59.568C52.167 58.464 51.531 57.936 50.259 57.936ZM55.6577 63H54.3617V57.036H55.5497V58.644H55.6337C55.8137 57.684 56.4617 56.916 57.6857 56.916C59.0417 56.916 59.6297 57.888 59.6297 59.016V59.796H58.3457V59.268C58.3457 58.416 57.9857 58.02 57.0977 58.02C56.0777 58.02 55.6577 58.584 55.6577 59.652V63ZM63.2638 63.12C61.3438 63.12 60.2518 62.364 60.2518 60.984V60.948H61.5478V61.044C61.5478 61.824 62.0158 62.076 63.2638 62.076C64.4278 62.076 64.7758 61.836 64.7758 61.308C64.7758 60.816 64.4878 60.66 63.6358 60.54L62.0038 60.324C60.8758 60.18 60.1918 59.7 60.1918 58.704C60.1918 57.66 61.1398 56.916 62.9758 56.916C64.7998 56.916 65.9037 57.648 65.9037 59.064V59.1H64.6198V59.028C64.6198 58.32 64.2598 57.948 62.9398 57.948C61.8478 57.948 61.4638 58.188 61.4638 58.752C61.4638 59.22 61.7038 59.388 62.6038 59.508L63.9838 59.7C65.3998 59.88 66.0478 60.36 66.0478 61.344C66.0478 62.46 64.9438 63.12 63.2638 63.12ZM68.2788 63H66.9828V54.96H68.2788V58.86H68.3508C68.5548 57.852 69.2868 56.916 70.8108 56.916C72.4548 56.916 73.2588 57.996 73.2588 59.448V63H71.9748V59.76C71.9748 58.56 71.4348 58.08 70.1988 58.08C68.7828 58.08 68.2788 58.848 68.2788 60.108V63ZM75.7202 56.34H74.4242V54.96H75.7202V56.34ZM75.7202 63H74.4242V57.036H75.7202V63ZM78.2163 65.04H76.9203V57.036H78.1083V58.692H78.2163C78.4563 57.588 79.2963 56.916 80.7003 56.916C82.5483 56.916 83.5923 58.176 83.5923 60.024C83.5923 61.872 82.5723 63.12 80.7123 63.12C79.3683 63.12 78.5043 62.412 78.2643 61.32H78.2163V65.04ZM78.2163 60.12C78.2163 61.344 78.9963 61.944 80.2683 61.944C81.5523 61.944 82.2963 61.452 82.2963 60.024C82.2963 58.584 81.5403 58.104 80.2923 58.104C78.9603 58.104 78.2163 58.728 78.2163 60.012V60.12ZM87.3106 63.12C85.3906 63.12 84.2986 62.364 84.2986 60.984V60.948H85.5946V61.044C85.5946 61.824 86.0626 62.076 87.3106 62.076C88.4746 62.076 88.8226 61.836 88.8226 61.308C88.8226 60.816 88.5346 60.66 87.6826 60.54L86.0506 60.324C84.9226 60.18 84.2386 59.7 84.2386 58.704C84.2386 57.66 85.1866 56.916 87.0226 56.916C88.8466 56.916 89.9506 57.648 89.9506 59.064V59.1H88.6666V59.028C88.6666 58.32 88.3066 57.948 86.9866 57.948C85.8946 57.948 85.5106 58.188 85.5106 58.752C85.5106 59.22 85.7506 59.388 86.6506 59.508L88.0306 59.7C89.4466 59.88 90.0946 60.36 90.0946 61.344C90.0946 62.46 88.9906 63.12 87.3106 63.12ZM92.4457 60.36H91.1857C91.1857 59.196 90.9937 56.724 90.9937 55.8V54.96H92.6377V55.8C92.6377 56.724 92.4457 59.208 92.4457 60.36ZM92.5417 63H91.0777V61.224H92.5417V63Z" fill="white"/>
<path d="M17.16 84H16.1L14.16 77.3H14.95L16.28 81.92L16.63 83.29H16.69L17.09 81.92L18.65 77.3H19.65L21.37 81.92L21.82 83.29H21.87L22.18 81.92L23.35 77.3H24.13L22.4 84H21.34L19.71 79.64L19.18 78.08H19.11L18.64 79.64L17.16 84ZM27.2527 84.1C25.6627 84.1 24.6527 83.1 24.6527 81.53C24.6527 80.03 25.6527 78.96 27.2427 78.96C28.6927 78.96 29.7227 79.8 29.7227 81.27C29.7227 81.45 29.7027 81.6 29.6727 81.73H25.3227C25.3627 82.84 25.9327 83.51 27.2427 83.51C28.4027 83.51 28.9427 83.08 28.9427 82.36V82.29H29.6527V82.36C29.6527 83.39 28.6327 84.1 27.2527 84.1ZM27.2327 79.55C25.9527 79.55 25.3727 80.21 25.3227 81.29H29.0527C29.0527 81.24 29.0527 81.19 29.0527 81.14C29.0527 80.1 28.3927 79.55 27.2327 79.55ZM33.2104 85.7H32.5004V79.06H33.1404V80.45H33.2204C33.4404 79.56 34.1804 78.96 35.3504 78.96C36.8904 78.96 37.7704 80.03 37.7704 81.53C37.7704 83.03 36.9004 84.1 35.3304 84.1C34.2404 84.1 33.4504 83.5 33.2204 82.55H33.2104V85.7ZM33.2104 81.62C33.2104 82.79 33.9804 83.45 35.1404 83.45C36.2904 83.45 37.0504 82.96 37.0504 81.53C37.0504 80.1 36.2804 79.62 35.1604 79.62C33.9304 79.62 33.2104 80.31 33.2104 81.53V81.62ZM40.013 84.1C39.043 84.1 38.383 83.64 38.383 82.84C38.383 82.03 39.053 81.68 39.973 81.58L42.323 81.32V80.94C42.323 79.98 41.903 79.6 40.823 79.6C39.763 79.6 39.203 79.98 39.203 80.85V80.89H38.493V80.85C38.493 79.81 39.353 78.96 40.873 78.96C42.373 78.96 43.013 79.82 43.013 80.91V84H42.373V82.67H42.323C42.033 83.58 41.163 84.1 40.013 84.1ZM39.093 82.79C39.093 83.29 39.423 83.55 40.173 83.55C41.373 83.55 42.323 83.02 42.323 81.83V81.79L40.193 82.03C39.453 82.1 39.093 82.28 39.093 82.79ZM44.8901 84H44.1801V79.06H44.8201V80.41H44.8701C45.0201 79.62 45.5801 78.96 46.6101 78.96C47.7501 78.96 48.2501 79.8 48.2501 80.72V81.21H47.5401V80.83C47.5401 79.99 47.1901 79.58 46.3301 79.58C45.3301 79.58 44.8901 80.21 44.8901 81.32V84ZM52.1027 84H51.0327C50.0527 84 49.4227 83.59 49.4227 82.43V79.67H48.5427V79.06H49.4227V77.88H50.1427V79.06H52.1027V79.67H50.1427V82.47C50.1427 83.16 50.4827 83.35 51.2027 83.35H52.1027V84ZM53.5913 84H52.8813V79.06H53.5213V80.61H53.5713C53.7413 79.77 54.4413 78.96 55.6713 78.96C57.0613 78.96 57.7513 79.95 57.7513 81.12V84H57.0413V81.22C57.0413 80.2 56.5513 79.61 55.4213 79.61C54.2213 79.61 53.5913 80.34 53.5913 81.61V84ZM61.2566 84.1C59.6666 84.1 58.6566 83.1 58.6566 81.53C58.6566 80.03 59.6566 78.96 61.2466 78.96C62.6966 78.96 63.7266 79.8 63.7266 81.27C63.7266 81.45 63.7066 81.6 63.6766 81.73H59.3266C59.3666 82.84 59.9366 83.51 61.2466 83.51C62.4066 83.51 62.9466 83.08 62.9466 82.36V82.29H63.6566V82.36C63.6566 83.39 62.6366 84.1 61.2566 84.1ZM61.2366 79.55C59.9566 79.55 59.3766 80.21 59.3266 81.29H63.0566C63.0566 81.24 63.0566 81.19 63.0566 81.14C63.0566 80.1 62.3966 79.55 61.2366 79.55ZM65.3784 84H64.6684V79.06H65.3084V80.41H65.3584C65.5084 79.62 66.0684 78.96 67.0984 78.96C68.2384 78.96 68.7384 79.8 68.7384 80.72V81.21H68.0284V80.83C68.0284 79.99 67.6784 79.58 66.8184 79.58C65.8184 79.58 65.3784 80.21 65.3784 81.32V84ZM71.9109 84.1C70.3209 84.1 69.3109 83.1 69.3109 81.53C69.3109 80.03 70.3109 78.96 71.9009 78.96C73.3509 78.96 74.3809 79.8 74.3809 81.27C74.3809 81.45 74.3609 81.6 74.3309 81.73H69.9809C70.0209 82.84 70.5909 83.51 71.9009 83.51C73.0609 83.51 73.6009 83.08 73.6009 82.36V82.29H74.3109V82.36C74.3109 83.39 73.2909 84.1 71.9109 84.1ZM71.8909 79.55C70.6109 79.55 70.0309 80.21 69.9809 81.29H73.7109C73.7109 81.24 73.7109 81.19 73.7109 81.14C73.7109 80.1 73.0509 79.55 71.8909 79.55ZM77.4527 84.1C75.8727 84.1 74.9927 83.03 74.9927 81.53C74.9927 80.03 75.8727 78.96 77.3927 78.96C78.5627 78.96 79.2927 79.59 79.5127 80.44H79.5627V77.3H80.2727V84H79.6227V82.54H79.5827C79.3427 83.53 78.5427 84.1 77.4527 84.1ZM75.7127 81.53C75.7127 82.96 76.4727 83.45 77.6327 83.45C78.7927 83.45 79.5627 82.78 79.5627 81.61V81.52C79.5627 80.3 78.8327 79.62 77.6127 79.62C76.4827 79.62 75.7127 80.1 75.7127 81.53ZM85.2612 84H84.3812L82.8012 79.06H83.5312L84.5812 82.33L84.8312 83.38H84.8912L85.2312 82.27L86.5312 79.06H87.4412L88.7312 82.27L89.0712 83.37H89.1312L89.3712 82.33L90.4312 79.06H91.1612L89.5612 84H88.6712L87.3912 80.77L87.0012 79.67H86.9512L86.5612 80.77L85.2612 84ZM92.5659 78.43H91.8559V77.3H92.5659V78.43ZM92.5659 84H91.8559V79.06H92.5659V84ZM96.7902 84H95.7202C94.7402 84 94.1102 83.59 94.1102 82.43V79.67H93.2302V79.06H94.1102V77.88H94.8302V79.06H96.7902V79.67H94.8302V82.47C94.8302 83.16 95.1702 83.35 95.8902 83.35H96.7902V84ZM98.2788 84H97.5688V77.3H98.2788V80.57H98.3288C98.4888 79.74 99.1288 78.96 100.389 78.96C101.769 78.96 102.459 79.88 102.459 81.13V84H101.749V81.22C101.749 80.09 101.219 79.61 100.109 79.61C98.7888 79.61 98.2788 80.45 98.2788 81.68V84ZM106.179 84H105.469V77.3H106.179V80.57H106.229C106.389 79.74 107.029 78.96 108.289 78.96C109.669 78.96 110.359 79.88 110.359 81.13V84H109.649V81.22C109.649 80.09 109.119 79.61 108.009 79.61C106.689 79.61 106.179 80.45 106.179 81.68V84ZM112.244 78.43H111.534V77.3H112.244V78.43ZM112.244 84H111.534V79.06H112.244V84ZM115.558 83.6C114.088 83.6 113.188 82.63 113.188 81.28C113.188 79.93 114.118 78.96 115.638 78.96C116.678 78.96 117.498 79.45 117.698 80.33H117.748V79.06H118.388V83.53C118.388 85.16 117.358 85.8 115.868 85.8C114.528 85.8 113.508 85.13 113.508 83.98H114.218C114.218 84.85 114.798 85.19 115.898 85.19C117.178 85.19 117.678 84.8 117.678 83.57V82.28H117.628C117.428 83.04 116.698 83.6 115.558 83.6ZM113.898 81.28C113.898 82.54 114.678 82.97 115.748 82.97C116.968 82.97 117.678 82.36 117.678 81.31V81.14C117.678 80.17 116.938 79.59 115.798 79.59C114.688 79.59 113.898 80.02 113.898 81.28ZM120.3 84H119.59V77.3H120.3V80.57H120.35C120.51 79.74 121.15 78.96 122.41 78.96C123.79 78.96 124.48 79.88 124.48 81.13V84H123.77V81.22C123.77 80.09 123.24 79.61 122.13 79.61C120.81 79.61 120.3 80.45 120.3 81.68V84ZM128.075 81.39H125.355V80.76H128.075V81.39ZM131.325 84.1C129.735 84.1 128.725 83.1 128.725 81.53C128.725 80.03 129.725 78.96 131.315 78.96C132.765 78.96 133.795 79.8 133.795 81.27C133.795 81.45 133.775 81.6 133.745 81.73H129.395C129.435 82.84 130.005 83.51 131.315 83.51C132.475 83.51 133.015 83.08 133.015 82.36V82.29H133.725V82.36C133.725 83.39 132.705 84.1 131.325 84.1ZM131.305 79.55C130.025 79.55 129.445 80.21 129.395 81.29H133.125C133.125 81.24 133.125 81.19 133.125 81.14C133.125 80.1 132.465 79.55 131.305 79.55ZM135.447 84H134.737V79.06H135.377V80.61H135.427C135.597 79.77 136.297 78.96 137.527 78.96C138.917 78.96 139.607 79.95 139.607 81.12V84H138.897V81.22C138.897 80.2 138.407 79.61 137.277 79.61C136.077 79.61 135.447 80.34 135.447 81.61V84ZM142.892 84.1C141.312 84.1 140.432 83.03 140.432 81.53C140.432 80.03 141.312 78.96 142.832 78.96C144.002 78.96 144.732 79.59 144.952 80.44H145.002V77.3H145.712V84H145.062V82.54H145.022C144.782 83.53 143.982 84.1 142.892 84.1ZM141.152 81.53C141.152 82.96 141.912 83.45 143.072 83.45C144.232 83.45 145.002 82.78 145.002 81.61V81.52C145.002 80.3 144.272 79.62 143.052 79.62C141.922 79.62 141.152 80.1 141.152 81.53ZM150.911 84.1C149.391 84.1 148.511 83.49 148.511 82.35V82.33H149.221V82.39C149.221 83.22 149.711 83.51 150.921 83.51C152.031 83.51 152.411 83.25 152.411 82.68C152.411 82.16 152.101 81.99 151.281 81.86L149.961 81.67C149.061 81.55 148.491 81.2 148.491 80.38C148.491 79.51 149.321 78.96 150.681 78.96C152.101 78.96 153.021 79.56 153.021 80.72V80.74H152.311V80.69C152.311 79.95 151.921 79.55 150.661 79.55C149.621 79.55 149.191 79.8 149.191 80.39C149.191 80.9 149.451 81.08 150.271 81.2L151.481 81.37C152.541 81.52 153.111 81.88 153.111 82.68C153.111 83.61 152.191 84.1 150.911 84.1ZM157.073 84H156.003C155.023 84 154.393 83.59 154.393 82.43V79.67H153.513V79.06H154.393V77.88H155.113V79.06H157.073V79.67H155.113V82.47C155.113 83.16 155.453 83.35 156.173 83.35H157.073V84ZM160.272 84.1C158.662 84.1 157.592 83.03 157.592 81.53C157.592 80.03 158.662 78.96 160.272 78.96C161.892 78.96 162.962 80.03 162.962 81.53C162.962 83.03 161.892 84.1 160.272 84.1ZM160.272 83.46C161.632 83.46 162.262 82.73 162.262 81.53C162.262 80.34 161.632 79.6 160.272 79.6C158.912 79.6 158.292 80.34 158.292 81.53C158.292 82.73 158.912 83.46 160.272 83.46ZM164.617 84H163.907V79.06H164.547V80.41H164.597C164.747 79.62 165.307 78.96 166.337 78.96C167.477 78.96 167.977 79.8 167.977 80.72V81.21H167.267V80.83C167.267 79.99 166.917 79.58 166.057 79.58C165.057 79.58 164.617 80.21 164.617 81.32V84ZM171.149 84.1C169.559 84.1 168.549 83.1 168.549 81.53C168.549 80.03 169.549 78.96 171.139 78.96C172.589 78.96 173.619 79.8 173.619 81.27C173.619 81.45 173.599 81.6 173.569 81.73H169.219C169.259 82.84 169.829 83.51 171.139 83.51C172.299 83.51 172.839 83.08 172.839 82.36V82.29H173.549V82.36C173.549 83.39 172.529 84.1 171.149 84.1ZM171.129 79.55C169.849 79.55 169.269 80.21 169.219 81.29H172.949C172.949 81.24 172.949 81.19 172.949 81.14C172.949 80.1 172.289 79.55 171.129 79.55ZM176.731 84.1C175.211 84.1 174.331 83.49 174.331 82.35V82.33H175.041V82.39C175.041 83.22 175.531 83.51 176.741 83.51C177.851 83.51 178.231 83.25 178.231 82.68C178.231 82.16 177.921 81.99 177.101 81.86L175.781 81.67C174.881 81.55 174.311 81.2 174.311 80.38C174.311 79.51 175.141 78.96 176.501 78.96C177.921 78.96 178.841 79.56 178.841 80.72V80.74H178.131V80.69C178.131 79.95 177.741 79.55 176.481 79.55C175.441 79.55 175.011 79.8 175.011 80.39C175.011 80.9 175.271 81.08 176.091 81.2L177.301 81.37C178.361 81.52 178.931 81.88 178.931 82.68C178.931 83.61 178.011 84.1 176.731 84.1ZM17.63 96H16.56C15.58 96 14.95 95.59 14.95 94.43V91.67H14.07V91.06H14.95V89.88H15.67V91.06H17.63V91.67H15.67V94.47C15.67 95.16 16.01 95.35 16.73 95.35H17.63V96ZM20.8286 96.1C19.2186 96.1 18.1486 95.03 18.1486 93.53C18.1486 92.03 19.2186 90.96 20.8286 90.96C22.4486 90.96 23.5186 92.03 23.5186 93.53C23.5186 95.03 22.4486 96.1 20.8286 96.1ZM20.8286 95.46C22.1886 95.46 22.8186 94.73 22.8186 93.53C22.8186 92.34 22.1886 91.6 20.8286 91.6C19.4686 91.6 18.8486 92.34 18.8486 93.53C18.8486 94.73 19.4686 95.46 20.8286 95.46ZM26.9392 96H26.2992V89.3H27.0092V92.44H27.0592C27.2692 91.59 27.9792 90.96 29.1692 90.96C30.7192 90.96 31.5692 92.03 31.5692 93.53C31.5692 95.03 30.7192 96.1 29.1092 96.1C28.0092 96.1 27.2192 95.53 26.9892 94.54H26.9392V96ZM27.0092 93.61C27.0092 94.78 27.7492 95.45 28.9392 95.45C30.1192 95.45 30.8492 94.96 30.8492 93.53C30.8492 92.1 30.0992 91.62 28.9592 91.62C27.7092 91.62 27.0092 92.3 27.0092 93.52V93.61ZM33.1518 96H32.4418V91.06H33.0818V92.41H33.1318C33.2818 91.62 33.8418 90.96 34.8718 90.96C36.0118 90.96 36.5118 91.8 36.5118 92.72V93.21H35.8018V92.83C35.8018 91.99 35.4518 91.58 34.5918 91.58C33.5918 91.58 33.1518 92.21 33.1518 93.32V96ZM38.0444 90.43H37.3344V89.3H38.0444V90.43ZM38.0444 96H37.3344V91.06H38.0444V96ZM39.9487 96H39.2387V91.06H39.8787V92.61H39.9287C40.0987 91.77 40.7987 90.96 42.0287 90.96C43.4187 90.96 44.1087 91.95 44.1087 93.12V96H43.3987V93.22C43.3987 92.2 42.9087 91.61 41.7787 91.61C40.5787 91.61 39.9487 92.34 39.9487 93.61V96ZM47.3841 95.6C45.9141 95.6 45.0141 94.63 45.0141 93.28C45.0141 91.93 45.9441 90.96 47.4641 90.96C48.5041 90.96 49.3241 91.45 49.5241 92.33H49.5741V91.06H50.2141V95.53C50.2141 97.16 49.1841 97.8 47.6941 97.8C46.3541 97.8 45.3341 97.13 45.3341 95.98H46.0441C46.0441 96.85 46.6241 97.19 47.7241 97.19C49.0041 97.19 49.5041 96.8 49.5041 95.57V94.28H49.4541C49.2541 95.04 48.5241 95.6 47.3841 95.6ZM45.7241 93.28C45.7241 94.54 46.5041 94.97 47.5741 94.97C48.7941 94.97 49.5041 94.36 49.5041 93.31V93.14C49.5041 92.17 48.7641 91.59 47.6241 91.59C46.5141 91.59 45.7241 92.02 45.7241 93.28ZM53.9023 97.7H53.2823V97.05H54.0323C54.5323 97.05 54.7223 96.9 54.9123 96.49L55.1523 95.99L52.7023 91.06H53.4823L54.9323 94L55.4823 95.21H55.5423L56.0723 93.99L57.4423 91.06H58.2223L55.5423 96.69C55.1823 97.45 54.7223 97.7 53.9023 97.7ZM61.3266 96.1C59.7166 96.1 58.6466 95.03 58.6466 93.53C58.6466 92.03 59.7166 90.96 61.3266 90.96C62.9466 90.96 64.0166 92.03 64.0166 93.53C64.0166 95.03 62.9466 96.1 61.3266 96.1ZM61.3266 95.46C62.6866 95.46 63.3166 94.73 63.3166 93.53C63.3166 92.34 62.6866 91.6 61.3266 91.6C59.9666 91.6 59.3466 92.34 59.3466 93.53C59.3466 94.73 59.9666 95.46 61.3266 95.46ZM67.0313 96.1C65.6213 96.1 64.9313 95.12 64.9313 93.95V91.06H65.6413V93.84C65.6413 94.87 66.1413 95.46 67.2813 95.46C68.4913 95.46 69.1213 94.73 69.1213 93.46V91.06H69.8313V96H69.1913V94.46H69.1413C68.9713 95.3 68.2613 96.1 67.0313 96.1ZM74.2317 96.1C73.2617 96.1 72.6017 95.64 72.6017 94.84C72.6017 94.03 73.2717 93.68 74.1917 93.58L76.5417 93.32V92.94C76.5417 91.98 76.1217 91.6 75.0417 91.6C73.9817 91.6 73.4217 91.98 73.4217 92.85V92.89H72.7117V92.85C72.7117 91.81 73.5717 90.96 75.0917 90.96C76.5917 90.96 77.2317 91.82 77.2317 92.91V96H76.5917V94.67H76.5417C76.2517 95.58 75.3817 96.1 74.2317 96.1ZM73.3117 94.79C73.3117 95.29 73.6417 95.55 74.3917 95.55C75.5917 95.55 76.5417 95.02 76.5417 93.83V93.79L74.4117 94.03C73.6717 94.1 73.3117 94.28 73.3117 94.79ZM79.1088 96H78.3988V91.06H79.0388V92.61H79.0888C79.2588 91.77 79.9588 90.96 81.1888 90.96C82.5788 90.96 83.2688 91.95 83.2688 93.12V96H82.5588V93.22C82.5588 92.2 82.0688 91.61 80.9388 91.61C79.7388 91.61 79.1088 92.34 79.1088 93.61V96ZM88.6102 96.1C87.0202 96.1 86.0102 95.1 86.0102 93.53C86.0102 92.03 87.0102 90.96 88.6002 90.96C90.0502 90.96 91.0802 91.8 91.0802 93.27C91.0802 93.45 91.0602 93.6 91.0302 93.73H86.6802C86.7202 94.84 87.2902 95.51 88.6002 95.51C89.7602 95.51 90.3002 95.08 90.3002 94.36V94.29H91.0102V94.36C91.0102 95.39 89.9902 96.1 88.6102 96.1ZM88.5902 91.55C87.3102 91.55 86.7302 92.21 86.6802 93.29H90.4102C90.4102 93.24 90.4102 93.19 90.4102 93.14C90.4102 92.1 89.7502 91.55 88.5902 91.55ZM92.3619 96H91.5119L93.7619 93.54V93.49L91.5119 91.06H92.3719L94.3019 93.11H94.3519L96.2719 91.06H97.1219L94.8619 93.47V93.52L97.1219 96H96.2619L94.3219 93.91H94.2819L92.3619 96ZM100.843 96H99.7729C98.7929 96 98.1629 95.59 98.1629 94.43V91.67H97.2829V91.06H98.1629V89.88H98.8829V91.06H100.843V91.67H98.8829V94.47C98.8829 95.16 99.2229 95.35 99.9429 95.35H100.843V96ZM103.971 96.1C102.381 96.1 101.371 95.1 101.371 93.53C101.371 92.03 102.371 90.96 103.961 90.96C105.411 90.96 106.441 91.8 106.441 93.27C106.441 93.45 106.421 93.6 106.391 93.73H102.041C102.081 94.84 102.651 95.51 103.961 95.51C105.121 95.51 105.661 95.08 105.661 94.36V94.29H106.371V94.36C106.371 95.39 105.351 96.1 103.971 96.1ZM103.951 91.55C102.671 91.55 102.091 92.21 102.041 93.29H105.771C105.771 93.24 105.771 93.19 105.771 93.14C105.771 92.1 105.111 91.55 103.951 91.55ZM108.093 96H107.383V91.06H108.023V92.61H108.073C108.243 91.77 108.943 90.96 110.173 90.96C111.563 90.96 112.253 91.95 112.253 93.12V96H111.543V93.22C111.543 92.2 111.053 91.61 109.923 91.61C108.723 91.61 108.093 92.34 108.093 93.61V96ZM115.579 96.1C114.059 96.1 113.179 95.49 113.179 94.35V94.33H113.889V94.39C113.889 95.22 114.379 95.51 115.589 95.51C116.699 95.51 117.079 95.25 117.079 94.68C117.079 94.16 116.769 93.99 115.949 93.86L114.629 93.67C113.729 93.55 113.159 93.2 113.159 92.38C113.159 91.51 113.989 90.96 115.349 90.96C116.769 90.96 117.689 91.56 117.689 92.72V92.74H116.979V92.69C116.979 91.95 116.589 91.55 115.329 91.55C114.289 91.55 113.859 91.8 113.859 92.39C113.859 92.9 114.119 93.08 114.939 93.2L116.149 93.37C117.209 93.52 117.779 93.88 117.779 94.68C117.779 95.61 116.859 96.1 115.579 96.1ZM119.421 90.43H118.711V89.3H119.421V90.43ZM119.421 96H118.711V91.06H119.421V96ZM123.346 96H122.476L120.116 91.06H120.886L122.886 95.3H122.946L124.936 91.06H125.706L123.346 96ZM128.757 96.1C127.167 96.1 126.157 95.1 126.157 93.53C126.157 92.03 127.157 90.96 128.747 90.96C130.197 90.96 131.227 91.8 131.227 93.27C131.227 93.45 131.207 93.6 131.177 93.73H126.827C126.867 94.84 127.437 95.51 128.747 95.51C129.907 95.51 130.447 95.08 130.447 94.36V94.29H131.157V94.36C131.157 95.39 130.137 96.1 128.757 96.1ZM128.737 91.55C127.457 91.55 126.877 92.21 126.827 93.29H130.557C130.557 93.24 130.557 93.19 130.557 93.14C130.557 92.1 129.897 91.55 128.737 91.55ZM134.714 96H134.004V91.06H134.644V92.41H134.694C134.844 91.62 135.404 90.96 136.434 90.96C137.574 90.96 138.074 91.8 138.074 92.72V93.21H137.364V92.83C137.364 91.99 137.014 91.58 136.154 91.58C135.154 91.58 134.714 92.21 134.714 93.32V96ZM140.267 96.1C139.297 96.1 138.637 95.64 138.637 94.84C138.637 94.03 139.307 93.68 140.227 93.58L142.577 93.32V92.94C142.577 91.98 142.157 91.6 141.077 91.6C140.017 91.6 139.457 91.98 139.457 92.85V92.89H138.747V92.85C138.747 91.81 139.607 90.96 141.127 90.96C142.627 90.96 143.267 91.82 143.267 92.91V96H142.627V94.67H142.577C142.287 95.58 141.417 96.1 140.267 96.1ZM139.347 94.79C139.347 95.29 139.677 95.55 140.427 95.55C141.627 95.55 142.577 95.02 142.577 93.83V93.79L140.447 94.03C139.707 94.1 139.347 94.28 139.347 94.79ZM145.144 96H144.434V91.06H145.074V92.61H145.124C145.294 91.77 145.994 90.96 147.224 90.96C148.614 90.96 149.304 91.95 149.304 93.12V96H148.594V93.22C148.594 92.2 148.104 91.61 146.974 91.61C145.774 91.61 145.144 92.34 145.144 93.61V96ZM152.579 95.6C151.109 95.6 150.209 94.63 150.209 93.28C150.209 91.93 151.139 90.96 152.659 90.96C153.699 90.96 154.519 91.45 154.719 92.33H154.769V91.06H155.409V95.53C155.409 97.16 154.379 97.8 152.889 97.8C151.549 97.8 150.529 97.13 150.529 95.98H151.239C151.239 96.85 151.819 97.19 152.919 97.19C154.199 97.19 154.699 96.8 154.699 95.57V94.28H154.649C154.449 95.04 153.719 95.6 152.579 95.6ZM150.919 93.28C150.919 94.54 151.699 94.97 152.769 94.97C153.989 94.97 154.699 94.36 154.699 93.31V93.14C154.699 92.17 153.959 91.59 152.819 91.59C151.709 91.59 150.919 92.02 150.919 93.28ZM158.962 96.1C157.372 96.1 156.362 95.1 156.362 93.53C156.362 92.03 157.362 90.96 158.952 90.96C160.402 90.96 161.432 91.8 161.432 93.27C161.432 93.45 161.412 93.6 161.382 93.73H157.032C157.072 94.84 157.642 95.51 158.952 95.51C160.112 95.51 160.652 95.08 160.652 94.36V94.29H161.362V94.36C161.362 95.39 160.342 96.1 158.962 96.1ZM158.942 91.55C157.662 91.55 157.082 92.21 157.032 93.29H160.762C160.762 93.24 160.762 93.19 160.762 93.14C160.762 92.1 160.102 91.55 158.942 91.55ZM166.629 96.1C165.019 96.1 163.949 95.03 163.949 93.53C163.949 92.03 165.019 90.96 166.629 90.96C168.249 90.96 169.319 92.03 169.319 93.53C169.319 95.03 168.249 96.1 166.629 96.1ZM166.629 95.46C167.989 95.46 168.619 94.73 168.619 93.53C168.619 92.34 167.989 91.6 166.629 91.6C165.269 91.6 164.649 92.34 164.649 93.53C164.649 94.73 165.269 95.46 166.629 95.46ZM171.324 96H170.614V91.67H169.824V91.06H170.624C170.704 89.89 171.494 89.3 172.774 89.3H173.314V89.86H172.674C171.774 89.86 171.284 90.16 171.324 91.06H173.314V91.67H171.324V96ZM15.31 109.7H14.6V103.06H15.24V104.45H15.32C15.54 103.56 16.28 102.96 17.45 102.96C18.99 102.96 19.87 104.03 19.87 105.53C19.87 107.03 19 108.1 17.43 108.1C16.34 108.1 15.55 107.5 15.32 106.55H15.31V109.7ZM15.31 105.62C15.31 106.79 16.08 107.45 17.24 107.45C18.39 107.45 19.15 106.96 19.15 105.53C19.15 104.1 18.38 103.62 17.26 103.62C16.03 103.62 15.31 104.31 15.31 105.53V105.62ZM21.4526 108H20.7426V103.06H21.3826V104.41H21.4326C21.5826 103.62 22.1426 102.96 23.1726 102.96C24.3126 102.96 24.8126 103.8 24.8126 104.72V105.21H24.1026V104.83C24.1026 103.99 23.7526 103.58 22.8926 103.58C21.8926 103.58 21.4526 104.21 21.4526 105.32V108ZM28.0552 108.1C26.4452 108.1 25.3752 107.03 25.3752 105.53C25.3752 104.03 26.4452 102.96 28.0552 102.96C29.6752 102.96 30.7452 104.03 30.7452 105.53C30.7452 107.03 29.6752 108.1 28.0552 108.1ZM28.0552 107.46C29.4152 107.46 30.0452 106.73 30.0452 105.53C30.0452 104.34 29.4152 103.6 28.0552 103.6C26.6952 103.6 26.0752 104.34 26.0752 105.53C26.0752 106.73 26.6952 107.46 28.0552 107.46ZM33.8198 108.1C32.2398 108.1 31.3598 107.03 31.3598 105.53C31.3598 104.03 32.2398 102.96 33.7598 102.96C34.9298 102.96 35.6598 103.59 35.8798 104.44H35.9298V101.3H36.6398V108H35.9898V106.54H35.9498C35.7098 107.53 34.9098 108.1 33.8198 108.1ZM32.0798 105.53C32.0798 106.96 32.8398 107.45 33.9998 107.45C35.1598 107.45 35.9298 106.78 35.9298 105.61V105.52C35.9298 104.3 35.1998 103.62 33.9798 103.62C32.8498 103.62 32.0798 104.1 32.0798 105.53ZM39.9024 108.1C38.4924 108.1 37.8024 107.12 37.8024 105.95V103.06H38.5124V105.84C38.5124 106.87 39.0124 107.46 40.1524 107.46C41.3624 107.46 41.9924 106.73 41.9924 105.46V103.06H42.7024V108H42.0624V106.46H42.0124C41.8424 107.3 41.1324 108.1 39.9024 108.1ZM46.2569 108.1C44.6769 108.1 43.6469 107.03 43.6469 105.53C43.6469 104.03 44.6769 102.96 46.2569 102.96C47.6369 102.96 48.7169 103.78 48.7169 104.97V105.05H48.0169V104.99C48.0169 104.11 47.3769 103.61 46.2469 103.61C44.9269 103.61 44.3569 104.32 44.3569 105.53C44.3569 106.74 44.9269 107.45 46.2469 107.45C47.3769 107.45 48.0169 106.95 48.0169 106.07V106.01H48.7169V106.09C48.7169 107.28 47.6369 108.1 46.2569 108.1ZM52.6984 108H51.6284C50.6484 108 50.0184 107.59 50.0184 106.43V103.67H49.1384V103.06H50.0184V101.88H50.7384V103.06H52.6984V103.67H50.7384V106.47C50.7384 107.16 51.0784 107.35 51.7984 107.35H52.6984V108ZM55.647 108.1C54.127 108.1 53.247 107.49 53.247 106.35V106.33H53.957V106.39C53.957 107.22 54.447 107.51 55.657 107.51C56.767 107.51 57.147 107.25 57.147 106.68C57.147 106.16 56.837 105.99 56.017 105.86L54.697 105.67C53.797 105.55 53.227 105.2 53.227 104.38C53.227 103.51 54.057 102.96 55.417 102.96C56.837 102.96 57.757 103.56 57.757 104.72V104.74H57.047V104.69C57.047 103.95 56.657 103.55 55.397 103.55C54.357 103.55 53.927 103.8 53.927 104.39C53.927 104.9 54.187 105.08 55.007 105.2L56.217 105.37C57.277 105.52 57.847 105.88 57.847 106.68C57.847 107.61 56.927 108.1 55.647 108.1ZM59.3597 108H58.4797V106.61H59.3597V108Z" fill="white"/>
<path d="M321.694 26.0378L321.666 26.2208L321.797 26.3518L331.704 36.2585L331.962 36.5172L332.221 36.2585L343.259 25.2208L343.517 24.9621L343.259 24.7034L333.23 14.6746L333.097 14.5413L332.911 14.5725L323.458 16.1579L323.197 16.2017L323.157 16.4634L321.694 26.0378Z" fill="#ED2224" stroke="white" stroke-width="0.731707"/>
<path d="M328.702 17.5846C329.006 17.5846 329.251 17.6786 329.436 17.8664C329.623 18.0512 329.717 18.3105 329.717 18.6444V20.0977H329.091V18.7294C329.091 18.5356 329.042 18.388 328.944 18.2867C328.845 18.1823 328.711 18.1302 328.541 18.1302C328.371 18.1302 328.236 18.1823 328.134 18.2867C328.036 18.388 327.987 18.5356 327.987 18.7294V20.0977H327.361V18.7294C327.361 18.5356 327.312 18.388 327.213 18.2867C327.115 18.1823 326.981 18.1302 326.811 18.1302C326.638 18.1302 326.501 18.1823 326.399 18.2867C326.301 18.388 326.252 18.5356 326.252 18.7294V20.0977H325.626V17.6204H326.252V17.92C326.332 17.8157 326.435 17.7337 326.56 17.6741C326.689 17.6145 326.829 17.5846 326.981 17.5846C327.175 17.5846 327.347 17.6264 327.499 17.7099C327.652 17.7903 327.769 17.9066 327.853 18.0586C327.933 17.9155 328.049 17.8008 328.202 17.7143C328.357 17.6279 328.523 17.5846 328.702 17.5846ZM332.681 17.6204L331.148 21.2692H330.481L331.018 20.0351L330.025 17.6204H330.727L331.367 19.3509L332.015 17.6204H332.681ZM327.021 21.5846C327.209 21.5846 327.376 21.6264 327.522 21.7099C327.668 21.7903 327.781 21.9111 327.862 22.072C327.945 22.23 327.987 22.4208 327.987 22.6444V24.0977H327.361V22.7294C327.361 22.5326 327.312 22.3821 327.213 22.2777C327.115 22.1704 326.981 22.1168 326.811 22.1168C326.638 22.1168 326.501 22.1704 326.399 22.2777C326.301 22.3821 326.252 22.5326 326.252 22.7294V24.0977H325.626V20.7887H326.252V21.929C326.332 21.8216 326.44 21.7382 326.574 21.6786C326.708 21.6159 326.857 21.5846 327.021 21.5846ZM329.682 24.1379C329.444 24.1379 329.229 24.0857 329.038 23.9814C328.848 23.8741 328.697 23.7235 328.587 23.5298C328.479 23.336 328.426 23.1124 328.426 22.859C328.426 22.6057 328.481 22.3821 328.591 22.1883C328.704 21.9945 328.858 21.8455 329.052 21.7412C329.245 21.6338 329.462 21.5802 329.7 21.5802C329.939 21.5802 330.155 21.6338 330.348 21.7412C330.542 21.8455 330.694 21.9945 330.805 22.1883C330.918 22.3821 330.974 22.6057 330.974 22.859C330.974 23.1124 330.916 23.336 330.8 23.5298C330.687 23.7235 330.532 23.8741 330.335 23.9814C330.141 24.0857 329.924 24.1379 329.682 24.1379ZM329.682 23.5924C329.795 23.5924 329.901 23.5655 330 23.5119C330.101 23.4552 330.182 23.3718 330.241 23.2615C330.301 23.1512 330.331 23.017 330.331 22.859C330.331 22.6235 330.268 22.4432 330.143 22.318C330.021 22.1898 329.87 22.1257 329.691 22.1257C329.512 22.1257 329.362 22.1898 329.24 22.318C329.12 22.4432 329.061 22.6235 329.061 22.859C329.061 23.0945 329.119 23.2764 329.235 23.4046C329.354 23.5298 329.503 23.5924 329.682 23.5924ZM334.51 21.5846C334.814 21.5846 335.059 21.6786 335.243 21.8664C335.431 22.0512 335.525 22.3105 335.525 22.6444V24.0977H334.899V22.7294C334.899 22.5356 334.85 22.388 334.752 22.2867C334.653 22.1823 334.519 22.1302 334.349 22.1302C334.179 22.1302 334.044 22.1823 333.942 22.2867C333.844 22.388 333.795 22.5356 333.795 22.7294V24.0977H333.169V22.7294C333.169 22.5356 333.119 22.388 333.021 22.2867C332.923 22.1823 332.789 22.1302 332.619 22.1302C332.446 22.1302 332.309 22.1823 332.207 22.2867C332.109 22.388 332.06 22.5356 332.06 22.7294V24.0977H331.434V21.6204H332.06V21.92C332.14 21.8157 332.243 21.7337 332.368 21.6741C332.496 21.6145 332.637 21.5846 332.789 21.5846C332.982 21.5846 333.155 21.6264 333.307 21.7099C333.459 21.7903 333.577 21.9066 333.661 22.0586C333.741 21.9155 333.857 21.8008 334.009 21.7143C334.164 21.6279 334.331 21.5846 334.51 21.5846ZM338.422 22.8054C338.422 22.8948 338.416 22.9753 338.404 23.0468H336.593C336.608 23.2257 336.671 23.3658 336.781 23.4672C336.891 23.5685 337.027 23.6192 337.188 23.6192C337.42 23.6192 337.586 23.5193 337.684 23.3196H338.359C338.288 23.5581 338.151 23.7548 337.948 23.9099C337.745 24.0619 337.496 24.1379 337.201 24.1379C336.963 24.1379 336.748 24.0857 336.557 23.9814C336.37 23.8741 336.222 23.7235 336.115 23.5298C336.01 23.336 335.958 23.1124 335.958 22.859C335.958 22.6027 336.01 22.3776 336.115 22.1838C336.219 21.9901 336.365 21.841 336.553 21.7367C336.741 21.6323 336.957 21.5802 337.201 21.5802C337.437 21.5802 337.647 21.6309 337.832 21.7322C338.02 21.8336 338.164 21.9781 338.266 22.1659C338.37 22.3508 338.422 22.5639 338.422 22.8054ZM337.774 22.6265C337.771 22.4655 337.713 22.3374 337.599 22.242C337.486 22.1436 337.347 22.0944 337.183 22.0944C337.028 22.0944 336.897 22.1421 336.79 22.2375C336.686 22.3299 336.622 22.4596 336.598 22.6265H337.774ZM327.929 26.8054C327.929 26.8948 327.923 26.9753 327.911 27.0468H326.1C326.115 27.2257 326.177 27.3658 326.288 27.4672C326.398 27.5685 326.534 27.6192 326.695 27.6192C326.927 27.6192 327.093 27.5193 327.191 27.3196H327.866C327.795 27.5581 327.657 27.7548 327.455 27.9099C327.252 28.0619 327.003 28.1379 326.708 28.1379C326.47 28.1379 326.255 28.0857 326.064 27.9814C325.876 27.8741 325.729 27.7235 325.621 27.5298C325.517 27.336 325.465 27.1124 325.465 26.859C325.465 26.6027 325.517 26.3776 325.621 26.1838C325.726 25.9901 325.872 25.841 326.06 25.7367C326.247 25.6323 326.464 25.5802 326.708 25.5802C326.944 25.5802 327.154 25.6309 327.339 25.7322C327.526 25.8336 327.671 25.9781 327.772 26.1659C327.877 26.3508 327.929 26.5639 327.929 26.8054ZM327.28 26.6265C327.277 26.4655 327.219 26.3374 327.106 26.242C326.993 26.1436 326.854 26.0944 326.69 26.0944C326.535 26.0944 326.404 26.1421 326.297 26.2375C326.192 26.3299 326.128 26.4596 326.104 26.6265H327.28ZM329.115 26.1346V27.333C329.115 27.4165 329.134 27.4776 329.173 27.5164C329.214 27.5521 329.283 27.57 329.378 27.57H329.669V28.0977H329.276C328.748 28.0977 328.484 27.8413 328.484 27.3286V26.1346H328.189V25.6204H328.484V25.0078H329.115V25.6204H329.669V26.1346H329.115ZM329.958 26.8501C329.958 26.5997 330.008 26.3776 330.106 26.1838C330.207 25.9901 330.343 25.841 330.513 25.7367C330.686 25.6323 330.878 25.5802 331.09 25.5802C331.274 25.5802 331.435 25.6174 331.573 25.692C331.713 25.7665 331.824 25.8604 331.908 25.9737V25.6204H332.538V28.0977H331.908V27.7355C331.827 27.8517 331.716 27.9486 331.573 28.0261C331.432 28.1006 331.27 28.1379 331.085 28.1379C330.876 28.1379 330.686 28.0842 330.513 27.9769C330.343 27.8696 330.207 27.7191 330.106 27.5253C330.008 27.3286 329.958 27.1035 329.958 26.8501ZM331.908 26.859C331.908 26.707 331.878 26.5773 331.818 26.47C331.759 26.3597 331.678 26.2762 331.577 26.2196C331.476 26.16 331.367 26.1302 331.251 26.1302C331.134 26.1302 331.027 26.1585 330.929 26.2151C330.83 26.2718 330.75 26.3552 330.687 26.4655C330.628 26.5729 330.598 26.701 330.598 26.8501C330.598 26.9991 330.628 27.1303 330.687 27.2436C330.75 27.3539 330.83 27.4388 330.929 27.4985C331.03 27.5581 331.137 27.5879 331.251 27.5879C331.367 27.5879 331.476 27.5596 331.577 27.5029C331.678 27.4433 331.759 27.3599 331.818 27.2525C331.878 27.1422 331.908 27.0111 331.908 26.859ZM333.776 24.7887V28.0977H333.15V24.7887H333.776Z" fill="white"/>
<g clip-path="url(#clip0_5347_6516)">
<mask id="mask0_5347_6516" style="mask-type:luminance" maskUnits="userSpaceOnUse" x="211" y="67" width="116" height="17">
<path d="M327 67H211V84H327V67Z" fill="white"/>
</mask>
<g mask="url(#mask0_5347_6516)">
<path d="M251.692 76.4955C254.224 77.5522 256.838 78.5631 256.441 80.8603C256.011 83.3568 252.056 83.8315 248.813 83.8315H248.035C243.584 83.7244 241.35 83.3874 241.35 83.3874L241.532 80.6766C241.532 80.6766 244.61 81.1973 247.522 81.2892C249.177 81.3351 250.385 81.2585 250.418 80.7226C250.451 80.2478 249.624 80.0027 247.869 79.3595L246.33 78.7928C244.477 78.0883 241.449 77.0621 241.598 74.7036C241.747 72.4063 244.742 71.6865 246.529 71.4568C247.572 71.3189 248.664 71.273 250.186 71.2883C253.529 71.3189 256.342 71.8856 256.342 71.8856L256.077 74.4126C256.077 74.4126 253.099 73.8153 250.103 73.8153C248.2 73.8153 247.555 74.0144 247.456 74.3207C247.274 74.8568 248.333 75.2397 249.723 75.745L251.692 76.4955ZM263.06 78.6244V78.6703C263.06 79.4973 263.855 81.2738 267.793 81.4117H268.058C270.887 81.4117 273.485 80.891 273.916 80.8144C273.767 81.6721 273.585 82.7901 273.485 83.3262C272.608 83.5559 270.573 84 267.379 84C258.708 84 257.649 80.1712 257.881 77.5829C258.129 74.7342 261.091 71.2883 266.999 71.3342C267.561 71.3342 268.091 71.3802 268.571 71.4414C269.895 71.6252 275.521 72.7739 274.396 78.6397L263.06 78.6244ZM269.961 76.3117C269.961 76.3117 270.176 73.7387 266.866 73.7081C264.599 73.7234 263.524 75.0252 263.275 76.3117H269.961ZM315.467 78.6244V78.6703C315.467 79.4973 316.262 81.2738 320.2 81.4117H320.464C323.294 81.4117 325.892 80.891 326.323 80.8144C326.173 81.6721 325.991 82.7901 325.892 83.3262C325.015 83.5559 322.963 84 319.786 84C311.115 84 310.056 80.1712 310.287 77.5829C310.536 74.7342 313.481 71.2883 319.389 71.3342C319.951 71.3342 320.481 71.3802 320.961 71.4414C322.285 71.6252 327.894 72.7739 326.786 78.6397L315.467 78.6244ZM322.368 76.3117C322.368 76.3117 322.583 73.7387 319.274 73.7081C317.006 73.7234 315.93 75.0252 315.683 76.3117H322.368ZM287.021 75.7297C286.873 77.8892 286.475 83.7244 286.475 83.7244H291.671L292.234 75.6072C292.482 71.9162 289.669 71.6405 287.799 71.4721C287.667 71.4568 286.691 71.3802 285.334 71.3802C284.986 71.3802 284.606 71.3802 284.225 71.3955C280.998 71.5027 276.894 71.9468 276.894 71.9468L276.083 83.709H281.263L281.892 74.1676C281.892 74.1676 283.745 73.9225 285.201 73.9838C285.698 73.9991 287.137 73.9838 287.021 75.7297ZM238.884 67H234.565L234.3 70.2009H239.86C239.86 70.2009 240.009 68.3784 240.026 68.0721C240.092 67.3523 239.778 67 238.884 67ZM304.165 76.4955L302.179 75.7297C300.789 75.209 299.731 74.8261 299.912 74.2901C300.012 73.9991 300.657 73.8 302.56 73.7847C305.555 73.7847 308.534 74.382 308.534 74.382L308.798 71.855C308.798 71.855 305.985 71.3036 302.643 71.2577C301.12 71.2423 300.028 71.2883 298.986 71.4261C297.215 71.6559 294.203 72.3757 294.054 74.673C293.905 77.0162 296.934 78.0423 298.787 78.7621L300.326 79.3288C302.08 79.9721 302.907 80.2171 302.875 80.6919C302.841 81.2126 301.633 81.3045 299.978 81.2585C297.066 81.1667 293.988 80.646 293.988 80.646L293.806 83.3568C293.806 83.3568 296.04 83.6784 300.491 83.8009C300.756 83.8009 301.021 83.8162 301.269 83.8162C304.512 83.8162 308.467 83.3415 308.898 80.845C309.279 78.5631 306.697 77.5522 304.165 76.4955ZM226.225 67L225.728 72.8505H217.587L218.001 68.0721C218.017 67.0459 217.074 67 216.611 67H212.408L211.001 83.7397H216.693L217.322 76.327H225.464L224.835 83.7397H230.511L231.901 67H226.225ZM234.184 71.564L233.175 83.7397H238.735L239.761 71.564H234.184Z" fill="white"/>
</g>
</g>
<defs>
<clipPath id="clip0_5347_6516">
<rect width="116" height="17" fill="white" transform="translate(211 67)"/>
</clipPath>
</defs>
</svg>
