<svg width="161" height="156" viewBox="0 0 161 156" fill="none" xmlns="http://www.w3.org/2000/svg">
<path d="M69.192 110.071C84.5762 105.049 94.4469 101.244 105.682 101.112C105.682 101.112 121.684 103.173 128.305 101.112C147.667 95.0738 149.353 73.0851 138.9 56.8518C128.076 40.0402 108.595 44.8379 108.595 44.8379C85.2781 49.1191 69.7217 44.3965 61.586 40.4639C55.0659 37.3214 47.1861 38.491 42.1625 43.6903C41.031 44.8123 40.1455 46.1576 39.5625 47.6405C32.4067 67.2326 40.6484 86.3789 43.5884 98.0706C44.6743 102.405 53.8034 115.094 69.192 110.071Z" stroke="#263238" stroke-width="0.511043" stroke-linecap="round" stroke-linejoin="round" stroke-dasharray="1.02 1.02"/>
<path d="M76.3231 29.0289C75.7007 36.3644 75.0474 43.8014 75.2107 51.1324C75.5947 68.8928 77.3782 86.5959 78.5083 104.317C79.1837 114.878 81.2717 126.041 79.1439 136.536C77.153 146.374 69.3174 154.495 59.0539 155.223C47.7575 156.027 39.5952 145.483 40.8268 134.877C41.7494 126.932 46.5258 119.592 46.8084 111.586C47.1836 100.808 34.5848 102.198 26.3961 95.2555C16.7595 87.0991 7.24639 76.2548 4.44765 63.6141C3.63981 59.9817 3.43234 56.111 4.77873 52.6198C10.875 36.8543 36.7523 32.8953 46.8084 46.2951C57.169 60.1097 53.0857 80.2006 70.0414 82.0852C86.9972 83.9698 103.64 76.7491 119.968 72.6665C136.297 68.5839 154.507 78.6337 151.682 99.978C148.856 121.322 122.48 120.722 110.235 105.945C97.9891 91.1684 103.64 61.0498 106.151 49.1021C107.533 42.5523 111.082 36.6733 114.194 30.8297C116.644 26.2219 119.734 21.411 118.94 15.969C116.596 -0.0745565 89.8047 -4.61177 81.6602 9.23379C81.6513 9.25144 77.515 14.9406 76.3231 29.0289Z" stroke="#263238" stroke-width="0.511043" stroke-linecap="round" stroke-linejoin="round" stroke-dasharray="1.02 1.02"/>
<path d="M79.8577 93.5722C75.7302 93.5722 71.7718 91.9326 68.8532 89.014C65.9346 86.0955 64.2949 82.1371 64.2949 78.0097C64.2949 73.8823 65.9346 69.9239 68.8532 67.0054C71.7718 64.0869 75.7302 62.4473 79.8577 62.4473C83.9853 62.4473 87.9437 64.0869 90.8623 67.0054C93.7809 69.9239 95.4206 73.8823 95.4206 78.0097C95.4206 82.1371 93.7809 86.0955 90.8623 89.014C87.9437 91.9326 83.9853 93.5722 79.8577 93.5722Z" fill="#263238" stroke="#263238" stroke-width="0.511043" stroke-miterlimit="10"/>
<path d="M77.3913 87.4174H81.1827V77.9325H83.831L84.109 74.7547H81.1827V72.9363C81.1827 72.1904 81.3328 71.8946 82.0655 71.8946H84.1135V68.5977H81.4917C78.6713 68.5977 77.4002 69.8379 77.4002 72.2124V74.7458H75.4316V77.9634H77.4002L77.3913 87.4174Z" fill="#ED2224"/>
<path d="M85.959 65.2539C87.4182 65.9505 88.7469 66.8926 89.8872 68.0389" stroke="white" stroke-width="0.383282" stroke-linecap="round" stroke-linejoin="round"/>
<path d="M71.0977 66.9189C71.4199 66.6629 71.7597 66.4201 72.1128 66.1862C73.9952 64.9518 76.1454 64.1851 78.3842 63.9502C80.623 63.7152 82.8856 64.0188 84.9833 64.8356" stroke="white" stroke-width="0.383282" stroke-linecap="round" stroke-linejoin="round"/>
<path d="M78.1414 92.0431C76.1023 91.7929 74.1424 91.101 72.3982 90.0155C70.6541 88.93 69.1677 87.4771 68.0428 85.7581C66.4531 83.3347 65.6473 80.481 65.735 77.584C65.8226 74.6871 66.7994 71.8873 68.5327 69.5645" stroke="white" stroke-width="0.383282" stroke-linecap="round" stroke-linejoin="round"/>
<path d="M83.3604 91.709C82.4407 91.9517 81.4986 92.0996 80.5488 92.1503" stroke="white" stroke-width="0.383282" stroke-linecap="round" stroke-linejoin="round"/>
<path d="M89.8816 68.0391C90.5522 68.7144 91.1554 69.4535 91.6824 70.2459C92.7017 71.7986 93.4046 73.5371 93.7511 75.3618C94.0975 77.1866 94.0807 79.0617 93.7014 80.8799C93.3222 82.6982 92.5881 84.4237 91.541 85.9578C90.494 87.492 89.1547 88.8045 87.5997 89.8203C86.5788 90.4876 85.4767 91.0216 84.3203 91.4092" stroke="white" stroke-width="0.383282" stroke-linecap="round" stroke-linejoin="round"/>
<path d="M144.311 93.5722C140.183 93.5722 136.225 91.9326 133.306 89.014C130.388 86.0955 128.748 82.1371 128.748 78.0097C128.748 73.8823 130.388 69.9239 133.306 67.0054C136.225 64.0869 140.183 62.4473 144.311 62.4473C148.438 62.4473 152.397 64.0869 155.315 67.0054C158.234 69.9239 159.874 73.8823 159.874 78.0097C159.874 82.1371 158.234 86.0955 155.315 89.014C152.397 91.9326 148.438 93.5722 144.311 93.5722Z" fill="#263238" stroke="#263238" stroke-width="0.511043" stroke-miterlimit="10"/>
<path d="M136.913 90.0519C135.535 89.2051 134.314 88.1271 133.303 86.8652" stroke="white" stroke-width="0.383282" stroke-linecap="round" stroke-linejoin="round"/>
<path d="M151.859 89.9766C151.506 90.1972 151.144 90.4179 150.769 90.5989C148.767 91.626 146.548 92.1599 144.298 92.156C142.047 92.1522 139.831 91.6107 137.832 90.5768" stroke="white" stroke-width="0.383282" stroke-linecap="round" stroke-linejoin="round"/>
<path d="M147.535 64.248C149.536 64.7122 151.412 65.608 153.03 66.8728C154.649 68.1376 155.971 69.7408 156.906 71.5703C158.228 74.1485 158.726 77.0713 158.332 79.9421C157.937 82.8129 156.668 85.4928 154.699 87.6182" stroke="white" stroke-width="0.383282" stroke-linecap="round" stroke-linejoin="round"/>
<path d="M142.299 64.0194C143.24 63.883 144.192 63.8431 145.141 63.9002" stroke="white" stroke-width="0.383282" stroke-linecap="round" stroke-linejoin="round"/>
<path d="M133.303 86.8627C132.706 86.1161 132.186 85.3118 131.749 84.4617C130.901 82.8099 130.387 81.007 130.236 79.1562C130.085 77.3055 130.301 75.4432 130.871 73.6759C131.441 71.9086 132.354 70.271 133.557 68.8569C134.76 67.4427 136.231 66.2798 137.884 65.4345C138.97 64.8785 140.122 64.4646 141.314 64.2031" stroke="white" stroke-width="0.383282" stroke-linecap="round" stroke-linejoin="round"/>
<path d="M144.313 71.0184C146.595 71.0184 146.864 71.0184 147.764 71.0669C148.306 71.0736 148.842 71.1736 149.349 71.3626C149.716 71.5059 150.05 71.7239 150.329 72.0027C150.608 72.2815 150.825 72.6151 150.969 72.9824C151.156 73.4899 151.255 74.026 151.26 74.5669C151.3 75.4497 151.309 75.7365 151.309 78.014C151.309 80.2914 151.309 80.5606 151.26 81.461C151.255 82.002 151.156 82.538 150.969 83.0455C150.827 83.4139 150.61 83.7485 150.331 84.0276C150.052 84.3066 149.717 84.5239 149.349 84.6653C148.842 84.8543 148.306 84.9543 147.764 84.961C146.882 85.0007 146.595 85.0096 144.313 85.0096C142.031 85.0096 141.766 85.0096 140.866 84.961C140.325 84.9543 139.789 84.8543 139.281 84.6653C138.912 84.5278 138.578 84.3109 138.301 84.0298C138.028 83.7511 137.819 83.4149 137.692 83.0455C137.505 82.538 137.406 82.002 137.401 81.461C137.357 80.5783 137.348 80.2914 137.348 78.014C137.348 75.7365 137.348 75.4673 137.401 74.5669C137.406 74.026 137.505 73.4899 137.692 72.9824C137.829 72.6115 138.047 72.2764 138.332 72.0026C138.607 71.7189 138.942 71.5002 139.312 71.3626C139.819 71.1736 140.355 71.0736 140.897 71.0669C141.779 71.0272 142.066 71.0184 144.344 71.0184M144.344 69.4824C142.027 69.4824 141.74 69.4824 140.813 69.531C140.105 69.5461 139.406 69.6804 138.743 69.9282C138.175 70.1439 137.66 70.4796 137.233 70.9124C136.798 71.339 136.462 71.8557 136.249 72.4263C135.999 73.0885 135.865 73.7887 135.852 74.4963C135.808 75.4055 135.799 75.6968 135.799 78.0272C135.799 80.3576 135.799 80.6357 135.852 81.5581C135.865 82.2672 135.999 82.9688 136.249 83.6325C136.469 84.1985 136.804 84.7125 137.233 85.1418C137.663 85.5712 138.177 85.9064 138.743 86.1262C139.406 86.3741 140.105 86.5083 140.813 86.5235C141.726 86.5632 142.013 86.572 144.344 86.572C146.674 86.572 146.952 86.572 147.875 86.5235C148.582 86.5078 149.282 86.3736 149.945 86.1262C150.511 85.9064 151.025 85.5712 151.454 85.1418C151.884 84.7125 152.219 84.1985 152.439 83.6325C152.688 82.9688 152.823 82.2672 152.836 81.5581C152.88 80.6489 152.889 80.3576 152.889 78.0272C152.889 75.6968 152.889 75.4188 152.836 74.4963C152.823 73.7887 152.689 73.0885 152.439 72.4263C152.225 71.8557 151.889 71.339 151.454 70.9124C151.028 70.4796 150.513 70.1439 149.945 69.9282C149.282 69.6809 148.582 69.5466 147.875 69.531C146.961 69.4912 146.67 69.4824 144.344 69.4824Z" fill="#ED2224"/>
<path d="M144.311 73.6289C143.445 73.635 142.601 73.8972 141.884 74.3825C141.168 74.8678 140.611 75.5544 140.284 76.3557C139.957 77.1571 139.874 78.0373 140.047 78.8854C140.22 79.7336 140.639 80.5116 141.254 81.1215C141.868 81.7313 142.649 82.1457 143.498 82.3123C144.347 82.4789 145.227 82.3903 146.026 82.0577C146.825 81.7251 147.508 81.1634 147.988 80.4433C148.468 79.7233 148.725 78.8771 148.725 78.0116C148.725 76.8493 148.263 75.7345 147.441 74.9126C146.619 74.0907 145.504 73.6289 144.342 73.6289M144.311 80.8805C143.748 80.8805 143.197 80.7135 142.729 80.4007C142.261 80.0879 141.896 79.6433 141.681 79.1231C141.465 78.6029 141.409 78.0306 141.519 77.4783C141.629 76.9261 141.9 76.4189 142.298 76.0207C142.696 75.6226 143.203 75.3515 143.756 75.2416C144.308 75.1318 144.88 75.1881 145.4 75.4036C145.921 75.6191 146.365 75.984 146.678 76.4521C146.991 76.9203 147.158 77.4707 147.158 78.0337C147.158 78.4077 147.085 78.7782 146.942 79.1238C146.799 79.4695 146.59 79.7835 146.325 80.048C146.061 80.3125 145.747 80.5221 145.401 80.665C145.055 80.8078 144.685 80.8811 144.311 80.8805Z" fill="#ED2224"/>
<path d="M149.903 73.4517C149.903 73.6542 149.843 73.8522 149.731 74.0206C149.618 74.189 149.458 74.3202 149.271 74.3977C149.084 74.4752 148.878 74.4955 148.68 74.456C148.481 74.4165 148.299 74.3189 148.155 74.1757C148.012 74.0325 147.915 73.8501 147.875 73.6515C147.836 73.4528 147.856 73.2469 147.933 73.0598C148.011 72.8727 148.142 72.7128 148.311 72.6003C148.479 72.4878 148.677 72.4277 148.879 72.4277C149.151 72.4277 149.411 72.5356 149.604 72.7276C149.796 72.9197 149.903 73.1801 149.903 73.4517Z" fill="#ED2224"/>
<path d="M79.8577 150.434C75.7302 150.434 71.7718 148.794 68.8532 145.876C65.9346 142.957 64.2949 138.999 64.2949 134.872C64.2949 130.744 65.9344 126.785 68.8529 123.866C71.7714 120.946 75.7298 119.306 79.8577 119.305C83.9857 119.306 87.9441 120.946 90.8626 123.866C93.781 126.785 95.4206 130.744 95.4206 134.872C95.4206 138.999 93.7809 142.957 90.8623 145.876C87.9437 148.794 83.9853 150.434 79.8577 150.434Z" fill="#263238" stroke="#263238" stroke-width="0.511043" stroke-miterlimit="10"/>
<path d="M72.5293 122.771C73.9096 121.929 75.4253 121.332 77.0092 121.006" stroke="white" stroke-width="0.383282" stroke-linecap="round" stroke-linejoin="round"/>
<path d="M65.7834 136.119C65.7481 135.708 65.7305 135.289 65.7305 134.87C65.7288 132.619 66.2651 130.4 67.2947 128.399C68.3242 126.397 69.8172 124.671 71.6493 123.363" stroke="white" stroke-width="0.383282" stroke-linecap="round" stroke-linejoin="round"/>
<path d="M90.6423 143.998C89.3179 145.568 87.6661 146.83 85.8027 147.694C83.9393 148.559 81.9093 149.006 79.8551 149.003C76.9588 149.003 74.1321 148.115 71.757 146.457C69.3819 144.8 67.5728 142.453 66.5742 139.734" stroke="white" stroke-width="0.383282" stroke-linecap="round" stroke-linejoin="round"/>
<path d="M93.2361 139.447C92.9282 140.346 92.5304 141.211 92.0488 142.029" stroke="white" stroke-width="0.383282" stroke-linecap="round" stroke-linejoin="round"/>
<path d="M77.0078 121.047C77.9461 120.855 78.9014 120.758 79.8591 120.76C83.605 120.76 87.1975 122.248 89.8462 124.896C92.495 127.545 93.983 131.138 93.983 134.883C93.9834 136.103 93.8262 137.318 93.5152 138.498" stroke="white" stroke-width="0.383282" stroke-linecap="round" stroke-linejoin="round"/>
<path fill-rule="evenodd" clip-rule="evenodd" d="M88.8762 139.443C88.6911 139.346 88.4936 139.275 88.2892 139.231C87.3302 138.898 86.4947 138.283 85.8925 137.466C85.5471 137.032 85.2702 136.549 85.0716 136.031C85.0295 135.934 85.0105 135.827 85.0158 135.721C85.0212 135.615 85.0508 135.511 85.1025 135.418C85.32 135.165 85.607 134.983 85.9278 134.893C86.3339 134.776 86.7132 134.581 87.0445 134.319C87.1089 134.259 87.1627 134.189 87.2034 134.111C87.2155 134.086 87.2244 134.059 87.2299 134.032C87.2558 133.935 87.248 133.832 87.2078 133.741C87.12 133.58 86.9842 133.45 86.8194 133.37C86.7185 133.312 86.6062 133.277 86.4903 133.267C86.3744 133.257 86.2578 133.273 86.1485 133.313C85.9556 133.384 85.758 133.441 85.5571 133.485C85.3367 133.539 85.1066 133.539 84.8862 133.485C84.8862 133.458 84.8862 133.405 84.8862 133.335C84.8862 132.929 84.9083 132.514 84.9127 132.077C84.9543 131.403 84.9365 130.726 84.8597 130.055C84.6188 128.909 83.9393 127.901 82.9662 127.248C82.2795 126.775 81.4804 126.49 80.649 126.423C80.3665 126.396 80.0929 126.388 79.8148 126.388C78.6781 126.367 77.5661 126.72 76.6502 127.394C75.9744 127.924 75.4431 128.617 75.1054 129.407C74.8439 130.198 74.7581 131.037 74.8538 131.865C74.9062 132.402 74.9194 132.942 74.8935 133.48C74.8945 133.492 74.8945 133.504 74.8935 133.516C74.6307 133.562 74.3619 133.562 74.099 133.516C73.9136 133.485 73.715 133.41 73.4899 133.348C73.3876 133.326 73.2818 133.327 73.1798 133.35C73.0777 133.372 72.9818 133.417 72.8985 133.48C72.8079 133.528 72.7306 133.597 72.6736 133.682C72.6165 133.766 72.5816 133.864 72.5719 133.966C72.5697 133.982 72.5697 133.998 72.5719 134.014C72.601 134.144 72.6724 134.261 72.7749 134.345C72.8632 134.416 72.9382 134.465 72.9824 134.5C73.3774 134.726 73.7963 134.908 74.2314 135.043C74.358 135.083 74.4738 135.152 74.5701 135.244C74.6664 135.336 74.7407 135.448 74.7876 135.572C74.8239 135.907 74.7478 136.244 74.5713 136.53C74.1274 137.398 73.4753 138.143 72.6734 138.697C72.2495 138.987 71.7793 139.202 71.2831 139.333C71.089 139.365 70.9133 139.467 70.7887 139.62L70.7622 139.677C70.7449 139.744 70.7434 139.814 70.758 139.881C70.7726 139.949 70.8027 140.012 70.8461 140.065C70.9026 140.134 70.9734 140.19 71.0535 140.229C71.4601 140.436 71.8941 140.585 72.3424 140.67C72.6158 140.711 72.8848 140.777 73.1457 140.869C73.1457 140.869 73.1766 140.961 73.2295 141.089C73.3046 141.314 73.3399 141.584 73.4237 141.866C73.4366 141.905 73.4592 141.939 73.4894 141.966C73.5195 141.993 73.5562 142.012 73.5959 142.021C73.6981 142.051 73.8079 142.043 73.9048 141.999H73.9313C74.5959 141.836 75.2868 141.81 75.9616 141.924C76.6399 142.182 77.281 142.53 77.8683 142.956C78.3179 143.273 78.8433 143.465 79.3911 143.512C79.8208 143.53 80.2512 143.521 80.6799 143.486C81.0403 143.448 81.3873 143.329 81.6951 143.137C82.3836 142.744 82.9927 142.277 83.6636 141.981C83.922 141.917 84.1874 141.886 84.4536 141.888C85.0111 141.872 85.569 141.9 86.122 141.972H86.175C86.249 141.961 86.3164 141.923 86.3648 141.866C86.3956 141.833 86.4169 141.792 86.4266 141.747C86.4266 141.694 86.4575 141.668 86.4266 141.712C86.429 141.697 86.429 141.682 86.4266 141.668C86.4789 141.376 86.5867 141.097 86.7444 140.847C86.8421 140.77 86.9647 140.732 87.0886 140.741H87.1195C87.5735 140.668 88.0177 140.543 88.4436 140.37C88.6536 140.302 88.8402 140.177 88.9821 140.008C89.0126 139.966 89.0338 139.918 89.0446 139.867C89.0553 139.817 89.0553 139.764 89.0445 139.713C89.0336 139.663 89.0123 139.615 88.9818 139.573C88.9513 139.531 88.9123 139.496 88.8674 139.47L88.8762 139.443Z" fill="#ED2224"/>
<path d="M16.3163 93.5722C14.2714 93.5739 12.2463 93.1727 10.3566 92.3914C8.4669 91.6101 6.7497 90.464 5.30316 89.0187C3.85661 87.5735 2.70908 85.8573 1.92615 83.9683C1.14322 82.0793 0.740234 80.0545 0.740234 78.0097C0.740234 75.9649 1.14322 73.9402 1.92615 72.0512C2.70908 70.1622 3.85661 68.446 5.30316 67.0007C6.7497 65.5554 8.4669 64.4094 10.3566 63.6281C12.2463 62.8468 14.2714 62.4455 16.3163 62.4473C20.4438 62.4473 24.4023 64.0869 27.3209 67.0054C30.2395 69.9239 31.8791 73.8823 31.8791 78.0097C31.8791 82.1372 30.2395 86.0955 27.3209 89.0141C24.4023 91.9326 20.4438 93.5722 16.3163 93.5722Z" fill="#263238" stroke="#263238" stroke-width="0.511043" stroke-miterlimit="10"/>
<path d="M8.97461 65.9139C10.3547 65.0709 11.8704 64.4736 13.4545 64.1484" stroke="white" stroke-width="0.383282" stroke-linecap="round" stroke-linejoin="round"/>
<path d="M2.22484 79.2618C2.18953 78.8469 2.17188 78.432 2.17188 78.0083C2.17022 75.7575 2.70651 73.539 3.73607 71.5375C4.76563 69.536 6.25864 67.8095 8.09069 66.502" stroke="white" stroke-width="0.383282" stroke-linecap="round" stroke-linejoin="round"/>
<path d="M27.0861 87.1508C25.7611 88.7167 24.111 89.9751 22.2504 90.8387C20.3898 91.7023 18.3634 92.1503 16.3122 92.1514C13.4151 92.1551 10.587 91.2677 8.21123 89.6097C5.83551 87.9517 4.02712 85.6033 3.03125 82.8828" stroke="white" stroke-width="0.383282" stroke-linecap="round" stroke-linejoin="round"/>
<path d="M29.6756 82.584C29.3704 83.4849 28.9725 84.3517 28.4883 85.1704" stroke="white" stroke-width="0.383282" stroke-linecap="round" stroke-linejoin="round"/>
<path d="M13.4531 64.1658C14.3914 63.9738 15.3467 63.8776 16.3044 63.8789C20.0503 63.8789 23.6428 65.3669 26.2915 68.0156C28.9403 70.6643 30.4283 74.2567 30.4283 78.0025C30.4292 79.2226 30.2719 80.4376 29.9605 81.6173" stroke="white" stroke-width="0.383282" stroke-linecap="round" stroke-linejoin="round"/>
<path d="M8.00586 83.2131C9.56136 84.2148 11.3728 84.7466 13.2229 84.7447C19.5389 84.7447 23.1052 79.4086 22.8934 74.6242C23.5578 74.14 24.1316 73.5424 24.5882 72.8588C23.9677 73.1316 23.3104 73.3115 22.6374 73.3928C23.3473 72.969 23.8779 72.3003 24.1292 71.5126C23.4612 71.9069 22.7316 72.186 21.9709 72.338C21.4593 71.792 20.7821 71.4298 20.044 71.3075C19.3059 71.1852 18.548 71.3095 17.8877 71.6613C17.2273 72.0131 16.7013 72.5727 16.391 73.2535C16.0808 73.9343 16.0035 74.6984 16.1713 75.4275C14.8187 75.3599 13.4955 75.0082 12.2879 74.3952C11.0803 73.7823 10.0153 72.9219 9.16226 71.8701C8.72728 72.6196 8.59379 73.5065 8.78888 74.3508C8.98398 75.1951 9.49303 75.9335 10.2127 76.4161C9.67131 76.3946 9.14301 76.2432 8.67233 75.9748C8.66172 76.7679 8.92848 77.5398 9.42652 78.1571C9.92457 78.7744 10.6226 79.1983 11.4 79.3556C10.8989 79.4903 10.3738 79.5099 9.86404 79.413C10.0812 80.0889 10.5044 80.6799 11.0742 81.1033C11.6441 81.5268 12.3321 81.7614 13.0419 81.7743C12.3386 82.334 11.5317 82.7492 10.6674 82.9961C9.8032 83.243 8.89869 83.3168 8.00586 83.2131Z" fill="#ED2224"/>
<path d="M79.8577 33.1015C75.7302 33.1015 71.7718 31.4619 68.8532 28.5434C65.9346 25.6248 64.2949 21.6664 64.2949 17.539C64.2949 13.4116 65.9346 9.45323 68.8532 6.5347C71.7718 3.61617 75.7302 1.97656 79.8577 1.97656C83.9853 1.97656 87.9437 3.61617 90.8623 6.5347C93.7809 9.45323 95.4206 13.4116 95.4206 17.539C95.4206 21.6664 93.7809 25.6248 90.8623 28.5434C87.9437 31.4619 83.9853 33.1015 79.8577 33.1015Z" fill="#263238" stroke="#263238" stroke-width="0.511043" stroke-miterlimit="10"/>
<path fill-rule="evenodd" clip-rule="evenodd" d="M88.8277 17.1624C88.8476 14.9384 87.9831 12.7975 86.4245 11.2107C84.8659 9.624 82.7407 8.72141 80.5166 8.70151C78.2925 8.68161 76.1515 9.54604 74.5648 11.1046C72.978 12.6632 72.0754 14.7883 72.0555 17.0124C72.0555 17.1315 72.0555 17.2551 72.0555 17.3743C72.0548 18.8901 72.4701 20.377 73.256 21.6732L71.7598 26.153L76.403 24.6744C77.6751 25.3745 79.1072 25.7323 80.5591 25.7127C82.011 25.6932 83.433 25.297 84.6858 24.5629C85.9386 23.8289 86.9793 22.7821 87.7062 21.5251C88.433 20.2681 88.8209 18.8439 88.8321 17.3919C88.8321 17.3257 88.8321 17.2331 88.8277 17.1624ZM80.4416 24.3699C79.0637 24.3733 77.7155 23.9695 76.5663 23.2091L73.8563 24.0918L74.739 21.4922C73.8726 20.3012 73.4087 18.8648 73.4149 17.3919C73.4149 17.1669 73.4149 16.9506 73.4502 16.7167C73.6597 14.9924 74.4973 13.4059 75.8029 12.2603C77.1084 11.1147 78.7904 10.4905 80.5273 10.5068C82.2641 10.5232 83.934 11.1791 85.2177 12.3491C86.5015 13.5191 87.309 15.1212 87.4859 16.8491C87.5035 17.0315 87.5124 17.2125 87.5124 17.3919C87.503 19.2559 86.7539 21.0399 85.4296 22.3517C84.1054 23.6635 82.3144 24.3958 80.4504 24.3876L80.4416 24.3699Z" fill="#ED2224"/>
<path fill-rule="evenodd" clip-rule="evenodd" d="M84.2889 19.0496C84.0815 18.9481 83.0751 18.4538 82.8853 18.3876C82.6955 18.3214 82.5587 18.286 82.444 18.4891C82.3292 18.6921 81.9099 19.1511 81.7951 19.2835C81.6804 19.4159 81.5524 19.438 81.3538 19.3365C80.748 19.0981 80.1891 18.7544 79.703 18.3214C79.2526 17.9129 78.8671 17.4381 78.5599 16.9134C78.4451 16.7104 78.5599 16.6 78.6526 16.4985C78.7453 16.397 78.8556 16.2602 78.9615 16.141L79.0366 16.0439C79.0807 15.9689 79.116 15.8983 79.1646 15.8012C79.1943 15.7463 79.2099 15.6848 79.2099 15.6224C79.2099 15.56 79.1943 15.4985 79.1646 15.4437C79.1116 15.3422 78.7232 14.3358 78.529 13.9298C78.3348 13.5237 78.1847 13.5899 78.0876 13.5899C77.9905 13.5899 77.8316 13.5899 77.6948 13.5899C77.5901 13.592 77.487 13.6158 77.392 13.6599C77.297 13.704 77.2122 13.7673 77.1431 13.8459C76.9125 14.064 76.7298 14.3277 76.6067 14.6203C76.4836 14.9128 76.4228 15.2278 76.4281 15.5452C76.4298 15.7815 76.4655 16.0163 76.534 16.2425C76.6937 16.7526 76.9417 17.2306 77.2667 17.6549C77.3682 17.7873 78.6879 19.9147 80.7976 20.7444C82.9074 21.5742 82.8853 21.2829 83.2649 21.2476C83.5511 21.1935 83.8226 21.0794 84.0615 20.9128C84.3004 20.7462 84.5012 20.5309 84.6508 20.281C84.7867 19.9765 84.8282 19.6383 84.77 19.31C84.6332 19.2041 84.4964 19.1511 84.2889 19.0496Z" fill="#ED2224"/>
<path d="M72.5293 5.43928C73.9096 4.59689 75.4253 3.9996 77.0092 3.67383" stroke="white" stroke-width="0.383282" stroke-linecap="round" stroke-linejoin="round"/>
<path d="M65.7834 18.7866C65.7481 18.3762 65.7305 17.9569 65.7305 17.5376C65.7288 15.2868 66.2651 13.0683 67.2947 11.0668C68.3242 9.06526 69.8172 7.3388 71.6493 6.03125" stroke="white" stroke-width="0.383282" stroke-linecap="round" stroke-linejoin="round"/>
<path d="M90.6423 26.6801C89.3171 28.249 87.665 29.5095 85.8017 30.3733C83.9384 31.237 81.9089 31.6833 79.8551 31.6807C76.9588 31.6812 74.1321 30.7926 71.757 29.135C69.3819 27.4775 67.5728 25.1308 66.5742 22.4121" stroke="white" stroke-width="0.383282" stroke-linecap="round" stroke-linejoin="round"/>
<path d="M93.2361 22.1133C92.9273 23.0127 92.5296 23.8792 92.0488 24.6997" stroke="white" stroke-width="0.383282" stroke-linecap="round" stroke-linejoin="round"/>
<path d="M77.0078 3.6951C77.9461 3.50306 78.9014 3.40693 79.8591 3.40822C83.605 3.40822 87.1975 4.89623 89.8462 7.54493C92.495 10.1936 93.983 13.786 93.983 17.5318C93.9834 18.7519 93.8262 19.9669 93.5152 21.1466" stroke="white" stroke-width="0.383282" stroke-linecap="round" stroke-linejoin="round"/>
<path d="M112.202 123.675C122.423 123.675 130.709 115.389 130.709 105.168C130.709 94.9477 122.423 86.6621 112.202 86.6621C101.981 86.6621 93.6953 94.9477 93.6953 105.168C93.6953 115.389 101.981 123.675 112.202 123.675Z" fill="#ED2224" stroke="#263238" stroke-width="0.511043" stroke-miterlimit="10"/>
<path opacity="0.3" d="M112.202 123.675C122.423 123.675 130.709 115.389 130.709 105.168C130.709 94.9477 122.423 86.6621 112.202 86.6621C101.981 86.6621 93.6953 94.9477 93.6953 105.168C93.6953 115.389 101.981 123.675 112.202 123.675Z" fill="white" stroke="#263238" stroke-width="0.511043" stroke-miterlimit="10"/>
<path d="M112.203 86.6646C112.203 86.6646 102.842 85.6495 101.35 90.2794C99.858 94.9093 106.152 94.0884 105.159 96.2378C104.166 98.3872 100.026 101.185 101.681 104.346C103.336 107.506 106.315 110.966 103.005 109.81C99.6947 108.653 98.8693 108.318 99.5314 111.959C100.193 115.6 103.667 116.593 109.295 116.095C114.922 115.596 114.423 118.249 117.566 118.58C120.708 118.911 123.855 117.088 123.855 112.453C123.855 107.819 120.051 108.817 123.524 106.5C126.998 104.182 126.34 98.2239 125.347 96.4055C124.354 94.5871 122.368 95.4125 122.368 93.0953C122.368 90.7782 117.592 86.3557 112.203 86.6646Z" fill="#263238" stroke="#263238" stroke-width="0.511043" stroke-miterlimit="10"/>
<path d="M107.048 88.8241C107.048 88.8241 103.583 88.3607 103.698 90.5542C103.813 92.7478 109.824 97.0246 115.487 97.1438C121.15 97.263 121.724 94.3676 120.916 93.7894" stroke="white" stroke-width="0.383282" stroke-linecap="round" stroke-linejoin="round"/>
<path d="M110.639 90.6602C110.639 90.6602 107.867 91.0044 108.211 92.867C108.556 94.7295 110.29 95.6387 112.952 96.6803" stroke="white" stroke-width="0.383282" stroke-linecap="round" stroke-linejoin="round"/>
<path d="M124.499 101.988C124.499 101.988 124.269 104.879 120.689 106.729C117.11 108.578 113.884 111.341 116.973 112.735C120.063 114.13 121.828 115.737 120.672 116.085" stroke="white" stroke-width="0.383282" stroke-linecap="round" stroke-linejoin="round"/>
<path d="M106.82 110.531C106.82 110.531 105.434 113.766 103.355 113.179C101.276 112.592 100.579 110.973 101.969 110.973C103.359 110.973 103.47 111.666 103.47 111.666" stroke="white" stroke-width="0.383282" stroke-linecap="round" stroke-linejoin="round"/>
<path d="M117.853 97.2872C117.853 97.2872 120.691 97.243 120.228 100.015C119.764 102.787 117.107 103.02 116.414 105.099" stroke="white" stroke-width="0.383282" stroke-linecap="round" stroke-linejoin="round"/>
<path d="M112.207 123.693C116.361 123.698 120.394 122.298 123.652 119.721C122.354 118.763 120.041 117.073 118.695 116.19C116.749 114.892 114.153 110.854 110.689 111.573C107.908 112.156 100.466 115.36 97.6328 116.605C99.3641 118.816 101.576 120.603 104.102 121.831C106.627 123.06 109.399 123.696 112.207 123.693Z" fill="white" stroke="#263238" stroke-width="0.511043" stroke-miterlimit="10"/>
<path d="M110.118 110.965C110.118 110.965 104.989 112.452 104.327 116.756C103.665 121.059 108.547 117.956 108.547 117.956C108.547 117.956 111.111 121.721 113.428 120.565C115.746 119.408 116.077 115.432 114.753 112.783C113.428 110.135 110.118 110.965 110.118 110.965Z" fill="white" stroke="#263238" stroke-width="0.511043" stroke-miterlimit="10"/>
<path d="M109.979 107.804C110.006 109.214 109.814 110.62 109.41 111.971C108.761 113.97 106.647 116.724 108.527 117.96C110.407 119.196 112.817 115.263 113.444 111.962C114.071 108.661 114.525 104.715 114.525 104.715L109.979 107.804Z" fill="white"/>
<mask id="mask0_3762_42542" style="mask-type:luminance" maskUnits="userSpaceOnUse" x="107" y="104" width="8" height="15">
<path d="M110.012 107.814C110.039 109.224 109.847 110.63 109.443 111.981C108.794 113.98 106.68 116.734 108.56 117.97C110.44 119.206 112.85 115.273 113.477 111.972C114.104 108.67 114.558 104.725 114.558 104.725L110.012 107.814Z" fill="white"/>
</mask>
<g mask="url(#mask0_3762_42542)">
<g style="mix-blend-mode:multiply" opacity="0.5">
<path d="M109.568 111.534C110.174 111.754 110.804 111.902 111.444 111.976C112.018 112.042 112.247 111.918 112.327 111.773C112.256 112.598 111.987 114.862 111.047 116.53C110.76 117.042 110.526 117.475 110.341 117.855C111.736 116.914 113.038 114.293 113.479 111.98C114.106 108.683 114.543 104.746 114.543 104.746L109.996 107.836C110.018 109.082 109.874 110.326 109.568 111.534Z" fill="#ED2224"/>
</g>
</g>
<path d="M109.979 107.804C110.006 109.214 109.814 110.62 109.41 111.971C108.761 113.97 106.647 116.724 108.527 117.96C110.407 119.196 112.817 115.263 113.444 111.962C114.071 108.661 114.525 104.715 114.525 104.715L109.979 107.804Z" stroke="#263238" stroke-width="0.511043" stroke-miterlimit="10"/>
<path d="M107.202 95.0039C107.202 95.0039 105.613 101.624 105.613 104.092C105.613 106.559 107.882 109.578 110.76 109.829C114.432 110.125 115.783 105.191 116.577 102.379C117.266 99.9383 117.733 97.8286 117.848 97.3078C112.265 99.4175 107.202 95.0039 107.202 95.0039Z" fill="white"/>
<mask id="mask1_3762_42542" style="mask-type:luminance" maskUnits="userSpaceOnUse" x="105" y="95" width="13" height="15">
<path d="M107.235 95.0098C107.235 95.0098 105.646 101.63 105.646 104.097C105.646 106.565 107.915 109.584 110.793 109.835C114.465 110.131 115.816 105.196 116.61 102.385C117.299 99.9442 117.767 97.8345 117.881 97.3137C112.298 99.4234 107.235 95.0098 107.235 95.0098Z" fill="white"/>
</mask>
<g mask="url(#mask1_3762_42542)">
<g style="mix-blend-mode:multiply" opacity="0.5">
<path d="M117.883 97.2988C117.328 97.5109 116.753 97.6662 116.166 97.7623C115.906 99.4439 115.107 103.579 113.275 106.122C111.722 108.28 110.058 109.061 109.113 109.344C109.639 109.606 110.21 109.768 110.795 109.82C114.467 110.116 115.818 105.182 116.612 102.37" fill="#ED2224"/>
</g>
</g>
<path d="M107.202 95.0039C107.202 95.0039 105.613 101.624 105.613 104.092C105.613 106.559 107.882 109.578 110.76 109.829C114.432 110.125 115.783 105.191 116.577 102.379C117.266 99.9383 117.733 97.8286 117.848 97.3078C112.265 99.4175 107.202 95.0039 107.202 95.0039Z" stroke="#263238" stroke-width="0.511043" stroke-miterlimit="10"/>
<path d="M110.23 99.6914C110.028 100.412 109.71 101.094 109.29 101.713C108.716 102.432 107.489 101.783 107.851 102.216C108.051 102.469 108.301 102.679 108.586 102.831C108.871 102.982 109.184 103.074 109.506 103.099" stroke="#263238" stroke-width="0.511043" stroke-linecap="round" stroke-linejoin="round"/>
<path d="M107.455 104.475C107.455 104.475 108.536 106.064 110.77 105.269" stroke="#263238" stroke-width="0.511043" stroke-linecap="round" stroke-linejoin="round"/>
<path d="M109.18 99.1821C109.114 99.5749 108.885 99.8662 108.668 99.8265C108.452 99.7867 108.329 99.4425 108.395 99.0497C108.461 98.6569 108.691 98.37 108.907 98.4053C109.123 98.4406 109.247 98.7893 109.18 99.1821Z" fill="#263238"/>
<path d="M112.819 100.216C112.722 100.605 112.475 100.878 112.263 100.825C112.051 100.772 111.954 100.419 112.047 100.031C112.14 99.6424 112.387 99.3731 112.603 99.4217C112.819 99.4702 112.912 99.8321 112.819 100.216Z" fill="#263238"/>
<path d="M107.705 97.2417C107.705 97.2417 108.283 95.8735 110.013 96.6679" stroke="#263238" stroke-width="0.511043" stroke-linecap="round" stroke-linejoin="round"/>
<path d="M112.025 97.8279C112.025 97.8279 113.614 97.3247 114.047 98.9092" stroke="#263238" stroke-width="0.511043" stroke-linecap="round" stroke-linejoin="round"/>
<path d="M47.7509 123.687C57.9719 123.687 66.2577 115.401 66.2577 105.18C66.2577 94.9594 57.9719 86.6738 47.7509 86.6738C37.5299 86.6738 29.2441 94.9594 29.2441 105.18C29.2441 115.401 37.5299 123.687 47.7509 123.687Z" fill="#ED2224" stroke="#263238" stroke-width="0.511043" stroke-miterlimit="10"/>
<path opacity="0.3" d="M47.7509 123.687C57.9719 123.687 66.2577 115.401 66.2577 105.18C66.2577 94.9594 57.9719 86.6738 47.7509 86.6738C37.5299 86.6738 29.2441 94.9594 29.2441 105.18C29.2441 115.401 37.5299 123.687 47.7509 123.687Z" fill="white" stroke="#263238" stroke-width="0.511043" stroke-miterlimit="10"/>
<path d="M36.1719 119.6C39.8012 122.523 44.4007 123.968 49.05 123.646C53.6993 123.324 58.0553 121.257 61.2463 117.861C59.163 115.177 54.8949 110.578 50.1458 110.578C44.8758 110.578 38.6171 116.868 36.1719 119.6Z" fill="white" stroke="#263238" stroke-width="0.511043" stroke-miterlimit="10"/>
<path d="M45.7013 109.206C45.7013 109.206 42.5631 109.563 42.2939 111.986C42.0247 114.409 43.9049 118.444 44.0859 118.889C44.2668 119.335 48.301 115.305 49.8237 115.305C51.3465 115.305 55.2923 117.455 55.2923 117.455C55.2923 117.455 54.0388 112.432 51.7967 110.548C49.5545 108.663 46.3236 108.486 45.7013 109.206Z" fill="white" stroke="#263238" stroke-width="0.511043" stroke-miterlimit="10"/>
<path opacity="0.5" d="M41.5753 100.304C41.5753 100.304 40.2291 98.9578 39.5141 100.035C38.7991 101.112 39.4214 102.365 40.3968 103.173C41.3723 103.981 42.9082 104.056 42.9082 103.442C42.9082 102.829 41.5753 100.304 41.5753 100.304Z" fill="#ED2224" stroke="#263238" stroke-width="0.511043" stroke-miterlimit="10"/>
<path d="M41.5753 100.304C41.5753 100.304 40.2291 98.9578 39.5141 100.035C38.7991 101.112 39.4214 102.365 40.3968 103.173C41.3723 103.981 42.9082 104.056 42.9082 103.442C42.9082 102.829 41.5753 100.304 41.5753 100.304Z" stroke="#263238" stroke-width="0.511043" stroke-miterlimit="10"/>
<path d="M53.1484 97.1808C53.1484 97.1808 53.7752 95.5654 54.6712 97.269C55.5672 98.9727 53.8635 100.495 53.8635 100.495L53.1484 97.1808Z" fill="white" stroke="#263238" stroke-width="0.511043" stroke-miterlimit="10"/>
<path d="M42.9238 103.465C42.9238 103.465 44.7158 109.922 45.166 112.164C45.6162 114.406 47.6774 117.637 49.2002 116.578C50.7229 115.518 50.639 113.528 49.7386 111.824C49.1459 110.647 48.6657 109.416 48.3042 108.148L42.9238 103.465Z" fill="white"/>
<mask id="mask2_3762_42542" style="mask-type:luminance" maskUnits="userSpaceOnUse" x="42" y="103" width="9" height="14">
<path d="M42.9121 103.467C42.9121 103.467 44.7041 109.924 45.1543 112.166C45.6045 114.408 47.6657 117.639 49.1884 116.58C50.7112 115.52 50.6273 113.53 49.7269 111.826C49.1342 110.649 48.6539 109.418 48.2924 108.15L42.9121 103.467Z" fill="white"/>
</mask>
<g mask="url(#mask2_3762_42542)">
<g style="mix-blend-mode:multiply" opacity="0.5">
<path d="M49.7269 111.809C49.1342 110.631 48.6539 109.4 48.2924 108.132L42.9121 103.467C42.9121 103.467 44.3819 108.763 44.991 111.411C45.7689 112.019 46.6536 112.475 47.5995 112.757C48.4172 112.981 49.2896 112.881 50.0359 112.479C49.9471 112.25 49.8439 112.025 49.7269 111.809Z" fill="#ED2224"/>
</g>
</g>
<path d="M42.9238 103.465C42.9238 103.465 44.7158 109.922 45.166 112.164C45.6162 114.406 47.6774 117.637 49.2002 116.578C50.7229 115.518 50.639 113.528 49.7386 111.824C49.1459 110.647 48.6657 109.416 48.3042 108.148L42.9238 103.465Z" stroke="#263238" stroke-width="0.511043" stroke-miterlimit="10"/>
<path d="M39.7049 96.7371C39.7049 96.7371 43.92 106.888 45.7164 109.206C47.5128 111.523 52.337 111.717 54.4159 108.323C56.4947 104.929 54.1466 100.343 53.7891 98.2774C53.4316 96.2119 52.465 92.8089 53.0697 92.1822C53.6743 91.5555 56.2078 91.1053 55.2236 89.4899C54.2393 87.8745 52.8004 88.6822 52.6239 87.517C52.4473 86.3518 53.3389 83.4785 50.0198 83.0327C46.7007 82.587 40.8701 86.5283 38.5441 89.5782C36.218 92.628 35.4765 95.3909 39.7049 96.7371Z" fill="#263238" stroke="#263238" stroke-width="0.511043" stroke-miterlimit="10"/>
<path d="M41.0278 93.6881C41.0278 93.6881 38.2648 93.4807 39.6507 90.8237C41.0366 88.1667 50.2834 84.5872 50.3981 86.5513C50.5129 88.5153 48.434 89.0935 48.434 89.0935" stroke="white" stroke-width="0.383282" stroke-linecap="round" stroke-linejoin="round"/>
<path d="M44.7441 91.1768C44.7441 91.1768 42.6653 90.7134 43.3582 89.2127C44.0512 87.7121 49.1358 87.0059 48.2133 87.9416C47.6664 88.4897 47.0436 88.9565 46.364 89.3275" stroke="white" stroke-width="0.383282" stroke-linecap="round" stroke-linejoin="round"/>
<path d="M51.4439 102.838C51.4439 102.838 49.9212 105.257 47.498 104.091" stroke="white" stroke-width="0.383282" stroke-linecap="round" stroke-linejoin="round"/>
<path d="M53.7711 98.2645C53.4357 96.3358 52.5485 93.2242 52.9501 92.3194C52.6809 91.6706 51.754 90.1567 49.0175 90.0155C45.5174 89.8345 41.7525 91.8074 41.0331 93.692C40.3136 95.5767 42.0217 94.5748 42.6485 95.9341C43.2752 97.2935 41.6598 98.8957 42.0217 99.8799C42.3837 100.864 44.083 104.735 44.083 104.735C44.3522 103.658 48.3908 101.862 48.3908 101.862C48.9748 102.016 49.5796 102.077 50.1827 102.043C50.9904 101.954 50.5402 101.235 50.5402 101.235L54.6759 101.482C54.3228 100.18 53.9035 99.0458 53.7711 98.2645Z" fill="white"/>
<mask id="mask3_3762_42542" style="mask-type:luminance" maskUnits="userSpaceOnUse" x="40" y="90" width="15" height="15">
<path d="M53.7652 98.2645C53.4298 96.3358 52.5426 93.2242 52.9443 92.3194C52.675 91.6706 51.7482 90.1567 49.0116 90.0155C45.5116 89.8345 41.7466 91.8074 41.0272 93.692C40.3078 95.5767 42.0159 94.5748 42.6426 95.9341C43.2694 97.2935 41.654 98.8957 42.0159 99.8799C42.3778 100.864 44.0771 104.735 44.0771 104.735C44.3463 103.658 48.3849 101.862 48.3849 101.862C48.969 102.016 49.5737 102.077 50.1769 102.043C50.9846 101.954 50.5344 101.235 50.5344 101.235L54.67 101.482C54.3169 100.18 53.8976 99.0458 53.7652 98.2645Z" fill="white"/>
</mask>
<g mask="url(#mask3_3762_42542)">
<g style="mix-blend-mode:multiply" opacity="0.5">
<path d="M44.2173 94.4165C44.0496 92.6511 42.8932 92.3024 42.1252 92.2715C41.6484 92.6513 41.2699 93.1403 41.0218 93.6971C40.3067 95.5817 42.0104 94.5798 42.6372 95.9392C43.2639 97.2986 41.6485 98.9008 42.0104 99.885C42.3724 100.869 44.0716 104.74 44.0716 104.74C44.1599 104.396 44.6278 103.976 45.228 103.57C44.3453 102.312 43.2684 100.781 42.6593 99.8938C41.5117 98.1946 44.4777 97.153 44.2173 94.4165Z" fill="#ED2224"/>
</g>
</g>
<path d="M53.7711 98.2645C53.4357 96.3358 52.5485 93.2242 52.9501 92.3194C52.6809 91.6706 51.754 90.1567 49.0175 90.0155C45.5174 89.8345 41.7525 91.8074 41.0331 93.692C40.3136 95.5767 42.0217 94.5748 42.6485 95.9341C43.2752 97.2935 41.6598 98.8957 42.0217 99.8799C42.3837 100.864 44.083 104.735 44.083 104.735C44.3522 103.658 48.3908 101.862 48.3908 101.862C48.9748 102.016 49.5796 102.077 50.1827 102.043C50.9904 101.954 50.5402 101.235 50.5402 101.235L54.6759 101.482C54.3228 100.18 53.9035 99.0458 53.7711 98.2645Z" stroke="#263238" stroke-width="0.511043" stroke-miterlimit="10"/>
<path d="M46.1793 97.827C46.294 98.3258 46.1793 98.7804 45.9542 98.8333C45.7291 98.8863 45.4289 98.5244 45.3186 98.0212C45.2083 97.5181 45.3186 97.0679 45.5437 97.0149C45.7688 96.9619 46.0689 97.3239 46.1793 97.827Z" fill="#263238"/>
<path d="M51.5175 96.7333C51.6323 97.2364 51.5175 97.6866 51.2924 97.7396C51.0673 97.7926 50.7672 97.4306 50.6524 96.9275C50.5377 96.4243 50.6524 95.9741 50.882 95.9212C51.1115 95.8682 51.4028 96.2301 51.5175 96.7333Z" fill="#263238"/>
<path d="M44.0898 95.4805C44.0898 95.4805 44.4474 93.5076 46.513 94.3153" stroke="#263238" stroke-width="0.511043" stroke-linecap="round" stroke-linejoin="round"/>
<path d="M52.0653 93.4128C50.5382 92.4241 49.9997 93.8541 49.9997 93.8541C49.9997 93.8541 49.0331 94.9134 49.4259 96.8687" stroke="#263238" stroke-width="0.511043" stroke-linecap="round" stroke-linejoin="round"/>
<path d="M44.3613 100.772L46.961 99.6992" stroke="#263238" stroke-width="0.255521" stroke-linecap="round" stroke-linejoin="round"/>
<path d="M50.6406 98.8958L52.7901 98.7148" stroke="#263238" stroke-width="0.255521" stroke-linecap="round" stroke-linejoin="round"/>
<path d="M116.528 65.5582C126.465 63.167 132.582 53.1729 130.191 43.2358C127.8 33.2987 117.806 27.1815 107.868 29.5727C97.9308 31.9639 91.8135 41.958 94.2047 51.8951C96.596 61.8322 106.59 67.9494 116.528 65.5582Z" fill="#ED2224" stroke="#263238" stroke-width="0.511043" stroke-miterlimit="10"/>
<path opacity="0.3" d="M116.528 65.5582C126.465 63.167 132.582 53.1729 130.191 43.2358C127.8 33.2987 117.806 27.1815 107.868 29.5727C97.9308 31.9639 91.8135 41.958 94.2047 51.8951C96.596 61.8322 106.59 67.9494 116.528 65.5582Z" fill="white" stroke="#263238" stroke-width="0.511043" stroke-miterlimit="10"/>
<path d="M128.009 43.8795C130.502 37.1581 126.85 29.6051 119.852 27.0095C112.854 24.4139 105.16 27.7586 102.666 34.4801C100.173 41.2015 103.825 48.7545 110.824 51.3501C117.822 53.9457 125.516 50.601 128.009 43.8795Z" fill="#263238" stroke="#263238" stroke-width="0.511043" stroke-miterlimit="10"/>
<path d="M127.908 36.6133C128.52 38.8 128.48 41.1179 127.793 43.2823" stroke="white" stroke-width="0.383282" stroke-linecap="round" stroke-linejoin="round"/>
<path d="M126.97 45.0352C126.97 45.0352 126.149 46.09 125.682 46.677" stroke="white" stroke-width="0.383282" stroke-linecap="round" stroke-linejoin="round"/>
<path d="M107.782 30.9941C107.782 30.9941 105.91 33.201 107.08 35.9109" stroke="white" stroke-width="0.383282" stroke-linecap="round" stroke-linejoin="round"/>
<path d="M112.199 66.0776C115.609 66.0836 118.954 65.1424 121.861 63.3588C119.702 61.3682 114.084 56.4117 111.435 56.1954C108.664 55.9703 100.573 58.5612 97.9824 59.4218C99.7179 61.5072 101.891 63.1846 104.349 64.335C106.806 65.4853 109.486 66.0803 112.199 66.0776Z" fill="white" stroke="#263238" stroke-width="0.511043" stroke-miterlimit="10"/>
<path d="M114.936 58.5289C115.011 58.3082 115.077 58.0875 115.148 57.9066C113.727 56.9621 112.389 56.2735 111.44 56.1941C110.288 56.1822 109.139 56.3142 108.02 56.5869C107.53 57.911 107.402 59.2351 107.005 61.4905C106.466 64.5403 107.274 65.4362 109.516 64.271C111.758 63.1058 114.04 61.2168 114.936 58.5289Z" fill="white" stroke="#263238" stroke-width="0.511043" stroke-miterlimit="10"/>
<path d="M109.553 52.8757C109.553 52.8757 110.092 53.8644 109.465 56.1948C108.838 58.5251 107.258 62.3738 107.991 63.1065C108.723 63.8392 113.142 60.5025 113.318 57.9911C113.495 55.4797 113.499 50.457 113.499 50.457L109.553 52.8757Z" fill="white"/>
<mask id="mask4_3762_42542" style="mask-type:luminance" maskUnits="userSpaceOnUse" x="107" y="50" width="7" height="14">
<path d="M109.547 52.8777C109.547 52.8777 110.086 53.8663 109.459 56.1967C108.832 58.5271 107.252 62.3758 107.985 63.1085C108.718 63.8411 113.136 60.5044 113.312 57.9931C113.489 55.4817 113.493 50.459 113.493 50.459L109.547 52.8777Z" fill="white"/>
</mask>
<g mask="url(#mask4_3762_42542)">
<g style="mix-blend-mode:multiply" opacity="0.5">
<path d="M109.75 54.3896L112.584 56.5964L112.368 60.1273C112.87 59.5142 113.195 58.7755 113.308 57.9911C113.489 55.4797 113.489 50.457 113.489 50.457L109.543 52.8757C109.735 53.3558 109.806 53.8756 109.75 54.3896Z" fill="#ED2224"/>
</g>
</g>
<path d="M109.553 52.8757C109.553 52.8757 110.092 53.8644 109.465 56.1948C108.838 58.5251 107.258 62.3738 107.991 63.1065C108.723 63.8392 113.142 60.5025 113.318 57.9911C113.495 55.4797 113.499 50.457 113.499 50.457L109.553 52.8757Z" stroke="#263238" stroke-width="0.511043" stroke-miterlimit="10"/>
<path d="M105.049 41.8476C105.049 41.8476 104.423 40.2322 103.615 41.4062C102.807 42.5802 103.791 44.0058 104.242 44.0058C104.692 44.0058 105.049 41.8476 105.049 41.8476Z" fill="white" stroke="#263238" stroke-width="0.511043" stroke-miterlimit="10"/>
<path d="M107.128 36.6426C107.128 36.6426 104.528 41.7536 103.901 45.2536C103.274 48.7536 105.874 54.0411 108.474 54.0411C111.073 54.0411 115.094 50.0071 115.094 50.0071C115.094 50.0071 118.859 50.0953 119.398 48.8419C119.936 47.5884 119.309 46.5997 118.321 46.5997H116.348C116.348 46.5997 115.809 46.869 116.079 44.3576C116.348 41.8462 117.156 40.681 117.156 40.681C117.156 40.681 110.35 41.2151 107.128 36.6426Z" fill="white"/>
<mask id="mask5_3762_42542" style="mask-type:luminance" maskUnits="userSpaceOnUse" x="103" y="36" width="17" height="19">
<path d="M107.151 36.6445C107.151 36.6445 104.551 41.7555 103.925 45.2555C103.298 48.7555 105.898 54.0431 108.497 54.0431C111.097 54.0431 115.118 50.009 115.118 50.009C115.118 50.009 118.883 50.0973 119.421 48.8438C119.96 47.5903 119.333 46.6017 118.344 46.6017H116.371C116.371 46.6017 115.833 46.8709 116.102 44.3596C116.371 41.8482 117.179 40.683 117.179 40.683C117.179 40.683 110.373 41.2171 107.151 36.6445Z" fill="white"/>
</mask>
<g mask="url(#mask5_3762_42542)">
<g style="mix-blend-mode:multiply" opacity="0.5">
<path d="M114.047 48.3942C113.502 49.7818 112.605 51.0034 111.444 51.939C110.283 52.8746 108.899 53.492 107.427 53.7303H107.4C107.74 53.9284 108.124 54.0363 108.517 54.0436C111.117 54.0436 115.138 50.0096 115.138 50.0096C115.138 50.0096 118.903 50.0979 119.441 48.8444C119.98 47.5909 119.353 46.6023 118.364 46.6023H116.391C116.391 46.6023 115.853 46.8715 116.122 44.3601C116.391 41.8488 117.199 40.6836 117.199 40.6836C117.199 40.6836 116.757 40.7145 116.029 40.6836H115.998" fill="#ED2224"/>
</g>
</g>
<path d="M107.128 36.6426C107.128 36.6426 104.528 41.7536 103.901 45.2536C103.274 48.7536 105.874 54.0411 108.474 54.0411C111.073 54.0411 115.094 50.0071 115.094 50.0071C115.094 50.0071 118.859 50.0953 119.398 48.8419C119.936 47.5884 119.309 46.5997 118.321 46.5997H116.348C116.348 46.5997 115.809 46.869 116.079 44.3576C116.348 41.8462 117.156 40.681 117.156 40.681C117.156 40.681 110.35 41.2151 107.128 36.6426Z" stroke="#263238" stroke-width="0.511043" stroke-miterlimit="10"/>
<path d="M107.604 42.362C107.498 42.8298 107.277 43.1785 107.114 43.1432C106.951 43.1079 106.907 42.7018 107.013 42.2251C107.119 41.7485 107.339 41.4086 107.503 41.4439C107.666 41.4792 107.701 41.8897 107.604 42.362Z" fill="#263238"/>
<path d="M111.825 44.2409C111.719 44.7088 111.498 45.0619 111.335 45.0221C111.172 44.9824 111.127 44.5808 111.233 44.1085C111.339 43.6363 111.56 43.2876 111.723 43.3273C111.887 43.367 111.931 43.7731 111.825 44.2409Z" fill="#263238"/>
<path d="M108.297 43.5469C108.297 43.5469 106.324 44.9813 106.594 45.3388C107.33 45.972 108.235 46.3769 109.198 46.504C110.005 46.504 109.824 45.5198 109.824 45.5198" stroke="#263238" stroke-width="0.511043" stroke-linecap="round" stroke-linejoin="round"/>
<path d="M106.863 47.6749C107.85 48.2125 108.978 48.4314 110.094 48.3016C110.555 48.2565 110.998 48.1029 111.387 47.8536C111.777 47.6043 112.102 47.2663 112.336 46.8672" stroke="#263238" stroke-width="0.511043" stroke-linecap="round" stroke-linejoin="round"/>
<path d="M107.037 40.2299C107.037 40.2299 107.576 39.0647 108.653 40.4108" stroke="#263238" stroke-width="0.511043" stroke-linecap="round" stroke-linejoin="round"/>
<path d="M111.613 41.8454C111.613 41.8454 113.41 41.3069 113.41 43.0989" stroke="#263238" stroke-width="0.511043" stroke-linecap="round" stroke-linejoin="round"/>
<path d="M50.7567 65.794C60.8422 64.1352 67.6734 54.6148 66.0146 44.5295C64.3558 34.4442 54.8352 27.6132 44.7497 29.2719C34.6642 30.9307 27.833 40.4511 29.4918 50.5364C31.1506 60.6217 40.6712 67.4527 50.7567 65.794Z" fill="#ED2224" stroke="#263238" stroke-width="0.511043" stroke-miterlimit="10"/>
<path opacity="0.3" d="M50.7567 65.794C60.8422 64.1352 67.6734 54.6148 66.0146 44.5295C64.3558 34.4442 54.8352 27.6132 44.7497 29.2719C34.6642 30.9307 27.833 40.4511 29.4918 50.5364C31.1506 60.6217 40.6712 67.4527 50.7567 65.794Z" fill="white" stroke="#263238" stroke-width="0.511043" stroke-miterlimit="10"/>
<path d="M35.0174 56.9193C34.6996 58.186 33.2519 58.0095 33.6933 59.5675C36.6505 63.0292 40.7807 65.2787 45.2931 65.8854C49.8055 66.4921 54.3831 65.4134 58.1497 62.8556C59.4738 61.2888 60.2683 59.6425 60.3036 58.3184C60.4228 54.2755 56.1503 51.2566 55.9208 49.3102C55.6913 47.3638 57.5362 42.9634 57.5362 42.9634C57.5362 42.9634 60.7671 42.5 61.9235 39.6179C63.0799 36.7358 58.6838 30.2521 54.7556 28.2881C50.8274 26.324 44.2509 28.0586 41.02 32.79C37.7892 37.5214 41.713 41.679 39.6341 43.8726C37.5553 46.0662 32.1308 46.1809 31.5526 50.5681C30.9744 54.9552 35.3616 55.5334 35.0174 56.9193Z" fill="#263238" stroke="#263238" stroke-width="0.511043" stroke-miterlimit="10"/>
<path d="M54.7762 32.6875C54.7762 32.6875 55.9459 35.5519 51.3909 37.2424C46.8359 38.9328 43.3226 38.0236 42.1485 41.016C40.9745 44.0085 41.8881 46.0961 42.0205 47.6365C42.1529 49.1768 38.4895 48.9341 36.2827 50.8893C34.0758 52.8446 38.4895 55.1838 39.668 56.4858C40.8465 57.7878 40.5772 59.7386 38.494 60.3919" stroke="white" stroke-width="0.383282" stroke-linecap="round" stroke-linejoin="round"/>
<path d="M40.9766 38.6725C40.9766 38.6725 42.667 34.506 45.2711 33.8528C47.8752 33.1996 50.7397 35.1548 52.6906 33.332C54.6415 31.5091 54.2531 30.2115 52.8186 29.1699" stroke="white" stroke-width="0.383282" stroke-linecap="round" stroke-linejoin="round"/>
<path d="M56.7168 34.375C56.7168 34.375 61.2762 37.3719 59.7137 39.7155C58.1513 42.0591 57.6304 39.1947 57.6304 39.1947" stroke="white" stroke-width="0.383282" stroke-linecap="round" stroke-linejoin="round"/>
<path d="M37.7148 63.0774C41.1721 65.3117 45.2759 66.3287 49.3764 65.9673C53.477 65.606 57.3397 63.8869 60.3529 61.0824C58.9902 59.8307 57.5452 58.6717 56.0274 57.6133C53.1408 55.6492 50.8324 54.9651 49.217 55.0711C49.217 55.0711 47.9459 55.6492 45.5227 57.9576C43.9426 59.4626 40.1468 61.7003 37.7148 63.0774Z" fill="white" stroke="#263238" stroke-width="0.511043" stroke-miterlimit="10"/>
<path d="M53.4862 58.2434C53.4876 57.4754 53.3776 56.7112 53.1596 55.9748C51.9373 55.3638 50.5843 55.0608 49.2181 55.092C49.2181 55.092 48.2074 55.5334 46.2786 57.2989C46.2378 57.6254 46.2172 57.9541 46.2168 58.2831C46.2168 61.3153 47.841 63.7692 49.8493 63.7692C51.8575 63.7692 53.4862 61.2755 53.4862 58.2434Z" fill="white" stroke="#263238" stroke-width="0.511043" stroke-miterlimit="10"/>
<path d="M48.2948 49.1797C48.2948 49.1797 48.2948 52.4149 47.9505 55.4161C47.6063 58.4174 48.0653 61.6482 50.2589 61.8777C52.4525 62.1072 52.1038 56.9168 51.8743 54.838C51.7381 53.5336 51.7381 52.2186 51.8743 50.9142L48.2948 49.1797Z" fill="white"/>
<mask id="mask6_3762_42542" style="mask-type:luminance" maskUnits="userSpaceOnUse" x="47" y="49" width="6" height="13">
<path d="M48.2909 49.1777C48.2909 49.1777 48.2909 52.4129 47.9466 55.4142C47.6024 58.4155 48.0614 61.6462 50.255 61.8757C52.4486 62.1053 52.0999 56.9148 51.8704 54.836C51.7342 53.5316 51.7342 52.2166 51.8704 50.9123L48.2909 49.1777Z" fill="white"/>
</mask>
<g mask="url(#mask6_3762_42542)">
<g style="mix-blend-mode:multiply" opacity="0.5">
<path d="M47.875 56.112L51.7723 52.3339C51.7723 52.2147 51.7723 52.1 51.7723 51.9941L50.9779 50.5155L48.2722 49.1914C48.2722 49.1914 48.2722 52.4266 47.928 55.4279C47.9147 55.6441 47.8927 55.8781 47.875 56.112Z" fill="#ED2224"/>
</g>
</g>
<path d="M48.2948 49.1797C48.2948 49.1797 48.2948 52.4149 47.9505 55.4161C47.6063 58.4174 48.0653 61.6482 50.2589 61.8777C52.4525 62.1072 52.1038 56.9168 51.8743 54.838C51.7381 53.5336 51.7381 52.2186 51.8743 50.9142L48.2948 49.1797Z" stroke="#263238" stroke-width="0.511043" stroke-miterlimit="10"/>
<path d="M56.1407 34.752C56.1407 34.752 56.3702 36.2526 52.4464 38.1019C48.5226 39.9512 46.5585 41.4474 46.2143 43.1776C45.87 44.9077 45.7508 45.6051 45.7508 45.6051C45.7508 45.6051 44.9431 43.9853 43.4424 44.793C41.9418 45.6007 43.3277 48.7211 44.7136 48.8358C46.0995 48.9506 46.4438 48.4872 46.4438 48.4872C46.4438 48.4872 50.9458 52.9891 53.5984 52.9891C56.2511 52.9891 57.2927 50.4512 57.8709 45.9273C58.4315 41.5843 56.1407 34.752 56.1407 34.752Z" fill="white"/>
<mask id="mask7_3762_42542" style="mask-type:luminance" maskUnits="userSpaceOnUse" x="42" y="34" width="16" height="19">
<path d="M56.1427 34.7461C56.1427 34.7461 56.3722 36.2467 52.4484 38.096C48.5246 39.9454 46.5605 41.4416 46.2162 43.1717C45.8719 44.9019 45.7528 45.5992 45.7528 45.5992C45.7528 45.5992 44.9451 43.9794 43.4444 44.7871C41.9437 45.5948 43.3296 48.7152 44.7155 48.83C46.1015 48.9447 46.4457 48.4813 46.4457 48.4813C46.4457 48.4813 50.9477 52.9832 53.6004 52.9832C56.253 52.9832 57.2947 50.4454 57.8729 45.9214C58.4334 41.5784 56.1427 34.7461 56.1427 34.7461Z" fill="white"/>
</mask>
<g mask="url(#mask7_3762_42542)">
<g style="mix-blend-mode:multiply" opacity="0.5">
<path d="M47.4785 44.0092C47.6185 42.5553 48.1358 41.1632 48.9792 39.9707C47.3329 41.0476 46.4369 42.0628 46.2162 43.175C45.8675 44.9096 45.7528 45.6025 45.7528 45.6025C45.7528 45.6025 44.9451 43.9827 43.4444 44.7904C41.9437 45.5981 43.3296 48.7185 44.7155 48.8333C46.1015 48.948 46.4457 48.4846 46.4457 48.4846C46.4457 48.4846 50.9477 52.9865 53.6004 52.9865C52.8129 52.5951 52.0725 52.1154 51.3935 51.5565C49.8222 50.4089 47.3505 46.878 47.4785 44.0092Z" fill="#ED2224"/>
</g>
</g>
<path d="M56.1407 34.752C56.1407 34.752 56.3702 36.2526 52.4464 38.1019C48.5226 39.9512 46.5585 41.4474 46.2143 43.1776C45.87 44.9077 45.7508 45.6051 45.7508 45.6051C45.7508 45.6051 44.9431 43.9853 43.4424 44.793C41.9418 45.6007 43.3277 48.7211 44.7136 48.8358C46.0995 48.9506 46.4438 48.4872 46.4438 48.4872C46.4438 48.4872 50.9458 52.9891 53.5984 52.9891C56.2511 52.9891 57.2927 50.4512 57.8709 45.9273C58.4315 41.5843 56.1407 34.752 56.1407 34.752Z" stroke="#263238" stroke-width="0.511043" stroke-miterlimit="10"/>
<path d="M55.3374 41.7559C55.2064 42.1137 55.152 42.495 55.1779 42.8752C55.2037 43.2554 55.3092 43.6259 55.4875 43.9627C56.0922 45.097 56.3967 45.4721 56.1716 45.7767C56.1071 45.8814 56.0225 45.9723 55.9228 46.0443C55.823 46.1163 55.7101 46.1679 55.5904 46.1962C55.4707 46.2244 55.3466 46.2288 55.2251 46.2091C55.1037 46.1894 54.9874 46.1459 54.8828 46.0812" stroke="#263238" stroke-width="0.511043" stroke-linecap="round" stroke-linejoin="round"/>
<path d="M54.8903 48.7943C54.8903 48.7943 52.6834 49.6285 51.9375 48.0352" stroke="#263238" stroke-width="0.511043" stroke-linecap="round" stroke-linejoin="round"/>
<path d="M52.6887 43.4589C52.6887 43.94 52.5518 44.3416 52.3841 44.3416C52.2164 44.3416 52.084 43.9532 52.084 43.4589C52.084 42.9646 52.2164 42.5762 52.3841 42.5762C52.5518 42.5762 52.6887 42.9778 52.6887 43.4589Z" fill="#263238"/>
<path d="M56.4003 43.3464C56.5684 43.3464 56.7048 42.9571 56.7048 42.4769C56.7048 41.9967 56.5684 41.6074 56.4003 41.6074C56.2321 41.6074 56.0957 41.9967 56.0957 42.4769C56.0957 42.9571 56.2321 43.3464 56.4003 43.3464Z" fill="#263238"/>
<path d="M50.498 40.9272C50.498 40.9272 50.9394 39.7134 52.7667 39.9429" stroke="#263238" stroke-width="0.511043" stroke-linecap="round" stroke-linejoin="round"/>
<path d="M55.416 39.7161C55.416 39.7161 55.9457 38.4318 57.08 39.491" stroke="#263238" stroke-width="0.511043" stroke-linecap="round" stroke-linejoin="round"/>
</svg>
