<svg width="160" height="159" viewBox="0 0 160 159" fill="none" xmlns="http://www.w3.org/2000/svg">
<path d="M80.0325 158.615C106.186 158.615 127.387 157.227 127.387 155.516C127.387 153.804 106.186 152.416 80.0325 152.416C53.8792 152.416 32.6777 153.804 32.6777 155.516C32.6777 157.227 53.8792 158.615 80.0325 158.615Z" fill="#263238"/>
<path d="M33.0283 133.989C33.6896 134.275 35.3048 134.24 35.3048 134.24C35.3048 134.24 34.9604 133.183 34.9294 133.117C34.585 132.377 33.4554 131.154 32.5427 131.278C32.3903 131.302 32.2448 131.359 32.1158 131.444C31.9868 131.528 31.8773 131.639 31.7946 131.77C31.7118 131.9 31.6578 132.046 31.6359 132.199C31.6141 132.352 31.625 132.508 31.668 132.656C31.816 133.272 32.4635 133.741 33.0283 133.989Z" fill="#263238"/>
<path d="M33.5894 138.662C34.2782 138.762 35.7144 138.345 35.8315 138.317C36.068 139.139 36.3591 139.945 36.7028 140.728C36.9025 141.186 37.1161 141.644 37.3365 142.106C37.2056 141.916 37.0851 141.761 37.0644 141.72C36.5271 141.1 35.1254 140.215 34.2782 140.577C34.1393 140.64 34.0153 140.732 33.9143 140.847C33.8134 140.962 33.7377 141.096 33.6922 141.242C33.6467 141.388 33.6324 141.542 33.6503 141.694C33.6682 141.845 33.7179 141.992 33.7961 142.123C34.1095 142.691 34.8568 142.974 35.4664 143.06C36.076 143.146 37.3158 142.819 37.643 142.715C37.7291 142.891 37.8117 143.06 37.8978 143.235C38.318 144.069 38.7347 144.895 39.1239 145.719C39.2582 146.008 39.3822 146.301 39.5096 146.59C39.3925 146.418 39.2927 146.276 39.2754 146.245C38.7382 145.626 37.333 144.74 36.4858 145.099C36.3472 145.163 36.2236 145.255 36.123 145.37C36.0223 145.484 35.9468 145.619 35.9014 145.765C35.856 145.91 35.8416 146.064 35.8592 146.216C35.8768 146.367 35.926 146.514 36.0037 146.645C36.3171 147.217 37.0678 147.496 37.674 147.585C38.2801 147.675 39.396 147.375 39.792 147.268C39.9091 147.568 40.0297 147.871 40.1364 148.167C40.1984 148.374 40.2776 148.563 40.3293 148.773C40.381 148.983 40.4429 149.183 40.5015 149.386C40.5945 149.779 40.6944 150.185 40.777 150.568C40.8356 150.836 40.8872 151.095 40.9423 151.353C40.808 151.06 40.5359 150.499 40.5084 150.454C40.071 149.765 38.8174 148.67 37.9288 148.897C37.7818 148.939 37.6453 149.012 37.5281 149.11C37.4108 149.208 37.3155 149.33 37.2483 149.467C37.1811 149.604 37.1435 149.754 37.1379 149.907C37.1323 150.06 37.1589 150.212 37.2159 150.354C37.4398 150.964 38.1355 151.356 38.7244 151.535C39.3684 151.732 40.7908 151.535 40.9768 151.535C41.0629 151.963 41.1421 152.379 41.211 152.772C41.3659 153.64 41.4796 154.422 41.5554 155.079H42.1581C42.0513 154.391 41.9135 153.585 41.7344 152.669C41.6483 152.235 41.5485 151.773 41.4417 151.291C41.8723 151.119 42.292 150.921 42.6988 150.699C43.1706 151.208 44.376 151.808 44.531 151.883C44.3656 152.286 44.2038 152.675 44.0419 153.044C43.6975 153.812 43.3944 154.49 43.112 155.069H43.7664C44.004 154.535 44.2692 153.929 44.5447 153.254C44.7135 152.848 44.8891 152.407 45.0579 151.952C45.2301 151.987 46.6456 152.276 47.3068 152.128C47.9026 151.99 48.6293 151.653 48.8945 151.06C48.9624 150.924 49.0006 150.774 49.0068 150.622C49.0131 150.469 48.987 150.317 48.9305 150.175C48.8739 150.034 48.7881 149.906 48.6787 149.799C48.5692 149.693 48.4385 149.611 48.2952 149.559C47.4239 149.266 46.0945 150.247 45.6055 150.916C45.5779 150.953 45.3127 151.411 45.1509 151.704C45.2198 151.518 45.2886 151.339 45.3575 151.146C45.4953 150.767 45.6227 150.385 45.7639 149.972C45.8225 149.772 45.8844 149.569 45.9464 149.366C46.0084 149.163 46.0532 148.942 46.1083 148.729C46.2288 148.229 46.3218 147.719 46.4079 147.203C46.7523 147.323 47.9267 147.737 48.5432 147.695C49.1597 147.654 49.9208 147.427 50.2652 146.883C50.3528 146.758 50.4132 146.615 50.4423 146.466C50.4715 146.316 50.4687 146.161 50.4343 146.013C50.3999 145.864 50.3345 145.724 50.2425 145.602C50.1504 145.48 50.0338 145.379 49.9001 145.305C49.0805 144.882 47.6168 145.65 47.0347 146.239C46.9968 146.276 46.6283 146.738 46.4286 146.996C46.4768 146.686 46.5285 146.376 46.5663 146.059C46.68 145.147 46.7661 144.22 46.8556 143.304C46.8832 143.022 46.9142 142.739 46.9452 142.457C47.0623 142.502 48.4605 143.022 49.1493 142.974C49.7624 142.932 50.5269 142.708 50.8713 142.164C50.9588 142.039 51.019 141.897 51.0479 141.747C51.0768 141.597 51.0737 141.442 51.039 141.293C51.0042 141.145 50.9385 141.005 50.8461 140.883C50.7537 140.761 50.6368 140.66 50.5028 140.587C49.6866 140.163 48.2229 140.931 47.6409 141.52C47.5961 141.565 47.0623 142.23 46.9521 142.405C47.0175 141.785 47.0898 141.166 47.1863 140.559C47.3098 139.745 47.487 138.94 47.7166 138.149C47.7683 138.169 49.2286 138.72 49.9346 138.672C50.5442 138.627 51.3122 138.403 51.6566 137.859C51.7442 137.734 51.8046 137.592 51.8337 137.442C51.8628 137.292 51.8601 137.138 51.8257 136.989C51.7912 136.84 51.7259 136.701 51.6338 136.579C51.5418 136.457 51.4252 136.356 51.2915 136.282C50.4718 135.858 49.0081 136.626 48.4261 137.215C48.3813 137.26 47.8062 137.98 47.7132 138.118C47.7132 138.069 47.7373 138.021 47.7511 137.973C48.0023 137.18 48.3239 136.411 48.712 135.676C48.922 135.266 49.1424 134.887 49.3698 134.522C49.6315 134.653 50.83 135.235 51.4706 135.262C52.1112 135.29 52.8688 135.149 53.2821 134.646C53.3831 134.531 53.4587 134.397 53.5042 134.251C53.5497 134.105 53.564 133.951 53.5461 133.8C53.5282 133.648 53.4786 133.502 53.4005 133.37C53.3224 133.239 53.2175 133.126 53.0927 133.038C52.3247 132.528 50.7818 133.141 50.1412 133.651C50.1068 133.678 49.7968 133.995 49.5488 134.24C49.6556 134.078 49.7589 133.895 49.8622 133.754C50.248 133.175 50.6337 132.666 50.9815 132.221C51.1813 131.97 51.3673 131.746 51.5429 131.533C51.8632 131.533 53.165 131.488 53.7333 131.223C54.3015 130.957 54.9249 130.475 55.0592 129.845C55.0953 129.697 55.1 129.543 55.0729 129.393C55.0458 129.242 54.9875 129.1 54.9019 128.973C54.8162 128.847 54.705 128.74 54.5755 128.66C54.446 128.579 54.3011 128.527 54.15 128.505C53.2339 128.409 52.149 129.663 51.815 130.41C51.784 130.475 51.4499 131.543 51.4706 131.543H51.4912C51.3156 131.739 51.1469 131.949 50.9402 132.187C50.5958 132.628 50.1791 133.127 49.783 133.699C49.3462 134.312 48.946 134.95 48.5845 135.61C48.1711 136.345 47.8253 137.117 47.5513 137.914C47.5513 137.914 47.5513 137.935 47.5513 137.945C47.5513 137.677 47.5513 136.912 47.5341 136.864C47.4308 136.048 46.7489 134.539 45.8431 134.37C45.6914 134.347 45.5364 134.355 45.3882 134.395C45.2401 134.436 45.1022 134.507 44.9837 134.605C44.8652 134.703 44.7688 134.824 44.7008 134.962C44.6329 135.1 44.5949 135.25 44.5895 135.404C44.5344 136.051 45.0028 136.699 45.4608 137.126C45.9774 137.587 47.4101 138.031 47.5272 138.066C47.2711 138.885 47.0686 139.721 46.9211 140.566C46.835 141.059 46.7627 141.555 46.6938 142.058C46.6938 141.823 46.6938 141.613 46.6938 141.586C46.587 140.769 45.9051 139.261 44.9993 139.092C44.8477 139.068 44.6926 139.077 44.5445 139.117C44.3963 139.158 44.2584 139.229 44.1399 139.327C44.0214 139.424 43.925 139.546 43.8571 139.684C43.7891 139.821 43.7512 139.972 43.7457 140.125C43.6906 140.773 44.1625 141.42 44.6171 141.83C45.0717 142.24 46.2943 142.65 46.618 142.753L46.5457 143.328C46.4355 144.251 46.3287 145.171 46.2013 146.084C46.1565 146.4 46.098 146.71 46.0429 147.024C46.0429 146.817 46.0429 146.642 46.0429 146.614C45.9395 145.801 45.2576 144.289 44.3519 144.12C44.2004 144.098 44.0457 144.107 43.898 144.148C43.7503 144.189 43.6129 144.26 43.4947 144.358C43.3764 144.455 43.28 144.576 43.2117 144.713C43.1434 144.851 43.1048 145.001 43.0983 145.154C43.0432 145.798 43.5115 146.449 43.9696 146.855C44.4276 147.261 45.5297 147.637 45.912 147.761C45.8466 148.078 45.7777 148.395 45.6985 148.698C45.6399 148.904 45.5986 149.107 45.5263 149.311C45.4539 149.514 45.3954 149.717 45.3334 149.917C45.1956 150.296 45.0544 150.688 44.9098 151.057C44.8134 151.312 44.7135 151.553 44.6136 151.797C44.6653 151.484 44.7479 150.864 44.7514 150.809C44.7419 150.083 44.5462 149.371 44.1831 148.742C44.1901 148.662 44.1901 148.581 44.1831 148.501C44.1641 148.349 44.1132 148.203 44.0339 148.073C43.9546 147.942 43.8486 147.829 43.7229 147.742C43.5971 147.655 43.4544 147.595 43.304 147.567C43.1537 147.539 42.9991 147.543 42.8503 147.578C41.9617 147.812 41.4004 149.373 41.359 150.192C41.359 150.241 41.3866 150.771 41.4107 151.102C41.3659 150.909 41.3246 150.723 41.2764 150.523C41.1834 150.13 41.0801 149.741 40.9699 149.321L40.7839 148.711C40.7288 148.508 40.6427 148.298 40.5704 148.091C40.3947 147.609 40.1915 147.131 39.978 146.655C40.3224 146.573 41.5416 146.263 42.0444 145.887C42.5472 145.512 43.0225 144.84 43.0225 144.2C43.0268 144.047 42.999 143.895 42.9407 143.754C42.8824 143.612 42.7951 143.485 42.6843 143.38C42.5735 143.274 42.4418 143.194 42.2977 143.143C42.1536 143.092 42.0004 143.072 41.8481 143.084C40.9354 143.184 40.1261 144.641 39.9746 145.443C39.9746 145.495 39.9091 146.084 39.8885 146.411C39.7576 146.125 39.6267 145.839 39.4855 145.553C39.0757 144.73 38.6383 143.91 38.2044 143.091C38.07 142.839 37.9392 142.584 37.8083 142.333C37.9323 142.305 39.3856 141.968 39.9332 141.548C40.4223 141.176 40.9389 140.566 40.932 139.915C40.9359 139.763 40.9076 139.611 40.8491 139.47C40.7906 139.33 40.7032 139.203 40.5924 139.098C40.4817 138.993 40.3502 138.912 40.2064 138.862C40.0625 138.811 39.9096 138.791 39.7576 138.803C38.8449 138.899 38.0356 140.356 37.8841 141.162C37.8841 141.221 37.7945 142.071 37.7842 142.288C37.4983 141.734 37.2159 141.179 36.9611 140.621C36.6124 139.869 36.3121 139.095 36.0622 138.304C36.1207 138.304 37.6395 137.959 38.2009 137.515C38.6865 137.139 39.2031 136.53 39.1997 135.882C39.2035 135.729 39.1752 135.577 39.1165 135.436C39.0579 135.295 38.9702 135.168 38.8591 135.062C38.7481 134.957 38.6161 134.876 38.4719 134.825C38.3277 134.775 38.1743 134.754 38.0218 134.767C37.1092 134.866 36.2998 136.323 36.1517 137.126C36.1517 137.191 36.0553 138.104 36.0519 138.269C36.0519 138.224 36.0174 138.18 36.0037 138.131C35.7763 137.332 35.6207 136.513 35.5387 135.686C35.4871 135.228 35.4629 134.791 35.4526 134.36C35.7419 134.326 37.0644 134.15 37.612 133.819C38.1596 133.489 38.7141 132.952 38.7829 132.304C38.8037 132.154 38.7928 132.001 38.751 131.855C38.7092 131.709 38.6373 131.574 38.54 131.457C38.4427 131.341 38.3221 131.246 38.1861 131.179C38.05 131.112 37.9014 131.074 37.7498 131.068C36.8302 131.068 35.8831 132.428 35.6283 133.206C35.6283 133.251 35.5215 133.699 35.4595 134.026C35.4595 133.83 35.4595 133.633 35.4595 133.448C35.4595 132.759 35.5043 132.115 35.5456 131.55C35.5732 131.23 35.6042 130.94 35.6386 130.672C35.9038 130.489 36.968 129.738 37.2951 129.201C37.6223 128.664 37.8737 127.923 37.6395 127.317C37.5881 127.173 37.507 127.042 37.4014 126.932C37.2959 126.821 37.1684 126.735 37.0271 126.677C36.8858 126.619 36.7339 126.592 36.5813 126.596C36.4288 126.601 36.2789 126.638 36.1414 126.704C35.3252 127.124 35.1082 128.771 35.246 129.58C35.246 129.649 35.5663 130.723 35.5904 130.713C35.5559 130.971 35.5215 131.25 35.4871 131.557C35.432 132.118 35.3734 132.755 35.3562 133.454C35.331 134.207 35.3494 134.96 35.4113 135.71C35.4768 136.55 35.6162 137.382 35.828 138.197V138.228C35.6834 138 35.2563 137.377 35.2184 137.332C34.6812 136.712 33.2795 135.827 32.4322 136.189C32.2933 136.253 32.1693 136.345 32.0684 136.459C31.9674 136.574 31.8917 136.709 31.8462 136.855C31.8007 137 31.7865 137.154 31.8044 137.306C31.8223 137.458 31.8719 137.604 31.9501 137.735C32.2359 138.297 32.9833 138.572 33.5894 138.662Z" fill="#263238"/>
<path d="M49.3542 134.347C49.3542 134.347 49.6469 133.272 49.6572 133.203C49.7709 132.391 49.5126 130.751 48.6826 130.352C48.5433 130.289 48.3924 130.256 48.2397 130.256C48.087 130.255 47.9359 130.287 47.7963 130.349C47.6566 130.41 47.5315 130.501 47.429 130.614C47.3266 130.727 47.2491 130.861 47.2017 131.006C46.9813 131.616 47.2602 132.366 47.5943 132.88C47.9869 133.479 49.3542 134.343 49.3542 134.347Z" fill="#263238"/>
<path d="M113.169 136.79C113.745 137.041 115.143 137.007 115.143 137.007C115.143 137.007 114.843 136.091 114.816 136.036C114.509 135.395 113.538 134.334 112.749 134.441C112.618 134.462 112.493 134.51 112.383 134.583C112.272 134.655 112.177 134.75 112.106 134.862C112.034 134.974 111.987 135.099 111.967 135.23C111.948 135.361 111.956 135.495 111.992 135.622C112.123 136.17 112.684 136.573 113.169 136.79Z" fill="#263238"/>
<path d="M113.66 140.841C114.252 140.927 115.502 140.566 115.599 140.535C115.805 141.249 116.059 141.95 116.356 142.632C116.528 143.031 116.701 143.424 116.907 143.82C116.79 143.651 116.69 143.503 116.673 143.476C116.205 142.935 114.989 142.17 114.262 142.48C114.142 142.536 114.035 142.616 113.948 142.715C113.86 142.815 113.795 142.931 113.756 143.057C113.716 143.184 113.704 143.317 113.719 143.448C113.735 143.58 113.778 143.706 113.846 143.82C114.114 144.316 114.765 144.561 115.292 144.636C115.819 144.712 116.897 144.426 117.179 144.347L117.403 144.798C117.748 145.518 118.126 146.234 118.464 146.951C118.581 147.202 118.688 147.454 118.808 147.705L118.605 147.416C118.137 146.878 116.921 146.11 116.194 146.42C116.074 146.476 115.966 146.556 115.878 146.655C115.791 146.755 115.725 146.872 115.686 146.999C115.646 147.126 115.634 147.259 115.65 147.391C115.666 147.523 115.709 147.65 115.778 147.764C116.046 148.256 116.697 148.501 117.224 148.576C117.751 148.652 118.722 148.394 119.06 148.301C119.163 148.563 119.266 148.824 119.352 149.083C119.411 149.258 119.476 149.427 119.525 149.606C119.573 149.785 119.621 149.951 119.673 150.136C119.752 150.481 119.838 150.825 119.91 151.17C119.962 151.404 120.007 151.624 120.052 151.858C119.938 151.607 119.707 151.118 119.68 151.08C119.301 150.477 118.213 149.537 117.441 149.734C117.313 149.769 117.195 149.832 117.093 149.917C116.991 150.001 116.909 150.107 116.85 150.226C116.792 150.345 116.76 150.475 116.755 150.607C116.751 150.74 116.775 150.871 116.825 150.994C117.017 151.524 117.62 151.862 118.13 152.027C118.691 152.199 119.931 152.044 120.086 152.027C120.158 152.396 120.227 152.757 120.286 153.098C120.42 153.853 120.52 154.528 120.596 155.099H121.119C121.026 154.51 120.909 153.804 120.751 153.012C120.678 152.637 120.592 152.234 120.499 151.824C120.872 151.674 121.235 151.502 121.588 151.311C122.068 151.727 122.604 152.074 123.179 152.344C123.034 152.688 122.893 153.033 122.755 153.35C122.466 154.014 122.19 154.607 121.949 155.106H122.514C122.721 154.645 122.951 154.118 123.203 153.532C123.351 153.188 123.499 152.795 123.647 152.403C123.799 152.434 125.025 152.685 125.596 152.554C126.116 152.437 126.743 152.144 126.974 151.631C127.032 151.512 127.065 151.382 127.07 151.25C127.075 151.117 127.052 150.985 127.002 150.862C126.953 150.739 126.878 150.628 126.783 150.535C126.688 150.443 126.575 150.372 126.451 150.326C125.696 150.074 124.543 150.932 124.119 151.504C124.095 151.538 123.864 151.934 123.723 152.193C123.785 152.031 123.843 151.876 123.905 151.707C124.026 151.38 124.136 151.049 124.25 150.691C124.301 150.515 124.353 150.347 124.408 150.164C124.463 149.982 124.501 149.796 124.549 149.61C124.653 149.179 124.735 148.738 124.808 148.29C125.097 148.394 126.127 148.752 126.657 148.714C127.188 148.676 127.856 148.483 128.162 148.025C128.24 147.917 128.294 147.793 128.32 147.662C128.346 147.53 128.344 147.395 128.314 147.265C128.284 147.135 128.227 147.013 128.146 146.906C128.065 146.8 127.963 146.712 127.845 146.648C127.136 146.283 125.865 146.954 125.362 147.457C125.328 147.488 125.018 147.891 124.835 148.115C124.877 147.843 124.921 147.574 124.956 147.302C125.052 146.51 125.128 145.707 125.207 144.891C125.231 144.647 125.255 144.402 125.283 144.158C125.386 144.196 126.599 144.65 127.194 144.605C127.725 144.571 128.389 144.375 128.699 143.917C128.777 143.808 128.831 143.683 128.856 143.552C128.882 143.421 128.88 143.286 128.85 143.156C128.82 143.025 128.762 142.903 128.681 142.797C128.6 142.69 128.497 142.603 128.379 142.539C127.69 142.174 126.402 142.846 125.896 143.348C125.858 143.386 125.397 143.965 125.286 144.116C125.345 143.579 125.407 143.042 125.49 142.518C125.596 141.806 125.749 141.102 125.948 140.411C125.996 140.428 127.26 140.907 127.869 140.862C128.4 140.827 129.068 140.631 129.374 140.173C129.452 140.064 129.506 139.94 129.532 139.809C129.558 139.678 129.556 139.543 129.526 139.413C129.496 139.283 129.439 139.16 129.358 139.054C129.278 138.947 129.175 138.859 129.058 138.795C128.348 138.43 127.077 139.102 126.574 139.605C126.533 139.646 126.037 140.266 125.955 140.386C125.955 140.345 125.975 140.304 125.986 140.263C126.205 139.576 126.485 138.909 126.822 138.272C127.002 137.927 127.194 137.583 127.391 137.27C127.618 137.383 128.658 137.89 129.213 137.91C129.767 137.931 130.425 137.814 130.783 137.376C130.87 137.277 130.935 137.16 130.974 137.033C131.013 136.907 131.025 136.774 131.01 136.642C130.994 136.511 130.951 136.384 130.884 136.27C130.816 136.157 130.726 136.058 130.618 135.982C129.953 135.541 128.617 136.071 128.059 136.515C128.031 136.54 127.749 136.818 127.549 137.025C127.639 136.884 127.728 136.736 127.818 136.605C128.162 136.102 128.507 135.661 128.789 135.276C128.961 135.055 129.133 134.862 129.275 134.683C129.554 134.683 130.683 134.642 131.176 134.411C131.668 134.18 132.209 133.764 132.326 133.213C132.357 133.084 132.361 132.95 132.337 132.82C132.313 132.69 132.262 132.566 132.188 132.456C132.113 132.347 132.016 132.255 131.904 132.185C131.791 132.115 131.665 132.07 131.534 132.052C130.742 131.966 129.812 133.051 129.512 133.702C129.485 133.76 129.195 134.683 129.209 134.683H129.226C129.078 134.852 128.916 135.028 128.748 135.241C128.438 135.623 128.093 136.057 127.745 136.553C127.369 137.085 127.024 137.638 126.712 138.21C126.358 138.85 126.061 139.519 125.824 140.211C125.825 140.219 125.825 140.227 125.824 140.235C125.824 140.001 125.824 139.346 125.824 139.298C125.731 138.609 125.135 137.28 124.353 137.135C124.222 137.115 124.089 137.123 123.961 137.158C123.834 137.193 123.715 137.254 123.613 137.338C123.511 137.422 123.427 137.526 123.368 137.644C123.308 137.763 123.274 137.892 123.268 138.024C123.22 138.585 123.613 139.147 124.023 139.501C124.47 139.901 125.714 140.287 125.813 140.318C125.589 141.027 125.413 141.751 125.286 142.484C125.211 142.911 125.149 143.341 125.09 143.775C125.09 143.572 125.09 143.393 125.09 143.369C124.997 142.663 124.401 141.351 123.623 141.206C123.492 141.186 123.358 141.193 123.23 141.228C123.102 141.262 122.983 141.324 122.881 141.408C122.778 141.491 122.694 141.596 122.634 141.714C122.575 141.833 122.541 141.962 122.535 142.095C122.486 142.656 122.896 143.217 123.292 143.569C123.688 143.92 124.746 144.282 125.014 144.371L124.952 144.871C124.856 145.67 124.763 146.469 124.649 147.25C124.611 147.526 124.56 147.795 124.512 148.063C124.512 147.884 124.512 147.719 124.512 147.719C124.422 147.03 123.823 145.701 123.044 145.556C122.913 145.535 122.78 145.543 122.652 145.578C122.524 145.612 122.405 145.673 122.302 145.757C122.199 145.841 122.115 145.946 122.056 146.064C121.996 146.182 121.962 146.312 121.956 146.445C121.911 147.006 122.318 147.567 122.714 147.919C123.231 148.266 123.799 148.531 124.398 148.704C124.339 148.979 124.281 149.255 124.212 149.517C124.164 149.696 124.126 149.861 124.064 150.05C124.002 150.24 123.95 150.395 123.895 150.574C123.775 150.901 123.654 151.242 123.53 151.562C123.444 151.783 123.358 151.993 123.272 152.206C123.316 151.931 123.389 151.394 123.392 151.349C123.383 150.723 123.213 150.11 122.9 149.568C122.905 149.498 122.905 149.428 122.9 149.358C122.883 149.227 122.839 149.101 122.77 148.987C122.701 148.874 122.61 148.777 122.501 148.702C122.392 148.626 122.269 148.575 122.139 148.55C122.009 148.526 121.875 148.529 121.746 148.559C120.975 148.762 120.486 150.116 120.451 150.825C120.451 150.867 120.475 151.325 120.499 151.614C120.458 151.445 120.424 151.27 120.382 151.111C120.3 150.767 120.21 150.422 120.114 150.078C120.062 149.906 120.007 149.734 119.955 149.551C119.904 149.368 119.831 149.207 119.769 149.014C119.614 148.597 119.442 148.18 119.256 147.767C119.556 147.698 120.61 147.423 121.033 147.102C121.457 146.782 121.901 146.248 121.898 145.687C121.902 145.553 121.877 145.42 121.826 145.296C121.774 145.173 121.697 145.061 121.599 144.97C121.502 144.878 121.386 144.808 121.259 144.765C121.132 144.722 120.998 144.706 120.864 144.719C120.072 144.805 119.383 146.069 119.242 146.765C119.242 146.81 119.184 147.323 119.166 147.602C119.053 147.357 118.939 147.106 118.822 146.861C118.478 146.148 118.085 145.435 117.71 144.726C117.593 144.506 117.482 144.289 117.365 144.072C117.469 144.044 118.743 143.755 119.208 143.383C119.628 143.059 120.076 142.529 120.072 141.967C120.076 141.833 120.052 141.7 120 141.577C119.949 141.453 119.872 141.342 119.774 141.25C119.676 141.159 119.56 141.089 119.434 141.046C119.307 141.003 119.172 140.987 119.039 141C118.247 141.086 117.558 142.35 117.413 143.045C117.413 143.097 117.338 143.834 117.331 144.023C117.079 143.541 116.835 143.062 116.615 142.577C116.312 141.925 116.052 141.254 115.836 140.569C115.884 140.569 117.214 140.256 117.689 139.88C118.113 139.556 118.557 139.026 118.553 138.465C118.557 138.331 118.533 138.198 118.482 138.074C118.43 137.95 118.353 137.839 118.255 137.748C118.158 137.656 118.042 137.586 117.915 137.543C117.788 137.5 117.654 137.484 117.52 137.497C116.728 137.583 116.039 138.847 115.898 139.543C115.898 139.598 115.815 140.393 115.812 140.535C115.812 140.497 115.781 140.455 115.771 140.417C115.574 139.724 115.439 139.014 115.368 138.296C115.323 137.9 115.302 137.518 115.292 137.146C115.543 137.115 116.69 136.963 117.162 136.677C117.634 136.391 118.123 135.923 118.178 135.362C118.197 135.231 118.187 135.097 118.15 134.97C118.114 134.843 118.05 134.724 117.965 134.623C117.879 134.522 117.774 134.44 117.654 134.383C117.535 134.326 117.405 134.294 117.272 134.291C116.473 134.291 115.654 135.468 115.433 136.147C115.433 136.185 115.34 136.571 115.289 136.853C115.289 136.688 115.289 136.509 115.289 136.354C115.289 135.751 115.33 135.2 115.368 134.711C115.388 134.432 115.416 134.18 115.444 133.946C115.674 133.788 116.597 133.137 116.88 132.672C117.162 132.207 117.386 131.563 117.179 131.039C117.135 130.915 117.064 130.801 116.972 130.705C116.881 130.609 116.77 130.533 116.647 130.483C116.524 130.433 116.392 130.409 116.26 130.413C116.127 130.416 115.997 130.448 115.877 130.506C115.171 130.871 114.985 132.297 115.103 132.999C115.103 133.061 115.378 133.991 115.392 133.984C115.361 134.208 115.33 134.449 115.302 134.714C115.254 135.203 115.202 135.747 115.189 136.36C115.165 137.013 115.18 137.666 115.233 138.317C115.29 139.046 115.412 139.769 115.599 140.476C115.597 140.484 115.597 140.492 115.599 140.5C115.471 140.304 115.103 139.763 115.072 139.725C114.603 139.188 113.387 138.42 112.661 138.73C112.54 138.786 112.433 138.866 112.346 138.966C112.259 139.065 112.193 139.182 112.154 139.309C112.115 139.435 112.102 139.569 112.118 139.701C112.133 139.832 112.176 139.959 112.244 140.073C112.482 140.521 113.133 140.765 113.66 140.841Z" fill="#263238"/>
<path d="M127.334 137.093C127.334 137.093 127.585 136.163 127.596 136.105C127.692 135.416 127.468 133.976 126.752 133.632C126.631 133.578 126.5 133.549 126.367 133.549C126.235 133.548 126.104 133.576 125.983 133.629C125.861 133.683 125.753 133.762 125.664 133.86C125.575 133.958 125.508 134.074 125.467 134.2C125.274 134.727 125.519 135.378 125.812 135.822C126.146 136.349 127.33 137.093 127.334 137.093Z" fill="#263238"/>
<path d="M97.496 140.299C97.9666 140.423 98.4528 140.476 98.939 140.458C98.939 140.458 98.7186 139.786 98.7014 139.748C98.4775 139.277 97.7646 138.502 97.186 138.577C97.0899 138.593 96.9981 138.628 96.9168 138.682C96.8354 138.735 96.7662 138.805 96.7138 138.887C96.6614 138.969 96.627 139.061 96.6128 139.157C96.5986 139.254 96.605 139.352 96.6315 139.445C96.7058 139.641 96.8215 139.819 96.9707 139.967C97.1198 140.114 97.299 140.227 97.496 140.299Z" fill="#263238"/>
<path d="M97.8478 143.264C98.3292 143.26 98.8074 143.184 99.2667 143.04C99.4172 143.563 99.6025 144.077 99.8212 144.576C99.9497 144.865 100.084 145.154 100.224 145.444C100.141 145.32 100.066 145.213 100.052 145.199C99.7075 144.803 98.8224 144.242 98.2851 144.472C98.1972 144.512 98.1186 144.571 98.0547 144.643C97.9907 144.716 97.9427 144.801 97.9137 144.893C97.8848 144.985 97.8757 145.083 97.8868 145.179C97.898 145.275 97.9293 145.367 97.9786 145.45C98.1005 145.621 98.2584 145.763 98.4411 145.866C98.6238 145.969 98.8268 146.03 99.0359 146.046C99.5032 146.048 99.968 145.977 100.414 145.836L100.579 146.181C100.844 146.708 101.109 147.214 101.354 147.754C101.44 147.937 101.519 148.123 101.598 148.309C101.526 148.199 101.46 148.109 101.45 148.095C101.106 147.703 100.217 147.141 99.6834 147.369C99.5949 147.409 99.516 147.467 99.4517 147.54C99.3873 147.613 99.3391 147.698 99.3102 147.791C99.2812 147.884 99.2722 147.981 99.2837 148.078C99.2952 148.174 99.327 148.267 99.3769 148.35C99.4993 148.52 99.6573 148.662 99.8399 148.765C100.022 148.868 100.225 148.93 100.434 148.946C100.89 148.949 101.343 148.881 101.777 148.743C101.853 148.936 101.929 149.125 101.994 149.315C102.036 149.446 102.084 149.566 102.118 149.7C102.153 149.835 102.191 149.959 102.225 150.09C102.287 150.338 102.349 150.596 102.401 150.84C102.439 151.009 102.473 151.185 102.504 151.336C102.421 151.15 102.249 150.792 102.232 150.765C101.953 150.324 101.157 149.635 100.593 149.78C100.499 149.806 100.413 149.852 100.338 149.914C100.264 149.976 100.203 150.053 100.16 150.14C100.118 150.227 100.094 150.322 100.091 150.419C100.088 150.516 100.105 150.613 100.141 150.703C100.237 150.889 100.373 151.053 100.538 151.182C100.703 151.311 100.895 151.402 101.099 151.45C101.573 151.523 102.054 151.523 102.528 151.45C102.583 151.722 102.635 151.987 102.676 152.235C102.773 152.786 102.848 153.268 102.904 153.702H103.282C103.217 153.268 103.127 152.752 103.014 152.173C102.959 151.898 102.897 151.605 102.828 151.302C103.101 151.193 103.368 151.067 103.627 150.926C103.977 151.229 104.368 151.481 104.787 151.677C104.684 151.932 104.581 152.183 104.481 152.414C104.267 152.9 104.068 153.334 103.889 153.702H104.316C104.471 153.358 104.636 152.976 104.811 152.549C104.918 152.29 105.028 152.011 105.135 151.722C105.603 151.832 106.085 151.869 106.564 151.832C106.773 151.798 106.971 151.718 107.145 151.599C107.319 151.48 107.466 151.325 107.574 151.143C107.617 151.056 107.641 150.961 107.645 150.865C107.649 150.768 107.632 150.671 107.596 150.581C107.56 150.491 107.505 150.409 107.435 150.342C107.366 150.274 107.283 150.222 107.191 150.189C106.637 150.003 105.793 150.63 105.469 151.05C105.452 151.075 105.283 151.364 105.18 151.55C105.225 151.433 105.27 151.319 105.314 151.205C105.4 150.968 105.483 150.723 105.569 150.461C105.607 150.334 105.648 150.207 105.686 150.076C105.724 149.945 105.755 149.807 105.79 149.673C105.865 149.356 105.927 149.032 105.979 148.705C106.412 148.876 106.868 148.981 107.332 149.015C107.542 149.015 107.75 148.969 107.94 148.88C108.131 148.792 108.299 148.663 108.435 148.502C108.491 148.422 108.529 148.332 108.548 148.237C108.566 148.141 108.564 148.043 108.542 147.948C108.52 147.854 108.478 147.765 108.419 147.687C108.36 147.61 108.286 147.546 108.2 147.5C107.684 147.234 106.754 147.727 106.385 148.092C106.361 148.116 106.127 148.409 106 148.574C106.031 148.378 106.062 148.182 106.086 147.978C106.158 147.4 106.213 146.814 106.272 146.229C106.289 146.046 106.306 145.867 106.327 145.692C106.774 145.87 107.245 145.98 107.725 146.019C107.935 146.017 108.142 145.97 108.333 145.881C108.523 145.792 108.692 145.663 108.827 145.502C108.883 145.423 108.921 145.333 108.939 145.238C108.957 145.143 108.955 145.045 108.933 144.95C108.911 144.856 108.869 144.768 108.811 144.691C108.752 144.614 108.678 144.55 108.593 144.503C108.076 144.235 107.147 144.727 106.778 145.096C106.747 145.123 106.409 145.547 106.33 145.657C106.372 145.264 106.416 144.872 106.478 144.486C106.56 143.965 106.675 143.45 106.823 142.943C107.272 143.128 107.747 143.244 108.231 143.288C108.441 143.286 108.648 143.24 108.838 143.15C109.027 143.061 109.195 142.932 109.33 142.771C109.386 142.692 109.425 142.602 109.444 142.506C109.463 142.411 109.461 142.313 109.439 142.218C109.417 142.124 109.376 142.035 109.317 141.957C109.259 141.88 109.184 141.815 109.099 141.769C108.579 141.504 107.649 141.996 107.281 142.365C107.253 142.392 106.888 142.847 106.83 142.933C106.83 142.905 106.83 142.874 106.854 142.843C107.012 142.34 107.216 141.853 107.463 141.387C107.594 141.128 107.735 140.887 107.88 140.656C108.298 140.879 108.747 141.037 109.213 141.125C109.422 141.146 109.632 141.122 109.831 141.054C110.029 140.986 110.211 140.877 110.363 140.732C110.43 140.659 110.48 140.573 110.51 140.479C110.54 140.385 110.55 140.286 110.539 140.188C110.527 140.09 110.495 139.996 110.444 139.911C110.393 139.827 110.324 139.755 110.243 139.699C109.754 139.375 108.776 139.764 108.369 140.088C108.348 140.105 108.142 140.309 107.994 140.46C108.059 140.357 108.128 140.25 108.193 140.154C108.438 139.785 108.683 139.465 108.903 139.179L109.247 138.745C109.714 138.749 110.178 138.683 110.625 138.549C110.821 138.473 110.998 138.355 111.143 138.203C111.288 138.051 111.398 137.869 111.465 137.67C111.489 137.576 111.492 137.479 111.476 137.383C111.459 137.288 111.422 137.197 111.368 137.116C111.314 137.036 111.243 136.968 111.161 136.917C111.078 136.866 110.986 136.833 110.89 136.82C110.308 136.758 109.619 137.553 109.406 138.029C109.406 138.07 109.175 138.748 109.189 138.748C109.079 138.876 108.961 139.01 108.844 139.158C108.621 139.437 108.366 139.754 108.111 140.119C107.835 140.509 107.581 140.914 107.35 141.331C107.101 141.794 106.892 142.276 106.726 142.774V142.792C106.726 142.623 106.726 142.144 106.726 142.103C106.657 141.586 106.224 140.629 105.652 140.522C105.556 140.506 105.458 140.511 105.364 140.536C105.27 140.561 105.183 140.606 105.107 140.667C105.032 140.728 104.97 140.804 104.926 140.891C104.882 140.978 104.857 141.073 104.853 141.17C104.861 141.379 104.916 141.584 105.011 141.771C105.107 141.958 105.242 142.122 105.407 142.251C105.811 142.514 106.252 142.716 106.716 142.85C106.553 143.369 106.425 143.898 106.334 144.434C106.279 144.748 106.23 145.061 106.189 145.382C106.189 145.233 106.189 145.099 106.189 145.082C106.12 144.565 105.686 143.604 105.115 143.501C105.018 143.485 104.92 143.49 104.826 143.516C104.732 143.541 104.644 143.585 104.569 143.647C104.493 143.708 104.432 143.785 104.388 143.872C104.344 143.959 104.32 144.055 104.316 144.152C104.323 144.362 104.377 144.568 104.472 144.754C104.568 144.941 104.704 145.105 104.87 145.233C105.26 145.492 105.688 145.689 106.137 145.819C106.137 145.939 106.106 146.063 106.093 146.184C106.02 146.77 105.955 147.355 105.869 147.927C105.841 148.126 105.803 148.326 105.769 148.523C105.769 148.392 105.769 148.281 105.769 148.264C105.703 147.748 105.27 146.787 104.694 146.68C104.599 146.665 104.501 146.67 104.407 146.696C104.313 146.721 104.226 146.766 104.151 146.827C104.076 146.889 104.014 146.965 103.971 147.052C103.928 147.139 103.903 147.234 103.899 147.331C103.907 147.541 103.961 147.746 104.057 147.933C104.153 148.119 104.288 148.283 104.453 148.412C104.832 148.666 105.248 148.858 105.686 148.984C105.641 149.187 105.6 149.387 105.548 149.58C105.514 149.711 105.487 149.842 105.442 149.969L105.318 150.355C105.228 150.596 105.142 150.844 105.049 151.078C104.987 151.24 104.925 151.391 104.863 151.546C104.894 151.347 104.946 150.954 104.949 150.92C104.946 150.463 104.828 150.016 104.605 149.618C104.612 149.566 104.612 149.514 104.605 149.463C104.593 149.367 104.561 149.274 104.511 149.191C104.461 149.108 104.394 149.037 104.314 148.981C104.234 148.926 104.144 148.888 104.049 148.87C103.953 148.852 103.855 148.855 103.761 148.877C103.2 149.029 102.842 150.017 102.814 150.537C102.814 150.568 102.831 150.902 102.848 151.116C102.821 150.992 102.793 150.871 102.762 150.747C102.704 150.499 102.638 150.251 102.566 149.983C102.528 149.859 102.49 149.728 102.449 149.597C102.408 149.466 102.359 149.335 102.315 149.204C102.204 148.898 102.074 148.595 101.939 148.292C102.396 148.198 102.835 148.034 103.241 147.806C103.414 147.689 103.561 147.537 103.67 147.358C103.779 147.18 103.849 146.98 103.875 146.773C103.878 146.676 103.86 146.579 103.823 146.49C103.785 146.4 103.73 146.319 103.659 146.253C103.589 146.186 103.505 146.135 103.413 146.103C103.321 146.071 103.224 146.059 103.127 146.067C102.549 146.129 102.043 147.052 101.939 147.562C101.939 147.596 101.898 147.968 101.884 148.175C101.801 147.996 101.719 147.813 101.629 147.631C101.371 147.11 101.092 146.597 100.816 146.07L100.565 145.592C101.036 145.492 101.49 145.324 101.912 145.092C102.086 144.976 102.233 144.824 102.342 144.645C102.452 144.467 102.521 144.267 102.545 144.059C102.548 143.962 102.53 143.866 102.493 143.777C102.457 143.687 102.401 143.607 102.331 143.54C102.261 143.473 102.177 143.422 102.086 143.39C101.995 143.358 101.898 143.345 101.801 143.353C101.219 143.415 100.717 144.338 100.613 144.848C100.613 144.889 100.555 145.426 100.551 145.564C100.369 145.22 100.19 144.875 100.028 144.507C99.8045 144.03 99.6135 143.539 99.4561 143.036C99.931 142.937 100.388 142.768 100.813 142.533C100.988 142.418 101.135 142.266 101.245 142.087C101.354 141.909 101.423 141.708 101.447 141.5C101.45 141.403 101.433 141.306 101.396 141.216C101.359 141.126 101.303 141.044 101.233 140.977C101.162 140.91 101.078 140.859 100.986 140.827C100.894 140.795 100.796 140.782 100.699 140.791C100.121 140.856 99.618 141.779 99.5112 142.289C99.5112 142.33 99.4526 142.909 99.4492 143.016C99.4404 142.985 99.4301 142.955 99.4182 142.926C99.2748 142.418 99.1768 141.898 99.1255 141.373C99.091 141.083 99.0773 140.804 99.0669 140.536C99.5409 140.492 100.005 140.375 100.445 140.191C100.631 140.095 100.794 139.959 100.923 139.793C101.051 139.627 101.142 139.435 101.188 139.231C101.202 139.134 101.195 139.036 101.168 138.943C101.141 138.85 101.095 138.763 101.032 138.689C100.969 138.615 100.892 138.555 100.804 138.513C100.716 138.471 100.621 138.448 100.524 138.445C99.9417 138.445 99.339 139.306 99.1806 139.802C99.1806 139.83 99.1117 140.112 99.0738 140.322C99.0738 140.198 99.0738 140.071 99.0738 139.954C99.0738 139.513 99.1014 139.11 99.1289 138.752C99.1461 138.549 99.1668 138.363 99.1875 138.194C99.5634 137.935 99.8988 137.622 100.183 137.264C100.304 137.093 100.386 136.897 100.423 136.69C100.461 136.484 100.453 136.272 100.4 136.069C100.368 135.977 100.317 135.893 100.25 135.823C100.183 135.752 100.102 135.697 100.012 135.66C99.9227 135.623 99.8261 135.605 99.729 135.608C99.632 135.611 99.5366 135.634 99.4492 135.676C98.9326 135.945 98.7948 136.989 98.8809 137.502C98.8809 137.546 99.0841 138.228 99.0945 138.221C99.0738 138.387 99.0497 138.566 99.029 138.759C98.9946 139.103 98.9567 139.52 98.9464 139.964C98.9311 140.441 98.9426 140.918 98.9808 141.393C99.023 141.927 99.1117 142.456 99.246 142.974C99.246 142.974 99.246 142.974 99.246 142.991C99.153 142.847 98.8844 142.451 98.8603 142.423C98.5159 142.031 97.6273 141.469 97.0901 141.696C97.0016 141.737 96.9227 141.795 96.8583 141.868C96.794 141.94 96.7458 142.026 96.7169 142.119C96.6879 142.211 96.6789 142.309 96.6904 142.405C96.7019 142.502 96.7336 142.595 96.7836 142.678C96.9077 142.847 97.0673 142.987 97.2511 143.088C97.4348 143.189 97.6385 143.249 97.8478 143.264Z" fill="#263238"/>
<path d="M107.86 140.515C107.86 140.515 108.046 139.826 108.053 139.788C108.125 139.275 107.96 138.235 107.433 137.98C107.345 137.941 107.249 137.92 107.152 137.92C107.056 137.92 106.96 137.94 106.872 137.979C106.783 138.019 106.704 138.076 106.639 138.148C106.575 138.22 106.526 138.305 106.496 138.397C106.449 138.601 106.447 138.813 106.489 139.018C106.532 139.223 106.619 139.417 106.744 139.585C107.069 139.948 107.445 140.261 107.86 140.515Z" fill="#263238"/>
<path d="M126.838 20.0815C126.551 21.2148 126.624 22.4092 127.047 23.499C127.47 24.5888 128.221 25.5201 129.197 26.1636C130.173 26.8072 131.325 27.131 132.493 27.0903C133.661 27.0496 134.788 26.6463 135.717 25.9364L137.897 28.0234C137.841 28.2508 137.845 28.4889 137.909 28.7142C137.973 28.9395 138.094 29.1442 138.262 29.308L142.997 33.9471C143.124 34.0704 143.274 34.1674 143.439 34.2326C143.604 34.2978 143.779 34.33 143.956 34.3273C144.133 34.3246 144.308 34.287 144.471 34.2168C144.633 34.1465 144.78 34.0449 144.903 33.9179C145.027 33.7908 145.124 33.6406 145.189 33.4761C145.254 33.3115 145.286 33.1357 145.284 32.9587C145.281 32.7816 145.243 32.6069 145.173 32.4444C145.103 32.2819 145.001 32.1348 144.874 32.0116L140.128 27.3691C139.957 27.2046 139.746 27.088 139.516 27.0312C139.285 26.9743 139.044 26.9792 138.816 27.0453L136.684 24.9927C137.199 24.3622 137.568 23.6261 137.766 22.8367C137.947 22.1192 137.985 21.3731 137.877 20.6409C137.77 19.9088 137.519 19.205 137.14 18.5697C136.76 17.9344 136.259 17.38 135.666 16.9383C135.072 16.4966 134.397 16.1761 133.68 15.9952C132.962 15.8143 132.216 15.7765 131.484 15.8839C130.752 15.9914 130.048 16.242 129.412 16.6214C128.777 17.0009 128.223 17.5018 127.781 18.0954C127.339 18.6891 127.019 19.364 126.838 20.0815ZM136.788 22.5819C136.564 23.4691 136.083 24.2702 135.404 24.8838C134.726 25.4974 133.88 25.896 132.975 26.0291C132.07 26.1623 131.146 26.024 130.319 25.6317C129.493 25.2395 128.801 24.6109 128.332 23.8256C127.863 23.0402 127.637 22.1333 127.683 21.2196C127.729 20.3059 128.045 19.4264 128.591 18.6923C129.137 17.9583 129.889 17.4026 130.751 17.0957C131.613 16.7888 132.546 16.7444 133.433 16.9681C134.622 17.2688 135.643 18.0288 136.272 19.0812C136.9 20.1337 137.086 21.3927 136.788 22.5819Z" stroke="#263238" stroke-width="0.510997" stroke-miterlimit="10"/>
<path d="M22.6947 88.3324C21.8405 88.5367 21.071 89.0016 20.4928 89.6627C19.9146 90.3239 19.5564 91.1485 19.4678 92.0224C19.3793 92.8962 19.5647 93.7759 19.9985 94.5396C20.4323 95.3034 21.093 95.9132 21.8888 96.2847L21.2552 98.4647C21.0839 98.5058 20.9265 98.5911 20.7984 98.7119C20.6703 98.8327 20.5761 98.985 20.525 99.1535L19.0613 103.93C18.9892 104.189 19.0208 104.466 19.1494 104.702C19.278 104.938 19.4935 105.115 19.7501 105.194C20.009 105.266 20.2858 105.235 20.5218 105.106C20.7578 104.978 20.9344 104.762 21.0141 104.506L22.4674 99.7287C22.5191 99.5574 22.524 99.3754 22.4816 99.2016C22.4393 99.0278 22.3511 98.8685 22.2264 98.7402L22.8532 96.5981C23.4752 96.7262 24.118 96.7128 24.7341 96.5589C25.3502 96.4051 25.9239 96.1147 26.4126 95.7092C26.9013 95.3037 27.2927 94.7935 27.5576 94.2163C27.8225 93.6392 27.9543 93.0099 27.9432 92.3749C27.9321 91.7399 27.7784 91.1156 27.4934 90.5481C27.2084 89.9806 26.7995 89.4844 26.2969 89.0962C25.7943 88.7081 25.2108 88.4379 24.5897 88.3057C23.9685 88.1735 23.3256 88.1826 22.7085 88.3324H22.6947ZM24.4787 95.8404C23.8094 95.9995 23.1079 95.9566 22.4629 95.7171C21.818 95.4776 21.2585 95.0521 20.8554 94.4946C20.4522 93.9371 20.2234 93.2726 20.198 92.585C20.1725 91.8975 20.3515 91.2178 20.7123 90.632C21.0731 90.0462 21.5996 89.5806 22.2251 89.294C22.8505 89.0074 23.547 88.9127 24.2262 89.022C24.9055 89.1312 25.5371 89.4394 26.0412 89.9076C26.5453 90.3759 26.8993 90.9831 27.0583 91.6525C27.2709 92.5479 27.1203 93.4911 26.6396 94.2759C26.1588 95.0606 25.3868 95.6231 24.4925 95.8404H24.4787Z" stroke="#263238" stroke-width="0.510997" stroke-miterlimit="10"/>
<path d="M137.503 56.584H127.516C126.867 56.584 126.245 56.8416 125.787 57.3002C125.328 57.7588 125.07 58.3807 125.07 59.0292V64.5569C125.07 65.2054 125.328 65.8274 125.787 66.2859C126.245 66.7445 126.867 67.0021 127.516 67.0021H134.472L134.128 70.4461L137.365 67.0021H137.503C137.824 67.0021 138.142 66.9389 138.439 66.816C138.736 66.6931 139.005 66.513 139.232 66.2859C139.459 66.0589 139.639 65.7893 139.762 65.4926C139.885 65.196 139.948 64.878 139.948 64.5569V59.0292C139.948 58.7081 139.885 58.3901 139.762 58.0935C139.639 57.7968 139.459 57.5272 139.232 57.3002C139.005 57.0731 138.736 56.893 138.439 56.7701C138.142 56.6472 137.824 56.584 137.503 56.584Z" stroke="#263238" stroke-width="0.510997" stroke-miterlimit="10"/>
<path d="M23.4085 69.6719H30.1759C30.3935 69.6719 30.6089 69.7147 30.8099 69.798C31.0109 69.8812 31.1935 70.0032 31.3473 70.1571C31.5011 70.3109 31.6231 70.4935 31.7064 70.6945C31.7896 70.8955 31.8325 71.1109 31.8325 71.3284V75.0721C31.8325 75.2896 31.7896 75.505 31.7064 75.706C31.6231 75.907 31.5011 76.0896 31.3473 76.2435C31.1935 76.3973 31.0109 76.5193 30.8099 76.6026C30.6089 76.6858 30.3935 76.7287 30.1759 76.7287H25.4646L25.7091 79.0568L23.5015 76.7287H23.4085C22.9692 76.7287 22.5478 76.5541 22.2371 76.2435C21.9265 75.9328 21.752 75.5114 21.752 75.0721V71.3284C21.752 70.8891 21.9265 70.4677 22.2371 70.1571C22.5478 69.8464 22.9692 69.6719 23.4085 69.6719Z" stroke="#263238" stroke-width="0.510997" stroke-miterlimit="10"/>
<path d="M73.4339 6.5625H80.2013C80.6407 6.5625 81.062 6.73703 81.3727 7.0477C81.6834 7.35837 81.8579 7.77972 81.8579 8.21907V11.9627C81.8579 12.4021 81.6834 12.8234 81.3727 13.1341C81.062 13.4448 80.6407 13.6193 80.2013 13.6193H75.49L75.7345 15.9474L73.5269 13.6193H73.4339C72.9946 13.6193 72.5732 13.4448 72.2625 13.1341C71.9519 12.8234 71.7773 12.4021 71.7773 11.9627V8.21907C71.7773 7.77972 71.9519 7.35837 72.2625 7.0477C72.5732 6.73703 72.9946 6.5625 73.4339 6.5625Z" stroke="#263238" stroke-width="0.510997" stroke-miterlimit="10"/>
<path d="M64.2422 14.1406L80.8009 60.4144L116.36 14.8708" stroke="#263238" stroke-width="0.510997" stroke-miterlimit="10"/>
<path d="M130.491 44.3398L80.8086 60.4131L114.174 97.9183" stroke="#263238" stroke-width="0.510997" stroke-miterlimit="10"/>
<path d="M42.5721 96.46L80.8072 60.4149L28.6895 51.6465" stroke="#263238" stroke-width="0.510997" stroke-miterlimit="10"/>
<path d="M134.741 46.8205C136.031 44.3568 135.079 41.3142 132.616 40.0245C130.152 38.7349 127.109 39.6867 125.819 42.1504C124.53 44.6141 125.482 47.6568 127.945 48.9464C130.409 50.236 133.452 49.2842 134.741 46.8205Z" fill="#263238" stroke="#263238" stroke-width="0.255498" stroke-miterlimit="10"/>
<path d="M131.947 44.1367H128.665C128.357 44.1367 128.061 44.259 127.844 44.4767C127.626 44.6943 127.504 44.9895 127.504 45.2973V48.0526C128.306 48.6784 129.296 49.0146 130.313 49.0065C131.331 48.9984 132.315 48.6464 133.107 48.0078V45.2973C133.107 44.9895 132.985 44.6943 132.767 44.4767C132.55 44.259 132.254 44.1367 131.947 44.1367Z" fill="#ED2224" stroke="#263238" stroke-width="0.510997" stroke-miterlimit="10"/>
<path d="M130.243 43.6337C130.573 43.6337 130.896 43.5357 131.171 43.3522C131.445 43.1686 131.659 42.9077 131.786 42.6025C131.912 42.2973 131.945 41.9615 131.881 41.6374C131.816 41.3134 131.657 41.0158 131.424 40.7822C131.19 40.5486 130.892 40.3895 130.568 40.3251C130.244 40.2606 129.909 40.2937 129.603 40.4201C129.298 40.5465 129.037 40.7606 128.854 41.0353C128.67 41.31 128.572 41.633 128.572 41.9633C128.572 42.4063 128.748 42.8312 129.061 43.1444C129.375 43.4577 129.8 43.6337 130.243 43.6337Z" fill="#ED2224" stroke="#263238" stroke-width="0.510997" stroke-miterlimit="10"/>
<path d="M119.323 98.0789C120.397 95.5137 119.188 92.5638 116.622 91.4903C114.057 90.4167 111.107 91.626 110.034 94.1912C108.96 96.7564 110.169 99.7062 112.735 100.78C115.3 101.853 118.25 100.644 119.323 98.0789Z" fill="#263238" stroke="#263238" stroke-width="0.255498" stroke-miterlimit="10"/>
<path d="M116.372 95.7988H113.09C112.938 95.7984 112.787 95.828 112.646 95.8859C112.506 95.9439 112.378 96.029 112.27 96.1365C112.162 96.244 112.076 96.3718 112.018 96.5124C111.96 96.653 111.93 96.8038 111.93 96.956V99.7112C112.732 100.337 113.722 100.673 114.739 100.665C115.756 100.657 116.741 100.305 117.533 99.6665V96.956C117.533 96.8038 117.503 96.653 117.445 96.5124C117.386 96.3718 117.301 96.244 117.193 96.1365C117.085 96.029 116.957 95.9439 116.816 95.8859C116.676 95.828 116.525 95.7984 116.372 95.7988Z" fill="#ED2224" stroke="#263238" stroke-width="0.510997" stroke-miterlimit="10"/>
<path d="M114.649 95.2899C114.979 95.2899 115.302 95.192 115.577 95.0084C115.852 94.8249 116.066 94.564 116.192 94.2588C116.318 93.9536 116.352 93.6177 116.287 93.2937C116.223 92.9697 116.064 92.6721 115.83 92.4385C115.596 92.2049 115.299 92.0458 114.975 91.9813C114.651 91.9169 114.315 91.9499 114.01 92.0764C113.704 92.2028 113.444 92.4169 113.26 92.6916C113.076 92.9663 112.979 93.2892 112.979 93.6196C112.979 93.8389 113.022 94.0561 113.106 94.2588C113.19 94.4614 113.313 94.6456 113.468 94.8007C113.623 94.9558 113.807 95.0788 114.01 95.1628C114.212 95.2467 114.429 95.2899 114.649 95.2899Z" fill="#ED2224" stroke="#263238" stroke-width="0.510997" stroke-miterlimit="10"/>
<path d="M64.0299 17.3881C66.0043 17.3881 67.6048 15.7875 67.6048 13.8132C67.6048 11.8388 66.0043 10.2383 64.0299 10.2383C62.0556 10.2383 60.4551 11.8388 60.4551 13.8132C60.4551 15.7875 62.0556 17.3881 64.0299 17.3881Z" fill="#263238" stroke="#263238" stroke-width="0.255498" stroke-miterlimit="10"/>
<path d="M65.2118 13.5938H62.8837C62.6654 13.5938 62.456 13.6805 62.3016 13.8348C62.1473 13.9892 62.0605 14.1986 62.0605 14.4169V16.349C62.63 16.7915 63.332 17.0292 64.0531 17.0235C64.7743 17.0179 65.4725 16.7693 66.0349 16.318V14.3996C66.0304 14.1843 65.9417 13.9794 65.7878 13.8287C65.6339 13.6781 65.4271 13.5937 65.2118 13.5938Z" fill="#ED2224" stroke="#263238" stroke-width="0.510997" stroke-miterlimit="10"/>
<path d="M64.0246 13.2113C64.2589 13.2113 64.4879 13.1418 64.6828 13.0116C64.8776 12.8814 65.0295 12.6964 65.1191 12.4799C65.2088 12.2634 65.2323 12.0252 65.1865 11.7954C65.1408 11.5656 65.028 11.3545 64.8623 11.1888C64.6966 11.0231 64.4855 10.9103 64.2557 10.8646C64.0259 10.8188 63.7877 10.8423 63.5712 10.932C63.3547 11.0217 63.1697 11.1735 63.0395 11.3683C62.9093 11.5632 62.8398 11.7922 62.8398 12.0265C62.8398 12.3408 62.9647 12.6421 63.1868 12.8643C63.409 13.0865 63.7104 13.2113 64.0246 13.2113Z" fill="#ED2224" stroke="#263238" stroke-width="0.510997" stroke-miterlimit="10"/>
<path d="M45.3227 97.253C46.083 95.4309 45.2223 93.3375 43.4002 92.5772C41.5782 91.8169 39.4847 92.6776 38.7244 94.4997C37.964 96.3217 38.8247 98.4152 40.6468 99.1755C42.4689 99.9358 44.5623 99.0751 45.3227 97.253Z" fill="#263238" stroke="#263238" stroke-width="0.255498" stroke-miterlimit="10"/>
<path d="M43.2016 95.6348H40.8734C40.7648 95.6343 40.6571 95.6554 40.5566 95.6968C40.4561 95.7381 40.3648 95.799 40.288 95.8759C40.2111 95.9527 40.1503 96.044 40.1089 96.1445C40.0675 96.245 40.0464 96.3527 40.0469 96.4613V98.4141C40.6158 98.8592 41.3188 99.0985 42.0412 99.0929C42.7636 99.0873 43.4627 98.8371 44.0247 98.3831V96.4613C44.0251 96.353 44.0042 96.2456 43.963 96.1453C43.9219 96.045 43.8613 95.9539 43.7848 95.8771C43.7083 95.8003 43.6175 95.7393 43.5174 95.6978C43.4173 95.6562 43.31 95.6348 43.2016 95.6348Z" fill="#ED2224" stroke="#263238" stroke-width="0.510997" stroke-miterlimit="10"/>
<path d="M42.0011 95.2718C42.2355 95.2718 42.4645 95.2023 42.6593 95.0722C42.8542 94.942 43.006 94.757 43.0957 94.5405C43.1854 94.324 43.2088 94.0858 43.1631 93.856C43.1174 93.6261 43.0046 93.415 42.8389 93.2494C42.6732 93.0837 42.4621 92.9708 42.2323 92.9251C42.0025 92.8794 41.7642 92.9029 41.5478 92.9925C41.3313 93.0822 41.1462 93.234 41.0161 93.4289C40.8859 93.6237 40.8164 93.8528 40.8164 94.0871C40.8164 94.4013 40.9412 94.7026 41.1634 94.9248C41.3856 95.147 41.6869 95.2718 42.0011 95.2718Z" fill="#ED2224" stroke="#263238" stroke-width="0.510997" stroke-miterlimit="10"/>
<path d="M119.627 14.8549C120.346 13.0162 119.438 10.9426 117.599 10.2235C115.761 9.50439 113.687 10.412 112.968 12.2508C112.249 14.0895 113.157 16.163 114.995 16.8821C116.834 17.6013 118.908 16.6936 119.627 14.8549Z" fill="#263238" stroke="#263238" stroke-width="0.255498" stroke-miterlimit="10"/>
<path d="M117.485 13.3125H115.153C115.045 13.3125 114.938 13.3338 114.838 13.3752C114.738 13.4165 114.648 13.4772 114.571 13.5536C114.495 13.63 114.434 13.7208 114.393 13.8206C114.351 13.9205 114.33 14.0275 114.33 14.1356V16.0918C114.9 16.5346 115.603 16.7724 116.324 16.7668C117.046 16.7612 117.745 16.5125 118.308 16.0608V14.1356C118.308 14.0275 118.287 13.9205 118.245 13.8206C118.204 13.7208 118.143 13.63 118.067 13.5536C117.99 13.4772 117.9 13.4165 117.8 13.3752C117.7 13.3338 117.593 13.3125 117.485 13.3125Z" fill="#ED2224" stroke="#263238" stroke-width="0.510997" stroke-miterlimit="10"/>
<path d="M116.288 12.9515C116.523 12.9515 116.752 12.882 116.946 12.7518C117.141 12.6217 117.293 12.4366 117.383 12.2202C117.472 12.0037 117.496 11.7655 117.45 11.5356C117.404 11.3058 117.292 11.0947 117.126 10.929C116.96 10.7633 116.749 10.6505 116.519 10.6048C116.29 10.5591 116.051 10.5825 115.835 10.6722C115.618 10.7619 115.433 10.9137 115.303 11.1086C115.173 11.3034 115.104 11.5325 115.104 11.7668C115.104 12.081 115.228 12.3823 115.451 12.6045C115.673 12.8267 115.974 12.9515 116.288 12.9515Z" fill="#ED2224" stroke="#263238" stroke-width="0.510997" stroke-miterlimit="10"/>
<path d="M34.2605 53.3295C35.662 50.0087 34.106 46.1806 30.7852 44.7792C27.4644 43.3778 23.6362 44.9339 22.2348 48.2547C20.8333 51.5755 22.3893 55.4036 25.7101 56.805C29.031 58.2064 32.8591 56.6504 34.2605 53.3295Z" fill="#263238" stroke="#263238" stroke-width="0.255498" stroke-miterlimit="10"/>
<path d="M30.4146 50.3496H26.1613C25.7627 50.3496 25.3804 50.5077 25.0983 50.7892C24.8161 51.0707 24.6572 51.4526 24.6562 51.8512V55.4192C25.6961 56.2282 26.9784 56.6628 28.2958 56.6528C29.6132 56.6428 30.8887 56.1888 31.9162 55.3641V51.8512C31.9162 51.453 31.758 51.071 31.4764 50.7894C31.1948 50.5078 30.8128 50.3496 30.4146 50.3496Z" fill="#ED2224" stroke="#263238" stroke-width="0.510997" stroke-miterlimit="10"/>
<path d="M28.1999 49.689C28.6277 49.689 29.0459 49.5621 29.4015 49.3245C29.7572 49.0868 30.0344 48.749 30.1981 48.3538C30.3618 47.9586 30.4046 47.5237 30.3212 47.1042C30.2377 46.6846 30.0318 46.2992 29.7293 45.9968C29.4268 45.6943 29.0414 45.4883 28.6219 45.4048C28.2023 45.3214 27.7675 45.3642 27.3723 45.5279C26.9771 45.6916 26.6393 45.9688 26.4016 46.3245C26.164 46.6802 26.0371 47.0984 26.0371 47.5261C26.0371 48.0997 26.265 48.6499 26.6706 49.0555C27.0762 49.4611 27.6263 49.689 28.1999 49.689Z" fill="#ED2224" stroke="#263238" stroke-width="0.510997" stroke-miterlimit="10"/>
<path d="M49.478 24.8612C49.478 24.8405 49.478 24.8199 49.478 24.7992C49.3804 23.9054 49.0283 23.0585 48.4636 22.3589C47.8989 21.6593 47.1453 21.1364 46.2923 20.8524C45.4266 20.5585 44.4919 20.5357 43.6129 20.7869C43.8075 20.126 43.8741 19.434 43.8092 18.7481C43.6813 17.3764 43.0366 16.1047 42.0058 15.1907C40.9751 14.2768 39.6353 13.789 38.2582 13.8262C36.8811 13.8634 35.5697 14.4229 34.5898 15.3912C33.6099 16.3595 33.0349 17.6642 32.9813 19.0408C32.9021 19.0408 32.8229 19.0408 32.7437 19.0408C31.3032 19.0408 29.9218 19.613 28.9033 20.6316C27.8847 21.6501 27.3125 23.0316 27.3125 24.472C27.3112 24.9584 27.3761 25.4427 27.5054 25.9116C27.6876 26.5413 28.0705 27.0943 28.5958 27.4866C29.121 27.8788 29.76 28.0889 30.4155 28.0848H46.4576C46.8723 28.0867 47.2828 28.0031 47.6637 27.8391C48.0445 27.6751 48.3874 27.4343 48.6709 27.1317C48.9544 26.8292 49.1724 26.4713 49.3113 26.0807C49.4501 25.69 49.5069 25.2748 49.478 24.8612Z" stroke="#263238" stroke-width="0.510997" stroke-miterlimit="10"/>
<path d="M131.872 79.9834C131.87 79.972 131.87 79.9604 131.872 79.949C131.819 79.4655 131.629 79.0072 131.324 78.6286C131.019 78.2501 130.611 77.9672 130.15 77.8137C129.682 77.6544 129.178 77.6423 128.703 77.7792C128.81 77.4223 128.847 77.0482 128.813 76.6771C128.763 75.922 128.421 75.2157 127.862 74.7064C127.302 74.197 126.567 73.924 125.81 73.9444C125.053 73.9649 124.334 74.2773 123.803 74.8162C123.271 75.3551 122.969 76.0787 122.959 76.8356H122.831C122.054 76.8365 121.308 77.146 120.759 77.6962C120.209 78.2464 119.9 78.9922 119.9 79.7699C119.901 80.0315 119.936 80.292 120.004 80.5448C120.101 80.8854 120.308 81.1849 120.591 81.3975C120.875 81.6102 121.22 81.7243 121.574 81.7226H130.232C130.457 81.7251 130.679 81.681 130.886 81.5931C131.093 81.5053 131.279 81.3755 131.433 81.2121C131.587 81.0487 131.706 80.8552 131.781 80.6437C131.857 80.4322 131.887 80.2074 131.872 79.9834Z" stroke="#263238" stroke-width="0.510997" stroke-miterlimit="10"/>
<path d="M55.7218 106.523C55.7218 106.523 55.7218 106.503 55.7218 106.492C55.6698 106.009 55.4799 105.55 55.1746 105.172C54.8692 104.793 54.4614 104.51 53.9998 104.357C53.5325 104.198 53.0276 104.186 52.5533 104.323C52.6588 103.966 52.6951 103.591 52.66 103.221C52.5864 102.509 52.2573 101.847 51.7337 101.359C51.21 100.871 50.5274 100.589 49.8119 100.565C49.0429 100.547 48.2976 100.831 47.7369 101.358C47.1762 101.884 46.8452 102.61 46.8156 103.379H46.6882C46.3027 103.379 45.921 103.454 45.5647 103.602C45.2085 103.749 44.8849 103.965 44.6123 104.237C44.3398 104.51 44.1236 104.834 43.9763 105.19C43.829 105.546 43.7535 105.928 43.7539 106.313C43.7541 106.575 43.79 106.836 43.8607 107.088C43.9573 107.43 44.1632 107.73 44.447 107.942C44.7307 108.155 45.0765 108.269 45.4311 108.266H54.0859C54.3104 108.268 54.533 108.224 54.7395 108.135C54.9459 108.047 55.1319 107.917 55.2856 107.753C55.4393 107.589 55.5574 107.396 55.6325 107.184C55.7075 106.972 55.7379 106.747 55.7218 106.523Z" stroke="#263238" stroke-width="0.510997" stroke-miterlimit="10"/>
<path d="M105.004 16.8159C105.005 16.8056 105.005 16.7952 105.004 16.7849C104.953 16.301 104.763 15.8421 104.458 15.4634C104.152 15.0846 103.744 14.802 103.282 14.6496C102.815 14.4892 102.31 14.4759 101.835 14.6117C101.943 14.256 101.979 13.8828 101.942 13.5131C101.891 12.7579 101.55 12.0517 100.99 11.5423C100.43 11.0329 99.6953 10.7599 98.9386 10.7804C98.182 10.8008 97.4627 11.1132 96.9312 11.6521C96.3997 12.191 96.0973 12.9147 96.0873 13.6715H95.9599C95.5089 13.6726 95.0643 13.7775 94.6603 13.9781C94.2564 14.1787 93.9041 14.4696 93.6307 14.8283C93.3573 15.1869 93.1701 15.6037 93.0837 16.0463C92.9973 16.489 93.014 16.9455 93.1324 17.3807C93.23 17.7214 93.4363 18.0208 93.7198 18.2335C94.0033 18.4461 94.3485 18.5602 94.7029 18.5586H103.361C103.586 18.5621 103.81 18.5186 104.017 18.4309C104.225 18.3432 104.412 18.2133 104.567 18.0493C104.721 17.8854 104.84 17.691 104.915 17.4787C104.99 17.2663 105.021 17.0406 105.004 16.8159Z" stroke="#263238" stroke-width="0.510997" stroke-miterlimit="10"/>
<path d="M107.036 85.9346C121.651 71.319 121.651 47.6224 107.036 33.0068C92.4198 18.3912 68.7228 18.3912 54.1069 33.0068C39.4911 47.6224 39.4911 71.319 54.1069 85.9346C68.7228 100.55 92.4198 100.55 107.036 85.9346Z" fill="white" stroke="#263238" stroke-width="0.510997" stroke-miterlimit="10"/>
<path d="M79.2196 42.1461L82.7738 43.7441L83.7484 45.3421L85.3499 45.9655L85.5255 47.653L84.9056 48.6277L83.6623 48.8963L80.9967 47.8287V47.4843L82.5051 46.8609L81.9748 44.9977L79.564 44.1092L78.4998 42.6868L79.2196 42.1461ZM101.605 83.1815L98.7642 82.0277L95.2995 80.7844H92.5444L89.9683 80.2506L87.1235 80.8705L85.5255 80.9601H84.5509L82.6842 82.0277L80.8934 82.7372L78.4826 81.2287L79.1025 78.7387L77.594 78.1188H75.8169L75.5518 77.3198L75.7274 75.7183L75.1075 74.8332L73.8642 75.0088L73.5198 75.8974L72.0113 75.9869L70.6785 74.3889L70.1447 72.2571L71.4775 69.767L74.0536 69.9461L74.7665 70.5695H75.8307L77.1635 69.767L78.3173 70.1115L79.9153 72.8667L80.5386 72.7771L80.3595 70.7348L79.8602 69.6809L80.0358 67.9934L83.3214 66.571L83.7656 63.2854L85.188 62.1282L86.3417 60.0859L87.2303 59.9103L89.2726 58.5774L89.3621 57.868L87.9432 57.9541L87.6746 57.2446H86.6999L85.188 57.589L85.8975 56.4353L88.9971 55.5467L89.7065 54.7477L90.9498 56.7005L91.7522 57.4995L92.9955 57.1551L92.4617 56.0013L90.5951 54.6685L88.4632 52.2577L86.2453 50.7458L84.1135 50.4014L83.0459 49.3372L81.6235 48.9928L81.4478 49.3372L81.2688 51.9133L81.6132 52.7984L80.8142 55.6432L79.0439 54.2311L79.3091 52.9878L77.4494 52.0924L76.6435 51.1315L77.0878 48.9135L79.6639 47.0469L79.8429 44.915L78.8649 45.0046L78.2415 44.2056L77.9763 42.8728L77.353 42.7832L77.0086 44.2056L76.0339 44.3812L75.5896 41.2816L74.8664 40.7995L73.6231 40.2656L72.2042 40.9751L73.9778 42.6627L74.3222 44.1746L71.1228 41.7638L68.9014 39.353L68.7258 36.9422L66.4286 36.2809L64.6515 37.4381C64.2233 37.6974 63.7819 37.9342 63.3291 38.1476C62.6279 38.3147 61.9153 38.4298 61.1972 38.492L60.8528 40.0039L58.8105 40.09L58.9896 41.0681L62.2752 41.6019L63.9627 43.4651V46.5647L62.9847 49.3199L63.1637 52.2508L60.6772 56.6006L60.1434 63.0857L60.9183 66.8362L62.072 69.6809L63.4048 69.8566L62.9605 68.4377L62.2511 67.37L61.8068 65.4173L62.6058 65.2382L63.8491 68.4377L64.7376 71.279V73.5865L66.4252 75.6322L69.4456 77.8501L74.0639 79.0969L75.4863 80.4263L76.5505 81.8486L78.152 82.8267L80.1047 83.3571L82.0574 83.271C82.0574 83.271 81.9713 84.1596 81.9713 84.6039C81.9713 85.0481 80.7281 86.5566 80.7281 86.5566L79.7534 88.3268L80.4629 90.2796L82.419 91.0786L85.1742 93.9234L86.4175 94.4537V95.7866L86.5725 96.4065C93.4809 95.2902 99.9355 92.2514 105.198 87.638L105.246 86.994L107.657 82.6408L106.503 81.8418L101.605 83.1815ZM110.856 48.0973L109.878 46.4063L108.635 44.4536L108.29 41.7879L109.888 42.0565L109.978 41.168L108.821 41.0784L109.799 40.6341L110.866 40.0142V39.1257L109.799 37.7033L109.571 35.7919C104.41 29.4748 97.326 25.0167 89.3978 23.0958C81.4696 21.1748 73.1309 21.896 65.6503 25.1499L67.696 26.5998L66.4286 28.1978L64.7411 28.5422L64.5654 30.953L63.8525 31.2182L62.964 32.1894L63.0535 33.7874L64.5654 33.9665L63.9421 35.475H65.454L68.0266 32.1894L68.2953 30.767L70.7818 30.5914L71.4017 29.5238L73.9778 29.2586L74.2465 27.7466L76.1097 27.6605C76.1097 27.6605 77.4425 26.9476 77.7111 26.9476C78.224 27.0591 78.7282 27.2075 79.2196 27.3919L80.5524 28.4596H82.419L84.0171 27.4815L86.0593 27.6605C86.3533 27.8516 86.6886 27.9697 87.0374 28.0049C87.4817 28.0049 88.8145 27.3816 88.8145 27.3816L91.3872 28.9796L92.4548 29.7821V31.1114L93.7876 31.2905L94.2319 30.4915L95.3856 31.0253L95.2961 31.7348L92.6339 32.4443L94.1424 34.4005L97.3384 36.1776L98.6712 37.9513L100.627 38.1303L101.072 37.2418L101.781 37.0627L99.4702 35.289L98.0513 35.1099L99.205 34.7655L98.1408 33.2536L99.6493 33.1675L101.602 34.2317L102.046 36.3636L103.024 37.5173L103.823 40.0934L105.78 41.5158V44.4467L107.822 45.7795L107.732 46.7576L107.467 47.9113L107.998 49.5094L108.177 50.3084L109.685 50.577L110.398 49.0651L110.856 48.0973ZM112.01 39.1429V39.6526L111.545 41.0784L111.81 42.3217L112.788 42.6661V44.3537L111.724 43.9094L111.462 48.7207L110.398 50.6734L111.107 53.1635L112.261 54.2277V59.0252L113.418 62.755L114.662 65.5963L116.704 66.1302L117.413 64.3531L117.703 64.1258C117.895 62.5823 117.992 61.0283 117.992 59.4729C118.003 52.2598 115.92 45.1987 111.996 39.1463L112.01 39.1429ZM91.4905 38.5884L85.6357 36.0123L83.0596 36.1018L82.4397 37.7894L81.3721 36.6322L79.4193 37.0765L79.2403 40.0108L80.8383 41.1645L81.9954 39.477L83.3042 40.7995L86.0593 43.2103L86.5932 45.7864L88.9006 48.7172L92.6339 48.0973L92.5444 46.7645L91.7454 45.2526L91.5697 41.7018L92.4583 40.1899L91.4905 38.5884ZM96.288 40.5412L94.9551 40.1968L93.8014 41.1749L94.4213 43.751H95.5785L96.288 40.5412ZM104.554 42.2287L101.533 40.6307L100.91 39.5665L100.2 39.8317L100.82 41.6088L101.354 43.9163L102.687 44.4501L102.952 44.1057L102.153 42.7729L104.464 43.6614L104.554 42.2287ZM78.6169 74.2959L78.2725 74.6403L80.9381 75.4393L82.0058 76.6826L83.6933 76.8617L84.3132 75.8836L82.271 75.5392L78.6169 74.2959ZM86.5381 75.9835L84.6714 76.5173L84.94 77.2268H87.2475L87.6918 76.5173L86.8928 76.6034L86.5381 75.9835Z" fill="#ED2224" stroke="#263238" stroke-width="0.510997" stroke-miterlimit="10"/>
<path d="M107.069 105.925C107.038 106.893 107.154 107.861 107.414 108.794C107.824 110.103 108.23 111.332 108.64 111.825C109.05 112.317 109.708 111.498 109.132 110.513C108.557 109.528 108.888 108.467 109.215 108.467C109.542 108.467 112.163 110.103 112.573 110.678C112.983 111.253 114.212 112.727 114.212 111.742C114.212 110.757 112.328 108.711 112.001 108.136C111.674 107.561 109.869 105.105 109.869 105.105L107.069 105.925Z" fill="white" stroke="#263238" stroke-width="0.510997" stroke-linejoin="round"/>
<path d="M108.227 102.891L109.867 105.105L106.753 106.824L105.279 105.022L108.227 102.891Z" fill="#ED2224" stroke="#263238" stroke-width="0.510997" stroke-linejoin="round"/>
<path d="M90.866 148.771C90.866 148.771 89.6365 151.474 89.144 152.215C88.6515 152.955 88.2416 153.279 87.422 153.444C86.6023 153.61 85.2109 153.772 85.2109 154.426C85.2205 154.832 85.3395 155.228 85.5553 155.573C85.5553 155.573 89.4057 156.393 90.7213 156.065C92.0369 155.738 93.3422 153.933 93.3422 153.933L94.1619 154.426L96.5382 152.132C96.3887 151.326 96.1083 150.55 95.7082 149.835C94.9712 148.361 94.5614 147.297 94.5614 147.297C94.5614 147.297 92.7498 148.771 90.866 148.771Z" fill="#616161" stroke="#263238" stroke-width="0.510997" stroke-linejoin="round"/>
<path d="M96.0116 150.512C95.1506 151.321 93.1599 153.267 92.6158 153.746C91.927 154.355 90.515 155.574 89.4336 155.574C88.6552 155.574 86.4821 155.261 85.3008 155.082C85.3536 155.252 85.4277 155.416 85.5212 155.568C85.5212 155.568 89.3716 156.387 90.6872 156.06C92.0028 155.733 93.308 153.928 93.308 153.928L94.1277 154.421L96.5041 152.127C96.4137 151.569 96.248 151.025 96.0116 150.512Z" stroke="#263238" stroke-width="0.510997" stroke-linejoin="round"/>
<path d="M84.4824 137.871C84.4824 137.871 86.0391 141.147 87.582 143.113C89.1249 145.08 90.8572 149.505 90.8572 149.505C90.8572 149.505 92.252 149.998 93.2336 149.257C93.8575 148.749 94.3146 148.065 94.5457 147.294C94.5457 147.294 92.5792 141.229 91.8422 138.608C91.1052 135.987 89.3006 130.25 88.4809 128.858C87.8599 127.834 87.1815 126.845 86.4489 125.896C86.4489 125.896 85.5466 131.304 85.1368 133.349C84.7269 135.395 84.4824 137.871 84.4824 137.871Z" fill="#263238" stroke="#263238" stroke-width="0.510997" stroke-linejoin="round"/>
<path d="M77.1794 100.184L77.262 105.425C77.262 105.425 75.8844 115.096 77.0175 120.011C78.1506 124.925 79.9655 130.343 79.9655 130.343C79.9655 130.343 79.0666 139.356 78.736 141.567C78.4054 143.778 77.014 147.959 77.014 147.959C77.014 147.959 79.3904 149.188 79.8002 149.188H80.6199C80.6199 149.188 83.0755 142.552 83.5679 141.567C84.0604 140.582 85.779 138.701 86.3541 134.603C86.9293 130.505 87.0946 126.241 87.0946 126.241C87.0946 126.241 91.1895 120.996 92.1745 119.353C93.1594 117.71 94.7127 114.352 94.7127 114.352C94.7127 114.352 96.5173 109.682 96.2694 105.177C96.0214 100.673 94.6335 98.3789 94.6335 98.3789C94.6335 98.3789 86.6021 100.263 82.8344 100.263C79.0667 100.263 77.1794 100.184 77.1794 100.184Z" fill="#263238" stroke="#263238" stroke-width="0.510997" stroke-linejoin="round"/>
<path d="M79.2771 70.7574C79.2771 70.7574 80.8683 72.3486 80.6272 72.903C80.3861 73.4575 76.2602 73.6986 75.3854 74.7318C74.5107 75.765 70.7774 88.8729 70.7774 88.8729C70.7774 88.8729 66.3278 87.5986 65.9317 87.2818C65.5357 86.9649 65.0569 87.2026 64.8193 88.1566C64.5817 89.1106 62.1984 91.2562 62.5153 91.8107C62.8321 92.3651 67.2025 94.5108 69.3481 95.0687C70.6545 95.405 71.9841 95.6433 73.3259 95.7816L73.0091 99.8352C73.0091 99.8352 77.0592 102.139 84.9253 101.106C92.7913 100.073 96.0562 98.4059 96.0562 98.4059L95.1057 90.223C95.1057 90.223 100.272 99.9144 101.143 101.588C102.014 103.262 103.127 105.721 104.081 106.038C105.035 106.355 108.451 104.13 108.53 103.179C108.61 102.229 105.672 97.6173 103.364 93.6463C101.057 89.6754 97.8815 78.472 97.4063 76.0819C96.931 73.6917 95.6567 71.7114 94.3067 71.3946C92.9566 71.0777 89.3026 71.0743 87.7115 70.7574C86.1203 70.4406 83.899 67.8197 82.8658 64.4824L79.2771 70.7574Z" fill="#ED2224" stroke="#263238" stroke-width="0.510997" stroke-miterlimit="10"/>
<path d="M76.4238 78.1569C76.8268 77.3027 77.1367 76.7207 77.1367 76.7207" stroke="#263238" stroke-width="0.510997" stroke-miterlimit="10"/>
<path d="M73.3242 95.7899C73.3242 95.7899 74.2782 85.5439 74.6743 83.0815C74.925 81.8635 75.3072 80.6764 75.8142 79.541" stroke="#263238" stroke-width="0.510997" stroke-miterlimit="10"/>
<path d="M92.4575 80.8309C92.3404 80.266 92.2302 79.7116 92.1406 79.1777" stroke="#263238" stroke-width="0.510997" stroke-miterlimit="10"/>
<path d="M95.0816 90.2288C95.0816 90.2288 93.7626 86.3199 92.8086 82.373" stroke="#263238" stroke-width="0.510997" stroke-miterlimit="10"/>
<path d="M78.4863 73.584C78.8686 74.4037 80.0947 76.0603 83.8107 75.9948C88.1949 75.9225 90.1235 72.8952 90.833 71.0527C89.7847 71.01 88.7395 70.9088 87.7024 70.7496C86.1148 70.4328 83.8899 67.8119 82.8567 64.4746L79.2716 70.7565C79.2716 70.7565 80.8627 72.3476 80.6216 72.9021C80.5114 73.1604 79.554 73.3533 78.4863 73.584Z" fill="white" stroke="#263238" stroke-width="0.510997" stroke-miterlimit="10"/>
<path d="M82.2475 66.7461L81.1661 67.4349L79.2754 70.748C79.7256 71.2004 80.1251 71.7004 80.467 72.2393C82.2476 70.1212 82.2475 66.7461 82.2475 66.7461Z" fill="#263238" stroke="#263238" stroke-width="0.510997" stroke-linejoin="round"/>
<path d="M70.0586 63.2136C70.0586 63.2136 71.5671 65.8345 71.9631 67.0262C72.5436 68.4864 73.6492 69.6768 75.0627 70.3634C76.492 70.9971 77.2083 71.555 78.4791 71.6342C80.301 71.7479 81.6545 69.1718 82.3708 67.1846C83.0872 65.1974 83.0872 64.8805 83.0872 64.8805C83.0872 64.8805 84.1961 63.2136 84.1961 61.4641C84.1961 59.7145 82.2124 57.7308 79.9876 56.6976C77.7628 55.6644 76.2543 54.1559 73.9503 56.2223C71.6463 58.2887 70.0586 63.2136 70.0586 63.2136Z" fill="white" stroke="#263238" stroke-width="0.510997" stroke-miterlimit="10"/>
<path d="M74.0293 65.752C74.198 66.2122 74.3046 66.6928 74.3461 67.1812C74.3461 67.7392 75.0625 67.9768 75.6962 66.7852" stroke="#263238" stroke-width="0.510997" stroke-miterlimit="10"/>
<path d="M75.8574 68.3828C75.8574 68.3828 77.8446 68.6997 78.2407 66.3164" stroke="#263238" stroke-width="0.510997" stroke-miterlimit="10"/>
<path d="M76.2669 62.9977C76.4528 63.3146 76.4597 63.6556 76.2669 63.7623C76.074 63.8691 75.7916 63.6934 75.6056 63.3766C75.4196 63.0597 75.4162 62.7153 75.6056 62.612C75.795 62.5087 76.0809 62.6809 76.2669 62.9977Z" fill="#263238"/>
<path d="M73.0525 64.5902C73.2385 64.907 73.2454 65.2514 73.0525 65.3548C72.8596 65.4581 72.5772 65.2859 72.3947 64.969C72.2122 64.6522 72.2018 64.3078 72.3947 64.2045C72.5876 64.1011 72.87 64.2665 73.0525 64.5902Z" fill="#263238"/>
<path d="M73.9863 61.9344C73.9863 61.9344 74.3307 60.6877 76.5659 60.853" stroke="#263238" stroke-width="0.510997" stroke-miterlimit="10"/>
<path d="M72.3223 63.1895C72.3223 63.1895 71.0756 63.1895 71.1582 64.1882" stroke="#263238" stroke-width="0.510997" stroke-miterlimit="10"/>
<path d="M75.7796 57.4929C75.7796 57.4929 74.7465 58.6845 73.5548 59.8761C72.3632 61.0677 70.3795 62.8173 70.3795 64.9595C70.3795 67.1017 70.4587 67.3427 70.4587 67.3427C70.4587 67.3427 67.0423 65.5966 66.0883 63.2099C65.1343 60.8232 67.2799 55.3438 69.9008 52.8779C72.5216 50.412 75.6212 49.9401 79.0377 50.1778C82.4541 50.4154 85.8705 53.8319 86.7453 57.2483C87.6201 60.6648 85.8705 64.3981 85.3126 65.0318C84.7547 65.6655 83.0086 65.7482 83.0086 65.7482C83.3813 64.54 83.4639 63.2609 83.2497 62.0148C82.8501 60.1861 81.7377 60.5856 81.5793 61.3777C81.4209 62.1698 81.3417 62.4901 81.3417 62.4901C81.3417 62.4901 79.754 61.3777 78.0837 60.1861C77.1011 59.4967 76.3086 58.5703 75.7796 57.4929Z" fill="#263238" stroke="#263238" stroke-width="0.510997" stroke-linejoin="round"/>
<path d="M60.6855 89.5929L62.8277 86.4141L63.8609 87.4473L60.6855 89.5929Z" fill="#ED2224" stroke="#263238" stroke-width="0.510997" stroke-linejoin="round"/>
<path d="M68.2582 84.8994L63.2679 84.92L58.5117 75.7589L63.5021 75.7383L68.2582 84.8994Z" fill="#263238" stroke="#263238" stroke-width="0.510997" stroke-linejoin="round"/>
<path d="M59.3398 80.2151C59.3398 80.2151 60.6107 81.4068 60.6899 81.9647C60.7691 82.5226 61.4028 84.6648 61.7231 85.698C62.0434 86.7312 63.2315 87.8436 63.2315 87.8436L64.2647 86.8104L63.8652 85.0609C64.2463 84.7232 64.644 84.4047 65.0569 84.1069C65.5356 83.79 66.0901 82.9152 65.7732 82.9152C65.5325 82.9225 65.2929 82.9502 65.0569 82.9979C65.0569 82.9979 65.7732 81.8855 65.2979 81.8063C64.9825 81.7549 64.6636 81.7273 64.344 81.7236C64.344 81.7236 65.1361 80.7731 64.5024 80.6904C63.8687 80.6077 61.6404 81.8028 61.6404 81.8028L60.6899 80.3701C60.4871 80.254 60.2629 80.1805 60.0308 80.1538C59.7987 80.1272 59.5636 80.148 59.3398 80.2151Z" fill="white" stroke="#263238" stroke-width="0.510997" stroke-linejoin="round"/>
<path d="M59.5986 79.6913C59.5305 79.7501 59.4803 79.8268 59.4535 79.9126C59.4267 79.9985 59.4245 80.0901 59.4471 80.1772C59.4696 80.2642 59.5161 80.3432 59.5812 80.4053C59.6463 80.4673 59.7275 80.5099 59.8155 80.5282C59.9618 80.5797 60.1189 80.5925 60.2716 80.5654C60.4243 80.5382 60.5673 80.472 60.6869 80.3732C61.0829 79.898 62.6706 78.6271 62.6706 77.99C62.6706 77.3528 61.9577 78.0692 61.6374 78.2311C60.9212 78.6645 60.2395 79.1527 59.5986 79.6913Z" fill="white" stroke="#263238" stroke-width="0.510997" stroke-linejoin="round"/>
<path d="M64.3413 81.7266C64.3413 81.7266 61.9581 82.9182 61.5586 83.3969" stroke="#263238" stroke-width="0.510997" stroke-linejoin="round"/>
<path d="M65.0592 83C65.0592 83 63.1547 83.8713 62.5176 84.5877" stroke="#263238" stroke-width="0.510997" stroke-linejoin="round"/>
<path d="M65.2109 87.204L64.102 86.25L60.6855 89.5872L62.9896 91.3368C62.9896 91.3368 65.1317 89.2704 65.2109 87.204Z" fill="#ED2224" stroke="#263238" stroke-width="0.510997" stroke-linejoin="round"/>
<path d="M87.1775 105.676C87.1775 105.676 83.489 114.358 82.6693 117.978C81.8496 121.597 80.293 128.465 80.293 128.875" stroke="#757575" stroke-width="0.510997" stroke-linejoin="round"/>
<path d="M81.8496 108.137L83.9814 110.592" stroke="#757575" stroke-width="0.510997" stroke-linejoin="round"/>
<path d="M77.0236 147.705C77.0236 147.705 76.5311 148.769 74.1548 149.258C71.7784 149.747 69.5674 148.852 69.1576 148.931C68.7477 149.01 68.3379 149.751 68.3379 150.409C68.3379 151.066 71.2067 152.864 72.3536 153.439C73.2673 153.828 74.2345 154.077 75.2224 154.176H75.6288L75.5496 154.996C76.2155 155.261 76.8991 155.48 77.5953 155.65C78.221 155.743 78.8569 155.743 79.4826 155.65C79.7316 154.603 79.8689 153.531 79.8925 152.454C79.9481 151.328 80.1974 150.22 80.6295 149.179L77.0236 147.705Z" fill="#616161" stroke="#263238" stroke-width="0.510997" stroke-linejoin="round"/>
<path d="M79.7306 154.368C78.1154 154.158 75.1363 153.679 73.3282 152.99C71.4134 152.267 69.2678 150.793 68.3586 150.139C68.3448 150.224 68.3379 150.31 68.3379 150.397C68.3379 151.051 71.2067 152.853 72.3536 153.428C73.2673 153.816 74.2345 154.065 75.2224 154.165H75.6288L75.5496 154.984C76.2155 155.25 76.8991 155.468 77.5953 155.639C78.221 155.731 78.8569 155.731 79.4826 155.639C79.4826 155.639 79.6135 155.115 79.7306 154.368Z" stroke="#263238" stroke-width="0.510997" stroke-linejoin="round"/>
</svg>
