<svg width="90" height="18" viewBox="0 0 90 18" fill="none" xmlns="http://www.w3.org/2000/svg">
<path d="M8.04894 2.92705C8.3483 2.00574 9.6517 2.00574 9.95106 2.92705L10.7961 5.52786C10.93 5.93989 11.3139 6.21885 11.7472 6.21885H14.4818C15.4505 6.21885 15.8533 7.45846 15.0696 8.02786L12.8572 9.63525C12.5067 9.8899 12.3601 10.3413 12.494 10.7533L13.339 13.3541C13.6384 14.2754 12.5839 15.0415 11.8002 14.4721L9.58779 12.8647C9.2373 12.6101 8.7627 12.6101 8.41222 12.8647L6.19983 14.4721C5.41612 15.0415 4.36164 14.2754 4.66099 13.3541L5.50604 10.7533C5.63992 10.3413 5.49326 9.8899 5.14277 9.63525L2.93039 8.02787C2.14668 7.45846 2.54945 6.21885 3.51818 6.21885H6.25283C6.68606 6.21885 7.07001 5.93989 7.20389 5.52786L8.04894 2.92705Z" fill="#FFA500"/>
<path d="M26.0489 2.92705C26.3483 2.00574 27.6517 2.00574 27.9511 2.92705L28.7961 5.52786C28.93 5.93989 29.3139 6.21885 29.7472 6.21885H32.4818C33.4505 6.21885 33.8533 7.45846 33.0696 8.02786L30.8572 9.63525C30.5067 9.8899 30.3601 10.3413 30.494 10.7533L31.339 13.3541C31.6384 14.2754 30.5839 15.0415 29.8002 14.4721L27.5878 12.8647C27.2373 12.6101 26.7627 12.6101 26.4122 12.8647L24.1998 14.4721C23.4161 15.0415 22.3616 14.2754 22.661 13.3541L23.506 10.7533C23.6399 10.3413 23.4933 9.8899 23.1428 9.63525L20.9304 8.02787C20.1467 7.45846 20.5495 6.21885 21.5182 6.21885H24.2528C24.6861 6.21885 25.07 5.93989 25.2039 5.52786L26.0489 2.92705Z" fill="#FFA500"/>
<path d="M44.0489 2.92705C44.3483 2.00574 45.6517 2.00574 45.9511 2.92705L46.7961 5.52786C46.93 5.93989 47.3139 6.21885 47.7472 6.21885H50.4818C51.4505 6.21885 51.8533 7.45846 51.0696 8.02786L48.8572 9.63525C48.5067 9.8899 48.3601 10.3413 48.494 10.7533L49.339 13.3541C49.6384 14.2754 48.5839 15.0415 47.8002 14.4721L45.5878 12.8647C45.2373 12.6101 44.7627 12.6101 44.4122 12.8647L42.1998 14.4721C41.4161 15.0415 40.3616 14.2754 40.661 13.3541L41.506 10.7533C41.6399 10.3413 41.4933 9.8899 41.1428 9.63525L38.9304 8.02787C38.1467 7.45846 38.5495 6.21885 39.5182 6.21885H42.2528C42.6861 6.21885 43.07 5.93989 43.2039 5.52786L44.0489 2.92705Z" fill="#FFA500"/>
<path d="M62.0489 2.92705C62.3483 2.00574 63.6517 2.00574 63.9511 2.92705L64.7961 5.52786C64.93 5.93989 65.3139 6.21885 65.7472 6.21885H68.4818C69.4505 6.21885 69.8533 7.45846 69.0696 8.02786L66.8572 9.63525C66.5067 9.8899 66.3601 10.3413 66.494 10.7533L67.339 13.3541C67.6384 14.2754 66.5839 15.0415 65.8002 14.4721L63.5878 12.8647C63.2373 12.6101 62.7627 12.6101 62.4122 12.8647L60.1998 14.4721C59.4161 15.0415 58.3616 14.2754 58.661 13.3541L59.506 10.7533C59.6399 10.3413 59.4933 9.8899 59.1428 9.63525L56.9304 8.02787C56.1467 7.45846 56.5495 6.21885 57.5182 6.21885H60.2528C60.6861 6.21885 61.07 5.93989 61.2039 5.52786L62.0489 2.92705Z" fill="#FFA500"/>
<path d="M80.0489 2.92705C80.3483 2.00574 81.6517 2.00574 81.9511 2.92705L82.7961 5.52786C82.93 5.93989 83.3139 6.21885 83.7472 6.21885H86.4818C87.4505 6.21885 87.8533 7.45846 87.0696 8.02786L84.8572 9.63525C84.5067 9.8899 84.3601 10.3413 84.494 10.7533L85.339 13.3541C85.6384 14.2754 84.5839 15.0415 83.8002 14.4721L81.5878 12.8647C81.2373 12.6101 80.7627 12.6101 80.4122 12.8647L78.1998 14.4721C77.4161 15.0415 76.3616 14.2754 76.661 13.3541L77.506 10.7533C77.6399 10.3413 77.4933 9.8899 77.1428 9.63525L74.9304 8.02787C74.1467 7.45846 74.5495 6.21885 75.5182 6.21885H78.2528C78.6861 6.21885 79.07 5.93989 79.2039 5.52786L80.0489 2.92705Z" fill="#FFA500"/>
</svg>
