<svg width="16" height="13" viewBox="0 0 16 13" fill="none" xmlns="http://www.w3.org/2000/svg">
<path d="M4.77347 0.646446C4.57821 0.451184 4.26163 0.451184 4.06637 0.646446L0.884388 3.82843C0.689125 4.02369 0.689125 4.34027 0.884388 4.53553C1.07965 4.7308 1.39623 4.7308 1.59149 4.53553L4.41992 1.70711L7.24835 4.53553C7.44361 4.7308 7.76019 4.7308 7.95546 4.53553C8.15072 4.34027 8.15072 4.02369 7.95546 3.82843L4.77347 0.646446ZM4.91992 12L4.91992 1L3.91992 1L3.91992 12L4.91992 12Z" fill="black"/>
<path d="M11.0664 12.3536C11.2616 12.5488 11.5782 12.5488 11.7735 12.3536L14.9555 9.17157C15.1507 8.97631 15.1507 8.65973 14.9555 8.46447C14.7602 8.2692 14.4436 8.2692 14.2483 8.46447L11.4199 11.2929L8.59149 8.46447C8.39623 8.2692 8.07965 8.2692 7.88439 8.46447C7.68913 8.65973 7.68913 8.97631 7.88439 9.17157L11.0664 12.3536ZM10.9199 1L10.9199 12L11.9199 12L11.9199 1L10.9199 1Z" fill="black"/>
</svg>
