<svg width="21" height="24" viewBox="0 0 21 24" fill="none" xmlns="http://www.w3.org/2000/svg">
<path d="M21 24C21 24 17.4645 22.6087 14.6047 21.495H2.57775C1.155 21.495 0 20.2695 0 18.7598V2.733C0 1.22475 1.155 0 2.57775 0H18.4215C19.845 0 20.9993 1.224 20.9993 2.73375V16.5368L21 24ZM17.8958 15.0135C17.8396 14.9414 17.7691 14.8818 17.6886 14.8383C17.6082 14.7949 17.5196 14.7687 17.4285 14.7613C17.3375 14.7539 17.2458 14.7655 17.1594 14.7953C17.0731 14.8252 16.9938 14.8727 16.9268 14.9347C16.9043 14.9543 14.6655 16.9455 10.4992 16.9455C6.38475 16.9455 4.1115 14.9685 4.071 14.9325C4.00386 14.8707 3.92464 14.8236 3.83835 14.794C3.75206 14.7644 3.66057 14.753 3.56966 14.7605C3.47875 14.7681 3.39038 14.7944 3.31015 14.8378C3.22992 14.8812 3.15955 14.9408 3.1035 15.0128C2.98344 15.1625 2.92474 15.3523 2.93925 15.5438C2.95193 15.7342 3.03731 15.9125 3.17775 16.0417C3.28425 16.1378 5.8305 18.4042 10.4992 18.4042C15.1687 18.4042 17.715 16.1378 17.8215 16.0417C17.9617 15.9124 18.0468 15.7341 18.0592 15.5438C18.0738 15.3527 18.0154 15.1632 17.8958 15.0135Z" fill="white"/>
</svg>
