<svg width="17" height="17" viewBox="0 0 17 17" fill="none" xmlns="http://www.w3.org/2000/svg">
<path d="M16.8456 8.72756C16.8456 4.24459 13.2114 0.61042 8.72847 0.61042C4.24549 0.61042 0.611328 4.24459 0.611328 8.72756C0.611328 12.7791 3.57965 16.1371 7.46017 16.7461V11.0739H5.39917V8.72756H7.46017V6.93925C7.46017 4.90489 8.672 3.78118 10.5261 3.78118C11.4142 3.78118 12.3431 3.93972 12.3431 3.93972V5.93729H11.3196C10.3112 5.93729 9.99677 6.56299 9.99677 7.20492V8.72756H12.248L11.8881 11.0739H9.99677V16.7461C13.8773 16.1371 16.8456 12.7791 16.8456 8.72756Z" fill="#1877F2"/>
<path d="M11.8874 11.0749L12.2473 8.72856H9.99604V7.20591C9.99604 6.56399 10.3105 5.93829 11.3188 5.93829H12.3424V3.94071C12.3424 3.94071 11.4135 3.78218 10.5254 3.78218C8.67126 3.78218 7.45943 4.90589 7.45943 6.94025V8.72856H5.39844V11.0749H7.45943V16.7471C7.87269 16.8119 8.29626 16.8457 8.72774 16.8457C9.15921 16.8457 9.58278 16.8119 9.99604 16.7471V11.0749H11.8874Z" fill="white"/>
</svg>
