<svg width="17" height="17" viewBox="0 0 17 17" fill="none" xmlns="http://www.w3.org/2000/svg">
<path d="M16.5432 8.81854C16.5432 8.24296 16.4905 7.68951 16.3926 7.1582H8.5918V10.2981H13.0494C12.8574 11.3127 12.2739 12.1724 11.3966 12.748V14.7847H14.0735C15.6397 13.3716 16.5432 11.2906 16.5432 8.81854Z" fill="#4285F4"/>
<path d="M8.59122 16.7458C10.8276 16.7458 12.7025 16.019 14.0729 14.7793L11.3961 12.7426C10.6544 13.2296 9.70563 13.5174 8.59122 13.5174C6.43394 13.5174 4.60797 12.0895 3.95665 10.1709H1.18945V12.274C2.55234 14.9268 5.35342 16.7458 8.59122 16.7458Z" fill="#34A853"/>
<path d="M3.95677 10.1759C3.79112 9.68888 3.69699 9.16864 3.69699 8.63365C3.69699 8.09865 3.79112 7.57841 3.95677 7.09138V4.98828H1.18958C0.609785 6.11942 0.308083 7.36781 0.308594 8.63365C0.308594 9.94347 0.62861 11.1832 1.18958 12.279L3.95677 10.1759Z" fill="#FBBC05"/>
<path d="M8.59122 3.74406C9.80728 3.74406 10.8991 4.15361 11.7575 4.95795L14.1331 2.62979C12.6987 1.31997 10.8238 0.515625 8.59122 0.515625C5.35342 0.515625 2.55234 2.33462 1.18945 4.98747L3.95665 7.09056C4.60797 5.17195 6.43394 3.74406 8.59122 3.74406Z" fill="#EA4335"/>
</svg>
