<svg width="14" height="14" viewBox="0 0 14 14" fill="none" xmlns="http://www.w3.org/2000/svg">
<g clip-path="url(#clip0_1638_68943)">
<path d="M12.211 0H1.78896C0.802512 0 0 0.802539 0 1.78899V12.211C0 13.1975 0.802512 14 1.78896 14H12.211C13.1975 14 14 13.1975 14 12.211V1.78899C14 0.802539 13.1975 0 12.211 0ZM13.1754 12.211C13.1754 12.7428 12.7428 13.1754 12.211 13.1754H1.78896C1.25721 13.1754 0.824605 12.7428 0.824605 12.211V10.7069L3.53861 8.39773C3.63765 8.31346 3.78213 8.31266 3.8821 8.39568L5.58217 9.80738C5.7461 9.94347 5.98672 9.93232 6.13736 9.78152L10.1768 5.7359C10.2498 5.66275 10.335 5.65564 10.3794 5.65791C10.4237 5.66018 10.5078 5.67599 10.5729 5.75624L13.1754 8.96066V12.211ZM13.1754 7.65256L11.213 5.2363C11.0184 4.99666 10.73 4.85015 10.4216 4.83432C10.1135 4.81873 9.8114 4.93473 9.59328 5.1532L5.81962 8.93268L4.40896 7.7613C3.99993 7.42164 3.40919 7.42517 3.00423 7.76973L0.824605 9.62423V1.78899C0.824605 1.25724 1.25721 0.824633 1.78896 0.824633H12.211C12.7428 0.824633 13.1754 1.25724 13.1754 1.78899V7.65256Z" fill="black"/>
<path d="M4.40621 1.72266C3.30986 1.72266 2.41797 2.61461 2.41797 3.7109C2.41797 4.80723 3.30989 5.69915 4.40621 5.69915C5.50253 5.69915 6.39446 4.80723 6.39446 3.7109C6.39446 2.61458 5.50256 1.72266 4.40621 1.72266ZM4.40621 4.87455C3.76456 4.87455 3.24257 4.35253 3.24257 3.7109C3.24257 3.06926 3.76456 2.54726 4.40621 2.54726C5.04786 2.54726 5.56985 3.06928 5.56985 3.7109C5.56985 4.35253 5.04786 4.87455 4.40621 4.87455Z" fill="black"/>
</g>
<defs>
<clipPath id="clip0_1638_68943">
<rect width="14" height="14" fill="white"/>
</clipPath>
</defs>
</svg>
