<svg width="80" height="17" viewBox="0 0 80 17" fill="none" xmlns="http://www.w3.org/2000/svg">
<path d="M7.04894 3.42705C7.3483 2.50574 8.6517 2.50574 8.95106 3.42705L9.5716 5.33688C9.70547 5.7489 10.0894 6.02786 10.5227 6.02786H12.5308C13.4995 6.02786 13.9023 7.26748 13.1186 7.83688L11.494 9.01722C11.1435 9.27187 10.9968 9.72323 11.1307 10.1353L11.7512 12.0451C12.0506 12.9664 10.9961 13.7325 10.2124 13.1631L8.58778 11.9828C8.2373 11.7281 7.7627 11.7281 7.41221 11.9828L5.78761 13.1631C5.0039 13.7325 3.94942 12.9664 4.24878 12.0451L4.86932 10.1353C5.00319 9.72323 4.85653 9.27186 4.50604 9.01722L2.88144 7.83688C2.09773 7.26748 2.50051 6.02786 3.46923 6.02786H5.47735C5.91057 6.02786 6.29453 5.7489 6.4284 5.33688L7.04894 3.42705Z" fill="#D9D9D9"/>
<path d="M23.0489 3.42705C23.3483 2.50574 24.6517 2.50574 24.9511 3.42705L25.5716 5.33688C25.7055 5.7489 26.0894 6.02786 26.5227 6.02786H28.5308C29.4995 6.02786 29.9023 7.26748 29.1186 7.83688L27.494 9.01722C27.1435 9.27187 26.9968 9.72323 27.1307 10.1353L27.7512 12.0451C28.0506 12.9664 26.9961 13.7325 26.2124 13.1631L24.5878 11.9828C24.2373 11.7281 23.7627 11.7281 23.4122 11.9828L21.7876 13.1631C21.0039 13.7325 19.9494 12.9664 20.2488 12.0451L20.8693 10.1353C21.0032 9.72323 20.8565 9.27186 20.506 9.01722L18.8814 7.83688C18.0977 7.26748 18.5005 6.02786 19.4692 6.02786H21.4773C21.9106 6.02786 22.2945 5.7489 22.4284 5.33688L23.0489 3.42705Z" fill="#D9D9D9"/>
<path d="M39.0489 3.42705C39.3483 2.50574 40.6517 2.50574 40.9511 3.42705L41.5716 5.33688C41.7055 5.7489 42.0894 6.02786 42.5227 6.02786H44.5308C45.4995 6.02786 45.9023 7.26748 45.1186 7.83688L43.494 9.01722C43.1435 9.27187 42.9968 9.72323 43.1307 10.1353L43.7512 12.0451C44.0506 12.9664 42.9961 13.7325 42.2124 13.1631L40.5878 11.9828C40.2373 11.7281 39.7627 11.7281 39.4122 11.9828L37.7876 13.1631C37.0039 13.7325 35.9494 12.9664 36.2488 12.0451L36.8693 10.1353C37.0032 9.72323 36.8565 9.27186 36.506 9.01722L34.8814 7.83688C34.0977 7.26748 34.5005 6.02786 35.4692 6.02786H37.4773C37.9106 6.02786 38.2945 5.7489 38.4284 5.33688L39.0489 3.42705Z" fill="#D9D9D9"/>
<path d="M55.0489 3.42705C55.3483 2.50574 56.6517 2.50574 56.9511 3.42705L57.5716 5.33688C57.7055 5.7489 58.0894 6.02786 58.5227 6.02786H60.5308C61.4995 6.02786 61.9023 7.26748 61.1186 7.83688L59.494 9.01722C59.1435 9.27187 58.9968 9.72323 59.1307 10.1353L59.7512 12.0451C60.0506 12.9664 58.9961 13.7325 58.2124 13.1631L56.5878 11.9828C56.2373 11.7281 55.7627 11.7281 55.4122 11.9828L53.7876 13.1631C53.0039 13.7325 51.9494 12.9664 52.2488 12.0451L52.8693 10.1353C53.0032 9.72323 52.8565 9.27186 52.506 9.01722L50.8814 7.83688C50.0977 7.26748 50.5005 6.02786 51.4692 6.02786H53.4773C53.9106 6.02786 54.2945 5.7489 54.4284 5.33688L55.0489 3.42705Z" fill="#D9D9D9"/>
<path d="M71.0489 3.42705C71.3483 2.50574 72.6517 2.50574 72.9511 3.42705L73.5716 5.33688C73.7055 5.7489 74.0894 6.02786 74.5227 6.02786H76.5308C77.4995 6.02786 77.9023 7.26748 77.1186 7.83688L75.494 9.01722C75.1435 9.27187 74.9968 9.72323 75.1307 10.1353L75.7512 12.0451C76.0506 12.9664 74.9961 13.7325 74.2124 13.1631L72.5878 11.9828C72.2373 11.7281 71.7627 11.7281 71.4122 11.9828L69.7876 13.1631C69.0039 13.7325 67.9494 12.9664 68.2488 12.0451L68.8693 10.1353C69.0032 9.72323 68.8565 9.27186 68.506 9.01722L66.8814 7.83688C66.0977 7.26748 66.5005 6.02786 67.4692 6.02786H69.4773C69.9106 6.02786 70.2945 5.7489 70.4284 5.33688L71.0489 3.42705Z" fill="#D9D9D9"/>
</svg>
