<svg width="18" height="17" viewBox="0 0 18 17" fill="none" xmlns="http://www.w3.org/2000/svg">
<path d="M8.26518 1.00336C8.47421 0.360033 9.38435 0.360033 9.59338 1.00336L11.139 5.76036C11.2325 6.04807 11.5006 6.24286 11.8031 6.24286H16.8049C17.4814 6.24286 17.7626 7.10845 17.2154 7.50605L13.1688 10.446C12.9241 10.6238 12.8217 10.939 12.9152 11.2267L14.4608 15.9837C14.6698 16.6271 13.9335 17.162 13.3863 16.7644L9.33972 13.8244C9.09498 13.6466 8.76358 13.6466 8.51885 13.8244L4.4723 16.7644C3.92506 17.162 3.18874 16.6271 3.39777 15.9837L4.94341 11.2267C5.03689 10.939 4.93448 10.6238 4.68975 10.446L0.643202 7.50605C0.0959532 7.10845 0.377202 6.24286 1.05364 6.24286H6.05544C6.35795 6.24286 6.62606 6.04806 6.71954 5.76036L8.26518 1.00336Z" fill="#ED2224"/>
</svg>
