<svg width="12" height="10" viewBox="0 0 12 10" fill="none" xmlns="http://www.w3.org/2000/svg">
<path d="M0.3 0H3.0375L5.55 3.4233C5.675 3.59375 5.75 3.81155 5.775 4.0767C5.775 4.20928 5.85 4.27557 6 4.27557C6.15 4.27557 6.225 4.20928 6.225 4.0767C6.25 3.81155 6.325 3.59375 6.45 3.4233L8.9625 0H11.7L7.85625 4.84375L12 10H9.225L6.45 6.30682C6.325 6.12689 6.25 5.91383 6.225 5.66761C6.225 5.53504 6.15 5.46875 6 5.46875C5.85 5.46875 5.775 5.53504 5.775 5.66761C5.75 5.91383 5.675 6.12689 5.55 6.30682L2.775 10H0L4.14375 4.84375L0.3 0Z" fill="#ED2224"/>
</svg>
