<svg width="15" height="15" viewBox="0 0 15 15" fill="none" xmlns="http://www.w3.org/2000/svg">
<path fill-rule="evenodd" clip-rule="evenodd" d="M4.29887 0C4.69457 0 5.01535 0.309954 5.01535 0.692302V1.3846H9.31422V0.692302C9.31422 0.309954 9.635 0 10.0307 0C10.4264 0 10.7472 0.309954 10.7472 0.692302V1.3846H11.4637C13.0465 1.3846 14.3296 2.62442 14.3296 4.15381V11.7691C14.3296 13.2985 13.0465 14.5383 11.4637 14.5383H2.86591C1.28311 14.5383 0 13.2985 0 11.7691V4.15381C0 2.62442 1.28311 1.3846 2.86591 1.3846H3.58239V0.692302C3.58239 0.309954 3.90317 0 4.29887 0ZM9.31422 2.76921C9.31422 3.15156 9.635 3.46151 10.0307 3.46151C10.4264 3.46151 10.7472 3.15156 10.7472 2.76921H11.4637C12.2551 2.76921 12.8966 3.38912 12.8966 4.15381V4.49996H1.43296V4.15381C1.43296 3.38912 2.07451 2.76921 2.86591 2.76921H3.58239C3.58239 3.15156 3.90317 3.46151 4.29887 3.46151C4.69457 3.46151 5.01535 3.15156 5.01535 2.76921H9.31422ZM12.8966 5.88457H1.43296V11.7691C1.43296 12.5338 2.07451 13.1537 2.86591 13.1537H11.4637C12.2551 13.1537 12.8966 12.5338 12.8966 11.7691V5.88457Z" fill="black"/>
</svg>
