<svg width="15" height="15" viewBox="0 0 15 15" fill="none" xmlns="http://www.w3.org/2000/svg">
<path d="M6.19487 14.5384V12.505H3.90429V10.7535H6.19487V9.48513C5.53452 9.35092 4.93608 9.08248 4.39955 8.67983C3.87677 8.26376 3.45717 7.76045 3.14076 7.1699C2.8381 6.56592 2.68677 5.91497 2.68677 5.21704C2.68677 4.43859 2.89313 3.72724 3.30584 3.083C3.71856 2.42534 4.26197 1.90189 4.93608 1.51267C5.62394 1.11002 6.36684 0.908691 7.16476 0.908691C7.97644 0.908691 8.71933 1.11002 9.39344 1.51267C10.0813 1.90189 10.6247 2.42534 11.0237 3.083C11.4364 3.72724 11.6427 4.43859 11.6427 5.21704C11.6427 5.90155 11.4914 6.54579 11.1888 7.14976C10.8861 7.74032 10.4734 8.24363 9.95061 8.6597C9.42783 9.07577 8.82251 9.35092 8.13465 9.48513V10.7535H10.2808V12.505H8.13465V14.5384H6.19487ZM7.16476 7.794C7.64626 7.794 8.08649 7.67992 8.48546 7.45175C8.88442 7.21016 9.20083 6.89475 9.43471 6.50552C9.66858 6.1163 9.78552 5.6868 9.78552 5.21704C9.78552 4.76071 9.66858 4.34464 9.43471 3.96883C9.20083 3.59302 8.88442 3.29775 8.48546 3.083C8.08649 2.85483 7.64626 2.74075 7.16476 2.74075C6.69701 2.74075 6.26366 2.85483 5.8647 3.083C5.46574 3.29775 5.14244 3.59302 4.89481 3.96883C4.66094 4.34464 4.544 4.76071 4.544 5.21704C4.544 5.6868 4.66094 6.1163 4.89481 6.50552C5.14244 6.89475 5.46574 7.21016 5.8647 7.45175C6.26366 7.67992 6.69701 7.794 7.16476 7.794Z" fill="black"/>
</svg>
