<svg width="108" height="107" viewBox="0 0 108 107" fill="none" xmlns="http://www.w3.org/2000/svg">
<path d="M15.6447 61.6557L15.5299 62.4062L16.0668 62.943L56.6845 103.561L57.7452 104.621L58.8058 103.561L104.061 58.3059L105.121 57.2452L104.061 56.1846L62.9429 15.0668L62.3964 14.5203L61.6341 14.6481L22.8793 21.1481L21.8087 21.3277L21.6447 22.4008L15.6447 61.6557Z" fill="white" stroke="#ED2224" stroke-width="3"/>
<path d="M44.3783 28.6967C45.625 28.6967 46.6272 29.0817 47.385 29.8517C48.155 30.6094 48.54 31.6728 48.54 33.0417V39H45.9733V33.39C45.9733 32.5956 45.7717 31.9906 45.3683 31.575C44.965 31.1472 44.415 30.9333 43.7183 30.9333C43.0217 30.9333 42.4656 31.1472 42.05 31.575C41.6467 31.9906 41.445 32.5956 41.445 33.39V39H38.8783V33.39C38.8783 32.5956 38.6767 31.9906 38.2733 31.575C37.87 31.1472 37.32 30.9333 36.6233 30.9333C35.9144 30.9333 35.3522 31.1472 34.9367 31.575C34.5333 31.9906 34.3317 32.5956 34.3317 33.39V39H31.765V28.8433H34.3317V30.0717C34.6617 29.6439 35.0833 29.3078 35.5967 29.0633C36.1222 28.8189 36.6967 28.6967 37.32 28.6967C38.1144 28.6967 38.8233 28.8678 39.4467 29.21C40.07 29.54 40.5528 30.0167 40.895 30.64C41.225 30.0533 41.7017 29.5828 42.325 29.2283C42.9606 28.8739 43.645 28.6967 44.3783 28.6967ZM60.6923 28.8433L54.4039 43.8033H51.6723L53.8723 38.7433L49.8023 28.8433H52.6806L55.3023 35.9383L57.9606 28.8433H60.6923ZM37.485 44.6967C38.255 44.6967 38.9394 44.8678 39.5383 45.21C40.1372 45.54 40.6017 46.035 40.9317 46.695C41.2739 47.3428 41.445 48.125 41.445 49.0417V55H38.8783V49.39C38.8783 48.5833 38.6767 47.9661 38.2733 47.5383C37.87 47.0983 37.32 46.8783 36.6233 46.8783C35.9144 46.8783 35.3522 47.0983 34.9367 47.5383C34.5333 47.9661 34.3317 48.5833 34.3317 49.39V55H31.765V41.4333H34.3317V46.1083C34.6617 45.6683 35.1017 45.3261 35.6517 45.0817C36.2017 44.825 36.8128 44.6967 37.485 44.6967ZM48.3958 55.165C47.418 55.165 46.538 54.9511 45.7558 54.5233C44.9735 54.0833 44.3563 53.4661 43.9041 52.6717C43.4641 51.8772 43.2441 50.9606 43.2441 49.9217C43.2441 48.8828 43.4702 47.9661 43.9224 47.1717C44.3869 46.3772 45.0163 45.7661 45.8108 45.3383C46.6052 44.8983 47.4913 44.6783 48.4691 44.6783C49.4469 44.6783 50.333 44.8983 51.1274 45.3383C51.9219 45.7661 52.5452 46.3772 52.9974 47.1717C53.4619 47.9661 53.6941 48.8828 53.6941 49.9217C53.6941 50.9606 53.4558 51.8772 52.9791 52.6717C52.5147 53.4661 51.8791 54.0833 51.0724 54.5233C50.278 54.9511 49.3858 55.165 48.3958 55.165ZM48.3958 52.9283C48.8602 52.9283 49.2941 52.8183 49.6974 52.5983C50.113 52.3661 50.443 52.0239 50.6874 51.5717C50.9319 51.1194 51.0541 50.5694 51.0541 49.9217C51.0541 48.9561 50.7974 48.2167 50.2841 47.7033C49.783 47.1778 49.1658 46.915 48.4324 46.915C47.6991 46.915 47.0819 47.1778 46.5808 47.7033C46.0919 48.2167 45.8474 48.9561 45.8474 49.9217C45.8474 50.8872 46.0858 51.6328 46.5624 52.1583C47.0513 52.6717 47.6624 52.9283 48.3958 52.9283ZM68.1902 44.6967C69.4368 44.6967 70.4391 45.0817 71.1968 45.8517C71.9668 46.6094 72.3518 47.6728 72.3518 49.0417V55H69.7852V49.39C69.7852 48.5956 69.5835 47.9906 69.1802 47.575C68.7768 47.1472 68.2268 46.9333 67.5302 46.9333C66.8335 46.9333 66.2774 47.1472 65.8618 47.575C65.4585 47.9906 65.2568 48.5956 65.2568 49.39V55H62.6902V49.39C62.6902 48.5956 62.4885 47.9906 62.0852 47.575C61.6818 47.1472 61.1318 46.9333 60.4352 46.9333C59.7263 46.9333 59.1641 47.1472 58.7485 47.575C58.3452 47.9906 58.1435 48.5956 58.1435 49.39V55H55.5768V44.8433H58.1435V46.0717C58.4735 45.6439 58.8952 45.3078 59.4085 45.0633C59.9341 44.8189 60.5085 44.6967 61.1318 44.6967C61.9263 44.6967 62.6352 44.8678 63.2585 45.21C63.8818 45.54 64.3646 46.0167 64.7068 46.64C65.0368 46.0533 65.5135 45.5828 66.1368 45.2283C66.7724 44.8739 67.4568 44.6967 68.1902 44.6967ZM84.2291 49.7017C84.2291 50.0683 84.2047 50.3983 84.1558 50.6917H76.7308C76.7919 51.425 77.0486 51.9994 77.5008 52.415C77.953 52.8306 78.5091 53.0383 79.1691 53.0383C80.1225 53.0383 80.8008 52.6289 81.2041 51.81H83.9725C83.6791 52.7878 83.1169 53.5944 82.2858 54.23C81.4547 54.8533 80.4341 55.165 79.2241 55.165C78.2463 55.165 77.3663 54.9511 76.5841 54.5233C75.8141 54.0833 75.2091 53.4661 74.7691 52.6717C74.3413 51.8772 74.1275 50.9606 74.1275 49.9217C74.1275 48.8706 74.3413 47.9478 74.7691 47.1533C75.1969 46.3589 75.7958 45.7478 76.5658 45.32C77.3358 44.8922 78.2219 44.6783 79.2241 44.6783C80.1897 44.6783 81.0513 44.8861 81.8091 45.3017C82.5791 45.7172 83.1719 46.31 83.5875 47.08C84.0152 47.8378 84.2291 48.7117 84.2291 49.7017ZM81.5708 48.9683C81.5586 48.3083 81.3202 47.7828 80.8558 47.3917C80.3913 46.9883 79.823 46.7867 79.1508 46.7867C78.5152 46.7867 77.9775 46.9822 77.5375 47.3733C77.1097 47.7522 76.8469 48.2839 76.7491 48.9683H81.5708ZM41.2067 65.7017C41.2067 66.0683 41.1822 66.3983 41.1333 66.6917H33.7083C33.7694 67.425 34.0261 67.9994 34.4783 68.415C34.9306 68.8306 35.4867 69.0383 36.1467 69.0383C37.1 69.0383 37.7783 68.6289 38.1817 67.81H40.95C40.6567 68.7878 40.0944 69.5944 39.2633 70.23C38.4322 70.8533 37.4117 71.165 36.2017 71.165C35.2239 71.165 34.3439 70.9511 33.5617 70.5233C32.7917 70.0833 32.1867 69.4661 31.7467 68.6717C31.3189 67.8772 31.105 66.9606 31.105 65.9217C31.105 64.8706 31.3189 63.9478 31.7467 63.1533C32.1744 62.3589 32.7733 61.7478 33.5433 61.32C34.3133 60.8922 35.1994 60.6783 36.2017 60.6783C37.1672 60.6783 38.0289 60.8861 38.7867 61.3017C39.5567 61.7172 40.1494 62.31 40.565 63.08C40.9928 63.8378 41.2067 64.7117 41.2067 65.7017ZM38.5483 64.9683C38.5361 64.3083 38.2978 63.7828 37.8333 63.3917C37.3689 62.9883 36.8006 62.7867 36.1283 62.7867C35.4928 62.7867 34.955 62.9822 34.515 63.3733C34.0872 63.7522 33.8244 64.2839 33.7267 64.9683H38.5483ZM46.0684 62.9517V67.865C46.0684 68.2072 46.1479 68.4578 46.3068 68.6167C46.4779 68.7633 46.759 68.8367 47.1501 68.8367H48.3418V71H46.7284C44.5651 71 43.4834 69.9489 43.4834 67.8467V62.9517H42.2734V60.8433H43.4834V58.3317H46.0684V60.8433H48.3418V62.9517H46.0684ZM49.5278 65.885C49.5278 64.8583 49.7295 63.9478 50.1328 63.1533C50.5484 62.3589 51.1045 61.7478 51.8012 61.32C52.5101 60.8922 53.2984 60.6783 54.1662 60.6783C54.924 60.6783 55.584 60.8311 56.1462 61.1367C56.7206 61.4422 57.179 61.8272 57.5212 62.2917V60.8433H60.1062V71H57.5212V69.515C57.1912 69.9917 56.7328 70.3889 56.1462 70.7067C55.5717 71.0122 54.9056 71.165 54.1478 71.165C53.2923 71.165 52.5101 70.945 51.8012 70.505C51.1045 70.065 50.5484 69.4478 50.1328 68.6533C49.7295 67.8467 49.5278 66.9239 49.5278 65.885ZM57.5212 65.9217C57.5212 65.2983 57.399 64.7667 57.1545 64.3267C56.9101 63.8744 56.5801 63.5322 56.1645 63.3C55.749 63.0556 55.3028 62.9333 54.8262 62.9333C54.3495 62.9333 53.9095 63.0494 53.5062 63.2817C53.1028 63.5139 52.7728 63.8561 52.5162 64.3083C52.2717 64.7483 52.1495 65.2739 52.1495 65.885C52.1495 66.4961 52.2717 67.0339 52.5162 67.4983C52.7728 67.9506 53.1028 68.2989 53.5062 68.5433C53.9217 68.7878 54.3617 68.91 54.8262 68.91C55.3028 68.91 55.749 68.7939 56.1645 68.5617C56.5801 68.3172 56.9101 67.975 57.1545 67.535C57.399 67.0828 57.5212 66.545 57.5212 65.9217ZM65.1796 57.4333V71H62.613V57.4333H65.1796Z" fill="#ED2224"/>
</svg>
