<svg width="107" height="107" viewBox="0 0 107 107" fill="none" xmlns="http://www.w3.org/2000/svg">
<path d="M15.1447 61.6557L15.0299 62.4062L15.5668 62.943L56.1845 103.561L57.2452 104.621L58.3058 103.561L103.561 58.3059L104.621 57.2452L103.561 56.1846L62.4429 15.0668L61.8964 14.5203L61.1341 14.6481L22.3793 21.1481L21.3087 21.3277L21.1447 22.4008L15.1447 61.6557Z" fill="#ED2224" stroke="#E9E9EA" stroke-width="3"/>
<path d="M43.8783 28.6967C45.125 28.6967 46.1272 29.0817 46.885 29.8517C47.655 30.6094 48.04 31.6728 48.04 33.0417V39H45.4733V33.39C45.4733 32.5956 45.2717 31.9906 44.8683 31.575C44.465 31.1472 43.915 30.9333 43.2183 30.9333C42.5217 30.9333 41.9656 31.1472 41.55 31.575C41.1467 31.9906 40.945 32.5956 40.945 33.39V39H38.3783V33.39C38.3783 32.5956 38.1767 31.9906 37.7733 31.575C37.37 31.1472 36.82 30.9333 36.1233 30.9333C35.4144 30.9333 34.8522 31.1472 34.4367 31.575C34.0333 31.9906 33.8317 32.5956 33.8317 33.39V39H31.265V28.8433H33.8317V30.0717C34.1617 29.6439 34.5833 29.3078 35.0967 29.0633C35.6222 28.8189 36.1967 28.6967 36.82 28.6967C37.6144 28.6967 38.3233 28.8678 38.9467 29.21C39.57 29.54 40.0528 30.0167 40.395 30.64C40.725 30.0533 41.2017 29.5828 41.825 29.2283C42.4606 28.8739 43.145 28.6967 43.8783 28.6967ZM60.1923 28.8433L53.9039 43.8033H51.1723L53.3723 38.7433L49.3023 28.8433H52.1806L54.8023 35.9383L57.4606 28.8433H60.1923ZM36.985 44.6967C37.755 44.6967 38.4394 44.8678 39.0383 45.21C39.6372 45.54 40.1017 46.035 40.4317 46.695C40.7739 47.3428 40.945 48.125 40.945 49.0417V55H38.3783V49.39C38.3783 48.5833 38.1767 47.9661 37.7733 47.5383C37.37 47.0983 36.82 46.8783 36.1233 46.8783C35.4144 46.8783 34.8522 47.0983 34.4367 47.5383C34.0333 47.9661 33.8317 48.5833 33.8317 49.39V55H31.265V41.4333H33.8317V46.1083C34.1617 45.6683 34.6017 45.3261 35.1517 45.0817C35.7017 44.825 36.3128 44.6967 36.985 44.6967ZM47.8958 55.165C46.918 55.165 46.038 54.9511 45.2558 54.5233C44.4735 54.0833 43.8563 53.4661 43.4041 52.6717C42.9641 51.8772 42.7441 50.9606 42.7441 49.9217C42.7441 48.8828 42.9702 47.9661 43.4224 47.1717C43.8869 46.3772 44.5163 45.7661 45.3108 45.3383C46.1052 44.8983 46.9913 44.6783 47.9691 44.6783C48.9469 44.6783 49.833 44.8983 50.6274 45.3383C51.4219 45.7661 52.0452 46.3772 52.4974 47.1717C52.9619 47.9661 53.1941 48.8828 53.1941 49.9217C53.1941 50.9606 52.9558 51.8772 52.4791 52.6717C52.0147 53.4661 51.3791 54.0833 50.5724 54.5233C49.778 54.9511 48.8858 55.165 47.8958 55.165ZM47.8958 52.9283C48.3602 52.9283 48.7941 52.8183 49.1974 52.5983C49.613 52.3661 49.943 52.0239 50.1874 51.5717C50.4319 51.1194 50.5541 50.5694 50.5541 49.9217C50.5541 48.9561 50.2974 48.2167 49.7841 47.7033C49.283 47.1778 48.6658 46.915 47.9324 46.915C47.1991 46.915 46.5819 47.1778 46.0808 47.7033C45.5919 48.2167 45.3474 48.9561 45.3474 49.9217C45.3474 50.8872 45.5858 51.6328 46.0624 52.1583C46.5513 52.6717 47.1624 52.9283 47.8958 52.9283ZM67.6902 44.6967C68.9368 44.6967 69.9391 45.0817 70.6968 45.8517C71.4668 46.6094 71.8518 47.6728 71.8518 49.0417V55H69.2852V49.39C69.2852 48.5956 69.0835 47.9906 68.6802 47.575C68.2768 47.1472 67.7268 46.9333 67.0302 46.9333C66.3335 46.9333 65.7774 47.1472 65.3618 47.575C64.9585 47.9906 64.7568 48.5956 64.7568 49.39V55H62.1902V49.39C62.1902 48.5956 61.9885 47.9906 61.5852 47.575C61.1818 47.1472 60.6318 46.9333 59.9352 46.9333C59.2263 46.9333 58.6641 47.1472 58.2485 47.575C57.8452 47.9906 57.6435 48.5956 57.6435 49.39V55H55.0768V44.8433H57.6435V46.0717C57.9735 45.6439 58.3952 45.3078 58.9085 45.0633C59.4341 44.8189 60.0085 44.6967 60.6318 44.6967C61.4263 44.6967 62.1352 44.8678 62.7585 45.21C63.3818 45.54 63.8646 46.0167 64.2068 46.64C64.5368 46.0533 65.0135 45.5828 65.6368 45.2283C66.2724 44.8739 66.9568 44.6967 67.6902 44.6967ZM83.7291 49.7017C83.7291 50.0683 83.7047 50.3983 83.6558 50.6917H76.2308C76.2919 51.425 76.5486 51.9994 77.0008 52.415C77.453 52.8306 78.0091 53.0383 78.6691 53.0383C79.6225 53.0383 80.3008 52.6289 80.7041 51.81H83.4725C83.1791 52.7878 82.6169 53.5944 81.7858 54.23C80.9547 54.8533 79.9341 55.165 78.7241 55.165C77.7463 55.165 76.8663 54.9511 76.0841 54.5233C75.3141 54.0833 74.7091 53.4661 74.2691 52.6717C73.8413 51.8772 73.6275 50.9606 73.6275 49.9217C73.6275 48.8706 73.8413 47.9478 74.2691 47.1533C74.6969 46.3589 75.2958 45.7478 76.0658 45.32C76.8358 44.8922 77.7219 44.6783 78.7241 44.6783C79.6897 44.6783 80.5513 44.8861 81.3091 45.3017C82.0791 45.7172 82.6719 46.31 83.0875 47.08C83.5152 47.8378 83.7291 48.7117 83.7291 49.7017ZM81.0708 48.9683C81.0586 48.3083 80.8202 47.7828 80.3558 47.3917C79.8913 46.9883 79.323 46.7867 78.6508 46.7867C78.0152 46.7867 77.4775 46.9822 77.0375 47.3733C76.6097 47.7522 76.3469 48.2839 76.2491 48.9683H81.0708ZM40.7067 65.7017C40.7067 66.0683 40.6822 66.3983 40.6333 66.6917H33.2083C33.2694 67.425 33.5261 67.9994 33.9783 68.415C34.4306 68.8306 34.9867 69.0383 35.6467 69.0383C36.6 69.0383 37.2783 68.6289 37.6817 67.81H40.45C40.1567 68.7878 39.5944 69.5944 38.7633 70.23C37.9322 70.8533 36.9117 71.165 35.7017 71.165C34.7239 71.165 33.8439 70.9511 33.0617 70.5233C32.2917 70.0833 31.6867 69.4661 31.2467 68.6717C30.8189 67.8772 30.605 66.9606 30.605 65.9217C30.605 64.8706 30.8189 63.9478 31.2467 63.1533C31.6744 62.3589 32.2733 61.7478 33.0433 61.32C33.8133 60.8922 34.6994 60.6783 35.7017 60.6783C36.6672 60.6783 37.5289 60.8861 38.2867 61.3017C39.0567 61.7172 39.6494 62.31 40.065 63.08C40.4928 63.8378 40.7067 64.7117 40.7067 65.7017ZM38.0483 64.9683C38.0361 64.3083 37.7978 63.7828 37.3333 63.3917C36.8689 62.9883 36.3006 62.7867 35.6283 62.7867C34.9928 62.7867 34.455 62.9822 34.015 63.3733C33.5872 63.7522 33.3244 64.2839 33.2267 64.9683H38.0483ZM45.5684 62.9517V67.865C45.5684 68.2072 45.6479 68.4578 45.8068 68.6167C45.9779 68.7633 46.259 68.8367 46.6501 68.8367H47.8418V71H46.2284C44.0651 71 42.9834 69.9489 42.9834 67.8467V62.9517H41.7734V60.8433H42.9834V58.3317H45.5684V60.8433H47.8418V62.9517H45.5684ZM49.0278 65.885C49.0278 64.8583 49.2295 63.9478 49.6328 63.1533C50.0484 62.3589 50.6045 61.7478 51.3012 61.32C52.0101 60.8922 52.7984 60.6783 53.6662 60.6783C54.424 60.6783 55.084 60.8311 55.6462 61.1367C56.2206 61.4422 56.679 61.8272 57.0212 62.2917V60.8433H59.6062V71H57.0212V69.515C56.6912 69.9917 56.2328 70.3889 55.6462 70.7067C55.0717 71.0122 54.4056 71.165 53.6478 71.165C52.7923 71.165 52.0101 70.945 51.3012 70.505C50.6045 70.065 50.0484 69.4478 49.6328 68.6533C49.2295 67.8467 49.0278 66.9239 49.0278 65.885ZM57.0212 65.9217C57.0212 65.2983 56.899 64.7667 56.6545 64.3267C56.4101 63.8744 56.0801 63.5322 55.6645 63.3C55.249 63.0556 54.8028 62.9333 54.3262 62.9333C53.8495 62.9333 53.4095 63.0494 53.0062 63.2817C52.6028 63.5139 52.2728 63.8561 52.0162 64.3083C51.7717 64.7483 51.6495 65.2739 51.6495 65.885C51.6495 66.4961 51.7717 67.0339 52.0162 67.4983C52.2728 67.9506 52.6028 68.2989 53.0062 68.5433C53.4217 68.7878 53.8617 68.91 54.3262 68.91C54.8028 68.91 55.249 68.7939 55.6645 68.5617C56.0801 68.3172 56.4101 67.975 56.6545 67.535C56.899 67.0828 57.0212 66.545 57.0212 65.9217ZM64.6796 57.4333V71H62.113V57.4333H64.6796Z" fill="white"/>
</svg>
