<svg width="15" height="15" viewBox="0 0 15 15" fill="none" xmlns="http://www.w3.org/2000/svg">
<path d="M5.88439 14.5383C4.83101 14.5383 3.85028 14.2814 2.94219 13.7676C2.05227 13.2537 1.33488 12.5538 0.790033 11.6679C0.263344 10.7819 0 9.81626 0 8.77085C0 7.72543 0.263344 6.77747 0.790033 5.92697C1.33488 5.05874 2.05227 4.36771 2.94219 3.85386C3.85028 3.34001 4.83101 3.08309 5.88439 3.08309C6.4474 3.08309 6.98317 3.15396 7.49169 3.29571C8.00022 3.41975 8.49059 3.63237 8.96279 3.93359L10.4884 2.25916L7.35548 0.744193L14.3023 0L14.3296 6.75089L12.4226 3.90701L10.8153 5.68776C11.1422 6.13073 11.3874 6.618 11.5508 7.14957C11.7143 7.66342 11.796 8.20384 11.796 8.77085C11.796 9.81626 11.5236 10.7819 10.9787 11.6679C10.4521 12.5538 9.73466 13.2537 8.82658 13.7676C7.93666 14.2814 6.95593 14.5383 5.88439 14.5383ZM5.88439 12.1463C6.52005 12.1463 7.10122 11.9957 7.62791 11.6945C8.1546 11.3932 8.57232 10.9857 8.88106 10.4719C9.20797 9.95801 9.37143 9.39101 9.37143 8.77085C9.37143 8.16841 9.20797 7.61912 8.88106 7.12299C8.57232 6.62686 8.1546 6.22819 7.62791 5.92697C7.10122 5.62575 6.52005 5.47514 5.88439 5.47514C5.26689 5.47514 4.6948 5.62575 4.16811 5.92697C3.64142 6.22819 3.21462 6.62686 2.88771 7.12299C2.57896 7.61912 2.42459 8.16841 2.42459 8.77085C2.42459 9.39101 2.57896 9.95801 2.88771 10.4719C3.21462 10.9857 3.64142 11.3932 4.16811 11.6945C4.6948 11.9957 5.26689 12.1463 5.88439 12.1463Z" fill="black"/>
</svg>
