<svg width="577" height="308" viewBox="0 0 577 308" fill="none" xmlns="http://www.w3.org/2000/svg">
<path d="M99.608 315.84L110.238 316.1L109.868 311.04L114.078 311.17L112.558 311.14L95.058 30.8801L87.918 29.3301L95.628 206.6L95.958 215.82L97.038 245.34L99.408 310.57L99.418 310.75L99.438 311.2L99.468 312.15L99.478 312.4L99.608 315.84Z" fill="url(#paint0_linear_5003_9934)"/>
<path d="M141.646 0L141.426 3.82999L96.0262 30.46L95.0662 31.02L90.9062 33L89.9762 33.44L88.9562 31.41L88.8862 31.27L88.4762 30.46L87.9062 29.33L98.8162 20.63L112.136 10L124.656 0H141.646Z" fill="url(#paint1_linear_5003_9934)"/>
<path d="M141.428 3.83008L96.028 30.4601L95.068 31.0201L90.858 31.2901L88.958 31.4101L88.668 31.4401L88.888 31.2701L89.958 30.4601L90.648 29.9301L101.298 21.7901L106.228 18.0301L112.138 13.5101L115.638 10.8401L124.448 4.11008L125.068 4.10008L141.428 3.83008Z" fill="url(#paint2_linear_5003_9934)"/>
<path d="M137.348 5.08984L125.928 5.43984L103.848 21.7998L109.538 21.4698L137.348 5.08984Z" fill="url(#paint3_linear_5003_9934)"/>
<path d="M88.957 31.4095L102.777 309.75L112.557 311.14L95.067 31.0195L88.957 31.4095Z" fill="url(#paint4_linear_5003_9934)"/>
<path d="M131.038 317.47L80.3281 316.21L81.1981 308.73C81.1981 308.73 81.9481 308.65 83.1381 308.52C84.0781 308.42 85.3181 308.29 86.6881 308.15C87.7881 308.03 88.9981 307.9 90.2081 307.78C90.6381 307.73 91.0581 307.69 91.4681 307.64L91.8881 307.6C94.8981 307.29 97.7581 307.01 99.1681 306.92C99.3181 306.92 99.5281 306.9 99.7781 306.9H99.9281C101.618 306.9 105.068 307.08 109.338 307.36C111.088 307.47 112.998 307.61 114.968 307.75C115.888 307.82 116.828 307.89 117.768 307.96C129.428 308.81 128.098 308.82 128.098 308.82L131.028 317.48L131.038 317.47Z" fill="url(#paint5_linear_5003_9934)"/>
<path d="M99.7998 306.891L99.6798 308.091L98.8098 316.901L80.3398 316.201L81.2098 308.721C81.2098 308.721 81.9598 308.641 83.1498 308.511C84.0898 308.411 85.3298 308.281 86.6998 308.141C87.7998 308.021 89.0098 307.891 90.2198 307.771C90.6498 307.721 91.0698 307.681 91.4798 307.631L91.8998 307.591C94.9098 307.281 97.7698 307.001 99.1798 306.911C99.3298 306.911 99.5398 306.891 99.7898 306.891H99.7998Z" fill="url(#paint6_linear_5003_9934)"/>
<g style="mix-blend-mode:screen" opacity="0.56">
<path d="M113.579 307.761L128.109 308.811L100.059 308.111L99.7291 308.091H99.6791L90.2191 307.771L90.0391 307.761L91.4791 307.631L91.8991 307.591L99.7991 306.891L99.9491 306.901L109.379 307.551L114.999 307.941L117.809 308.131L113.579 307.761Z" fill="url(#paint7_linear_5003_9934)"/>
</g>
<path d="M100.557 306.88L112.427 307.46L106.517 213.43L106.327 210.37L105.247 193.15L102.207 144.75L95.067 31.0195L88.957 31.4095L94.197 152.43L96.037 196.97L100.557 306.88Z" fill="url(#paint8_linear_5003_9934)"/>
<path d="M141.646 0L141.426 3.82999L124.816 4.05L124.656 0H141.646Z" fill="url(#paint9_linear_5003_9934)"/>
<g style="mix-blend-mode:screen" opacity="0.32">
<path d="M106.33 210.371L97.25 221.481L97.67 222.751L106.52 213.431L106.33 210.371Z" fill="url(#paint10_linear_5003_9934)"/>
</g>
<g style="mix-blend-mode:screen" opacity="0.32">
<path d="M96.447 205.74L105.247 193.15L102.217 144.75C98.597 148.19 95.137 151.53 94.207 152.43C94.047 152.59 93.957 152.68 93.957 152.68L96.047 196.97L96.467 205.75L96.447 205.74Z" fill="url(#paint11_linear_5003_9934)"/>
</g>
<path d="M112.136 10L111.046 13.88L98.8164 22.47V20.63L112.136 10Z" fill="url(#paint12_linear_5003_9934)"/>
<path d="M141.428 3.83047L95.058 30.8805L88.668 31.4405L124.598 3.73047L141.428 3.83047Z" fill="white"/>
<path d="M386.348 75.9294L385.738 81.0294L379.628 82.9794L369.428 82.2194L330.628 100.669L293.478 89.1094L292.878 89.0294L287.708 88.3294L287.328 86.1794L328.798 73.8594H328.888L386.348 75.9294Z" fill="#5D0001"/>
<path d="M379.647 82.2396L379.627 82.9796L379.557 85.4296L373.947 168.73L330.707 172.28L297.247 175.02L292.877 89.0296L292.797 87.7396L329.857 78.8496L379.647 82.2396Z" fill="#5D0001"/>
<g style="mix-blend-mode:multiply" opacity="0.52">
<path d="M385.738 81.0294L379.628 82.9794L379.558 85.4294L379.418 85.5194L330.218 84.5394L330.628 100.669L330.708 172.279V174.519L297.378 178.299L292.878 89.0294L287.708 88.3294L287.328 86.1794L328.798 73.8594H328.888L328.798 77.1594L385.738 81.0294Z" fill="#5D0001"/>
</g>
<g style="mix-blend-mode:multiply" opacity="0.52">
<path d="M332.588 172.75L296.938 178.2L330.708 174.52L373.948 168.73L332.588 172.75Z" fill="#5D0001"/>
</g>
<g style="mix-blend-mode:multiply" opacity="0.52">
<path d="M373.839 92.8998L371.009 150.91L337.339 151.76L336.889 95.9498L336.859 91.3398L373.839 92.8998Z" fill="#7E0064"/>
</g>
<path d="M361.631 151.459L357.601 151.729L337.341 151.759L336.891 95.9492L355.711 96.6692L357.171 96.7292L362.661 97.3492L361.631 151.459Z" fill="#C16540"/>
<g style="mix-blend-mode:multiply" opacity="0.52">
<path d="M356.559 151.199L352.699 151.309L353.429 125.239L354.109 101.059L354.229 96.6691L354.939 96.6291L356.409 96.5391V96.6891L356.419 101.059L356.489 125.239L356.559 151.199Z" fill="#7E0064"/>
</g>
<path d="M357.28 151.18L353.43 151.29L354.18 125.25L354.87 101.1L355 96.7198L355.71 96.6698L357.17 96.5898V96.7298L357.18 101.1L357.23 125.25L357.28 151.18Z" fill="#CC724A"/>
<g style="mix-blend-mode:multiply" opacity="0.52">
<path d="M337.251 104.879L352.481 105.649L353.131 151.869L361.631 151.459L362.661 97.3492L336.891 95.9492L337.251 104.879Z" fill="#7E0064"/>
</g>
<g style="mix-blend-mode:multiply" opacity="0.52">
<path d="M337.249 104.88L362.259 105.49L362.659 97.3499L373.839 92.8998L336.859 91.3398L337.249 104.88Z" fill="#7E0064"/>
</g>
<path d="M576.979 118.501L576.479 123.651L569.509 125.401L562.949 126.341L551.509 126.751L543.719 127.031L320.439 146.201L211.729 145.611L211.099 145.491L205.739 144.461L204.809 140.301L318.739 111.191H318.819L349.249 112.781L356.909 113.181L363.529 113.531L364.959 113.601L565.819 117.911L572.139 118.241L576.979 118.501Z" fill="#5D0001"/>
<path d="M569.519 124.722L569.509 125.402L569.479 127.652L573.019 322.962H219.879L211.099 145.492L211.039 144.232L320.609 123.422L569.519 124.722Z" fill="#5D0001"/>
<g style="mix-blend-mode:multiply" opacity="0.52">
<path d="M280.87 306.902L302.37 307.312L302.58 295.672L302.6 294.872L303.12 190.322V190.292L303.18 187.022L303.19 186.692V186.752L303.25 183.162L277.25 187.572L280.87 306.902Z" fill="#5D0001"/>
</g>
<path d="M289.721 307.202L302.371 307.311L302.581 295.672L302.601 294.871L303.121 190.322V190.292L303.181 187.021L286.121 189.931L289.721 307.202Z" fill="#5D0001"/>
<path d="M290.939 307.243L302.369 307.313L302.579 295.673L302.599 294.873L303.119 190.323V190.293V190.323L287.629 193.203L290.939 307.243Z" fill="#5D0001"/>
<path opacity="0.4" d="M302.578 295.671L302.598 294.871L303.118 190.321V190.291L303.178 187.021L303.188 186.691V186.751L303.178 187.021V187.051L303.118 190.321L302.738 287.171L302.598 294.871L302.578 295.671Z" fill="#5D0001"/>
<path opacity="0.4" d="M290.191 295.181L290.221 295.611L302.581 295.671L302.601 294.871L290.191 295.181Z" fill="#5D0001"/>
<path opacity="0.4" d="M289.73 261.301L289.76 261.761L302.8 261.831L302.82 260.961L289.73 261.301Z" fill="#5D0001"/>
<path opacity="0.4" d="M287.648 218.051L287.688 218.511L303.058 218.561L303.068 217.691L287.648 218.051Z" fill="#5D0001"/>
<g style="mix-blend-mode:multiply" opacity="0.52">
<path d="M277.25 187.572L286.13 189.512V197.702L302.97 195.852L303.25 183.162L277.25 187.572Z" fill="#5D0001"/>
</g>
<g style="mix-blend-mode:multiply" opacity="0.52">
<path d="M576.479 123.651L569.509 125.401L569.479 127.651L569.349 127.721L320.959 128.841L320.439 146.191L320.279 322.961H219.879L211.099 145.491L205.739 144.461L204.809 140.301L318.739 111.191H318.829L319.579 121.751L576.479 123.651Z" fill="#5D0001"/>
</g>
<g style="mix-blend-mode:multiply" opacity="0.2">
<path d="M349.247 112.781L356.907 113.181L356.827 121.921H348.867L349.247 112.781Z" fill="#5D0001"/>
</g>
<g style="mix-blend-mode:multiply" opacity="0.2">
<path d="M363.529 113.531L364.959 113.601L363.919 122.091L363.059 121.921L363.529 113.531Z" fill="#5D0001"/>
</g>
<g style="mix-blend-mode:multiply" opacity="0.2">
<path d="M572.138 118.242L571.408 122.962H565.348L565.818 117.912L572.138 118.242Z" fill="#5D0001"/>
</g>
<g style="mix-blend-mode:multiply" opacity="0.18">
<path d="M277.611 323.441V323.471L251.641 322.811V322.721L253.691 145.071L256.511 144.871L254.671 232.351L255.781 248.421L257.271 238.041L258.121 217.641L276.981 213.011L277.611 323.441Z" fill="#C04672"/>
</g>
<g style="mix-blend-mode:multiply" opacity="0.18">
<path d="M311.929 323.741V323.781L310.899 323.751L304.469 323.591L308.749 236.221L309.369 236.251H309.429L309.909 236.281L311.929 323.741Z" fill="#C04672"/>
</g>
<path d="M242.02 175.84L241.33 182.42L235.78 183.22L229.22 184.15L209.99 184.84L181.27 186.72L45.86 195.57L6.91998 185.01L6.28998 184.88L0.919983 183.86L0 179.7L43.75 166.67L43.83 166.68L181.02 173.02L242.02 175.84Z" fill="#5D0001"/>
<path d="M235.78 182.53V183.22L235.75 185.46L234.88 244.09L234.81 248.64L234.56 265.61L233.71 323.02H16.5905L6.29047 184.88L6.23047 183.63L45.1305 174.75L181.15 180.3L235.78 182.53Z" fill="#5D0001"/>
<g style="mix-blend-mode:multiply" opacity="0.52">
<path d="M241.32 182.42L235.75 185.46L235.61 185.53L209.98 184.85L45.47 180.17L45.86 195.57L51.01 323.02H16.59L6.28998 184.88L0.919983 183.85L0 179.7L43.74 166.68H43.83L44.09 173.08L241.32 182.42Z" fill="#5D0001"/>
</g>
<g style="mix-blend-mode:multiply" opacity="0.22">
<path d="M45.5195 214.691L55.4495 214.791L59.6095 323.761L51.5295 322.811L45.5195 214.691Z" fill="#C04672"/>
</g>
<g style="mix-blend-mode:multiply" opacity="0.22">
<path d="M14.0391 220.19L31.5291 215.23L28.8791 290.95L14.4891 294.44L14.0391 220.19Z" fill="#C04672"/>
</g>
<g style="mix-blend-mode:multiply" opacity="0.22">
<path d="M124.17 241.061L124 231.141L152.63 232.581L151.91 240.681L124.17 241.061Z" fill="#C04672"/>
</g>
<g style="mix-blend-mode:multiply" opacity="0.22">
<path d="M159.531 242.43L159.371 232.5L165.511 233.61L164.781 241.71L159.531 242.43Z" fill="#C04672"/>
</g>
<g style="mix-blend-mode:multiply" opacity="0.22">
<path d="M535.601 207.77L535.391 197.85L557.771 199.53L557.271 207.62L535.601 207.77Z" fill="#C04672"/>
</g>
<g style="mix-blend-mode:multiply" opacity="0.22">
<path d="M347.87 314.931L347.37 323.021L325.69 323.171L325.48 313.251L328.08 313.441C328 298.621 327.76 256.801 327.76 256.801L328.45 256.631L331.14 313.671L347.86 314.921L347.87 314.931Z" fill="#C04672"/>
</g>
<g style="mix-blend-mode:multiply" opacity="0.22">
<path d="M565.891 208.77L568.641 152.48L570.021 152.02L569.981 208.1L565.891 208.77Z" fill="#C04672"/>
</g>
<g style="mix-blend-mode:multiply" opacity="0.22">
<path d="M52.5391 195.391L53.8091 189.721L92.7691 190.841L92.3591 193.641L52.5391 195.391Z" fill="#C04672"/>
</g>
<g style="mix-blend-mode:multiply" opacity="0.22">
<path d="M189.6 180.41L189.34 263.51L192.23 180.41H189.6Z" fill="#C04672"/>
</g>
<g style="mix-blend-mode:multiply" opacity="0.52">
<path d="M451.19 286.754C450.845 301.7 450.532 315.227 450.328 322.797H488.861L495.189 322.895H495.879L512.278 323.02L512.686 309.382L514.957 229L452.568 229.237C452.537 230.155 452.505 231.129 452.505 232.159C452.474 232.869 452.443 233.62 452.443 234.386C452.349 238.143 452.239 242.374 452.13 246.841C451.848 259.115 451.503 273.505 451.174 286.754H451.19Z" fill="#7E0064"/>
</g>
<g style="mix-blend-mode:multiply" opacity="0.52">
<path d="M451.19 286.754C450.845 301.7 450.532 315.227 450.328 322.797H488.861L495.189 322.895H495.879L512.278 323.02L512.686 309.382L514.957 229L452.568 229.237C452.537 230.155 452.505 231.129 452.505 232.159C452.474 232.869 452.443 233.62 452.443 234.386C452.349 238.143 452.239 242.374 452.13 246.841C451.848 259.115 451.503 273.505 451.174 286.754H451.19Z" fill="#7E0064"/>
</g>
<path d="M451.19 286.753C450.845 301.699 450.532 315.226 450.328 322.797H488.861L495.189 322.894H495.879L496.16 309.284L497.257 261.341L497.915 231.922L452.505 232.158C452.474 232.868 452.443 233.62 452.443 234.385C452.349 238.143 452.239 242.373 452.13 246.84C451.848 259.115 451.503 273.504 451.174 286.753H451.19Z" fill="white"/>
<g style="mix-blend-mode:multiply" opacity="0.5">
<path d="M514.96 229.014L497.511 244.558L452.18 245.31L452.571 229.236L514.96 229.014Z" fill="#98256B"/>
</g>
<g style="mix-blend-mode:multiply" opacity="0.52">
<path d="M454.475 286.754C454.816 301.7 455.126 315.227 455.328 322.797H417.171L410.905 322.895H410.222L393.982 323.02L393.579 309.382L391.33 229L453.11 229.237C453.141 230.155 453.172 231.129 453.172 232.159C453.203 232.869 453.234 233.62 453.234 234.386C453.327 238.143 453.436 242.374 453.544 246.841C453.824 259.115 454.165 273.505 454.491 286.754H454.475Z" fill="#7E0064"/>
</g>
<g style="mix-blend-mode:multiply" opacity="0.52">
<path d="M454.475 286.754C454.816 301.7 455.126 315.227 455.328 322.797H417.171L410.905 322.895H410.222L393.982 323.02L393.579 309.382L391.33 229L453.11 229.237C453.141 230.155 453.172 231.129 453.172 232.159C453.203 232.869 453.234 233.62 453.234 234.386C453.327 238.143 453.436 242.374 453.544 246.841C453.824 259.115 454.165 273.505 454.491 286.754H454.475Z" fill="#7E0064"/>
</g>
<path d="M454.475 286.753C454.816 301.699 455.126 315.226 455.328 322.797H417.171L410.905 322.894H410.222L409.943 309.284L408.857 261.341L408.206 231.922L453.172 232.158C453.203 232.868 453.234 233.62 453.234 234.385C453.327 238.143 453.436 242.373 453.544 246.84C453.824 259.115 454.165 273.504 454.491 286.753H454.475Z" fill="white"/>
<path d="M449 232.078L453 356L451.684 232L449 232.078Z" fill="black"/>
<g style="mix-blend-mode:multiply" opacity="0.5">
<path d="M391.328 229.014L408.607 244.558L453.496 245.31L453.108 229.236L391.328 229.014Z" fill="#98256B"/>
</g>
<path d="M226.281 53.5903L227.521 58.9503L231.751 58.6403L235.261 60.5703L250.191 58.7803L250.851 58.4603L253.451 57.1803L256.581 56.1103L258.721 55.3803L262.301 54.1603L261.841 54.0603L250.021 51.5803L249.591 45.0703L226.281 53.5903Z" fill="#3D3D3D"/>
<path d="M271.312 263.69L268.162 264.98L267.962 265.06L266.622 265.61L266.582 264.72L263.392 189.92L263.352 188.99V188.76L252.022 145.19L245.852 142.7L250.802 52.8398L256.862 54.1698L261.832 128.59L261.602 136.06L268.502 138.56L269.502 186.63L269.562 189.35L271.312 263.69Z" fill="#3D3D3D"/>
<path d="M245.343 189.89L247.183 266.56L268.183 271.84L265.403 188.82L263.513 143.47L256.543 138.82L250.853 58.4599L250.823 55.3898L250.803 52.8398L231.763 57.6599L231.753 58.6398L231.723 60.3298L237.253 145.8L243.893 149.07L245.343 189.89Z" fill="#3D3D3D"/>
<path d="M262.05 48.7901L262.3 54.1601L250.03 51.5901L249.59 45.0801L262.05 48.7901Z" fill="#3D3D3D"/>
<g style="mix-blend-mode:multiply" opacity="0.5">
<path d="M231.75 58.6401L231.72 60.3301H231.84L250.82 55.3901L250.94 55.3201L256.58 56.1101L256.89 56.1601L258.72 55.3801L261.84 54.0601L262.17 53.9201L250.02 51.5801L227.52 58.9501L231.75 58.6401Z" fill="#3D3D3D"/>
</g>
<g style="mix-blend-mode:multiply" opacity="0.5">
<path d="M237.25 145.8L256.54 138.82L263.51 143.46L243.9 149.07L237.25 145.8Z" fill="#3D3D3D"/>
</g>
<g style="mix-blend-mode:multiply" opacity="0.35">
<path d="M269.27 188.93L245.34 189.89L245.38 191.41L269.29 189.85L269.27 188.93Z" fill="#3D3D3D"/>
</g>
<g style="mix-blend-mode:multiply" opacity="0.15">
<path d="M268.503 138.561L263.513 143.461L256.543 138.821L261.603 136.061L268.503 138.561Z" fill="#3D3D3D"/>
</g>
<g style="mix-blend-mode:multiply" opacity="0.15">
<path d="M271.512 266.36L268.822 266.44L268.012 266.46L249.902 268.12H249.892L248.352 268.17L246.572 268.23L245.372 191.4V190.94L245.352 189.89L263.352 188.99L265.202 189.1L265.412 189.11L269.282 189.33L269.562 189.35L271.312 263.69L271.512 266.36Z" fill="#3D3D3D"/>
</g>
<path d="M253.03 274.64L247.18 266.56L268.01 264.66L272.08 273.55L253.03 274.64Z" fill="#3D3D3D"/>
<path d="M272.072 273.541L268.822 266.441L268.162 264.981L268.012 264.661L271.312 263.691L271.512 266.361L271.552 266.751L272.072 273.541Z" fill="#3D3D3D"/>
<path d="M274.261 273.541H272.071L270.121 266.461L271.551 266.751L273.431 267.141L274.261 273.541Z" fill="#3D3D3D"/>
<g style="mix-blend-mode:multiply" opacity="0.35">
<path d="M274.263 273.54H272.073L268.823 266.44L268.163 264.98L268.013 264.66L267.353 246.88V246.81L265.233 189.9L265.203 189.1L265.193 188.81L263.503 143.46L256.543 138.82L256.563 132.09L261.683 128.48L261.833 128.59L261.603 136.06L268.503 138.56L269.503 186.63L269.563 189.35L271.313 263.69L271.513 266.36L271.553 266.75L273.433 267.14L274.263 273.54Z" fill="#3D3D3D"/>
</g>
<path d="M388.367 143.01L369.797 146.5L370.667 189.86L502.187 191.89L531.157 190.06L388.367 143.01Z" fill="#CC512B"/>
<path d="M533.327 149.86L531.157 190.06L388.637 186.69L388.367 143.01L533.327 149.86Z" fill="#ED2224"/>
<path d="M393.089 146.881L527.009 153.161L524.959 186.411L527.279 186.451L529.359 152.611L393.059 146.301L393.089 146.881Z" fill="#CC512B"/>
<g style="mix-blend-mode:multiply" opacity="0.5">
<path d="M527.229 157.281C472.909 154.881 393.579 150.051 393.579 150.051L393.059 146.301L529.359 152.611L527.229 157.281Z" fill="#98256B"/>
</g>
<g style="mix-blend-mode:multiply" opacity="0.52">
<path d="M355.569 156.22C355.119 156.37 369.809 146.5 369.809 146.5L388.379 143L388.649 186.69L531.169 190.06L502.199 191.89L486.759 219.68H356.599L355.579 156.22H355.569Z" fill="#7E0064"/>
</g>
<g style="mix-blend-mode:multiply" opacity="0.52">
<path d="M66.6375 220L51.5 234.984L52.6668 282.67L97.0207 283.872L121.114 284.623L184.5 286.216L181.88 253.624L66.6375 220Z" fill="black"/>
</g>
<path d="M242.411 248.68L234.811 248.64L220.031 248.54L216.521 248.51L208.111 248.46L183.071 248.3L169.081 248.21L146.311 248.06L135.461 247.99L119.341 247.89L107.521 247.81L87.5514 247.69L87.4714 247.68L67.1914 220.32L87.1014 220.7L91.8914 220.79L112.691 221.17L117.401 221.25L140.911 221.7L149.651 221.87L172.331 222.29H172.351L179.731 222.42H179.761L182.181 222.47L199.981 222.8L234.881 244.09L242.411 248.68Z" fill="url(#paint13_linear_5003_9934)"/>
<path d="M87.4727 247.68L87.9126 258.83H87.9926L108.023 259.76L121.203 260.36L137.603 261.13L147.673 261.59L171.203 262.67L185.603 263.36L212.213 264.58L221.793 265.02L243.913 266.04L242.413 248.68L220.033 248.54L208.113 248.46L183.073 248.3L169.083 248.21L146.313 248.06L135.463 247.99L119.343 247.89L107.513 247.82L87.5526 247.69L87.4727 247.68Z" fill="#ED2224"/>
<path d="M172.352 222.291L208.112 248.461L208.182 248.511L212.222 264.571L221.792 265.021C221.122 259.561 220.252 250.841 220.032 248.541C220.002 248.151 219.972 247.941 219.972 247.941L179.762 222.411H179.742L172.352 222.281V222.291Z" fill="url(#paint14_linear_5003_9934)"/>
<path d="M140.91 221.691L169.02 247.861L169.08 248.211L171.2 262.671L185.6 263.361L183.07 248.301L182.99 247.831L149.65 221.861L140.91 221.691Z" fill="url(#paint15_linear_5003_9934)"/>
<path d="M112.703 221.16L135.463 247.99L136.333 249.02L137.603 261.13L147.673 261.59L146.313 248.06L117.403 221.26L112.703 221.16Z" fill="url(#paint16_linear_5003_9934)"/>
<path d="M107.782 248.169L108.022 259.759L121.202 260.359L119.342 247.889L119.312 247.699L91.9016 220.779L87.1016 220.689L107.512 247.819L107.782 248.169Z" fill="url(#paint17_linear_5003_9934)"/>
<g style="mix-blend-mode:multiply" opacity="0.52">
<path d="M244 266.03H243.896L235.086 265.59L234.285 323H187.113L186.114 263.19V263L221.232 265L219.623 247.912L217.994 247L176 222.31H185.549L185.455 222.23L184.87 186.7L184.757 180.28L184.635 173L242.115 175.82L241.465 182.4L236.235 183.2L236.207 185.44L235.387 244.07L242.483 248.66H242.577L244 266.03Z" fill="black"/>
</g>
<defs>
<linearGradient id="paint0_linear_5003_9934" x1="82.9944" y1="1129.15" x2="356.677" y2="1096.02" gradientUnits="userSpaceOnUse">
<stop/>
<stop offset="0.4" stop-color="#E33536"/>
<stop offset="1"/>
</linearGradient>
<linearGradient id="paint1_linear_5003_9934" x1="77.7918" y1="128.249" x2="180.596" y2="-91.0156" gradientUnits="userSpaceOnUse">
<stop/>
<stop offset="0.4" stop-color="#E33536"/>
<stop offset="1"/>
</linearGradient>
<linearGradient id="paint2_linear_5003_9934" x1="78.738" y1="109.72" x2="154.098" y2="-81.3999" gradientUnits="userSpaceOnUse">
<stop/>
<stop offset="0.4" stop-color="#E33536"/>
<stop offset="1"/>
</linearGradient>
<linearGradient id="paint3_linear_5003_9934" x1="97.5426" y1="69.1761" x2="141.557" y2="-47.934" gradientUnits="userSpaceOnUse">
<stop/>
<stop offset="0.4" stop-color="#E33536"/>
<stop offset="1"/>
</linearGradient>
<linearGradient id="paint4_linear_5003_9934" x1="84.5153" y1="1105.34" x2="331.941" y2="1077.67" gradientUnits="userSpaceOnUse">
<stop/>
<stop offset="0.4" stop-color="#E33536"/>
<stop offset="1"/>
</linearGradient>
<linearGradient id="paint5_linear_5003_9934" x1="70.784" y1="347.477" x2="83.7662" y2="264.895" gradientUnits="userSpaceOnUse">
<stop/>
<stop offset="0.4" stop-color="#E33536"/>
<stop offset="1"/>
</linearGradient>
<linearGradient id="paint6_linear_5003_9934" x1="76.6773" y1="345.281" x2="103.656" y2="275.674" gradientUnits="userSpaceOnUse">
<stop/>
<stop offset="0.4" stop-color="#E33536"/>
<stop offset="1"/>
</linearGradient>
<linearGradient id="paint7_linear_5003_9934" x1="82.8739" y1="314.254" x2="83.4566" y2="298.919" gradientUnits="userSpaceOnUse">
<stop/>
<stop offset="0.4" stop-color="#E33536"/>
<stop offset="1"/>
</linearGradient>
<linearGradient id="paint8_linear_5003_9934" x1="84.5397" y1="1091.22" x2="330.555" y2="1063.5" gradientUnits="userSpaceOnUse">
<stop/>
<stop offset="0.4" stop-color="#E33536"/>
<stop offset="1"/>
</linearGradient>
<linearGradient id="paint9_linear_5003_9934" x1="121.459" y1="15.5326" x2="127.095" y2="-15.8484" gradientUnits="userSpaceOnUse">
<stop/>
<stop offset="0.4" stop-color="#E33536"/>
<stop offset="1"/>
</linearGradient>
<linearGradient id="paint10_linear_5003_9934" x1="95.5053" y1="257.851" x2="145.014" y2="208.65" gradientUnits="userSpaceOnUse">
<stop/>
<stop offset="0.4" stop-color="#E33536"/>
<stop offset="1"/>
</linearGradient>
<linearGradient id="paint11_linear_5003_9934" x1="91.8321" y1="378.698" x2="204.858" y2="350.934" gradientUnits="userSpaceOnUse">
<stop/>
<stop offset="0.4" stop-color="#E33536"/>
<stop offset="1"/>
</linearGradient>
<linearGradient id="paint12_linear_5003_9934" x1="96.3094" y1="57.825" x2="143.289" y2="-8.77519" gradientUnits="userSpaceOnUse">
<stop/>
<stop offset="0.4" stop-color="#E33536"/>
<stop offset="1"/>
</linearGradient>
<linearGradient id="paint13_linear_5003_9934" x1="67.2014" y1="234.5" x2="242.421" y2="234.5" gradientUnits="userSpaceOnUse">
<stop stop-color="#ED2224"/>
<stop offset="1" stop-color="#FF0000"/>
</linearGradient>
<linearGradient id="paint14_linear_5003_9934" x1="221.792" y1="243.661" x2="172.352" y2="243.661" gradientUnits="userSpaceOnUse">
<stop stop-color="#FFE1C7"/>
<stop offset="0.99" stop-color="#FFE6DB"/>
</linearGradient>
<linearGradient id="paint15_linear_5003_9934" x1="185.6" y1="242.531" x2="140.9" y2="242.531" gradientUnits="userSpaceOnUse">
<stop stop-color="#FFE1C7"/>
<stop offset="0.99" stop-color="#FFE6DB"/>
</linearGradient>
<linearGradient id="paint16_linear_5003_9934" x1="147.663" y1="241.38" x2="112.703" y2="241.38" gradientUnits="userSpaceOnUse">
<stop stop-color="#FFE1C7"/>
<stop offset="0.99" stop-color="#FFE6DB"/>
</linearGradient>
<linearGradient id="paint17_linear_5003_9934" x1="121.202" y1="240.529" x2="87.1016" y2="240.529" gradientUnits="userSpaceOnUse">
<stop stop-color="#FFE1C7"/>
<stop offset="0.99" stop-color="#FFE6DB"/>
</linearGradient>
</defs>
</svg>
